<svg width="30" height="30" viewBox="0 0 30 30" fill="none" xmlns="http://www.w3.org/2000/svg">
<rect width="30" height="30" rx="15" fill="white"/>
<path d="M6.46 16H2.67V15.9H2.8C2.97333 15.9 3.12 15.84 3.24 15.72C3.36667 15.5933 3.43333 15.4433 3.44 15.27V9.56C2.74 9.63333 2.21 9.83 1.85 10.15C1.54333 10.4233 1.29667 10.7733 1.11 11.2L1.01 11.16C1.14333 10.44 1.48667 9.9 2.04 9.54C2.6 9.18 3.3 9 4.14 9H6.46C7.71333 9 8.69 9.31 9.39 9.93C10.0967 10.5433 10.45 11.4 10.45 12.5C10.45 13.6 10.0967 14.46 9.39 15.08C8.68333 15.6933 7.70667 16 6.46 16ZM5.49 15.5H6.26C6.88 15.5 7.36667 15.2367 7.72 14.71C8.07333 14.1767 8.25 13.44 8.25 12.5C8.25 11.56 8.07333 10.8267 7.72 10.3C7.36667 9.76667 6.88 9.5 6.26 9.5L5.49 9.52V15.5ZM23.4693 17.3C22.296 17.76 21.0993 17.7967 19.8793 17.41C19.266 17.21 18.706 16.91 18.1993 16.51L17.2193 15.74C16.646 15.98 16.0426 16.1 15.4093 16.1C14.756 16.1 14.106 16.01 13.4593 15.83C12.566 15.5767 11.976 15.16 11.6893 14.58C11.5826 14.36 11.5293 14.12 11.5293 13.86C11.5293 13.6 11.576 13.3667 11.6693 13.16C11.7626 12.9467 11.8893 12.7667 12.0493 12.62C12.356 12.34 12.7126 12.1433 13.1193 12.03C12.8326 11.5633 12.6893 11.14 12.6893 10.76C12.6893 10.38 12.766 10.0667 12.9193 9.82C13.0793 9.57333 13.2926 9.38333 13.5593 9.25C14.0793 8.99 14.686 8.86 15.3793 8.86C15.8526 8.86 16.2893 8.92 16.6893 9.04C17.096 9.15333 17.376 9.33 17.5293 9.57L17.0593 11.2H16.9693C16.956 9.97333 16.5693 9.36 15.8093 9.36C15.5093 9.36 15.2626 9.45333 15.0693 9.64C14.8826 9.82667 14.7893 10.0833 14.7893 10.41C14.7893 10.73 14.926 11.0567 15.1993 11.39C15.4726 11.7167 15.8626 12.0967 16.3693 12.53C16.876 12.9633 17.5426 13.5233 18.3693 14.21C19.1026 13.4167 19.4693 12.5267 19.4693 11.54C19.4693 11.28 19.4326 10.98 19.3593 10.64C19.286 10.3 19.0926 9.90667 18.7793 9.46C18.4726 9.01333 18.0626 8.59333 17.5493 8.2L17.6193 8.14C18.2926 8.6 18.8193 9.12333 19.1993 9.71C19.6393 10.4033 19.8593 11.12 19.8593 11.86C19.8593 12.8933 19.516 13.8033 18.8293 14.59C18.8826 14.6367 19.006 14.7467 19.1993 14.92C19.3926 15.0867 19.5493 15.2233 19.6693 15.33C19.796 15.4367 19.9726 15.5833 20.1993 15.77C20.426 15.95 20.616 16.09 20.7693 16.19C20.9226 16.29 21.116 16.4067 21.3493 16.54C21.5826 16.6733 21.7993 16.7767 21.9993 16.85C22.4993 17.03 22.986 17.1433 23.4593 17.19L23.4693 17.3ZM13.7393 12.83C13.686 13.0033 13.6593 13.1567 13.6593 13.29C13.6593 14.4033 14.106 15.1033 14.9993 15.39C15.226 15.4633 15.4793 15.5 15.7593 15.5C16.046 15.5 16.356 15.44 16.6893 15.32L14.9493 13.95C14.456 13.5567 14.0526 13.1833 13.7393 12.83ZM25.419 16H21.629V15.9H21.759C21.9323 15.9 22.079 15.84 22.199 15.72C22.3257 15.5933 22.3923 15.4433 22.399 15.27V9.56C21.699 9.63333 21.169 9.83 20.809 10.15C20.5023 10.4233 20.2557 10.7733 20.069 11.2L19.969 11.16C20.1023 10.44 20.4457 9.9 20.999 9.54C21.559 9.18 22.259 9 23.099 9H25.419C26.6723 9 27.649 9.31 28.349 9.93C29.0557 10.5433 29.409 11.4 29.409 12.5C29.409 13.6 29.0557 14.46 28.349 15.08C27.6423 15.6933 26.6657 16 25.419 16ZM24.449 15.5H25.219C25.839 15.5 26.3257 15.2367 26.679 14.71C27.0323 14.1767 27.209 13.44 27.209 12.5C27.209 11.56 27.0323 10.8267 26.679 10.3C26.3257 9.76667 25.839 9.5 25.219 9.5L24.449 9.52V15.5Z" fill="#EC2127"/>
<path d="M7.445 21.4275C7.31667 21.5025 7.18583 21.54 7.0525 21.54C6.91917 21.54 6.7925 21.515 6.6725 21.465C6.55417 21.415 6.4375 21.3275 6.3225 21.2025C6.20917 21.0792 6.11583 20.9283 6.0425 20.75L5.975 20.585H5.44L5.34 20.8175C5.33167 20.8392 5.3275 20.8567 5.3275 20.87C5.3275 20.8833 5.33 20.8983 5.335 20.915C5.34167 20.93 5.35417 20.9442 5.3725 20.9575C5.3925 20.9692 5.41333 20.975 5.435 20.975H5.4575V21H4.9V20.975H4.9225C4.96083 20.975 4.99833 20.9642 5.035 20.9425C5.07333 20.9192 5.105 20.885 5.13 20.84L5.64 19.72C5.59 19.5817 5.54833 19.4892 5.515 19.4425C5.48333 19.3942 5.45667 19.3575 5.435 19.3325C5.395 19.2858 5.345 19.2517 5.285 19.23C5.26167 19.2217 5.23417 19.2175 5.2025 19.2175C5.17083 19.2175 5.135 19.225 5.095 19.24L5.09 19.215C5.22333 19.1367 5.35083 19.0975 5.4725 19.0975C5.6525 19.0975 5.815 19.1858 5.96 19.3625C6.03333 19.4542 6.09917 19.565 6.1575 19.695L6.5575 20.6125C6.63083 20.7808 6.685 20.8942 6.72 20.9525C6.755 21.0092 6.78583 21.0575 6.8125 21.0975C6.84083 21.1392 6.86833 21.175 6.895 21.205C6.92167 21.235 6.95083 21.2642 6.9825 21.2925C7.0375 21.3425 7.10667 21.38 7.19 21.405C7.225 21.4167 7.26333 21.4225 7.305 21.4225C7.34833 21.4225 7.39333 21.4158 7.44 21.4025L7.445 21.4275ZM5.495 20.46H5.925L5.7675 20.0725C5.75417 20.0425 5.73833 20 5.72 19.945L5.495 20.46ZM9.11748 18.6925C9.14081 18.6925 9.16415 18.6942 9.18748 18.6975V18.7225C9.03748 18.7408 8.92415 18.8117 8.84748 18.935C8.77081 19.0583 8.73248 19.2217 8.73248 19.425V20.3575C8.72915 20.5775 8.65831 20.7458 8.51998 20.8625C8.38331 20.9775 8.17998 21.035 7.90998 21.035C7.63998 21.035 7.42748 20.975 7.27248 20.855C7.11748 20.735 7.03998 20.575 7.03998 20.375C7.03998 20.37 7.03998 20.365 7.03998 20.36V19.3975C7.03998 19.3625 7.02665 19.3333 6.99998 19.31C6.97498 19.2867 6.94415 19.275 6.90748 19.275H6.86748V19.25H7.72498V19.275H7.68498C7.63331 19.275 7.59498 19.295 7.56998 19.335C7.55998 19.3533 7.55415 19.3725 7.55248 19.3925V20.35C7.55248 20.5233 7.59581 20.66 7.68248 20.76C7.77081 20.8583 7.88748 20.9075 8.03248 20.9075C8.03415 20.9075 8.03498 20.9075 8.03498 20.9075C8.03665 20.9075 8.03831 20.9075 8.03998 20.9075C8.17831 20.9075 8.29165 20.8617 8.37998 20.77C8.46998 20.6767 8.51498 20.5475 8.51498 20.3825V19.425C8.51498 19.2183 8.57498 19.0408 8.69498 18.8925C8.75165 18.8242 8.81748 18.7742 8.89248 18.7425C8.96915 18.7092 9.04415 18.6925 9.11748 18.6925ZM9.03889 19.89C8.93722 19.8 8.88639 19.7033 8.88639 19.6C8.88639 19.5033 8.92555 19.4217 9.00389 19.355C9.08722 19.2833 9.19555 19.2475 9.32889 19.2475H10.6064C10.6581 19.2475 10.7139 19.2425 10.7739 19.2325C10.8339 19.2225 10.8764 19.2125 10.9014 19.2025V19.7175L10.8764 19.715V19.6975C10.8764 19.5625 10.8264 19.4675 10.7264 19.4125C10.6781 19.3875 10.6206 19.3742 10.5539 19.3725H10.3089V20.82C10.3106 20.8633 10.3264 20.9 10.3564 20.93C10.3881 20.96 10.4256 20.975 10.4689 20.975H10.5014V21H9.60389V20.975H9.63639C9.67972 20.975 9.71639 20.96 9.74639 20.93C9.77805 20.9 9.79472 20.8642 9.79639 20.8225V19.3725H9.32889C9.23555 19.3725 9.15805 19.395 9.09639 19.44C9.02472 19.4917 8.98889 19.5567 8.98889 19.635C8.98889 19.7117 9.01472 19.7925 9.06639 19.8775L9.03889 19.89ZM11.9883 19.9175C11.9366 19.8308 11.9108 19.7392 11.9108 19.6425C11.9108 19.5092 11.9608 19.4008 12.0608 19.3175C12.1208 19.2658 12.195 19.2317 12.2833 19.215C12.3366 19.2067 12.3791 19.2025 12.4108 19.2025C12.4441 19.2025 12.4791 19.2033 12.5158 19.205C12.5525 19.205 12.6058 19.2158 12.6758 19.2375C12.7475 19.2592 12.8166 19.2858 12.8833 19.3175C12.95 19.3475 13.0125 19.3892 13.0708 19.4425C13.1308 19.4958 13.1833 19.5542 13.2283 19.6175C13.325 19.7542 13.3733 19.9192 13.3733 20.1125C13.3733 20.3925 13.2691 20.6167 13.0608 20.785C12.8541 20.9517 12.58 21.035 12.2383 21.035C11.8966 21.035 11.6208 20.9508 11.4108 20.7825C11.2008 20.6142 11.0958 20.3925 11.0958 20.1175C11.0958 19.8908 11.1658 19.6967 11.3058 19.535C11.4475 19.3717 11.6316 19.2708 11.8583 19.2325L11.8733 19.2575C11.805 19.3292 11.75 19.4358 11.7083 19.5775C11.6683 19.7175 11.6483 19.8692 11.6483 20.0325C11.6483 20.2975 11.7016 20.51 11.8083 20.67C11.915 20.83 12.0566 20.91 12.2333 20.91C12.4116 20.91 12.5541 20.8375 12.6608 20.6925C12.7675 20.5475 12.8208 20.3542 12.8208 20.1125C12.8208 19.9592 12.7991 19.8217 12.7558 19.7C12.7141 19.5783 12.6558 19.4875 12.5808 19.4275C12.5058 19.3675 12.4266 19.3375 12.3433 19.3375C12.235 19.3375 12.1516 19.37 12.0933 19.435C12.025 19.51 11.9908 19.6033 11.9908 19.715C11.9908 19.7783 12 19.8458 12.0183 19.9175H11.9883ZM13.2253 19.135C13.3436 19.0717 13.4594 19.04 13.5728 19.04C13.6878 19.04 13.7928 19.0642 13.8878 19.1125C14.0778 19.2108 14.2403 19.3717 14.3753 19.595L14.8228 20.3225L15.5653 19.215H15.5878L15.8703 20.6775C15.9269 20.9775 16.0111 21.1858 16.1228 21.3025C16.2111 21.3942 16.3236 21.44 16.4603 21.44C16.4719 21.44 16.4844 21.44 16.4978 21.44V21.465C16.3944 21.5083 16.2869 21.53 16.1753 21.53C15.9536 21.53 15.7611 21.4433 15.5978 21.27C15.4611 21.1267 15.3653 20.9242 15.3103 20.6625L15.1953 20.135L14.7678 20.77C14.7394 20.81 14.7144 20.8583 14.6928 20.915C14.6711 20.9717 14.6611 21.02 14.6628 21.06H14.6403L14.0328 20.02L13.9078 20.86V20.87C13.9078 20.8967 13.9169 20.9217 13.9353 20.945C13.9553 20.9667 13.9786 20.9775 14.0053 20.9775H14.0428V21H13.4953V20.975H13.5353C13.5803 20.975 13.6194 20.9617 13.6528 20.935C13.6878 20.9067 13.7094 20.8692 13.7178 20.8225L13.8903 19.75C13.8053 19.6017 13.7111 19.47 13.6078 19.355C13.4894 19.225 13.3711 19.16 13.2528 19.16C13.2461 19.16 13.2394 19.16 13.2328 19.16L13.2253 19.135ZM18.5632 21.4275C18.4348 21.5025 18.304 21.54 18.1707 21.54C18.0373 21.54 17.9107 21.515 17.7907 21.465C17.6723 21.415 17.5557 21.3275 17.4407 21.2025C17.3273 21.0792 17.234 20.9283 17.1607 20.75L17.0932 20.585H16.5582L16.4582 20.8175C16.4498 20.8392 16.4457 20.8567 16.4457 20.87C16.4457 20.8833 16.4482 20.8983 16.4532 20.915C16.4598 20.93 16.4723 20.9442 16.4907 20.9575C16.5107 20.9692 16.5315 20.975 16.5532 20.975H16.5757V21H16.0182V20.975H16.0407C16.079 20.975 16.1165 20.9642 16.1532 20.9425C16.1915 20.9192 16.2232 20.885 16.2482 20.84L16.7582 19.72C16.7082 19.5817 16.6665 19.4892 16.6332 19.4425C16.6015 19.3942 16.5748 19.3575 16.5532 19.3325C16.5132 19.2858 16.4632 19.2517 16.4032 19.23C16.3798 19.2217 16.3523 19.2175 16.3207 19.2175C16.289 19.2175 16.2532 19.225 16.2132 19.24L16.2082 19.215C16.3415 19.1367 16.469 19.0975 16.5907 19.0975C16.7707 19.0975 16.9332 19.1858 17.0782 19.3625C17.1515 19.4542 17.2173 19.565 17.2757 19.695L17.6757 20.6125C17.749 20.7808 17.8032 20.8942 17.8382 20.9525C17.8732 21.0092 17.904 21.0575 17.9307 21.0975C17.959 21.1392 17.9865 21.175 18.0132 21.205C18.0398 21.235 18.069 21.2642 18.1007 21.2925C18.1557 21.3425 18.2248 21.38 18.3082 21.405C18.3432 21.4167 18.3815 21.4225 18.4232 21.4225C18.4665 21.4225 18.5115 21.4158 18.5582 21.4025L18.5632 21.4275ZM16.6132 20.46H17.0432L16.8857 20.0725C16.8723 20.0425 16.8565 20 16.8382 19.945L16.6132 20.46ZM17.742 19.89C17.6403 19.8 17.5895 19.7033 17.5895 19.6C17.5895 19.5033 17.6287 19.4217 17.707 19.355C17.7903 19.2833 17.8987 19.2475 18.032 19.2475H19.3095C19.3612 19.2475 19.417 19.2425 19.477 19.2325C19.537 19.2225 19.5795 19.2125 19.6045 19.2025V19.7175L19.5795 19.715V19.6975C19.5795 19.5625 19.5295 19.4675 19.4295 19.4125C19.3812 19.3875 19.3237 19.3742 19.257 19.3725H19.012V20.82C19.0137 20.8633 19.0295 20.9 19.0595 20.93C19.0912 20.96 19.1287 20.975 19.172 20.975H19.2045V21H18.307V20.975H18.3395C18.3828 20.975 18.4195 20.96 18.4495 20.93C18.4812 20.9 18.4978 20.8642 18.4995 20.8225V19.3725H18.032C17.9387 19.3725 17.8612 19.395 17.7995 19.44C17.7278 19.4917 17.692 19.5567 17.692 19.635C17.692 19.7117 17.7178 19.7925 17.7695 19.8775L17.742 19.89ZM20.6914 19.9175C20.6398 19.8308 20.6139 19.7392 20.6139 19.6425C20.6139 19.5092 20.6639 19.4008 20.7639 19.3175C20.8239 19.2658 20.8981 19.2317 20.9864 19.215C21.0398 19.2067 21.0823 19.2025 21.1139 19.2025C21.1473 19.2025 21.1823 19.2033 21.2189 19.205C21.2556 19.205 21.3089 19.2158 21.3789 19.2375C21.4506 19.2592 21.5198 19.2858 21.5864 19.3175C21.6531 19.3475 21.7156 19.3892 21.7739 19.4425C21.8339 19.4958 21.8864 19.5542 21.9314 19.6175C22.0281 19.7542 22.0764 19.9192 22.0764 20.1125C22.0764 20.3925 21.9723 20.6167 21.7639 20.785C21.5573 20.9517 21.2831 21.035 20.9414 21.035C20.5998 21.035 20.3239 20.9508 20.1139 20.7825C19.9039 20.6142 19.7989 20.3925 19.7989 20.1175C19.7989 19.8908 19.8689 19.6967 20.0089 19.535C20.1506 19.3717 20.3348 19.2708 20.5614 19.2325L20.5764 19.2575C20.5081 19.3292 20.4531 19.4358 20.4114 19.5775C20.3714 19.7175 20.3514 19.8692 20.3514 20.0325C20.3514 20.2975 20.4048 20.51 20.5114 20.67C20.6181 20.83 20.7598 20.91 20.9364 20.91C21.1148 20.91 21.2573 20.8375 21.3639 20.6925C21.4706 20.5475 21.5239 20.3542 21.5239 20.1125C21.5239 19.9592 21.5023 19.8217 21.4589 19.7C21.4173 19.5783 21.3589 19.4875 21.2839 19.4275C21.2089 19.3675 21.1298 19.3375 21.0464 19.3375C20.9381 19.3375 20.8548 19.37 20.7964 19.435C20.7281 19.51 20.6939 19.6033 20.6939 19.715C20.6939 19.7783 20.7031 19.8458 20.7214 19.9175H20.6914ZM24.0281 19.74C24.0281 19.83 24.0031 19.9133 23.9531 19.99C23.9048 20.065 23.8456 20.1183 23.7756 20.15C23.7056 20.18 23.6364 20.195 23.5681 20.195C23.5481 20.195 23.5289 20.1942 23.5106 20.1925C23.6156 20.2142 23.7114 20.2792 23.7981 20.3875C23.8381 20.4358 23.8831 20.4983 23.9331 20.575C23.9831 20.65 24.0181 20.7017 24.0381 20.73C24.1381 20.8733 24.2381 20.99 24.3381 21.08C24.5514 21.2733 24.8256 21.38 25.1606 21.4V21.425C25.0689 21.49 24.9539 21.5367 24.8156 21.565C24.7339 21.5817 24.6523 21.59 24.5706 21.59C24.4906 21.59 24.4056 21.5783 24.3156 21.555C24.2256 21.5317 24.1373 21.4967 24.0506 21.45C23.9639 21.4033 23.8756 21.3358 23.7856 21.2475C23.6973 21.1592 23.6248 21.0692 23.5681 20.9775C23.5114 20.8842 23.4623 20.7958 23.4206 20.7125C23.3789 20.6275 23.3389 20.5442 23.3006 20.4625C23.2639 20.3808 23.2414 20.3308 23.2331 20.3125C23.1848 20.2125 23.1414 20.1567 23.1031 20.145V20.12H23.1431C23.2514 20.12 23.3406 20.0775 23.4106 19.9925C23.4506 19.9442 23.4739 19.8942 23.4806 19.8425C23.4873 19.7892 23.4906 19.755 23.4906 19.74C23.4906 19.615 23.4539 19.5242 23.3806 19.4675C23.3073 19.4092 23.2239 19.38 23.1306 19.38H23.0206V20.8175C23.0206 20.8608 23.0364 20.8983 23.0681 20.93C23.0998 20.96 23.1373 20.975 23.1806 20.975H23.2106V21H22.3131V20.975H22.3456C22.3889 20.975 22.4256 20.96 22.4556 20.93C22.4873 20.9 22.5039 20.8633 22.5056 20.82V19.4325C22.5039 19.3708 22.4773 19.325 22.4256 19.295C22.4006 19.2817 22.3739 19.275 22.3456 19.275H22.3156V19.25H23.2906C23.5389 19.25 23.7273 19.2933 23.8556 19.38C23.9706 19.4583 24.0281 19.5783 24.0281 19.74Z" fill="#EC2127"/>
</svg>
