<svg width="30" height="30" viewBox="0 0 30 30" fill="none" xmlns="http://www.w3.org/2000/svg">
<rect width="30" height="30" rx="15" fill="url(#paint0_linear_583_53)"/>
<path d="M9.676 15H7.402V14.94H7.48C7.584 14.94 7.672 14.904 7.744 14.832C7.82 14.756 7.86 14.666 7.864 14.562V11.136C7.444 11.18 7.126 11.298 6.91 11.49C6.726 11.654 6.578 11.864 6.466 12.12L6.406 12.096C6.486 11.664 6.692 11.34 7.024 11.124C7.36 10.908 7.78 10.8 8.284 10.8H9.676C10.428 10.8 11.014 10.986 11.434 11.358C11.858 11.726 12.07 12.24 12.07 12.9C12.07 13.56 11.858 14.076 11.434 14.448C11.01 14.816 10.424 15 9.676 15ZM9.094 14.7H9.556C9.928 14.7 10.22 14.542 10.432 14.226C10.644 13.906 10.75 13.464 10.75 12.9C10.75 12.336 10.644 11.896 10.432 11.58C10.22 11.26 9.928 11.1 9.556 11.1L9.094 11.112V14.7ZM19.8816 15.78C19.1776 16.056 18.4596 16.078 17.7276 15.846C17.3596 15.726 17.0236 15.546 16.7196 15.306L16.1316 14.844C15.7876 14.988 15.4256 15.06 15.0456 15.06C14.6536 15.06 14.2636 15.006 13.8756 14.898C13.3396 14.746 12.9856 14.496 12.8136 14.148C12.7496 14.016 12.7176 13.872 12.7176 13.716C12.7176 13.56 12.7456 13.42 12.8016 13.296C12.8576 13.168 12.9336 13.06 13.0296 12.972C13.2136 12.804 13.4276 12.686 13.6716 12.618C13.4996 12.338 13.4136 12.084 13.4136 11.856C13.4136 11.628 13.4596 11.44 13.5516 11.292C13.6476 11.144 13.7756 11.03 13.9356 10.95C14.2476 10.794 14.6116 10.716 15.0276 10.716C15.3116 10.716 15.5736 10.752 15.8136 10.824C16.0576 10.892 16.2256 10.998 16.3176 11.142L16.0356 12.12H15.9816C15.9736 11.384 15.7416 11.016 15.2856 11.016C15.1056 11.016 14.9576 11.072 14.8416 11.184C14.7296 11.296 14.6736 11.45 14.6736 11.646C14.6736 11.838 14.7556 12.034 14.9196 12.234C15.0836 12.43 15.3176 12.658 15.6216 12.918C15.9256 13.178 16.3256 13.514 16.8216 13.926C17.2616 13.45 17.4816 12.916 17.4816 12.324C17.4816 12.168 17.4596 11.988 17.4156 11.784C17.3716 11.58 17.2556 11.344 17.0676 11.076C16.8836 10.808 16.6376 10.556 16.3296 10.32L16.3716 10.284C16.7756 10.56 17.0916 10.874 17.3196 11.226C17.5836 11.642 17.7156 12.072 17.7156 12.516C17.7156 13.136 17.5096 13.682 17.0976 14.154C17.1296 14.182 17.2036 14.248 17.3196 14.352C17.4356 14.452 17.5296 14.534 17.6016 14.598C17.6776 14.662 17.7836 14.75 17.9196 14.862C18.0556 14.97 18.1696 15.054 18.2616 15.114C18.3536 15.174 18.4696 15.244 18.6096 15.324C18.7496 15.404 18.8796 15.466 18.9996 15.51C19.2996 15.618 19.5916 15.686 19.8756 15.714L19.8816 15.78ZM14.0436 13.098C14.0116 13.202 13.9956 13.294 13.9956 13.374C13.9956 14.042 14.2636 14.462 14.7996 14.634C14.9356 14.678 15.0876 14.7 15.2556 14.7C15.4276 14.7 15.6136 14.664 15.8136 14.592L14.7696 13.77C14.4736 13.534 14.2316 13.31 14.0436 13.098ZM21.0514 15H18.7774V14.94H18.8554C18.9594 14.94 19.0474 14.904 19.1194 14.832C19.1954 14.756 19.2354 14.666 19.2394 14.562V11.136C18.8194 11.18 18.5014 11.298 18.2854 11.49C18.1014 11.654 17.9534 11.864 17.8414 12.12L17.7814 12.096C17.8614 11.664 18.0674 11.34 18.3994 11.124C18.7354 10.908 19.1554 10.8 19.6594 10.8H21.0514C21.8034 10.8 22.3894 10.986 22.8094 11.358C23.2334 11.726 23.4454 12.24 23.4454 12.9C23.4454 13.56 23.2334 14.076 22.8094 14.448C22.3854 14.816 21.7994 15 21.0514 15ZM20.4694 14.7H20.9314C21.3034 14.7 21.5954 14.542 21.8074 14.226C22.0194 13.906 22.1254 13.464 22.1254 12.9C22.1254 12.336 22.0194 11.896 21.8074 11.58C21.5954 11.26 21.3034 11.1 20.9314 11.1L20.4694 11.112V14.7Z" fill="#EC2127"/>
<path d="M9.7604 19.3078C9.668 19.3618 9.5738 19.3888 9.4778 19.3888C9.3818 19.3888 9.2906 19.3708 9.2042 19.3348C9.119 19.2988 9.035 19.2358 8.9522 19.1458C8.8706 19.057 8.8034 18.9484 8.7506 18.82L8.702 18.7012H8.3168L8.2448 18.8686C8.2388 18.8842 8.2358 18.8968 8.2358 18.9064C8.2358 18.916 8.2376 18.9268 8.2412 18.9388C8.246 18.9496 8.255 18.9598 8.2682 18.9694C8.2826 18.9778 8.2976 18.982 8.3132 18.982H8.3294V19H7.928V18.982H7.9442C7.9718 18.982 7.9988 18.9742 8.0252 18.9586C8.0528 18.9418 8.0756 18.9172 8.0936 18.8848L8.4608 18.0784C8.4248 17.9788 8.3948 17.9122 8.3708 17.8786C8.348 17.8438 8.3288 17.8174 8.3132 17.7994C8.2844 17.7658 8.2484 17.7412 8.2052 17.7256C8.1884 17.7196 8.1686 17.7166 8.1458 17.7166C8.123 17.7166 8.0972 17.722 8.0684 17.7328L8.0648 17.7148C8.1608 17.6584 8.2526 17.6302 8.3402 17.6302C8.4698 17.6302 8.5868 17.6938 8.6912 17.821C8.744 17.887 8.7914 17.9668 8.8334 18.0604L9.1214 18.721C9.1742 18.8422 9.2132 18.9238 9.2384 18.9658C9.2636 19.0066 9.2858 19.0414 9.305 19.0702C9.3254 19.1002 9.3452 19.126 9.3644 19.1476C9.3836 19.1692 9.4046 19.1902 9.4274 19.2106C9.467 19.2466 9.5168 19.2736 9.5768 19.2916C9.602 19.3 9.6296 19.3042 9.6596 19.3042C9.6908 19.3042 9.7232 19.2994 9.7568 19.2898L9.7604 19.3078ZM8.3564 18.6112H8.666L8.5526 18.3322C8.543 18.3106 8.5316 18.28 8.5184 18.2404L8.3564 18.6112ZM10.9646 17.3386C10.9814 17.3386 10.9982 17.3398 11.015 17.3422V17.3602C10.907 17.3734 10.8254 17.4244 10.7702 17.5132C10.715 17.602 10.6874 17.7196 10.6874 17.866V18.5374C10.685 18.6958 10.634 18.817 10.5344 18.901C10.436 18.9838 10.2896 19.0252 10.0952 19.0252C9.90079 19.0252 9.74779 18.982 9.63619 18.8956C9.52459 18.8092 9.46879 18.694 9.46879 18.55C9.46879 18.5464 9.46879 18.5428 9.46879 18.5392V17.8462C9.46879 17.821 9.45919 17.8 9.43999 17.7832C9.42199 17.7664 9.39979 17.758 9.37339 17.758H9.34459V17.74H9.96199V17.758H9.93319C9.89599 17.758 9.86839 17.7724 9.85039 17.8012C9.84319 17.8144 9.83899 17.8282 9.83779 17.8426V18.532C9.83779 18.6568 9.86899 18.7552 9.93139 18.8272C9.99499 18.898 10.079 18.9334 10.1834 18.9334C10.1846 18.9334 10.1852 18.9334 10.1852 18.9334C10.1864 18.9334 10.1876 18.9334 10.1888 18.9334C10.2884 18.9334 10.37 18.9004 10.4336 18.8344C10.4984 18.7672 10.5308 18.6742 10.5308 18.5554V17.866C10.5308 17.7172 10.574 17.5894 10.6604 17.4826C10.7012 17.4334 10.7486 17.3974 10.8026 17.3746C10.8578 17.3506 10.9118 17.3386 10.9646 17.3386ZM10.908 18.2008C10.8348 18.136 10.7982 18.0664 10.7982 17.992C10.7982 17.9224 10.8264 17.8636 10.8828 17.8156C10.9428 17.764 11.0208 17.7382 11.1168 17.7382H12.0366C12.0738 17.7382 12.114 17.7346 12.1572 17.7274C12.2004 17.7202 12.231 17.713 12.249 17.7058V18.0766L12.231 18.0748V18.0622C12.231 17.965 12.195 17.8966 12.123 17.857C12.0882 17.839 12.0468 17.8294 11.9988 17.8282H11.8224V18.8704C11.8236 18.9016 11.835 18.928 11.8566 18.9496C11.8794 18.9712 11.9064 18.982 11.9376 18.982H11.961V19H11.3148V18.982H11.3382C11.3694 18.982 11.3958 18.9712 11.4174 18.9496C11.4402 18.928 11.4522 18.9022 11.4534 18.8722V17.8282H11.1168C11.0496 17.8282 10.9938 17.8444 10.9494 17.8768C10.8978 17.914 10.872 17.9608 10.872 18.0172C10.872 18.0724 10.8906 18.1306 10.9278 18.1918L10.908 18.2008ZM13.0316 18.2206C12.9944 18.1582 12.9758 18.0922 12.9758 18.0226C12.9758 17.9266 13.0118 17.8486 13.0838 17.7886C13.127 17.7514 13.1804 17.7268 13.244 17.7148C13.2824 17.7088 13.313 17.7058 13.3358 17.7058C13.3598 17.7058 13.385 17.7064 13.4114 17.7076C13.4378 17.7076 13.4762 17.7154 13.5266 17.731C13.5782 17.7466 13.628 17.7658 13.676 17.7886C13.724 17.8102 13.769 17.8402 13.811 17.8786C13.8542 17.917 13.892 17.959 13.9244 18.0046C13.994 18.103 14.0288 18.2218 14.0288 18.361C14.0288 18.5626 13.9538 18.724 13.8038 18.8452C13.655 18.9652 13.4576 19.0252 13.2116 19.0252C12.9656 19.0252 12.767 18.9646 12.6158 18.8434C12.4646 18.7222 12.389 18.5626 12.389 18.3646C12.389 18.2014 12.4394 18.0616 12.5402 17.9452C12.6422 17.8276 12.7748 17.755 12.938 17.7274L12.9488 17.7454C12.8996 17.797 12.86 17.8738 12.83 17.9758C12.8012 18.0766 12.7868 18.1858 12.7868 18.3034C12.7868 18.4942 12.8252 18.6472 12.902 18.7624C12.9788 18.8776 13.0808 18.9352 13.208 18.9352C13.3364 18.9352 13.439 18.883 13.5158 18.7786C13.5926 18.6742 13.631 18.535 13.631 18.361C13.631 18.2506 13.6154 18.1516 13.5842 18.064C13.5542 17.9764 13.5122 17.911 13.4582 17.8678C13.4042 17.8246 13.3472 17.803 13.2872 17.803C13.2092 17.803 13.1492 17.8264 13.1072 17.8732C13.058 17.9272 13.0334 17.9944 13.0334 18.0748C13.0334 18.1204 13.04 18.169 13.0532 18.2206H13.0316ZM13.9222 17.6572C14.0074 17.6116 14.0908 17.5888 14.1724 17.5888C14.2552 17.5888 14.3308 17.6062 14.3992 17.641C14.536 17.7118 14.653 17.8276 14.7502 17.9884L15.0724 18.5122L15.607 17.7148H15.6232L15.8266 18.7678C15.8674 18.9838 15.928 19.1338 16.0084 19.2178C16.072 19.2838 16.153 19.3168 16.2514 19.3168C16.2598 19.3168 16.2688 19.3168 16.2784 19.3168V19.3348C16.204 19.366 16.1266 19.3816 16.0462 19.3816C15.8866 19.3816 15.748 19.3192 15.6304 19.1944C15.532 19.0912 15.463 18.9454 15.4234 18.757L15.3406 18.3772L15.0328 18.8344C15.0124 18.8632 14.9944 18.898 14.9788 18.9388C14.9632 18.9796 14.956 19.0144 14.9572 19.0432H14.941L14.5036 18.2944L14.4136 18.8992V18.9064C14.4136 18.9256 14.4202 18.9436 14.4334 18.9604C14.4478 18.976 14.4646 18.9838 14.4838 18.9838H14.5108V19H14.1166V18.982H14.1454C14.1778 18.982 14.206 18.9724 14.23 18.9532C14.2552 18.9328 14.2708 18.9058 14.2768 18.8722L14.401 18.1C14.3398 17.9932 14.272 17.8984 14.1976 17.8156C14.1124 17.722 14.0272 17.6752 13.942 17.6752C13.9372 17.6752 13.9324 17.6752 13.9276 17.6752L13.9222 17.6572ZM17.7655 19.3078C17.6731 19.3618 17.5789 19.3888 17.4829 19.3888C17.3869 19.3888 17.2957 19.3708 17.2093 19.3348C17.1241 19.2988 17.0401 19.2358 16.9573 19.1458C16.8757 19.057 16.8085 18.9484 16.7557 18.82L16.7071 18.7012H16.3219L16.2499 18.8686C16.2439 18.8842 16.2409 18.8968 16.2409 18.9064C16.2409 18.916 16.2427 18.9268 16.2463 18.9388C16.2511 18.9496 16.2601 18.9598 16.2733 18.9694C16.2877 18.9778 16.3027 18.982 16.3183 18.982H16.3345V19H15.9331V18.982H15.9493C15.9769 18.982 16.0039 18.9742 16.0303 18.9586C16.0579 18.9418 16.0807 18.9172 16.0987 18.8848L16.4659 18.0784C16.4299 17.9788 16.3999 17.9122 16.3759 17.8786C16.3531 17.8438 16.3339 17.8174 16.3183 17.7994C16.2895 17.7658 16.2535 17.7412 16.2103 17.7256C16.1935 17.7196 16.1737 17.7166 16.1509 17.7166C16.1281 17.7166 16.1023 17.722 16.0735 17.7328L16.0699 17.7148C16.1659 17.6584 16.2577 17.6302 16.3453 17.6302C16.4749 17.6302 16.5919 17.6938 16.6963 17.821C16.7491 17.887 16.7965 17.9668 16.8385 18.0604L17.1265 18.721C17.1793 18.8422 17.2183 18.9238 17.2435 18.9658C17.2687 19.0066 17.2909 19.0414 17.3101 19.0702C17.3305 19.1002 17.3503 19.126 17.3695 19.1476C17.3887 19.1692 17.4097 19.1902 17.4325 19.2106C17.4721 19.2466 17.5219 19.2736 17.5819 19.2916C17.6071 19.3 17.6347 19.3042 17.6647 19.3042C17.6959 19.3042 17.7283 19.2994 17.7619 19.2898L17.7655 19.3078ZM16.3615 18.6112H16.6711L16.5577 18.3322C16.5481 18.3106 16.5367 18.28 16.5235 18.2404L16.3615 18.6112ZM17.1742 18.2008C17.101 18.136 17.0644 18.0664 17.0644 17.992C17.0644 17.9224 17.0926 17.8636 17.149 17.8156C17.209 17.764 17.287 17.7382 17.383 17.7382H18.3028C18.34 17.7382 18.3802 17.7346 18.4234 17.7274C18.4666 17.7202 18.4972 17.713 18.5152 17.7058V18.0766L18.4972 18.0748V18.0622C18.4972 17.965 18.4612 17.8966 18.3892 17.857C18.3544 17.839 18.313 17.8294 18.265 17.8282H18.0886V18.8704C18.0898 18.9016 18.1012 18.928 18.1228 18.9496C18.1456 18.9712 18.1726 18.982 18.2038 18.982H18.2272V19H17.581V18.982H17.6044C17.6356 18.982 17.662 18.9712 17.6836 18.9496C17.7064 18.928 17.7184 18.9022 17.7196 18.8722V17.8282H17.383C17.3158 17.8282 17.26 17.8444 17.2156 17.8768C17.164 17.914 17.1382 17.9608 17.1382 18.0172C17.1382 18.0724 17.1568 18.1306 17.194 18.1918L17.1742 18.2008ZM19.2978 18.2206C19.2606 18.1582 19.242 18.0922 19.242 18.0226C19.242 17.9266 19.278 17.8486 19.35 17.7886C19.3932 17.7514 19.4466 17.7268 19.5102 17.7148C19.5486 17.7088 19.5792 17.7058 19.602 17.7058C19.626 17.7058 19.6512 17.7064 19.6776 17.7076C19.704 17.7076 19.7424 17.7154 19.7928 17.731C19.8444 17.7466 19.8942 17.7658 19.9422 17.7886C19.9902 17.8102 20.0352 17.8402 20.0772 17.8786C20.1204 17.917 20.1582 17.959 20.1906 18.0046C20.2602 18.103 20.295 18.2218 20.295 18.361C20.295 18.5626 20.22 18.724 20.07 18.8452C19.9212 18.9652 19.7238 19.0252 19.4778 19.0252C19.2318 19.0252 19.0332 18.9646 18.882 18.8434C18.7308 18.7222 18.6552 18.5626 18.6552 18.3646C18.6552 18.2014 18.7056 18.0616 18.8064 17.9452C18.9084 17.8276 19.041 17.755 19.2042 17.7274L19.215 17.7454C19.1658 17.797 19.1262 17.8738 19.0962 17.9758C19.0674 18.0766 19.053 18.1858 19.053 18.3034C19.053 18.4942 19.0914 18.6472 19.1682 18.7624C19.245 18.8776 19.347 18.9352 19.4742 18.9352C19.6026 18.9352 19.7052 18.883 19.782 18.7786C19.8588 18.6742 19.8972 18.535 19.8972 18.361C19.8972 18.2506 19.8816 18.1516 19.8504 18.064C19.8204 17.9764 19.7784 17.911 19.7244 17.8678C19.6704 17.8246 19.6134 17.803 19.5534 17.803C19.4754 17.803 19.4154 17.8264 19.3734 17.8732C19.3242 17.9272 19.2996 17.9944 19.2996 18.0748C19.2996 18.1204 19.3062 18.169 19.3194 18.2206H19.2978ZM21.7002 18.0928C21.7002 18.1576 21.6822 18.2176 21.6462 18.2728C21.6114 18.3268 21.5688 18.3652 21.5184 18.388C21.468 18.4096 21.4182 18.4204 21.369 18.4204C21.3546 18.4204 21.3408 18.4198 21.3276 18.4186C21.4032 18.4342 21.4722 18.481 21.5346 18.559C21.5634 18.5938 21.5958 18.6388 21.6318 18.694C21.6678 18.748 21.693 18.7852 21.7074 18.8056C21.7794 18.9088 21.8514 18.9928 21.9234 19.0576C22.077 19.1968 22.2744 19.2736 22.5156 19.288V19.306C22.4496 19.3528 22.3668 19.3864 22.2672 19.4068C22.2084 19.4188 22.1496 19.4248 22.0908 19.4248C22.0332 19.4248 21.972 19.4164 21.9072 19.3996C21.8424 19.3828 21.7788 19.3576 21.7164 19.324C21.654 19.2904 21.5904 19.2418 21.5256 19.1782C21.462 19.1146 21.4098 19.0498 21.369 18.9838C21.3282 18.9166 21.2928 18.853 21.2628 18.793C21.2328 18.7318 21.204 18.6718 21.1764 18.613C21.15 18.5542 21.1338 18.5182 21.1278 18.505C21.093 18.433 21.0618 18.3928 21.0342 18.3844V18.3664H21.063C21.141 18.3664 21.2052 18.3358 21.2556 18.2746C21.2844 18.2398 21.3012 18.2038 21.306 18.1666C21.3108 18.1282 21.3132 18.1036 21.3132 18.0928C21.3132 18.0028 21.2868 17.9374 21.234 17.8966C21.1812 17.8546 21.1212 17.8336 21.054 17.8336H20.9748V18.8686C20.9748 18.8998 20.9862 18.9268 21.009 18.9496C21.0318 18.9712 21.0588 18.982 21.09 18.982H21.1116V19H20.4654V18.982H20.4888C20.52 18.982 20.5464 18.9712 20.568 18.9496C20.5908 18.928 20.6028 18.9016 20.604 18.8704V17.8714C20.6028 17.827 20.5836 17.794 20.5464 17.7724C20.5284 17.7628 20.5092 17.758 20.4888 17.758H20.4672V17.74H21.1692C21.348 17.74 21.4836 17.7712 21.576 17.8336C21.6588 17.89 21.7002 17.9764 21.7002 18.0928Z" fill="#EC2127"/>
<defs>
<linearGradient id="paint0_linear_583_53" x1="4.55942e-06" y1="8.22428e-07" x2="31.1095" y2="27.3948" gradientUnits="userSpaceOnUse">
<stop stop-color="#1A1B29"/>
<stop offset="1" stop-color="#050509"/>
</linearGradient>
</defs>
</svg>
