<svg width="228" height="226" fill="none" xmlns="http://www.w3.org/2000/svg"><path d="M158.971 2.87c3.732 5.867 1.144 12.855-.692 18.893 1.557-.043 3.115-.107 4.672-.1-1.926 3.026-5.44 4.922-6.884 8.232-1.031 3.75-1.325 7.763-3.108 11.286-2.701 2.38-6.711 2.912-9.262 5.484-1.836 1.81-3.898 3.494-5.252 5.682-1.023 1.626 1.038 3.025.925 4.666.031 1.556-.496 3.68-2.407 3.992-1.407.447-2.701-.434-3.966-.881.196 1.69-.075 3.352-.677 4.943-1.474.278-2.957.533-4.439.782-.218 1.271-.542 2.55-.504 3.85.474 1.505 1.588 2.734 2.355 4.119-3.506-.788-6.734-3.147-7.938-6.407-.286-1.91.331-3.8.459-5.696-1.52.291-3.017.675-4.454 1.222.451 1.889 2.686 3.501 1.662 5.526-1.053 1.207-2.783 1.335-4.258 1.782-.828 2.578-.459 5.22.88 7.572-2.987-.895-4.319-3.793-5.38-6.329-.805-3.189.188-6.428.783-9.567-1.046 1.08-1.821 2.436-3.123 3.267-1.55.071-3.1-.412-4.642-.142-1.753 2.628-.542 5.69.474 8.331-3.108-1.832-5.65-4.964-5.117-8.608-.263-2.663 1.912-4.588 3.921-6.087 1.692-1.2 2.61-3.146 4.371-4.247 1.919.383 3.755 1.165 5.734 1.243 2.076-.803 2.814-3.7 5.297-3.608 1.504.475 2.603 1.655 3.875 2.5 2.513-2.415 6.23-3.21 8.622-5.768 1.49-1.605 3.416-3.189 3.973-5.305-.685-2.813-1.287-5.64-1.257-8.545l-1.828.569c-.263 2.642.595 5.241.414 7.87-1.685 1.98-3.777 3.65-5.816 5.298-2.009.511-4.161.781-6.215.362-7.419-1.662-15.101 1.144-21.09 5.185-3.973 2.252-8.789.795-12.957-.1.526-1.825 1.204-3.608 1.693-5.44-6.727 1.548-13.611 3.075-19.714 6.279.264-5.228 4.929-8.637 7.765-12.7 1.227-2.337 2.197-4.815 2.77-7.372-8.157 2.187-15.403 7.614-18.713 15.078-1.114 2.834-2.815 5.52-3.055 8.595 3.807-6.13 6.5-13.538 13.145-17.55 1.61-.939 3.468-2.231 5.454-1.45-4.95 4.752-9.615 10.072-11.7 16.556l3.552-.17c.098.667.293 1.996.383 2.663 2.288-1.605 4.417-3.55 7.194-4.368 3.468-1.065 6.945-2.138 10.534-2.791-.354 2.294-3.424 2.308-4.914 3.757-3.551 3.133-7.833 5.448-11.106 8.871.444.519.896 1.03 1.355 1.535a36.373 36.373 0 0 0-1.272 2.216c5.184.582 12.1.177 15.086 5.064-2.19-.157-4.386-.732-6.576-.256-3.958.675-7.99 1.15-11.73 2.607.391 1.115.782 2.223 1.151 3.352-2.505-.042-5.011-.035-7.517-.05-2.121 3.616-.346 7.572 1.43 10.917-.895.298-1.79.618-2.679.945 1.385 1.52 3.567 1.598 5.44 2.23-.037.796-.075 1.598-.105 2.4-1.941 1.201-3.86 2.5-5.139 4.376-1.738 2.649-5.38 2.777-8.322 2.947 1.738-1.527 3.988-2.72 4.394-5.149-2.392.05-4.838.22-7.133-.54 1.92-.632 3.996-1.157 5.215-2.827a95.996 95.996 0 0 0-3.416-1.143c.557-.746 1.106-1.499 1.648-2.252-1.648-2.01-1.769-4.495-1.513-6.925-1.271-.546-2.543-1.086-3.792-1.669 2.197-1.165 4.989-2.237 4.913-5.078-3.13 1.243-6.305 2.457-9.127 4.261-.917-.475-1.835-.958-2.768-1.413a33.836 33.836 0 0 1-2.912 2.038c.248 1.478.519 2.955.782 4.425-1.159.107-2.325.213-3.483.327.827 1.3 1.723 2.564 2.513 3.878-1.851.27-3.725.398-5.598.42.504 1.931 1.888 3.444 3.054 5.042-2.836-.717-5.199-2.358-7.29-4.247-.467 1.2-.918 2.415-1.483 3.58-1.113-2.11-1.745-4.397-2.317-6.677-2.86 1.016-5.884 2.33-9.007 1.89-2.137-.2-3.077-2.494-3.31-4.234.602-3.416 2.347-6.513 3.46-9.787.76-2.266 1.709-4.468 3.003-6.513 1.392.056 2.844.632 4.206.149 2.942-1.897 3.4-5.47 5.357-8.069 1.31-2.045 3.318-3.558 5.455-4.794-2.054 2.614-4.8 4.83-6.02 7.962-.827 2.095-1.722 4.283-3.678 5.69-1.377 1.405-3.53.645-5.275.638-1.625 3.204-2.25 6.748-3.762 10-.73 2.26-2.385 4.916-.512 7.09 3.07 1.278 6.441-.171 9.36-1.187-1.076-2.01-3.852-3.452-3.242-5.987.45-2.394.91-5.256 3.408-6.528-.451 2.415-2.114 6.165 1.347 7.153.617-1.144 1.234-2.294 1.858-3.438 1.294.185 2.589.39 3.883.554-.143-1.406-.64-2.742-1.166-4.056 2.31-.262 4.62-.681 6.613-1.868-.88-1.513-1.828-3.004-2.415-4.645 4.003-2.756 10.113-4.638 10.707-10.007.399-3.829 1.016-7.629 1.738-11.414-.451-8.957 2.37-17.757 6.44-25.762.407-.987 1.257-1.647 2.235-2.109-.112 1.477-.3 2.962-.842 4.368-1.844 5.057-2.355 10.427-3.1 15.69.654 3.63.406 7.394 1.602 10.924.52 2.06-1.188 4.219.068 6.186 2.844-4.581 5.41-9.617 5.575-15.022 1.024.561 2.017 1.158 3.025 1.747 3.048-4.346 4.718-9.375 5.749-14.46a127.04 127.04 0 0 1 2.076 5.127c3.725-3.018 7.05-6.577 9.368-10.675a8.834 8.834 0 0 1 1.64-1.946c-.233 2.557-.805 5.093-.67 7.678 2.017-.973 3.635-2.486 5.298-3.906.18 1.313.36 2.635.94 3.856 3.838-3.38 6.75-7.642 11.046-10.561 2.784-1.918 5.665-3.73 8.713-5.256-2.619 3.345-5.485 6.697-6.734 10.767 1.422-.554 2.776-1.243 4.093-1.981.331.916.647 1.84.963 2.77 3.506-1.641 5.876-4.71 9.067-6.776 2.957-1.946 5.921-3.935 9.239-5.299-1.625 2.92-3.551 5.71-4.567 8.893 1.257-.405 2.506-.853 3.777-1.229.03 3.843-3.581 6.45-4.243 10.164-2.295.54-4.981.469-6.765 2.145-1.414 1.065-2.332 2.578-2.806 4.212 3.483-2.053 7.313-3.395 11.09-4.837 1.611-2.195 2.182-4.922 3.928-7.039 4.62-5.014 11.046-9.177 18.397-8.779 5.222.561 9.796-2.194 14.22-4.375 1.137 2.067 1.167 4.368 1.122 6.641.729-.533 1.557-1.023 1.843-1.904 2.024-4.197 2.904-8.814 2.957-13.41ZM40.916 70.7c2.8-.377 4.598-2.735 5.463-5.093-1.949 1.563-3.883 3.182-5.463 5.093Z" fill="url(#a)"/><path d="M157.925 28.801c7.803-3.139 15.921-6.278 24.552-6.214 3.062.05 6.44-.064 9.081 1.612-5.914.76-11.933 2.166-16.696 5.76a80.242 80.242 0 0 0 3.13 2.195c-.519.83-1.061 1.648-1.572 2.479 4.853.81 10.029.227 14.612 2.223 2.167.86 4.762 1.513 5.853 3.693-3.167.334-6.425.37-9.39 1.598.941 1.236 2.303 2.06 3.657 2.848-.331.952-.655 1.911-.971 2.87 3.153.717 6.546 1.115 9.165 3.097 2.332 1.761 5.109 3.217 6.621 5.746-1.753.277-3.514.468-5.252.788 1.31 1.108 2.679 2.152 4.018 3.232-.331.802-.654 1.612-.978 2.415 6.125 2.187 10.195 7.216 14.206 11.84-1.994.88-4.221.689-6.343.852.564 1.69 1.633 3.154 2.919 4.432-.301.682-.918 1.293-.895 2.074 1.384 3.58 4.958 5.817 6.9 9.077 1.384 2.642 2.37 5.455 3.363 8.246-2.227-.156-4.439-.497-6.674-.419 1.151 2.408 2.791 4.553 4.153 6.847-.895.703-1.821 1.357-2.731 2.039 3.25 6.91 6.982 14.112 6.456 21.883-2.378-.568-4.643-2.124-7.171-1.414.444 2.905 1.234 5.753 1.836 8.637-1.008.71-2.016 1.421-3.017 2.138.331 8.715 2.618 18.112-1.655 26.322-1.904-1.292-4.086-4.68-6.607-2.521-1.204 2.003-.654 4.418-.842 6.62-.956-.391-1.912-.796-2.86-1.18-1.745 3.559-1.331 7.6-2.671 11.272-1.189 4.184-3.491 8.04-6.23 11.492-.496-2.116-.632-4.346-1.655-6.307-.82-.383-1.49-.227-2.001.469-1.144 1.783-1.663 3.835-2.438 5.774-.76-.568-1.498-1.157-2.243-1.733-1.978 2.302-3.024 5.121-4.567 7.671-2.392 4.667-5.823 8.765-9.337 12.707-.805.937-1.957 1.506-3.055 2.074-.286-3.14 1.452-6.307.421-9.361-2.234-.278-2.573 2.656-4.416 3.302-1.076-.277-1.942-.994-2.897-1.491-2.927 3.04-6.448 5.476-9.563 8.331-2.265 1.996-4.966 3.679-8.096 4.084.263-1.79.737-3.544 1.075-5.32-1.896.874-3.619 2.017-5.312 3.203-.632-.674-1.226-1.377-1.918-1.995-2.596-.128-4.974 1.101-7.472 1.576-2.46.711-4.981-.014-7.411-.454a54.218 54.218 0 0 1-.391 4.119c-2.182-.887-3.582-3.011-5.99-3.473-2.054-.653-4.236-.639-6.365-.476.587 1.598 1.986 2.642 3.356 3.637-4.184 2.017-8.495-1.129-12.506-2.209.61 3.48 3.951 6.186 7.735 5.98 0 .355 0 1.059.008 1.414-5.741 1.115-11.422-1.222-16.11-4.17-3.671-2.358-4.431-7.578-8.87-8.963.308 1.676.684 3.352 1.286 4.965l-.933.483c-2.814-3.438-6.177-6.897-10.835-7.948-3.476-1.307-7.215-1.385-10.827-2.039a28.499 28.499 0 0 1-11.61-8.423c.647 2.713 2.573 4.872 3.973 7.252-5.846-.292-10.225-4.525-13.702-8.545-2.001-2.138-2.28-5.192-4.266-7.33a113.77 113.77 0 0 0-1.392 4.908l-1.708.313c1.919-4.198 1.498-9.269-1.61-12.856-2.776-4.169-8.849-5.164-10.752-10.001-.557 1.449-1.144 2.884-1.535 4.383 0 1.47.647 2.869.843 4.325-3.431-3.452-4.77-8.232-4.545-12.877.768-3.139 2.641-5.966 3.062-9.198-3.74.561-6.711 3.253-10.488 3.537 1.896-1.988 4.59-3.224 6.102-5.54 1.858-2.848 2.754-6.172 3.34-9.439.181-6.314-2.716-12.124-5.47-17.714-1.933 2.628-2.558 5.774-3.295 8.821-1.415-3.586-1.565-7.834.406-11.264 2.784-6.073 8.48-10.391 14.5-13.467 2.52-1.669 5.552-3.033 6.99-5.753-1.716.178-3.402.511-5.125.653 1.648-2.528 4.725-3.735 6.569-6.108 4.146-5.206 3.574-12.43 7.682-17.629.256.15.775.44 1.03.59-2.557 5.327-.338 11.13.4 16.606.842 3.097-.422 6.151-1.257 9.113.399-.107 1.189-.313 1.58-.419.708-1.265 1.4-2.529 2.114-3.786 2.122 1.996.911 5.149.317 7.543-1.897 3.409-5.862 5.533-7.261 9.255-.993 2.777-.745 5.831.135 8.608.775 2.663 3.68 4.162 4.44 6.847-2.01-.284-3.996-.746-6.012-.952.662 3.708 5.199 5.256 8.637 5.981 3.507 1.207 7.269-1.144 10.722.333 3.063 1.201 6.185 2.877 7.803 5.739.338 2.252.128 4.546.083 6.812-2.1-.938-3.665-2.998-6.178-2.941-2.385.093-5.68.135-6.613 2.685-1.754 2.209.602 4.51 2.58 5.604 3.672 2.06 8.111 1.115 11.873-.185.61 3.459-2.738 5.192-5.018 7.188 4.379.114 8.578-1.548 12.964-1.648 3.055.54 5.372 2.699 6.907 5.143-3.438.17-7.065-.427-10.3.973-1.64.525-2.295 2.194-3.341 3.359-1.076 1.598-3.205 1.918-4.883 2.699 1.775 1.087 3.694 2.046 5.808 2.38 1.212.291 2.702.042 3.635 1.008-2.386 1.343-5.14 1.676-7.818 2.145 2.445 1.719 5.545 2.209 8.502 2.493 4.033-.362 7.87-2.209 11.986-1.839 4.206.333 8.615.873 12.325 2.912.226.305.677.923.895 1.228-1.625-.092-3.205-.525-4.838-.554-2.859.938-5.35 2.614-8.103 3.779 4.439 2.259 9.503.746 14.258.732-.58 1.15-1.211 2.272-1.783 3.43 5.146-.092 9.24-3.715 14.409-3.622.865-.22 3.047-.142 1.828 1.143-1.971 1.016-4.748 1.748-4.913 4.269 4.401.241 8.841.362 13.227-.099 2.656-.768 5.184-1.961 7.976-2.28.09.568.271 1.697.354 2.265 5.996-1.314 11.895-3.615 16.395-7.692 1.174-1.363 3.258-.461 4.733-1.243 3.175-1.065 4.996-3.892 6.591-6.506.775-1.285 2.581-1.065 3.897-1.356 1.844-2.678 4.018-5.128 5.952-7.742.248 1.143.512 2.287.797 3.43 1.799-2.549 2.002-5.76 3.77-8.338 1.768-2.614 2.453-5.959 5.132-7.941.203 2.287-.008 4.695.902 6.861.286.135.858.405 1.144.533.422-4.034.233-8.09-.241-12.11-1.181.32-2.317.938-3.574.945-2.483-1.414-3.92-3.843-5.485-6.045.098 3.012 2.671 5.555 2.039 8.63-2.144 3.466-6.531 5.022-8.652 8.523-1.49 2.351-2.702 4.944-4.899 6.819-1.858 1.413-4.341 1.449-6.598 1.683 1.738-2.997 2.573-6.343 2.249-9.759-1.324.739-2.611 1.925-4.281 1.619-2.22-.135-3.145-2.613-2.822-4.417 2.024-7.842 2.152-16.059.648-24-1.964-.242-3.906-.647-5.719-1.399.158-1.961.865-3.949.263-5.896-.609-2.464-1.903-5.234-.225-7.599 1.542-.384 3.175.127 4.71-.284 2.656-1.435 3.536-4.731 2.536-7.359-1.43-1.832-4.169-1.946-6.321-2.457.58-2.884 3.612-3.793 6.245-4.39-1.58-1.228-3.551-1.42-5.507-1.236.857-1.065 1.617-2.457 3.175-2.67 2.242-.355 4.514.156 6.757.319-1.265-2.095-4.184-1.967-5.681-3.743 3.07.029 6.606-.887 9.262 1.016 3.047 2.216 5.026 5.597 5.455 9.205-.895.497-1.806.987-2.701 1.492.557 1.555 1.52 2.919 2.355 4.346.384 2.28-.895 4.383-1.889 6.371-1.068-.831-2.121-1.676-3.22-2.464a15.88 15.88 0 0 0-.873 2.912c.407 1.726 2.423 2.912 2.31 4.773-.805 2.045-2.754 3.629-2.979 5.881-.256 3.651.316 7.507 2.377 10.668 1.257 1.364 3.725 1.136 4.929 2.521-.158 2.01-.775 3.964-.858 5.988 3.664-4.667 4.289-10.803 3.137-16.365-.624-1.974.565-3.707 1.505-5.362 1.407-1.967-.007-4.425.963-6.52.866-2.138 1.889-4.695 4.214-5.725 1.821-.788 3.055 1.08 4.371 1.918 5.561 4.112 10.632 9.617 11.655 16.435.888 3.09 1.475 6.229 2.039 9.376 2.25-4.028.399-8.737-.346-12.927-.79-3.715 2.25-6.904 1.912-10.604.03-4.205-3.416-7.266-4.891-11.009 1.121-.043 2.242-.093 3.363-.142-1.189-2.16-2.385-4.319-3.423-6.556 1.271.014 2.543.05 3.814.071-2.746-3.75-5.68-7.685-6.275-12.344-.399-3.594-1.332-7.302-3.8-10.164-2.242-2.87-6.267-4.432-7.29-8.104 2.309-.036 5.981 1.59 7.208-1.009-3.702-.1-7.524-1.435-9.714-4.382-.241-1.08-.023-2.188.007-3.275-2.272-.667-4.777-1.115-6.606-2.663-.715-1.207.008-2.614.121-3.885-2.792-.085-5.666-.029-8.322-.959-3.198-1.47-5.771-3.892-9.014-5.284-1.61-.796-3.439-1.293-4.793-2.493-.339-.966-.354-2.202.564-2.898 2.619-2.373 6.486-3.239 8.698-6.066 1.362-1.896 2.416-3.992 3.258-6.136 1.174-3.175.188-7.046 2.468-9.83Z" fill="url(#b)"/><path d="M14.19 96.504c4.214 1.115 8.548.312 12.476-1.279-1.385 3.346-3.288 6.698-6.441 8.85-3.115 1.861-6.983 2.117-10.037 4.098-2.498 1.101-3.755 3.466-5.433 5.384.075-5.085 2.987-9.752 6.99-13.005-3.077 1.712-6.23 3.36-8.909 5.625 1.573-2.528 2.152-5.717 4.748-7.57 1.896-1.308 4.1-3.062 6.606-2.103Z" fill="url(#c)"/><defs><linearGradient id="a" x1="9.902" y1="52.624" x2="162.951" y2="52.624" gradientUnits="userSpaceOnUse"><stop stop-color="#495057"/><stop offset="1" stop-color="#6C757D"/></linearGradient><linearGradient id="b" x1="10.444" y1="122.885" x2="225.159" y2="122.885" gradientUnits="userSpaceOnUse"><stop stop-color="#495057"/><stop offset="1" stop-color="#6C757D"/></linearGradient><linearGradient id="c" x1="2.836" y1="104.391" x2="26.666" y2="104.391" gradientUnits="userSpaceOnUse"><stop stop-color="#495057"/><stop offset="1" stop-color="#6C757D"/></linearGradient></defs></svg>