<svg width="138" height="138" viewBox="0 0 138 138" fill="none" xmlns="http://www.w3.org/2000/svg">
<path d="M64.4237 135.014C43.7634 133.83 27.1628 124.88 16.717 109.292C5.44232 92.4685 3.30725 71.4559 11.1922 54.9196C13.7894 49.4728 16.5538 45.5346 21.0054 40.9397C23.3379 38.5321 24.551 37.5573 28.3155 35.0655C30.7979 33.4223 33.4441 31.7519 34.1959 31.3535L35.5628 30.629L36.9837 31.7575C38.922 33.2969 40.7866 34.1298 42.3019 34.1329L43.5441 34.1356L42.7698 32.6089C40.8716 28.8662 42.34 28.1921 47.321 30.5197C50.2259 31.8772 51.8778 32.3763 52.6522 32.1305C53.1078 31.986 53.1757 31.8036 53.0537 31.0523C52.973 30.5549 52.6607 29.8021 52.3597 29.3794C51.6582 28.3942 51.6634 27.449 52.374 26.809C52.88 26.3533 53.3597 26.3057 57.2194 26.328C71.4139 26.4102 83.3173 30.5763 92.1094 38.5393C96.5453 42.5568 102.511 50.7759 103.718 54.5317C104.391 56.6269 105.157 56.647 106.252 54.5981L106.759 53.6499L106.566 55.2429C106.46 56.1191 106.374 58.3294 106.375 60.1547C106.377 62.8309 106.471 63.6534 106.857 64.4028C108.264 67.1285 108.011 77.0236 106.397 82.4596C106.174 83.2105 105.453 84.9988 104.796 86.4335C102.833 90.7155 102.892 91.929 105.03 91.2234C105.545 91.0535 106.237 91.0005 106.568 91.1056C107.065 91.2633 106.887 91.374 105.55 91.7402C102.611 92.5449 100.274 94.2666 97.611 97.5905C91.154 105.648 82.2783 110.022 70.0959 111.148C67.0343 111.431 66.4308 111.408 63.1929 110.888C61.2414 110.574 58.5137 110.029 57.1313 109.676C55.749 109.323 54.5751 109.076 54.5227 109.129C54.3701 109.281 57.7985 111.132 59.7321 111.941C61.7964 112.805 64.5701 113.361 65.7333 113.144C66.5274 112.997 66.5765 113.049 67.6969 115.242C69.5288 118.828 72.0811 121.203 74.132 121.228C75.2812 121.243 74.1367 121.676 71.7591 122.127C62.2188 123.937 50.925 119.783 43.1619 111.61C39.1996 107.438 35.6486 100.341 33.7559 92.8114C33.4439 91.5702 33.1258 90.3157 33.049 90.0236C32.9721 89.7316 33.5483 90.5645 34.3294 91.8747C36.1603 94.9457 38.9068 97.7685 41.1923 98.9285C43.491 100.095 46.3646 100.301 48.7343 99.4687C49.5968 99.1658 50.6361 98.9179 51.0438 98.9179C52.2452 98.9179 55.808 97.672 57.4446 96.6795C62.9999 93.3107 68.9641 92.2243 72.7779 93.8866L74.2291 94.519L72.7667 94.812C69.8449 95.3973 68.1 96.9436 67.4621 99.5131C67.2815 100.241 67.1947 101.896 67.2565 103.435L67.3635 106.098L61.2473 105.943C54.7288 105.777 54.2982 105.898 58.0562 106.84C61.3695 107.671 63.8839 107.972 67.477 107.968C76.2261 107.959 83.1276 105.19 90.0271 98.9209C96.7188 92.8409 100.654 84.7943 101.702 75.0502C102.102 71.3378 100.952 68.5879 97.8271 65.7765C96.9235 64.9636 96.2502 64.1918 96.3309 64.0613C96.5652 63.6821 98.32 64.1155 99.3979 64.8188C100.621 65.6168 101.023 65.6435 100.79 64.9114C100.694 64.6071 100.338 63.132 99.9991 61.6335C96.8399 47.6521 84.728 37.0201 67.7105 33.29C65.3122 32.7643 64.2144 32.6868 59.2465 32.6919C54.3603 32.6969 53.1629 32.7814 50.9326 33.2786C42.0856 35.2507 33.8925 39.6088 27.9513 45.5026C21.1159 52.2836 17.2347 59.2131 15.6911 67.3924C14.7137 72.5715 15.2166 73.4409 17.7264 70.9111C18.543 70.0878 19.2494 69.4525 19.2961 69.4991C19.3428 69.5458 19.0412 70.7942 18.626 72.2734C17.3705 76.7457 16.9546 79.8892 17.0933 83.8581C17.203 86.9976 17.3061 87.6071 18.0693 89.6254C23.4903 103.962 34.1506 114.588 48.7692 120.228C54.9183 122.601 64.0854 123.759 71.558 123.108C82.3371 122.169 91.2472 118.51 99.0553 111.816C102.787 108.617 106.352 104.241 109.549 98.934C112.407 94.1917 114.079 89.7218 115.168 83.9171C115.943 79.7825 115.874 70.8745 115.035 66.9384C113.337 58.9639 109.798 51.9546 104.038 45.1538C100.309 40.7521 92.6402 35.2369 86.5648 32.588L84.5767 31.7212L83.7589 29.2777C83.3091 27.9338 82.5135 25.6693 81.9908 24.2456C81.4682 22.8218 81.0783 21.6569 81.1244 21.6569C81.1706 21.6569 82.1324 22.0838 83.2617 22.6057C84.3911 23.1275 85.3779 23.4917 85.4546 23.415C85.894 22.9756 81.7218 16.6867 79.0714 13.7934L77.5234 12.1036L78.4076 12.27C80.0747 12.5838 85.4905 14.199 88.0994 15.1604C91.5221 16.4217 98.5854 19.8875 101.594 21.7818C107.694 25.6225 114.383 31.5495 118.233 36.525C125.173 45.4938 129.136 55.1613 130.968 67.5887C133.178 82.5803 128.621 98.6504 118.845 110.334C116.076 113.644 109.736 119.654 106.904 121.653C98.0978 127.87 88.162 132.043 77.3006 134.088C75.0363 134.514 68.6428 135.327 68.1424 135.252C67.9955 135.23 66.3221 135.123 64.4237 135.014V135.014ZM51.6242 46.9455C50.4654 45.2309 49.7012 43.4618 49.6942 42.4773C49.69 41.8784 49.5094 41.5635 49.0201 41.3016C48.6525 41.1049 48.0647 40.5675 47.7138 40.1075C47.0992 39.3018 45.4135 36.1979 45.5281 36.0833C45.5589 36.0525 46.5201 36.4977 47.6641 37.0727C49.9183 38.2056 51.2995 38.3945 52.2843 37.7047C52.6089 37.4774 52.8744 37.0587 52.8744 36.7744C52.8744 36.4358 53.6157 35.7077 55.0214 34.6654C57.1346 33.0986 57.196 33.0735 58.9158 33.0735C59.8769 33.0735 61.4153 33.2045 62.3346 33.3646C63.6598 33.5953 64.0427 33.7716 64.1837 34.2157C64.2962 34.5701 64.2359 34.8176 64.0195 34.8898C63.8314 34.9525 63.0389 35.3397 62.2584 35.7502C56.8791 38.5799 53.3659 42.7254 52.9525 46.7308C52.8687 47.5428 52.7272 48.2069 52.6381 48.2066C52.5491 48.2066 52.0928 47.6388 51.6242 46.9455V46.9455ZM39.8272 32.5392C39.2954 32.2582 38.2798 31.3823 37.5704 30.5928C36.352 29.2368 36.1989 29.1508 34.8059 29.0402C33.9948 28.9758 32.7649 28.649 32.0728 28.314C30.8117 27.7035 27.9173 25.5068 27.9173 25.1602C27.9173 25.0587 28.7513 24.9757 29.7707 24.9757C31.5095 24.9757 31.6777 24.9221 32.4911 24.1086L33.3582 23.2415L32.654 22.6484C32.2667 22.3221 31.7982 21.7565 31.6128 21.3914C31.259 20.6946 30.8257 18.7364 31.0253 18.7364C31.0892 18.7364 31.6406 19.0264 32.2508 19.3808C33.6771 20.2094 36.3836 20.6934 38.3545 20.4724C39.852 20.3045 43.8192 19.3841 44.0529 19.1504C44.1165 19.0867 43.7533 18.67 43.2457 18.2243C42.3134 17.4057 40.3958 14.1069 40.3958 13.3216C40.3958 13.0014 40.7206 13.1296 41.7102 13.8406C43.1849 14.9 45.5378 15.8159 46.7848 15.8159H47.6116L46.9449 15.0235C46.2664 14.2173 45.1749 11.64 45.1749 10.8445C45.1749 10.4965 45.325 10.5466 45.905 11.0879C49.7789 14.7033 56.1729 15.4949 61.5747 13.0279C64.9349 11.4934 70.0184 7.18614 72.077 4.12921L73.0102 2.74347L73.2954 3.77052C73.8724 5.84831 73.5631 7.40226 72.3055 8.74525L71.5923 9.50691L72.256 9.31083C73.7673 8.86438 74.5897 8.40463 75.1663 7.68389L75.7761 6.92158L75.6455 9.32321C75.5597 10.9016 75.3335 12.1349 74.9858 12.9211L74.4566 14.1174L76.2781 14.4042C77.28 14.562 78.2805 14.8411 78.5013 15.0244C78.8262 15.2939 81.7392 19.3578 82.4128 20.4812C82.5067 20.6377 81.995 20.4746 81.2758 20.1186C80.2895 19.6305 79.7402 19.5142 79.0406 19.6455L78.1131 19.8195L79.0039 21.0701C80.2623 22.8367 81.6959 25.7931 82.6026 28.4914C83.0295 29.7616 83.3378 30.8418 83.2878 30.8918C83.2379 30.9417 82.1282 30.4459 80.822 29.7898C77.5839 28.1636 73.6032 26.8176 69.6165 26.0009C66.9091 25.4463 65.4587 25.3107 61.9015 25.2795C57.3131 25.2394 52.8081 25.4689 52.0017 25.784C51.3482 26.0392 50.8529 27.0889 50.5096 28.946C50.35 29.8095 50.2194 30.5523 50.2194 30.5967C50.2194 30.641 49.5324 30.366 48.6928 29.9855C43.4887 27.6273 41.6783 27.1182 40.9799 27.8166C40.5029 28.2936 40.5956 30.2397 41.1668 31.7431C41.6265 32.953 41.6325 33.0724 41.2332 33.0618C40.9917 33.0553 40.359 32.8201 39.8272 32.5392V32.5392ZM60.709 20.8963C61.2944 20.6304 62.1488 19.9851 62.6078 19.4624C63.3988 18.5614 63.555 18.5021 65.6097 18.3229C66.8018 18.2189 67.6797 18.0401 67.5607 17.9256C67.2259 17.6035 64.3619 17.1434 62.6917 17.1434C61.0273 17.1434 57.63 17.9293 56.2827 18.626L55.412 19.0763L56.5488 20.085C57.5355 20.9607 58.006 21.1702 59.3792 21.3458C59.5252 21.3645 60.1236 21.1622 60.709 20.8963V20.8963Z" fill="url(#paint0_linear_544_65)"/>
<defs>
<linearGradient id="paint0_linear_544_65" x1="6.48352" y1="69" x2="131.517" y2="69" gradientUnits="userSpaceOnUse">
<stop stop-color="#495057"/>
<stop offset="1" stop-color="#6C757D"/>
</linearGradient>
</defs>
</svg>
