<svg width="237" height="217" fill="none" xmlns="http://www.w3.org/2000/svg"><path d="M184.21 40.389c.445 0 .892.027 1.334-.005 1.759-.129 3.285.491 4.703 1.447a19.28 19.28 0 0 0 2.197 1.27c.17.086.344.176.527.217.392.088.83.204 1.119-.173.264-.344.027-.69-.162-.995-.681-1.098-1.368-2.191-1.668-3.473-.886-3.785-.436-7.352 1.74-10.636.764-1.153 1.514-1.347 2.67-.593 2.08 1.358 3.919 3.026 5.77 4.669 2.691 2.388 5.309 4.855 7.812 7.442 1 1.033 2.016 2.057 2.839 3.244.622.898.466 1.433-.548 1.794-2.616.934-4.934 2.415-7.245 3.908-1.942 1.255-3.814 2.599-5.334 4.372a16.186 16.186 0 0 0-2.392 3.654c-.396.841-.294 1.283.419 1.894a3.42 3.42 0 0 0 2.099.813c2.93.139 5.21 1.602 7.295 3.484.754.68 1.472 1.4 2.226 2.08.543.49.991 1.04 1.298 1.705.07.153.141.315.251.438.244.273.539.554.926.406.374-.144.267-.536.25-.842-.084-1.487-.443-2.924-.801-4.363-.929-3.733-.646-7.349 1.157-10.787.698-1.333 1.736-2.39 2.911-3.316.437-.344.861-.279 1.284.019.85.598 1.441 1.43 1.992 2.282 3.055 4.715 5.718 9.646 8.072 14.745.993 2.152 1.945 4.324 2.632 6.598.582 1.928-.006 2.75-2.027 2.71-1.818-.038-3.564.38-5.34.642-3.257.48-6.198 1.843-9.177 3.1-1.168.493-2.228 1.22-3.211 2.031a4.613 4.613 0 0 0-.808.89c-.681.958-.485 1.64.577 2.118.058.026.113.063.174.076 2.876.64 4.514 2.758 6.009 5.04.394.601.748 1.229 1.12 1.844.222.365.322.765.433 1.178.301 1.124.954 2.069 1.732 2.918.332.363.644.267.825-.18.265-.655.336-1.355.443-2.044.426-2.73 1.076-5.397 2.267-7.904.665-1.401 1.477-2.718 2.588-3.82 1.529-1.516 3.438-2.017 5.525-1.953.863.026 1.239.433 1.211 1.295-.039 1.167.219 2.235.661 3.321.61 1.497.72 3.127.873 4.729.462 4.834.423 9.68.315 14.525-.027 1.205-.11 2.408-.118 3.615-.004.743-.216.938-.964.926-.828-.014-1.666-.071-2.453-.303-2.75-.814-5.552-.865-8.372-.646-2.933.228-5.872.45-8.701 1.361-.547.177-1.087.363-1.554.707-.666.49-.699.977-.037 1.484 1.073.824 2.242 1.518 3.241 2.445 1.491 1.384 2.607 2.992 3.12 4.983.221.856.119 1.727.13 2.592.003.169-.016.339-.008.508.016.354.201.616.53.717.379.116.494-.206.652-.46 1.338-2.155 2.629-4.332 4.841-5.779 2.191-1.434 4.567-2.082 7.159-1.985 1.161.043 1.63.526 1.69 1.709a21.931 21.931 0 0 1-.697 6.669 81.29 81.29 0 0 0-1.927 9.835c-.303 2.281-1.053 4.442-1.826 6.595-.21.586-.616.475-1.032.29-1.566-.697-3.164-1.334-4.687-2.114-4.214-2.157-8.694-2.69-13.338-2.326-1.062.083-1.517.506-1.426 1.293.032.285.141.534.351.728 1.262 1.164 1.657 2.723 1.926 4.32.254 1.503.095 2.993-.315 4.457a11.602 11.602 0 0 0-.428 2.497c-.029.54.259.687.718.573.54-.135.962-.461 1.184-.974.236-.545.618-.941 1.072-1.306a41.443 41.443 0 0 1 2.557-1.879c1.539-1.051 3.256-1.51 5.093-1.551 1.312-.029 2.626-.004 3.94-.003.084 0 .169.002.254.007 1.891.107 2.476.938 1.83 2.705-.815 2.231-1.935 4.327-3.034 6.425-1.926 3.676-3.999 7.269-6.392 10.666-.755 1.072-1.491 2.165-2.481 3.046-.722.644-1.219.701-2.084.276-.425-.209-.777-.506-1.108-.839-2.608-2.62-5.68-4.612-8.87-6.42a9.85 9.85 0 0 0-5.373-1.282c-.981.045-1.121.324-.818 1.216.533 1.57 1.293 3.088 1.191 4.824-.119 1.995-.942 3.734-2.025 5.337-.494.732-.684 1.532-.997 2.308a.276.276 0 0 0 .096.34c.096.07.192.044.295-.005 1.679-.792 3.364-1.572 5.037-2.375.895-.43 1.74-.965 2.684-1.295 2.906-1.013 5.801-1.375 8.697.059.912.452 1.907.571 2.914.448a2.116 2.116 0 0 1 1.555.393c.242.172.488.342.751.477 1.48.761 2.099 2.073 2.365 3.626.071.409.041.802-.074 1.191-.383 1.295-.749 2.599-1.294 3.836-.319.724-.912 1.27-1.46 1.825-2.962 2.995-5.992 5.924-8.811 9.057-.468.519-.923 1.052-1.247 1.676-.154.298-.345.624-.032.933.323.32.651.166.986-.015 1.995-1.081 4.045-2.038 6.23-2.677.283-.083.578-.128.866-.192.195-.043.391-.057.52.125.132.188.013.373-.068.537-.282.57-.776.944-1.271 1.308-1.284.946-2.715 1.646-4.136 2.349-1.522.753-2.916 1.637-3.878 3.079-.258.387-.529.769-.746 1.178-.874 1.649-2.252 2.72-3.922 3.461a6.313 6.313 0 0 0-1.56.968c-.57.488-.949 1.074-.935 1.861.003.165-.019.345-.084.494a.526.526 0 0 1-.623.324c-.291-.063-.322-.306-.286-.554.121-.838.25-1.674.371-2.512.027-.188.045-.379.045-.568.001-.302-.133-.534-.418-.652-.278-.115-.549-.085-.765.133-1.532 1.55-3.136 3.038-4.182 4.995a3.872 3.872 0 0 0-.439 1.448c-.041.4-.066.804-.149 1.196-.08.374-.088.911-.64.861-.48-.044-.676-.494-.714-.935-.078-.897.148-1.764.334-2.633.067-.314.347-.689.007-.942-.382-.285-.786-.032-1.106.207-1.074.804-1.884 1.881-2.851 2.794-2.354 2.222-3.857 5.014-5.365 7.809-.09.168-.175.341-.285.495-.176.248-.293.621-.705.512-.38-.101-.517-.434-.545-.784-.197-2.488-.054-4.911 1.38-7.085 1.649-2.499 3.775-4.545 6.052-6.456 2.367-1.988 4.993-3.65 7.261-5.756 1.845-1.713 3.565-3.568 5.478-5.2 3.161-2.696 5.617-6.033 8.47-9.005.365-.38.725-.778.9-1.294.244-.721-.031-1.127-.785-1.112-1.493.03-2.867.511-4.185 1.173-1.191.599-2.374 1.216-3.626 1.688-.323.121-.573.33-.803.596-1.068 1.232-1.964 2.601-3.073 3.8-.528.569-.745.572-1.246-.041-2.02-2.475-3.934-5.045-6.289-7.225-1.634-1.513-3.336-2.944-5.475-3.726-.748-.273-1.511-.41-2.306-.343-.728.063-1.338.627-1.293 1.318.225 3.44-1.417 6.045-3.681 8.386-.678.702-1.43 1.32-2.172 1.951-.096.082-.204.155-.287.249-.256.29-.72.575-.392 1.007.296.389.655-.008.959-.144 1.901-.852 3.896-1.346 5.973-1.309 3.56.065 6.892.923 9.777 3.135.463.355.854.762 1.067 1.312.13.338.167.681-.196.903-1.768 1.08-3.208 2.548-4.732 3.923-1.52 1.371-3.34 2.312-5.12 3.289-3.213 1.763-6.504 3.369-9.993 4.532-.721.24-1.444.473-2.229.44-.499-.021-.706-.243-.795-.713-.642-3.417-1.511-6.776-2.759-10.025-1.066-2.776-2.763-5.129-4.964-7.121-.699-.633-1.694-.4-2.084.489-.671 1.532-1.268 3.11-2.305 4.44-1.366 1.751-3.134 2.998-5.19 3.836-.039.016-.083.022-.119.044-.355.22-.872.4-.852.849.021.479.583.492.951.554.708.119 1.431.234 2.144.216 3.027-.076 5.504 1.163 7.673 3.138 1.324 1.205 2.433 2.582 3.198 4.225.539 1.158.205 2.016-1.051 2.292-3.509.772-7.036 1.459-10.613 1.844-3.388.366-6.779.697-10.169 1.043-.938.096-1.54-.427-1.592-1.362-.067-1.205.18-2.353.568-3.486.577-1.681.524-3.38.303-5.136-.276-2.187-1.023-4.224-1.635-6.309a2.94 2.94 0 0 0-.39-.864c-.942-1.352-1.786-1.475-3.053-.44-.082.067-.174.127-.239.208-1.914 2.366-4.692 2.961-7.435 3.629-.963.235-1.926.218-2.901.067-.457-.07-.928-.058-1.393-.062-.341-.003-.644.128-.759.467-.111.329.17.499.387.659 1.245.919 2.601 1.664 3.909 2.484 1.666 1.044 3.358 2.058 4.589 3.662 1.152 1.5 1.768 3.161 1.737 5.058-.017 1.022-.435 1.474-1.465 1.486-1.95.023-3.893-.107-5.832-.305-1.39-.142-2.795-.233-4.15-.575-3.721-.938-7.543-1.298-11.296-2.046-.495-.099-.975-.289-1.447-.472-.884-.343-1.03-.866-.451-1.609a35.89 35.89 0 0 0 3.126-4.777c1.242-2.257 2.267-4.603 2.579-7.186.177-1.467.313-2.947.13-4.428-.096-.77-.582-1.048-1.312-.759-.296.117-.569.27-.799.504-1.253 1.273-2.794 1.833-4.562 1.929-2.145.117-4.224.025-6.153-1.103-.773-.453-1.683-.562-2.577-.609-.458-.024-.91.051-1.14.522-.224.46.118.751.376 1.056.464.548.93 1.095 1.397 1.642.143.167.242.357.224.577-.058.713.282 1.264.707 1.78.755.915 1.1 1.899.81 3.119-.158.664-.058 1.39-.07 2.088-.005.277.016.576-.208.774-.485.427-.589 1.004-.704 1.589-.06.311-.147.618-.239.921-.512 1.687-1.445 2.234-3.182 1.861-1.525-.328-2.922-.999-4.321-1.653a82.003 82.003 0 0 1-12.186-7.058 5.208 5.208 0 0 0-.485-.302c-.708-.391-1.397-.092-1.534.7a10.738 10.738 0 0 0-.152 2.022c.013.724-.074 1.428-.34 2.116-.317.821-.91 1.154-1.754 1.209-2.49.162-4.547-.782-6.33-2.435-3.734-3.459-7.833-6.465-11.863-9.558-1.074-.824-2.118-1.689-3.176-2.534-.382-.305-.775-.597-1.235-.77-.264-.099-.547-.323-.828-.07-.24.216-.134.51-.097.78.12.872.434 1.675.877 2.431.631 1.077 1.232 2.173 1.898 3.228 1.461 2.318 1.425 4.76.674 7.273-.121.405-.276.8-.424 1.196-.084.226-.206.449-.492.407-.313-.047-.37-.304-.386-.575-.023-.401-.063-.802-.073-1.204-.06-2.265-.772-4.377-1.666-6.412-.446-1.017-.992-2.007-1.526-2.992a2.111 2.111 0 0 0-.633-.705c-1.266-.903-2.297-2.061-3.415-3.125-.258-.246-.379-.562-.484-.881-.433-1.307-1.294-1.69-2.774-1.457-.958.15-1.892.423-2.675 1.081-.445.374-1.025.506-1.604.536-.555.03-.778-.266-.614-.802.444-1.459 1.419-2.422 2.825-2.97.197-.077.403-.129.603-.199.592-.208.681-.481.296-.985-.376-.491-.872-.863-1.342-1.257-1.494-1.253-3.101-2.353-4.75-3.392-.779-.491-1.63-.753-2.564-.85-1.488-.153-2.949-.258-4.374.344-.243.102-.54.09-.813.103-.276.014-.574.015-.711-.294-.129-.291.029-.54.187-.764.39-.551 1.003-.756 1.595-.986.488-.19 1.024-.258 1.441-.629.182-.161.438-.106.674-.083a13.52 13.52 0 0 1 2.796.566c1.038.331 2.112.439 3.191.496.668.035.926-.346.586-.92-1.288-2.176-2.912-4.051-5.038-5.458-.088-.058-.215-.166-.275-.139-.668.294-.904-.056-1.102-.628-.063-.181-.406-.28-.634-.386-2.406-1.117-4.95-1.584-7.589-1.554-.917.01-1.79.313-2.68.498-.332.069-.7.193-.901-.202-.2-.39-.033-.747.242-1.041.511-.548 1.208-.68 1.901-.778 3.39-.477 6.715-.262 9.945.951.306.115.623.169.602.604-.008.175.162.336.279.217.31-.315.692-.297 1.066-.4.414-.115.267-.488.099-.787-.843-1.502-1.906-2.847-2.967-4.194-.903-1.147-1.862-2.25-2.618-3.508-.639-1.063-.863-2.285-1.343-3.413-2.198-5.172-4.02-10.472-5.007-16.025a50.773 50.773 0 0 1-.742-11.251c.064-1.375-.099-2.732-.038-4.104.17-3.873.992-7.583 2.554-11.131.515-1.169.908-2.371.975-3.661.03-.575-.16-.733-.71-.546-.617.209-1.008.684-1.348 1.204-1.234 1.885-2.161 3.928-3.044 5.992-1.326 3.097-2.538 6.234-3.236 9.544a34.718 34.718 0 0 0-.682 9.4c.066 1.035.06 2.074.142 3.106.129 1.613.529 3.17 1.075 4.69.251.702.395 1.428.468 2.166.058.578-.212.792-.765.615-.609-.195-1.064-.603-1.42-1.123-.875-1.279-1.375-2.718-1.69-4.216a46.328 46.328 0 0 1-1.01-8.878c-.024-1.664.433-3.268.633-4.904.253-2.074 1.088-3.998 1.557-6.012 1.087-4.671 3.116-8.934 5.475-13.061.872-1.525 1.851-2.987 3.046-4.287.247-.27.342-.536.16-.856-.18-.316-.485-.22-.742-.16-1.352.315-2.388 1.148-3.353 2.085-2.067 2.007-3.893 4.238-5.878 6.322a84.548 84.548 0 0 0-5.572 6.503c-.584.752-1.152 1.517-1.744 2.262-.611.768-1.13 1.582-1.43 2.526-.129.406-.34.774-.63 1.092-.253.276-.539.504-.942.36-.393-.14-.418-.496-.427-.842-.05-1.841.384-3.561 1.26-5.181.71-1.315 1.707-2.414 2.645-3.559a44.361 44.361 0 0 0 3.303-4.58c.818-1.306 1.982-2.317 3.08-3.361 2.256-2.143 4.447-4.35 6.681-6.513.777-.752 1.731-1.284 2.614-1.904.72-.505 1.361-1.085 1.664-1.944.265-.752.054-1.012-.72-.884a7.53 7.53 0 0 0-2.383.836c-1.844 1.002-3.595 2.158-5.399 3.225-1.316.778-2.692 1.238-4.255 1.297-1.549.06-3.01.66-4.465 1.183-1.309.472-2.661.687-4.042.757-.21.01-.425-.002-.633-.033-.263-.038-.496-.149-.567-.436-.074-.301.12-.477.34-.62.711-.466 1.483-.816 2.262-1.148 4.382-1.869 8.838-3.555 13.247-5.355 2.665-1.088 5.329-2.183 7.885-3.516.262-.136.514-.295.759-.46.219-.148.4-.347.307-.634-.091-.282-.345-.347-.614-.358-1.344-.05-2.713-.031-3.948.489-2.891 1.218-5.875 1.094-8.88.812-2.566-.24-5.029-.95-7.462-1.767-.254-.085-.57-.142-.604-.483-.034-.348.162-.608.435-.798.28-.194.584-.348.931-.382 1.186-.118 2.363-.492 3.56.048.468.211 1.017.017 1.498-.117 1.876-.525 3.811-.54 5.727-.681 6.313-.463 12.63-.86 18.866-2.037.618-.117.976-.415 1.15-1.015.48-1.662.523-3.384.717-5.083.458-4.015.786-8.047 1.77-11.984.195-.781.41-1.56.818-2.26.399-.687.953-1.12 1.819-1.002.65.089 1.305.132 1.958.2 1.044.108 1.67-.215 2.072-1.184.431-1.039.717-2.127.81-3.253.065-.8-.253-1.045-1.028-.855-.765.188-1.2.755-1.582 1.378-.154.252-.266.53-.422.78-.262.42-.594.778-1.059.976-.541.231-1.148.399-1.626-.003-.469-.393-.278-1.002-.091-1.484a73.192 73.192 0 0 1 2.181-4.998c1.32-2.769 2.506-5.601 4.056-8.256a24.417 24.417 0 0 1 1.645-2.489c.483-.635 1.057-.715 1.692-.239 1.188.89 2.43 1.695 3.732 2.408.772.424 1.108.366 1.743-.257 2.317-2.276 4.31-4.828 6.291-7.389.211-.273.73-.602.348-1.017-.352-.383-.857-.272-1.292-.013-1.082.646-2.26.982-3.487 1.263-1.544.355-3.04.91-4.562 1.363-.478.143-.992.205-1.362-.22-.367-.422-.219-.923-.067-1.388.248-.758.822-1.27 1.41-1.758.562-.464 1.047-.988 1.386-1.635.223-.424.581-.723.914-1.046 2.261-2.197 4.344-4.586 6.85-6.518 1.254-.966 2.318-2.175 3.732-2.936.055-.03.133-.066.148-.115.282-.887 1.16-.783 1.79-1.092.474-.233.736-.071.95.374a286.81 286.81 0 0 0 2.018 4.1c.76 1.52 1.646 2.96 2.783 4.233.196.22.414.425.641.613 1.11.919 1.598.893 2.71.003 1.408-1.128 2.368-2.642 3.528-3.983.93-1.074 1.962-1.982 3.309-2.496.536-.204 1.043-.47 1.44-.902.449-.486.372-.798-.269-1.007a3.403 3.403 0 0 0-2.128-.01c-.93.302-1.866.337-2.822.225-2.677-.312-5.326-.754-7.856-1.728-.612-.235-1.34-.458-1.416-1.21-.075-.753.606-1.113 1.147-1.473 1.802-1.201 3.723-2.194 5.71-3.042 2.609-1.114 5.077-2.56 7.783-3.432 3.1-1 6.248-1.844 9.423-2.58 5.813-1.346 11.715-2.038 17.658-2.436a141.07 141.07 0 0 1 8.564-.328c.406-.003.803.031 1.186.18.741.287 1.026.768.834 1.531-.3 1.196-.395 2.422-.59 3.633a7.375 7.375 0 0 1-.999 2.722 1.766 1.766 0 0 0-.28 1.019c.012.402.043.81-.005 1.206-.282 2.34.421 4.52 1.076 6.707.257.86.649 1.004 1.474.655 1.755-.741 3.472-1.618 5.288-2.154 2.804-.829 5.716-.887 8.625-.644.495.041 1.135.137 1.256-.39.113-.49-.486-.793-.932-.978a35.893 35.893 0 0 0-2.44-.902c-2.776-.92-4.892-2.731-6.689-4.956-1.279-1.582-2.44-3.248-3.301-5.104-.054-.116-.109-.23-.152-.35-.467-1.265-.119-1.78 1.231-1.702 2.177.126 4.34.412 6.504.679 4.603.566 9.191 1.23 13.74 2.138 2.614.521 5.242 1.007 7.737 1.998.137.055.276.11.405.18 1.168.636 1.24 1.04.461 2.12-1.31 1.818-2.755 3.561-3.528 5.705-1.109 3.077-1.774 6.223-1.292 9.52.148 1.016.62 1.44 1.656 1.45 1.299.012 2.582-.137 3.824-.524a6.173 6.173 0 0 1 1.997-.3c.847.019 1.695.002 2.542.005 1.16.003 2.3-.018 3.447.365 1.083.361 2.265.235 3.409.203.324-.01.583-.154.665-.487.071-.293-.101-.52-.342-.616-1.672-.66-2.696-2.09-3.857-3.32-1.923-2.039-3.562-4.299-4.755-6.86-.767-1.648-1.256-3.364-1.414-5.176-.056-.635.098-.807.765-.724 1.172.146 2.216.694 3.291 1.133 1.587.65 3.162 1.33 4.742 1.996a3.71 3.71 0 0 0 1.418.307c.815.009 1.509.428 2.206.753 2.437 1.134 4.868 2.284 7.193 3.64.455.266.958.447 1.434.675.62.298 1.234.533 1.688 1.156.452.62 1.281.788 2.017.991.696.192 1.375.426 2.026.737.171.082.322.217.499.275.441.144.104 1.141 1.051.835.469-.152.938.485 1.408.762.474.28.942.57 1.412.857.162.1.335.186.479.307.829.697.864 1.192.07 1.91a15.057 15.057 0 0 1-2.163 1.647c-.37.23-.678.571-.983.89-1.609 1.682-3.343 3.268-4.767 5.094-1.123 1.442-2.433 2.846-2.868 4.734-.062.265-.11.542-.106.813.008.703.384 1.109 1.093 1.136.804.03 1.61.007 2.415.007v.014Zm-39.946 88.283a33.294 33.294 0 0 1-.253 4.307c-.607 5.059-2.146 9.829-4.549 14.316-1.062 1.983-2.256 3.894-4.059 5.31-1.569 1.232-3.334 2.164-5.062 3.146-.748.426-1.596.366-2.424.31-.248-.017-.454-.141-.555-.369-.105-.234.062-.397.21-.553 1.545-1.626 3.046-3.295 4.643-4.868 2.726-2.685 4.648-5.834 5.843-9.463 1.385-4.207 1.828-8.55 1.936-12.938.061-2.483-.308-4.942-.773-7.375-.542-2.838-1.334-5.603-2.815-8.12-.436-.741-.97-1.413-1.791-1.739-.873-.348-1.77-.325-2.528.28-.734.586-.539 1.359-.345 2.158.725 2.976 1.839 5.865 2.061 8.957.018.252.069.505.135.749.556 2.032.562 4.091.385 6.174-.421 4.952-1.697 9.624-4.525 13.774-2.515 3.69-5.71 6.521-10.156 7.666-.395.102-.924.481-1.218 0-.263-.432.124-.88.402-1.253.802-1.079 1.858-1.908 2.828-2.82 1.275-1.2 2.793-2.167 3.751-3.675 1.567-2.466 2.59-5.178 3.43-7.961 1.214-4.02 1.441-8.152 1.349-12.316a2.026 2.026 0 0 0-.176-.801c-.491-1.089-.719-2.25-.966-3.411-.36-1.698-.745-3.393-1.688-4.894-.776-1.236-1.832-2.033-3.327-2.162-.984-.085-1.364.248-1.418 1.228a6.48 6.48 0 0 0 .539 2.974c.977 2.242 1.763 4.521 1.96 6.991.16 2.016.305 4.008-.329 5.975-.122.379-.245.796-.209 1.181.121 1.301-.304 2.448-.841 3.589-.421.896-.762 1.81-.978 2.798-.268 1.23-1.156 2.193-1.825 3.243a5.924 5.924 0 0 1-1.977 1.94 12.304 12.304 0 0 1-4.703 1.646c-.251.034-.558.108-.696-.155-.166-.318.139-.497.339-.668a22.571 22.571 0 0 0 2.713-2.757c4.978-6.044 6.296-12.928 4.566-20.449-.514-2.235-1.807-4.024-3.816-5.259-2.696-1.658-5.68-2.384-8.767-2.794-.601-.079-1.207-.236-1.825-.038-1.512.483-3.032.942-4.543 1.428-2.75.883-4.653 2.85-6.396 5.018-1.577 1.963-2.96 4.081-4.645 5.954-1.084 1.206-2.024 2.487-2.79 3.916-2.797 5.222-4.072 10.786-3.73 16.697.326 5.616 2.045 10.771 5.206 15.451a50.844 50.844 0 0 0 11.612 12.239c1.101.829 2.314 1.488 3.459 2.249 1.135.755 2.44 1.143 3.606 1.848 1.554.939 3.254 1.633 4.957 2.278 1.837.695 3.686 1.328 5.611 1.796 1.698.413 3.362.798 5.112.79.604-.003 1.172.163 1.627.605.21.203.485.244.763.269 1.16.101 2.319.202 3.477.308 2.743.252 5.478.417 8.24.138 2.297-.233 4.558-.563 6.82-1.052 3.02-.652 6.071-1.093 8.913-2.429 2.393-1.125 5.004-1.726 7.373-2.93.508-.258 1.015-.489 1.598-.583.596-.096 1.065-.505 1.462-.956.254-.289.231-.558-.108-.802-.528-.381-1.043-.654-1.754-.502-.639.137-1.295.217-1.929.385-2.7.716-5.363 1.566-8.123 2.053-2.043.36-4.08.768-6.1 1.238-3.923.911-7.863 1.697-11.884 2.035-.853.072-1.717.08-2.522-.163-1.519-.458-3.07-.171-4.587-.336-2.991-.326-5.825-1.27-8.497-2.667-.431-.225-.841-.496-1.106-.929-.395-.649-.178-1.037.589-1.074 1.333-.063 2.616.196 3.871.606 1.987.649 4.019.966 6.109 1.056 3.286.142 6.56-.188 9.843-.163a15.71 15.71 0 0 0 3.967-.458c.329-.083.717-.164.752-.572.036-.419-.349-.542-.658-.67-.885-.365-1.824-.547-2.745-.788-.882-.232-1.762-.472-2.555-.938-.316-.186-.637-.423-.55-.842.093-.45.512-.459.867-.479 1.026-.055 2.028.12 3.013.382 1.002.266 1.99.588 3.016.763.65.11 1.307.138 1.963.105.957-.048 1.562-.652 2.11-1.362.558-.723 1.176-1.352 2.237-1.084.274.069.561-.063.774-.231 1.153-.914 1.963-2.039 2.001-3.572.028-1.1.003-2.202.008-3.303.001-.281.025-.577.357-.67.309-.087.531.101.703.326.315.411.517.88.58 1.392.157 1.276.435 2.558-.16 3.807-.143.3-.026.583.186.817.207.229.459.175.706.081 1.138-.434 2.207-.99 3.043-1.897 1.319-1.431 2.179-3.165 3.143-4.829.102-.176.154-.404.16-.609.047-1.738.072-3.473-.609-5.128a9.847 9.847 0 0 1-.699-2.696c-.057-.533.123-.701.646-.629.261.036.48.166.695.299.912.56 1.39 1.447 1.81 2.386 1.397 3.124 1.551 6.219-.225 9.255a17.71 17.71 0 0 1-4.02 4.706c-.372.308-.651.678-.417 1.149.219.439.696.29 1.032.191 2.069-.612 4.251-.715 6.296-1.449 2.633-.944 5.437-1.047 8.164-1.532 1.499-.267 2.944-.622 4.171-1.572.719-.557 1.468-1.091 2.113-1.727 2.136-2.111 4.321-4.174 6.37-6.373 2.63-2.821 5.135-5.737 7.146-9.049 1.487-2.45 2.636-5.063 3.802-7.669.578-1.293 1.218-2.559 1.767-3.861.55-1.304.955-2.669 1.421-4.008 1.136-3.269 2.128-6.567 1.986-10.088-.04-.985.127-1.942.402-2.88a87.471 87.471 0 0 0 1.72-6.896c.439-2.122.699-4.268.665-6.428-.053-3.321-.201-6.64-.607-9.94-.515-4.186-1.291-8.315-2.452-12.377-1.14-3.988-2.895-7.729-4.637-11.454-2.916-6.234-6.802-11.838-11.712-16.708-1.581-1.568-3.29-2.985-4.946-4.465-.956-.856-1.853-.706-2.522.364a13.485 13.485 0 0 1-1.478 1.984c-1.103 1.204-2.376 1.971-4.119 1.851-2.311-.16-4.366-.94-6.262-2.226-1.884-1.278-3.964-1.98-6.244-2.082-.453-.02-.83.054-1.038.535-.194.449-.016.755.27 1.081.483.55 1.045.983 1.687 1.328.821.44 1.642.88 2.448 1.347 2.265 1.309 3.126 3.341 2.992 5.874-.017.316-.143.58-.449.71-.294.126-.532-.028-.759-.196-.339-.252-.503-.621-.65-.997-.201-.514-.424-1.012-.78-1.444-2.343-2.847-5.424-4.384-8.984-5.074-2.235-.434-4.206.012-5.795 1.736-.127.138-.274.313-.482.243-.253-.086-.218-.346-.218-.548-.002-.904.464-1.508 1.258-1.888.52-.249 1.032-.51 1.272-1.085.242-.581.009-.967-.617-.988-.657-.022-1.317.032-1.97-.02-1.157-.094-2.198.184-3.227.716-1.126.582-2.303 1.07-3.481 1.543-.667.268-1.134-.181-.985-.886.187-.889.76-1.447 1.59-1.75.516-.188 1.051-.328 1.572-.503.583-.195 1.153-.422 1.664-.775.34-.236.355-.463.062-.772-.449-.47-1.007-.602-1.615-.607-1.165-.01-2.33.014-3.495-.012a13.293 13.293 0 0 0-5.778 1.174c-2.045.915-4.053 1.9-4.886 4.235-.123.344-.384.35-.644.09-.512-.513-.381-1.142-.287-1.74.295-1.869 1.556-3.083 3.004-4.077 4.767-3.273 9.906-4.286 15.504-2.438 1.768.583 3.575 1.113 5.478.843 1.137-.162 2.231-.04 3.326.263 3.24.897 6.577 1.452 9.686 2.807.96.419 1.985.595 3.042.529.254-.016.529-.002.657-.283.126-.276-.038-.5-.197-.693-.324-.39-.676-.757-1.011-1.139-.626-.712-1.424-1.315-1.76-2.226-.493-1.336-1.176-2.577-1.773-3.861-.259-.557-.675-1.007-1.21-1.266-2.324-1.125-4.592-2.377-6.997-3.32-4.357-1.71-8.723-3.398-13.149-4.92-3.102-1.066-6.209-2.165-9.455-2.698-2.65-.436-5.345-.59-7.999-1.008-4.727-.744-9.466-.967-14.241-.728-5.268.264-10.422 1.198-15.535 2.433-3.15.761-6.251 1.699-9.374 2.559-1.362.375-2.802.504-4.046 1.262a25.36 25.36 0 0 1-3.535 1.807c-2.47 1.02-4.776 2.367-7.065 3.742-1.487.894-3.02 1.719-4.462 2.68-2.19 1.46-4.065 3.314-6.02 5.062-.595.532-1.314.969-1.683 1.71a10.246 10.246 0 0 1-1.971 2.71c-2.638 2.612-4.516 5.739-6.25 8.976-2.578 4.809-4.091 10.018-5.74 15.174-.307.958-.45 1.929-.23 2.989.214 1.024-.092 2.102-.26 3.146-.419 2.594-.596 5.196.22 7.734 1.58 4.92 4.873 8.338 9.528 10.475 1.326.609 2.692 1.162 4.222.867.178-.035.38.014.562.061.314.081.625.194.668.582.043.383-.16.651-.475.828a2.19 2.19 0 0 1-.588.228c-1.509.332-3.021.367-4.53.004-1.492-.359-2.881-.979-4.24-1.677a74.872 74.872 0 0 0-2.615-1.3c-.892-.416-1.366-.07-1.266.894.058.552.236 1.072.476 1.573 1.282 2.672 3.173 4.89 5.268 6.94 1.054 1.031 2.23 1.914 3.456 2.759 1.19.822 2.385 1.492 3.785 1.832.598.146 1.005-.011 1.365-.506.997-1.37 1.902-2.801 2.828-4.217 1.31-2.001 2.619-4.002 3.802-6.082.109-.191.297-.413.114-.643-.173-.217-.427-.119-.654-.078-1.599.29-3.024 1.089-4.562 1.559-.132.04-.245.163-.353.262-.782.714-1.662 1.084-2.734.797-.293-.079-.721.063-.842-.301-.137-.411.278-.622.518-.868.19-.196.417-.361.648-.509a96.762 96.762 0 0 1 2.422-1.518c2.25-1.35 4.59-2.549 6.8-3.97.178-.114.507-.191.38-.493-.117-.283-.414-.242-.67-.19-1.08.221-2.158.455-3.198.82-3.138 1.097-6.319 1.019-9.522.376a2.316 2.316 0 0 1-.659-.222c-.494-.273-.496-.609-.005-.889.503-.288 1.072-.392 1.632-.5 2.286-.439 4.58-.842 6.861-1.305 2.096-.425 4.178-.92 6.168-1.724.68-.275 1.272-.688 1.612-1.367.287-.574.103-.87-.525-.82-.547.045-1.11.089-1.627.255-2.069.663-4.168.637-6.288.38-1.309-.157-2.48-.684-3.618-1.311-.363-.2-.512-.505-.37-.906.145-.412.486-.414.842-.355.188.03.375.07.564.093 2.477.306 4.935.447 7.302-.625 1.057-.479 2.18-.672 3.348-.498a1.52 1.52 0 0 0 .808-.118c1.077-.441 2.155-.879 3.235-1.315.317-.128.603-.288.443-.696-.136-.348-.377-.536-.796-.44-2.366.55-4.767.182-7.152.252-.464.014-.92-.25-.959-.758-.04-.524.365-.755.86-.835a25.815 25.815 0 0 0 3.638-.884c1.384-.438 2.783-.762 4.036-1.62 2.423-1.66 4.852-3.318 7.544-4.559 1.24-.572 2.503-1.144 3.813-1.272 2.055-.201 4.15-.177 6.17.466.649.207 1.313.339 2 .3.28-.016.578-.012.724-.297.16-.312.081-.633-.122-.896-.271-.35-.57-.681-.87-1.01-1.3-1.42-2.583-2.868-4.134-4.022-2.25-1.674-7.115-2.37-10.54.138-1.237.905-2.678 1.345-4.225 1.38-.427.01-.892.04-1.102-.437-.217-.49.107-.853.403-1.182.45-.5 1.066-.752 1.66-1.033.65-.307 1.32-.58 1.879-1.05.15-.125.297-.261.23-.48-.063-.208-.249-.28-.44-.313a2.258 2.258 0 0 0-.444-.024 17.65 17.65 0 0 0-7.166 1.758c-4.123 1.995-7.73 4.72-10.863 8.043-1.092 1.158-2.2 2.356-2.742 3.924a.57.57 0 0 1-.394.387c-.987.24-1.642.91-2.247 1.67-.715.899-1.612 1.481-2.807 1.52-2.354.076-4.38-1.472-4.76-3.804-.348-2.131.085-4.173 1.137-6.06 1.046-1.879 2.811-2.956 4.604-3.97 3.947-2.236 8.286-3.27 12.698-4.066.855-.155 1.709-.315 2.472-.767.322-.19.627-.4.553-.834-.075-.444-.464-.452-.793-.484-1.243-.124-2.49-.162-3.74-.175-1.998-.022-3.98-.193-5.84-1.023-1.178-.526-2.036-1.31-2.345-2.64-.626-2.691.582-4.341 3.343-4.515 1.97-.124 3.837.227 5.59 1.148a30.844 30.844 0 0 0 5.456 2.24c3.017.906 6.045 1.797 9.142 2.42 1.79.36 3.58.666 5.415.604.486-.016.98-.007 1.423-.255.162-.09.378-.159.35-.398-.024-.216-.213-.307-.394-.37-.379-.133-.77-.217-1.138-.395-1.39-.672-2.798-1.312-4.19-1.983-1.456-.702-3.022-1.224-4.004-2.667-.352-.518-.858-.932-1.304-1.384-1.128-1.143-2.361-2.19-3.3-3.506-.413-.578-1.011-1.071-1.07-1.835-.035-.457-.127-.879-.34-1.274-.326-.603-.36-1.252-.332-1.914.008-.194.01-.406.22-.487.26-.1.385.122.502.288.39.554.767 1.117 1.151 1.675.742 1.08 1.401 2.217 2.411 3.094 2.685 2.335 5.623 4.274 8.863 5.754 2.835 1.294 5.701 2.504 8.776 3.12.704.14 1.423.254 2.145.173.342-.038.686-.177.78-.555.09-.37-.167-.595-.46-.75-2.321-1.231-4.338-2.871-6.243-4.655-1.798-1.684-3.137-3.643-3.63-6.12-.38-1.896-.275-3.791-.092-5.687a2.486 2.486 0 0 1 .8-1.62c.358-.327.734-.277 1.124-.127.386.15.351.497.321.811-.026.272-.096.54-.157.807-.126.557-.23 1.107-.181 1.692.135 1.616.81 3.012 1.704 4.32.415.607.756 1.34 1.465 1.63.866.354 1.581.893 2.267 1.491 1.47 1.284 3.086 2.212 5.102 2.307a6.528 6.528 0 0 1 2.279.53c.205.089.454.093.684.1 2.184.068 4.357-.087 6.53-.298 2.304-.225 4.601-.282 6.816.601.943.377 1.906.704 2.864 1.044 1.569.557 3.054 1.268 4.29 2.408 2.832 2.612 3.67 5.886 3.106 9.59-.214 1.405-.742 2.693-1.764 3.73-.148.15-.295.337-.535.279-.267-.065-.324-.317-.38-.541-.039-.163-.044-.335-.055-.504-.067-1.083-.245-2.143-.706-3.137-.742-1.603-2.07-2.478-3.667-3.118-2.542-1.02-5.219-1.216-7.815-.803-2.69.428-4.714 2.153-5.811 4.736-.581 1.368-1.046 2.786-.55 4.31.407 1.25 1.057 2.356 1.98 3.288.694.7 1.542 1.122 2.545 1.143.646.013.89-.345.658-.946-.19-.492-.419-.97-.642-1.45-.7-1.507-.798-3.02-.004-4.518 1.949-3.68 7.353-4.38 10.224-1.361 1.775 1.866 2.571 6.728-.616 8.734-.532.334-1.061.705-1.485 1.186-.237.268-.554.552-.418.936.148.417.588.458.969.46a7.413 7.413 0 0 0 3.142-.678c2.365-1.073 4.046-2.953 5.68-4.876.265-.313.43-.732.569-1.128a43.558 43.558 0 0 0 1.312-4.51c.291-1.234.491-2.5.894-3.697.989-2.94 3.533-4.21 6.187-4.93 1.967-.534 3.998.104 5.538 1.681.639.655.524 1.226-.334 1.593-.213.09-.442.145-.666.208-1.026.29-1.948.789-2.882 1.3-2.587 1.42-2.37 6.388.384 7.636 1.12.507 2.242.868 3.475.878 2.045.016 4.07-.103 5.979-.929.794-.343 1.464-.858 1.783-1.711.193-.515.054-.725-.489-.721-.49.003-.962.132-1.44.227-1.048.207-2.102.33-3.113-.156-2.496-1.203-2.603-4.443-1.486-6.158 1.661-2.551 5.485-3.193 7.922-1.377 1.544 1.151 2.639 2.668 3.601 4.301.571.968.666.973 1.472.226.87-.805 1.718-1.637 2.632-2.389 2.058-1.694 4.198-3.161 7.11-2.684 2.013.33 4.009.693 5.872 1.552 2.35 1.084 3.99 2.882 4.539 5.387.444 2.027.115 4.08-.833 5.994-.754 1.52-1.965 2.35-3.618 2.55-1.049.126-2.126.165-2.844-.806-.851-1.15-1.351-2.45-1.264-3.907.08-1.334.729-2.271 2.039-2.694.915-.296 1.858-.403 2.815-.424.327-.007.706.106.862-.334.138-.386.004-.697-.277-.973-.558-.55-1.109-1.106-1.662-1.66-.203-.204-.428-.343-.734-.293-.64.106-1.216-.093-1.764-.394-1.029-.567-2.126-.658-3.266-.49-1.617.239-3.109.813-4.498 1.66-.708.433-1.347.947-1.846 1.625-1.302 1.77-1.319 3.76-.719 5.707.934 3.037 2.778 5.556 5.101 7.688 2.312 2.122 5.057 3.6 7.848 4.996 2.232 1.115 4.551 2.062 6.613 3.505 2.71 1.897 5.25 3.961 6.829 6.951 1.062 2.009 1.79 4.159 2.472 6.319.367 1.163-.005 2.384.195 3.567.012.072-.045.162-.086.235-.226.402-.282.835-.268 1.288.019.62-.101 1.219-.287 1.81-.49 1.559-1.097 3.071-1.873 4.508-1.095 2.026-2.372 3.915-4.362 5.19-1.738 1.114-3.697 1.511-5.716 1.746-4.484.523-8.273-.734-11.258-4.216-2.659-3.103-3.179-7.352-1.254-10.626.763-1.299 1.911-1.928 3.402-1.978a6.85 6.85 0 0 1 2.01.254c2.561.686 4.07 2.736 3.91 5.36-.06.978-.345 1.901-1.217 2.473-1.041.684-2.225.907-3.456.859-.389-.016-.795-.113-1.006.315-.225.459-.158.9.21 1.285.5.523 1.074.955 1.657 1.379 2.336 1.697 4.878 2.184 7.635 1.249 1.659-.562 2.958-1.694 4.277-2.798 1.334-1.117 2.305-2.403 2.378-4.226.018-.464.334-.813.683-1.106.212-.179.419-.354.468-.653.132-.815.216-1.627.193-2.461-.057-2.068-.67-3.992-1.377-5.905-.256-.694-.614-1.29-1.189-1.763-.496-.408-.908-.878-1.082-1.529-.057-.214-.206-.42-.361-.587-1.751-1.884-3.778-3.386-6.156-4.394-2.573-1.09-5.149-2.173-7.595-3.534-1.951-1.086-3.973-2.017-5.544-3.729-1.194-1.3-2.471-2.49-3.081-4.202-.245-.686-.657-1.28-1.126-1.83-.333-.391-.652-.34-.917.08-.268.423-.361.895-.374 1.392a5.52 5.52 0 0 1-.093.944.643.643 0 0 1-.5.523c-.275.057-.449-.162-.55-.358a15.192 15.192 0 0 1-.642-1.447c-.186-.48-.42-.927-.762-1.31-.442-.496-.869-.458-1.237.099-.321.487-.339 1.035-.308 1.591.035.627-.055 1.227-.411 1.76-.381.572-.761.562-1.094-.03-.292-.521-.455-1.092-.62-1.662-.123-.427-.208-.868-.434-1.258-.525-.904-1.188-.949-1.839-.14-.534.662-.967 1.388-1.377 2.13-.247.446-.535.905-1.128.605-.547-.277-.405-.762-.2-1.217.131-.29.243-.581.243-.912-.001-.701-.359-.965-1.022-.731-.33.116-.562.372-.816.593-.464.403-.938.789-1.456 1.124-2.416 1.561-5.143 2.004-7.932 2.18-2.199.138-4.308.618-6.368 1.38-3.206 1.189-5.802 3.283-8.307 5.518-.61.544-.675.535-.946-.26-.266-.781-.509-1.571-.8-2.343-.637-1.684-1.344-3.22-3.028-4.288-1.307-.829-2.662-1.338-4.09-1.51-2.412-.292-4.668.41-6.652 1.826-2.729 1.947-4.067 4.598-3.54 7.948.36 2.28 1.853 3.898 3.752 5.125 1.293.837 2.742.935 4.225.736.409-.055.793-.203.906-.673.106-.438-.14-.737-.451-.978-.668-.519-1.359-1.008-2.025-1.53-1.727-1.354-2.202-4.512-.91-6.279 2.08-2.844 4.998-3.304 8.031-1.65 2.446 1.335 3.108 4.248 1.634 6.614-.321.515-.532 1.06-.547 1.667-.007.29-.076.633.232.808.3.171.577-.025.821-.19.911-.62 1.77-1.308 2.592-2.041 1.803-1.607 3.634-3.183 5.686-4.465 2.438-1.523 5.046-2.618 7.975-2.658 1.437-.02 2.882.04 4.313.176 3.015.286 5.994.324 8.938-.568.884-.267 1.837-.298 2.775-.248.291.016.551.095.701.36.169.299-.025.54-.199.743-.385.45-.848.84-1.194 1.315-.936 1.286-2.2 1.893-3.737 2.254-1.961.462-3.879 1.064-5.927.925-.949-.065-1.888-.247-2.848-.193-1.972.112-3.919.378-5.835.86-2.079.524-4.155 1.068-5.824 2.524-1.388 1.21-2.748 2.45-4.121 3.676-.376.335-.283.674.003.997a11.587 11.587 0 0 0 3.097 2.499c.775.426 1.228.174 1.396-.709.139-.727.247-1.462.422-2.18.198-.81.88-1.149 1.668-.88.461.157.811.45 1.037.883.246.469.475.946.734 1.407.188.335.405.694.872.596.459-.097.686-.458.657-.894-.085-1.284.833-2.076 1.441-3.015.287-.442.773-.537 1.162-.205.927.793 1.935 1.534 2.359 2.763.048.138.119.277.212.388.197.236.447.416.771.334.328-.083.345-.378.39-.657a95.78 95.78 0 0 1 .426-2.437c.075-.397.228-.773.435-1.12.421-.71 1.046-1.04 1.869-.916.783.118 1.221.624 1.412 1.365.079.308.118.626.214.928.184.583.535 1.021 1.184 1.094.654.074.925-.412 1.18-.885.22-.409.376-.85.663-1.226.567-.744 1.35-.91 2.212-.81.719.085.984.666 1.222 1.243.186.451.295.926.375 1.408.143.861.145 1.729.139 2.596-.006.926.374 1.577 1.262 1.917.458.176.854.466 1.218.793 2.817 2.538 5.143 5.459 6.684 8.933 2.29 5.164 3.062 10.674 3.487 16.242.204 2.66.115 5.331.133 7.998.004.608-.064 1.167-.413 1.689-.273.41-.435.896-.405 1.385.077 1.227-.171 2.388-.527 3.552-.686 2.245-1.206 4.552-2.151 6.703-1.493 3.398-3.637 6.394-6.039 9.205-1.268 1.483-2.641 2.862-4.355 3.849a5.192 5.192 0 0 1-2.415.701c-.251.011-.568.053-.683-.211-.111-.255.182-.4.339-.552.427-.411.883-.791 1.309-1.202 3-2.9 5.103-6.409 6.858-10.148.377-.804.835-1.587 1.021-2.457.341-1.6.886-3.133 1.402-4.677.73-2.188 1.554-4.358 1.169-6.742-.032-.198.033-.42.084-.624.427-1.697.497-3.432.506-5.166.013-2.76-.41-5.482-.889-8.191-.844-4.77-2.071-9.426-4.335-13.749-.787-1.504-1.604-3-3.06-3.988-1.24-.842-2.554-1.1-3.945-.352-.589.317-.932.765-.87 1.48.072.826.204 1.623.528 2.402.747 1.799 1.865 3.422 2.465 5.288.109.34.145.741.412.987.516.476.679 1.109.881 1.729 1.066 3.265 1.125 6.656 1.253 10.037Zm-82.512 11.231c-.699 0-1.399-.028-2.096.006-1.3.063-2.344-.459-3.251-1.331-.543-.521-.838-1.133-.83-1.915.014-1.506.434-2.923.854-4.344.343-1.157.684-2.31.726-3.533.02-.559-.167-.892-.67-1.155-2.5-1.305-4.907-2.759-7.135-4.498-.928-.726-1.796-1.488-2.164-2.664a.64.64 0 0 0-.164-.269c-1.145-1.062-1.815-2.458-2.485-3.808-1.547-3.118-3.611-6.075-3.426-9.81.019-.389-.204-.744-.652-.831-.474-.092-.896-.012-1.13.471-.102.207-.192.425-.248.648-.183.723-.216 1.467-.22 2.205-.005 1.078-.3 2.211.043 3.22.43 1.266.556 2.556.765 3.845.39 2.402 1.288 4.645 2.207 6.874 1.604 3.887 3.551 7.589 6.119 10.941a40.111 40.111 0 0 0 4.623 5.052c.165.152.398.31.292.582-.11.282-.395.304-.648.301-.851-.011-1.626-.255-2.293-.8-.738-.603-1.429-1.277-2.225-1.788-.654-.42-1.367-.748-1.967-1.26-1.937-1.653-3.289-3.74-4.437-5.976-.356-.694-.837-1.376-.89-2.155-.053-.764-.405-1.207-1.003-1.561-.616-.366-1.064-.823-.974-1.632.023-.21-.106-.451-.204-.659-.792-1.676-1.305-3.443-1.677-5.249-.65-3.158-1.07-6.343-.933-9.579.017-.42-.099-.803-.497-.939-.424-.145-.504.309-.64.559-.965 1.764-1.427 3.704-1.934 5.626-.032.121-.03.253-.03.379.004 3.281.01 6.562.011 9.843 0 .41.089.79.245 1.169.488 1.181.745 2.42.953 3.677.246 1.495.18 3.049.86 4.466.603 1.261 1.099 2.567 1.535 3.896 1.061 3.234 2.421 6.332 4.439 9.092 1.119 1.53 1.662 3.413 3.055 4.778.404.396.597 1.014.994 1.461.24.269.492.526.338.951-.072.201.082.349.275.324.5-.063.72.271.941.612.173.266.382.529.088.853-.297.327-.597.237-.906.031-1.885-1.265-3.65-2.722-5.193-4.345-1.424-1.498-2.637-3.242-3.658-5.09-1.242-2.246-2.214-4.615-3.32-6.923-.72-1.504-1.525-2.948-1.88-4.621-.651-3.06-1.587-6.06-1.939-9.185-.351-3.124-.19-6.258-.18-9.388.005-1.371.208-2.726.65-4.054.345-1.037.598-2.12.676-3.224.025-.35.084-.815-.327-.939-.433-.131-.743.216-.96.574-.13.216-.22.458-.331.685-.553 1.12-.95 2.303-1.42 3.455-1.44 3.519-1.705 7.199-1.554 10.908.072 1.765.356 3.526.278 5.306-.006.126.007.253.013.38.176 3.736 1.131 7.306 2.292 10.834 1.893 5.755 4.496 11.184 7.528 16.416.403.696.858 1.364 1.232 2.074.197.373.72.458.771.888.058.472.321.82.552 1.195 3.838 6.229 8.424 11.803 14.228 16.323 4.516 3.517 9.457 6.246 14.882 8.088.581.197 1.172.366 1.76.541.34.102.677.141.911-.209.217-.322.085-.603-.123-.869-.066-.084-.125-.171-.187-.257a32 32 0 0 1-3.26-5.58c-1.386-3.066-2.53-6.237-4.055-9.242a5.039 5.039 0 0 1-.514-1.954c-.064-.981.2-1.308 1.18-1.273 1.182.042 2.369.124 3.54.287 3.099.433 6.201.477 9.305.149 2.552-.269 4.641-1.636 6.724-2.987.317-.206.658-.393.898-.7.285-.365.252-.758.034-1.127-.222-.374-.551-.199-.85-.105-.544.17-1.087.486-1.66.341-1.608-.408-3.405-.378-4.578-1.872-.139-.177-.36-.293-.551-.426-1.195-.832-1.939-1.98-2.398-3.344-.195-.579-.385-1.171-.775-1.661-.224-.282-.447-.593-.868-.553-.45.043-.562.431-.658.765-.261.915-.55 1.831-.702 2.767-.25 1.529-1.13 2.622-2.27 3.55-1.258 1.023-2.736 1.681-4.162 2.424a.956.956 0 0 1-.555.095c-.644-.067-1.263.053-1.865.278-.784.292-1.6.393-2.43.41-.646.012-1.093-.279-1.471-.82-.414-.592-.34-1.246-.435-1.884-.31-2.074-.721-4.13-1.23-6.161-.956-3.809-1.264-7.674-1.142-11.586.022-.685.163-.81.844-.778.714.034 1.365.274 1.992.597.902.466 1.788.954 2.783 1.223 1.68.454 3.39.763 5.115.947 1.365.147 2.769.364 4.11.193 1.504-.192 3.024-.365 4.517-.666.878-.178 1.721-.456 2.479-.944.346-.223.662-.529.62-.969-.046-.479-.511-.52-.869-.606a13.408 13.408 0 0 1-2.86-1.032c-1.815-.908-3.642-2.745-3.34-5.55.044-.399.089-.799.141-1.197.049-.371-.016-.688-.413-.822-.394-.133-.644.08-.835.397-.143.235-.292.466-.431.704-.429.733-.88 1.449-1.526 2.016-1.402 1.23-2.829 2.391-4.898 2.033-.33-.057-.676-.008-1.016-.006Zm15.46-11.531c1.414-.018 2.766-.349 4.072-.87.801-.32 1.317-.912 1.475-1.773.132-.715-.174-1.021-.905-.963-1.032.082-2.058.21-3.104.153-1.627-.088-2.632-.933-3.155-2.41-.21-.596-.327-1.225-.506-1.833-.227-.768-.726-.904-1.303-.361-.495.465-1.015.898-1.62 1.215-1.885.99-3.872.919-5.885.55-1.687-.308-2.86-1.279-3.639-2.784-.556-1.075-1.036-2.179-1.391-3.336-.378-1.231-.376-1.197-1.685-1.322-2.307-.22-4.483-.85-6.434-2.159-1.82-1.221-3.432-2.685-4.979-4.225-.42-.417-.81-.864-1.203-1.307-.69-.78-1.055-1.725-1.353-2.703-.084-.276-.227-.512-.562-.517-.312-.004-.506.179-.648.437-.158.288-.19.598-.19.921.017 3.178 1.05 6.059 2.573 8.796.174.313.412.595.474.962.146.876.561 1.631 1.043 2.361 1.148 1.738 2.508 3.305 3.94 4.804 1.124 1.177 2.234 2.374 3.486 3.42 1.123.937 2.032.585 2.267-.87.077-.478.056-.975.154-1.447.174-.842.748-1.151 1.559-.886.934.307 1.636.96 2.341 1.6.685.621 1.434 1.139 2.334 1.366 1.464.369 2.928.71 4.372-.144 1.628-.962 2.673-.763 3.714.846 1.138 1.761 2.704 2.543 4.758 2.479Zm-4.432-25.758h-.008c0 .211-.002.423 0 .634.031 2.35.532 4.574 1.78 6.594 2.335 3.776 6.098 4.591 10.007 4.075 2.563-.338 4.516-1.812 6.111-3.851 1.413-1.806 2.367-3.688 1.933-6.051-.004-.02 0-.042-.002-.063-.195-2.733-1.19-4.983-3.86-6.145-1.68-.732-3.466-.933-5.284-.758-.965.093-1.84.47-2.63 1.036-.582.416-.943.996-1.036 1.684-.071.523-.298 1.194.174 1.559.482.372 1.101.075 1.63-.146.508-.212 1.005-.445 1.564-.5 3.169-.311 5.599 2.503 4.921 5.701-.789 3.727-5.106 5.835-8.584 4.075-3.147-1.593-4.768-4.28-4.937-7.793-.045-.942.129-1.895.195-2.844.037-.537-.162-.703-.675-.578-.79.193-1.253.74-1.294 1.594-.028.591-.005 1.184-.005 1.777Zm1.513 83.802c3.669-.196 8.664-1.223 12.462-2.571 2.629-.933 5.137-2.105 7.292-3.911 1.01-.847 1.78-1.881 1.88-3.264.064-.887-.082-.994-.912-.736-.586.183-1.172.367-1.753.566-1.542.53-3.128.529-4.71.315-1.587-.214-2.888-1.04-4.042-2.116-.619-.577-1.2-1.203-1.868-1.715-.88-.673-1.509-.387-1.665.684-.03.209-.038.421-.067.63-.234 1.715-.263 3.468-.873 5.115-.636 1.719-1.53 3.221-3.227 4.158-1.07.591-2.035 1.37-2.957 2.184-.164.144-.46.257-.328.539.106.225.372.135.578.136.063 0 .126-.009.19-.014ZM99.127 11.771c-.073 1.493-.295 2.993.207 4.457.013.038.007.084.01.126.14 1.338.797 2.437 1.636 3.436.4.476.914.548 1.486.23a9.363 9.363 0 0 0 1.698-1.22c1.534-1.372 3.237-2.372 5.337-2.568.333-.031.667-.13.984-.243.439-.156.979-.34 1-.85.021-.493-.559-.58-.927-.745-3.239-1.446-6.35-3.083-8.981-5.529-.989-.92-2.092-.462-2.354.884-.13.67-.124 1.346-.096 2.022ZM42.363 97.604c.932-.02 2.356-.767 3.508-2.048.463-.514.7-1.158.71-1.861.013-.95-.552-1.307-1.373-.878-2.195 1.149-4.422.193-5.076-2.192a14.499 14.499 0 0 1-.51-4.078c.007-.4-.132-.694-.49-.882-.382-.2-.69-.064-.98.195-.775.692-1.522 1.41-2.166 2.226a4.353 4.353 0 0 0-.936 2.256c-.433 3.984 2.484 7.25 7.313 7.262Z" fill="url(#a)"/><defs><linearGradient id="a" x1="3.157" y1="108.5" x2="233.843" y2="108.5" gradientUnits="userSpaceOnUse"><stop stop-color="#495057"/><stop offset="1" stop-color="#6C757D"/></linearGradient></defs></svg>