<svg width="230" height="226" fill="none" xmlns="http://www.w3.org/2000/svg"><path d="m110.323 204.544-1.374-.082-3.572-.546-3.298-.446-3.297-.446-2.362-.654-2.362-.655-4.619-1.977-4.122-2.242-1.505-1.392-.183.182-.182.182-3.9-2.151-5.496-.611-3.023-.466-4.671-.935-5.221-1.668-4.947-2.311-4.946-3.767-4.671-3.974-6.894-7.067-2.767-3.299-4.147-5.499-3.588-5.498-3.297-5.94-3.566-7.807-2.213-6.324-1.141-3.678-.8-3.385-.8-3.385-.295-1.857-.295-1.857-.285-1.854-.285-1.855-.27-3.162-.27-3.162-.001-10.078.558-6.693.261-1.512.261-1.512.893-5.206 1.577-6.38 1.453-4.636 2.738-7.148 3.512-7.336 4.162-6.96 4.116-5.775 4.788-5.765 5.221-5.453 6.045-5.24 4.983-3.701 6.284-4.096 7.144-3.916 6.738-2.782 6.178-1.605 4.122-.819 5.22-.82 8.794-.883 3.677-.524h17.531l8.744.83 5.496.815 5.511 1.34 3.282 1.19 5.124 1.946 7.791 3.914 5.771 3.457 4.809 3.443 4.689 3.73 6.165 5.64 5.77 6.438 5.496 7.35 4.391 7.059 3.962 7.973 2.695 6.874 1.425 4.399 1.195 4.399 1.055 4.949 1.026 6.873.303 2.749.304 2.75v11.272l-.304 2.75-.303 2.749-1.016 6.874-1.116 5.223-.27.963-.27.962-1.008 3.299-1.009 3.3-2.62 6.598-2.223 4.793-3.105 5.655-5.674 8.523-4.207 5.224-5.312 5.73-6.055 5.462-5.389 3.563-5.603 2.656-6.798 2.249-5.292 1.125-4.122.59-4.352 2.184-5.746 3.312-6.115 2.904-3.427 1.152-5.092.87-4.122.479-4.671-.07-1.374-.081Zm13.157-1.992 2.989-.548 3.09-.965 8.641-4.315-.158-1.293-.159-1.292-1.094-3.849-.374-.398-5.894 3.509-5.634 2.869-.179.172-.179.172 1.276 2.747-.216.217-2.284-2.064-2.815.303-3.572.875-7.144 1.136-8.519-.323-3.39-.692-.335-.336 1.977-1.508 1.198.299 5.221 1.475 6.321.251 8.243-1.746 2.748-.539 2.473-1.573 4.26-2.02v-.401l-2.336-.764-3.25-3.15-.46.284-.004.603-.004.602-.226.356-.225.356-2.701-.906-4.397-1.809-4.534-2.217-6.457 3.174-3.847 1.424-2.199.582-4.936 1.148-1.933.815 1.099.833 2.532 1.3 1.727 1.454v.963l-1.299.592-3.365-1.604h-.557v.472l2.913 1.936 2.312 1.18 3.705 1.327 5.496 1.371 1.649.271 11.816-.208 2.989-.548h.001Zm18.76-8.33 2.495-1.767 2.41-.856 4.887-.649 5.281-1.692 5.77-2.454 4.824-2.405 3.145-2.428 6.595-6.025 4.696-5.177 3.12-3.724 3.769-5.349 1.3-3.299 2.307-2.362 4.232-8.44-.189-.892-3.572 4.348-1.204 3.222-.031-1.925 1.1-6.598.353-4.537h-1.348l-3.457 1.168-3.382 2.269-2.044 3.024-.017.917 2.336.881 4.946.423-7.947.436-2.393 1.403-2.99 2.734-.822-.315.001-.353v-.352l5.749-3.773.158-4.464 5.197-2.817.505-.801-.865-3.798.221-.221 1.537 2.607.835 1.073 3.562-1.333.686-11.492-.286-3.437-.285-3.437-.158-.55-.158-.55-3.547-8.988.309-.807.25.155.25.154 1.137 3.745 1.253 1.85.771.254-.37-4.909.307-.882.307-.882h.414l.237 10.104.238 10.104-.059 9.898-1.168 9.018.149.148.148.149.392-.533.393-.534 3.383-4.674 1.101-2.187 1.101-2.187.644-2.152.644-2.152 1.421-5.791 1.39-8.076.308-5.717.308-5.717-.322-5.83-.323-5.83-.667-3.85-.667-3.849-.723-2.94-.722-2.94-2.496-7.592-2.394-5.85-2.852-5.697-3.04-5.224-4.039-5.93-3.336-4.243-5.745-6.403-6.717-6.055-4.946-3.82-5.771-3.857-6.32-3.53-4.122-1.977-6.045-2.476-5.496-1.703-3.023-.576-5.77-.817-9.8-.51-9.161.509-3.847.778-3.847.846-7.42 2.582-3.022 1.378-3.1 2.103-2.544 2.908-.517 1.374-.516 1.375.226.236 3.622-3.733 3.378-1.511 1.924-.368 6.045-1.03 2.323-.334 1.189 2.341 2.356 3.312 3.398 6.86.215.23.119-.12.119-.119-1.096-4.114-1.543-2.75-3.671-4.869.209-.63 7.374-.174 6.732.367v.371l-4.134 5.434-.812 1.701-.812 1.702-.304 1.417-.303 1.418.2.602 2.917-5.964 4.174-6.736h.451l5.356 1.402 1.786.565v.393l-2.522 2.451-4.254 4.95-2.376 3.53-1.83 4.443.007 1.1 2.596-4.95 2.278-3.325 3.661-4.373 3.107-3.712h.687l2.847 1.123 2.806 1.866.488.827.487.828.525 1.643.524 1.642.431.834.43.833v.547l-3.312 1.487-1.714 1.953.586.196 2.703-1.37 2.522-1.927.508.654 3.026 5.498 2.484 4.674 2.869 6.495 2.444 7.252 1.864 9.348.33 2.612.329 2.612.063 6.049-.702 11.822-.284 2.612-.284 2.612-.799 4.402-3.603 10.445-3.051 9.176 1.916 3.471.172.687.171.688 3.876 3.231-.242.241-3.337-1.685h-.782l-5.629 5.898-.649.981-.649.982-1.049 7.673-.33 4.333-.33 4.333.826 1.261 2.805 3.072v.366l-1.558-.921-3.06.89-2.114.006-3.023 1.358 1.374-.95 2.653-2.453.574-1.074.761-3.623.361-11.485-.6.213-6.036 5.634-2.889 4.814-2.877 3.574-4.45 4.386v1.439l-1.099 3.196.011.602 2.6 1.188-4.129.049-7.962 8.015-3.847 2.885-3.068 2.014-.861.97-.7 2.653-.701 2.652-.379 4.181h.893l5.64-2.121 6.183-2.915v-.451l-2.748-3.769v-.367h1.065l7.316-3.239 2.168-.596.068.068.068.068-6.136 3-2.075 2.14.002.621 2.339.962h.707l7.943-5.344v-1.804h-.864l1.139-1.449.057-1.438.423 1.784.687.828h.814l4.477-4.02 4.122-3.335 4.961-5.155 3.283-4.028 4.671-6.546 3.675-6.472 3.847-7.754 2.273-5.443 1.547-4.674 1.378-4.674 1.389-5.774.164-.756.164-.756h.875l-.153.893-.154.894-.357 3.299-1.621 6.428-.915 2.697-.916 2.698-2.265 5.916v.473l2.469.692.438-.364.438-.363 2.166-4.311 2.528-3.968 2.952-4.46v-.556l-.682-2.092-.683-2.092-.433-1.907-.434-1.907.086-1.192.086-1.191 1.219 1.906 2.266 6.18.778.646 2.331-1.511L176.13 118l.834-1.759.172-1.647.173-1.647.453-.735.665.665-.66 9.957-1.093 10.52-1.087 6.998v1.687h.504l2.564-1.1h.315l-1.047 1.165-2.871 1.843-.132.627-.132.626-.579 3.025-2.051 8.07.368.368 2.591-1.784-.352 1.405-.168.438-.168.438h.953l3.311-1.683-.31 7.594-1.49 4.124-.521 1.031-.521 1.031h2.759v.54l-1.512.323-2.342.835-1.742 2.564-3.281 3.998-4.451 3.75-3.572 2.765-3.917 2.5-3.227 1.655-2.199.91-3.297 1.049-1.063.007 8.502-8.661 2.528-3.024 4.142-6.37 3.583-6.827 2.697-6.892 1.421-5.48.363-3.611-3.153-4.913-1.846-2.806.001-.796.001-.797 1.234-1.924.144 2.062.145 2.062 2.665 5.224 1.119 1.583.718-1.858 1.132-5.499 1.081-5.774.531-2.474.532-2.475.147-3.028.147-3.028.551-2.742.519-3.024-.233-.237-9.512 9.585-3.84 5.224-4.72 6.873-3.297 4.299-2.872 3.011-.212-.212 1.791-4.754 2.075-.007-.96-1.787-.195 1.261-.997-.317-2.96 5.379-.635 1.375-.655 2.139-1.877 1.648-.501.937 1.484 2.146 3.325 5.503 3.691.162 2.32-2.55.994-.532-3.131 4.707-.33-.003-1.799-1.097h-.589l1.46 2.491-1.603 2.045-1.551 2.475-5.037 10.001 2 .338 1.449-.551 1.217-1.646 3.08-1.18 1.262-.501.936.024-4.669 2.313-.174.93 1.82.974-4.122.409-4.238.637-.793 1.211-5.238 6.23-.356 1.403-.356 1.403.017 4.124.702 1.28.332-.128.332-.127 2.495-1.767h-.001Zm-37.138-13.417-.17-.275 1.269.054 1.374.441-1.151.027-1.152.027-.17-.274Zm17.206-9.211-.044-1.1-.672-1.635-.672-1.635.12-.068 5.221-3.585 2.635-1.529.279.279-2.09 1.272-3.674 2.91-.435.692-.623 5.499-.045-1.1Zm67.915-61.886.16-.524 1.739-5.774-.154-3.118-.153-3.118-1.157-7.236-.529-2.719-.53-2.719.018-.885.812 1.074.278.975.278.975 1.627 8.248.417 3.245.418 3.244.015 1.292.014 1.292.708 4.674-.437.61-.438.61-.343.008-.344.009v-2.749h-.412l-1.532 2.729-.308.191-.308.19.161-.524ZM89.026 193.056l2.335-.387 2.667-.606 1.455-.763 1.725-1.834.924-1.835.777-3.664.004-1.031.005-1.031h-.26l-3.94 1.919-4.786 1.631-4.067 1.071-2.473.365-3.93 4.224-.375-.367 1.97-3.08v-.402l-10.305.173-3.023-.429 2.89-.294-6.037-6.486-2.57-3.34-4.355-7.22-2.965-6.127-2.436-7.369-1.896-7.674-1.505-7.424-1.272-6.323-.629-5.774-.812-5.224-.277-1.65-.277-1.649-.157-.794-.157-.793 1.434.36v-.261l-1.346-1.984-.173-1.288-.173-1.289-.188-.55-.048 7.149.581 8.248.42 3.162.419 3.161.785 5.224 1.049 5.863 1.192 4.86.642 2.062.643 2.062.378.962h-1.61l-1.957-1.512-3.944-3.299-3.677-2.256.12-1.209.12-1.209.017-.962.017-.963-3.29-1.748-.2.2 1.402 1.839L39 147.95l.007.431.006.431-1.786.846 3.297.947 2.314 1.342 5.257 4.372 2.42 1.666h.54l3.125 6.461.776 2.148-.229.229-6.784-6.953-1.831-1.133.134-.513.135-.514h-1.243l-.492-1.691-.55.021-.386 2.358.319 3.574.546 1.787.545 1.787 1.312 2.594v.581l-1.511.602.824.276 1.812.833 2.566 3.637 3.041 3.495 4.946 4.422 3.963 2.608 4.281 1.735.446.194.446.193-1.359 1.375.184-.62.184-.62-.363-.107-.362-.108-3.298-.919-3.297-1.113-3.535-1.737-2.94-2.684-1.158-1.948-1.156-1.948-.195 1.008.358 2.384 1.385 2.638 3.119 3.228 3.572 2.339 4.557 2.287 5.885 1.874 5.77 1.117 1.375.215 10.717.066 2.335-.388v.001Zm65.125-6.036 1.237-.379 3.038-1.397 3.831-2.6 5.134-4.147 4.632-4.922 2.374-3.355 1.968-3.574 1.448-4.399.324-3.987h-.359l-2.331 1.677-3.775 3.685-2.379 2.775-2.41 1.204-.86.969-4.246 7.424-2.957 4.124-6.318 6.846v.44l.412-.006 1.237-.379v.001Zm-67.928-1.263 3.24-.822 3.82-1.308 3.573-1.502 4.259-2.524v-.419l-9.205-7.751-4.534-3.821v.33l2.527 2.812-.3.101-.301.1-2.888-1.008-9.446.095-4.282 1.176-.238-.721-2.137-4.065-1.66-2.414 2.65-2.902 1.552-3.178-.242-.243-2.297 3.867h-2.38l-2.352-.831-.257.257 2.323 2.636 3.746 5.6 1.276 2.923 3.406 6.766-.654.202-2.665.257-1.7-2.413-.435.687-.009 1.056-.86.952 5.394.355 2.075.299 4.52 5.51.274.382.273.382h.694l3.24-.823Zm53.466.251.726-.571 3.514-4.494 1.486-1.375 3.789-7.553v-.275l-1.786-.74-3.572-.708-5.771.003-3.572.656-4.141 1.334-7.125 6.117-1.512 1.132v.976l1.055 2.907.181.891.181.89.57.353-.197-1.96-.197-1.961h.343l4.247 2.122 3.573 1.254 5.77 1.532 1.712.041.726-.571Zm-28.85-16.132-.118-1.58-.261-4.812-.26-4.811-.881-4.124-1.369-2.828-4.807-5.421-1.005-1.573-1.006-1.573-2.297-1.665h-.682l-.268 1.787-.333 1.638-.332 1.638-.69.985-.17-6.392-.172-6.392-.838-4.654-.873-2.632h-.463l-.282.894-.281.894-.588 5.498-.179.963-.178.962-.197-.825-.196-.825-.033-4.471-.032-4.47.415-2.678.415-2.678.137-.606.136-.607-6.577-3.881-1.333-1.779-1.201-2.392-2.23-2.42h1.994l-.007-.412-3.27-1.798-1.285-1.776-.735-2.2-1.558-3.32-2.004-2.342.179-.18.179-.178 3.417 1.726 2.336 1.438v-.545l-5.908-4.249-3.114-2.385h-.67l.185 1.306.186 1.306.28 3.154.28 3.154.38 1.795.378 1.795 1.414 3.986 1.414 3.987 3.202 9.623.892 2.887.892 2.886.982 1.978 3.113 3.796 3.974 5.774 5.943 9.898 2.7 4.013 5.936 6.478.287.941.288.94.485 1.617.486 1.616-1.884 1.613 3.129-.215 4.277 4.304h.373l-.117-1.581Zm6.608-6.222.706-2.164v-.978l5.954-6.33 4.117-6.232 4.583-7.698 2.746-4.124 4.286-5.587 1.122-1.836 1.972-6.324 1.311-3.987 1.312-3.986 3.426-9.567.728-3.905.582-4.674.153-1.444.152-1.443h-.493l-6.533 4.379-2.473 2.262 3.572-2.006 2.198-1.002 1.374-.393-2.894 2.972-1.917 4.923-.959 1.816-2.48 1.594-2.017.843-.39.632 3.167-.396-1.917 1.917-2.08 3.492-1.428 1.556-4.946 2.936-1.001.753.432 2.464.433 2.464.349 6.048-.403 5.911h-.421l-.346-3.161-.506-4.399-.195-.769-.194-.768-.577.193-.391 1.084-.391 1.084-.767 3.025-.369 14.709h-.403l-.209-.481-.209-.481-.453-2.474-.452-2.473-.833-.161-2.512 2.212-1.824 2.896-4.288 4.577-1.091 2.255-1.091 2.256-.836 8.733v6.318l4.908-4.897.706-2.164Zm18.654 6.286 1.873-.407h5.118l6.25 1.094.374.006 1.988-3.903 1.347-2.135v-.584l-2.12-2.864-2.901-5.223-.612-.404-1.125-.009-1.932 2.062-4.2 5.309-6.208 6.515-1.099 1.322 1.374-.372 1.873-.407Zm-34.577-1.5.164-.266-.857-1.657-1.423-.358-.482.762-.004.494-.004.493 1.37 1.371 1.072-.574.164-.265Zm-14.422-1.201v-.095l-1.237-1.048 1.047 1.237h.19v-.094Zm83.264-3.329 2.251-2.598.234-.082.234-.083 3.049-2.944v-.492h-3.546l-1.314.599-.631 1.281-.63 1.281-1.199 2.687-1.198 2.686v.264h.499l2.251-2.599Zm-84.847 1.705-.276-.343-4.812-6.049-5.056-7.698-2.494-4.399-2.753-5.499-2.862-6.324-1.314-3.986-1.314-3.987-1.953-7.423-.163-.757-.163-.756h-.593l.373 3.437 1.05 5.224 2.99 9.073 1.463 3.574 3.56 7.118 1.432 2.505 2.376 3.977v.546l-1.097 1.801-.001.221-.001.222 1.221-.856h1.22l3.103 3.987 6.135 6.728.204.008-.275-.344Zm3.605-5.231.48-.351-1.704-2.352-.47-1.239-.332-6.647-.332-6.648-.038-.485-.04-.485 1.237.131-.025-.406-2.717-2.985-.122.123-.123.123.242 2.332.242 2.331.28 2.75.281 2.749.64 3.485-.173 1.694-.173 1.695-.338 1.787h1.077l.472.522.473.523-.599.37-1.672-.367-1.45-.753-.25.251.502.555.502.556 3.344 1.041.307.051.48-.351Zm-57.118-2.38-.021-1.632-.44-.499-.44-.499-1.408-4.674-.543-3.575-.083-2.936-.082-2.936.32-.32 4.83 1.4.195-.196.233-1.699.232-1.698h-.445l-.904 1.787-.403.46-.402.46-3.382-1.272-.194-.924-.194-.923-.43-10.448-.226 3.849-.227 3.849.59 9.898.338 4.124-1.426-1.31-2.596-3.914-1.064-1.374.201.962.202.962 2.78 6.283 2.695 4.99 2.22 3.436h.095l-.021-1.631Zm104.58 1.081h.252v-1.035l-.481-.125-.481-.125-.686.231v.963l.191.192.192.191.761-.292h.252Zm-23.526-12.441.709-.618 1.151-4.124 1.115-2.2 3.531-3.659.112-.783.111-.782.285-5.495.284-5.496.996-1.931.436-.825.437-.825.299-1.666.298-1.666v-1.479h-.437l-1.946 2.612-.562.962-.563.963-1.135 3.299-.147 5.427-.147 5.428-.426 1.021-.427 1.021-2.109 2.774-2.787 2.887h-1.696l-3.552-3.607-1.648-2.396-.829-3.185-.019-7.445-.742-4.159-1.237-2.427-2.112-2.86-.561-.347v2.48l.622 2.902.602.968.602.968.328 1.237.328 1.238.261 5.456.26 5.457 3.862 4.068 1.064 2.34.944 4.01 1.368 1.076h2.368l.709-.618v-.001Zm-44.626-2.887-.793-2.13-.383-.963h-.451l-1.14 1.449v.656l3.144 3.119h.415l-.792-2.131Zm38.495-.724-.553-1.252-2.48-2.411-1.68-.697v-3.266l-.717-2.527-.717-2.526-.726-1.168-.725-1.168-.487-.001.18 1.306.18 1.306.158 2.749.158 2.75-.517 3.153.439.395.438.395 7.362 4.454.12-.121.121-.12-.554-1.252v.001Zm12.022-.77 3.187-1.96 1.003-.604.067-5.826.068-5.827-.261.161-.261.162-.894 1.955-.893 1.955-.308 1.809-.307 1.81v2.494l-2.336 1.518-1.302 1.167-.666 1.044-.666 1.045-.536 1.41.459-.176.459-.176 3.187-1.961Zm15.382-.498 1.389-1.099 5.052-6.738 2.883-3.066.599-2.157.003-.507-.909-1.005h-1.155l-1.282 3.308-2.325 2.878-3.079 4.124-3.066 4.895v.466h.5l1.39-1.099Zm-21.746-1.994.861-.894.584-1.548v-3.493l-1.165-2.657-.501-1.925-.507-9.108-.644-1.614-.499 1.649-.256 3.987-.255 3.987-.53 2.749-1.235 2.749-.041 3.901.399.799.399.799 1.365 1.512h1.164l.861-.893Zm-51.265-4.368-.524-.925-1.633-2.749-2.892-4.613 1.36-2.811.836-3.024.186-1.341.187-1.341.306-.892-.745.714-.746.715-2.028 5.444-.57.976-2.375-.838h-.831l4.355 4.539 5.467 7.584.086-.257.085-.257-.524-.924Zm54.082-8.523v-2.237l.588-5.012.781-5.094 1.195-3.704 1.238-2.801 2.731-4.186 1.725-5.481 2.207-3.307 4.362-4.295 4.645-3.025.038-.367-2.184-1.007-.007-.244-.007-.244 2.987-6.11 2.497-7.486.438-1.756.438-1.756.488-2.2.446-1.924.447-1.925.753-8.523.012-1.702.012-1.702-.216-.134-.217-.134-6.574.65.026 8.796.574 1.1.575 1.1.58 1.884.581 1.885v2.506l-.962 3.07-1.974 1.977-2.529.637h-1.705l.36-2.062 1.651-3.024 1.232-1.65 1.226-2.407.304-2.954h-.582l-2.513 4.613-.993.872-.992.872-.258-.257.793-1.564.715-2.231.715-2.232.84-4.82-.017-7.213-1.121-6.049-.57-3.574.263-9.898-1.661 3.513-.177 4.617-.176 4.616-6.298 6.5-3.91 4.674-2.748 4.124-1.473 2.921-.557 1.478.495-.55 4.294-6.321 4.142-5.226 6.237-6.186h.421l.663 5.361-.005 7.541-1.089 5.618-.556.556.179-4.727.178-4.727h-.706l-3.719 2.759-3.533 3.747-3.376 5.05-.82 1.772-.82 1.772-.426 1.436-.426 1.435v5.301l.918 2.71 1.006 1.805-1.429 2.822-3.105 4.72.026 10.449.027 10.447.653 6.599.253 2.199.254 2.2.514 6.49.968 1.071h.74v-2.237Zm2.488-27.662.492-2.68.306-.8.305-.8 1.631-1.858.411-.985.412-.986v-1.55l.236-.146.235-.145.703 1.298.702 1.297.571 3.12-.225.785-.225.785-1.126 2.184-2.107 2.008-2.191 1.154h-.622l.492-2.68Zm5.646-11.41-1.241-2.543 3.961-3.869 3.537-3.991.5.895-.102 3.62-.102 3.62-1.006 1.924-2.808 2.887h-1.497l-1.242-2.543Zm-3.288-6.873-.178-1.719-1.142-5.443 1.121-1.43 2.684-3.85 1.799-4.398.555-.688h.461l.545 2.062.551 3.3.42 2.474.419 2.475.01 2.35-2.211 3.502-2.494 2.3-1.873.783h-.489l-.178-1.718Zm-2.373 43.525v-.258l-.476-.295.224-1.525.286-1.65.286-1.649 1.385-4.309 1.894-3.353 1.882-2.565 4.026-3.826 7.393-4.281 3.005-2.287 4.017-3.796 4.242-5.277 3.691-4.319.697-1.4.698-1.4-.009-1.801-.009-1.802-.836 1.1-3.65 6.598-1.901 3.024-3.435 4.4-2.663 2.513-2.748 2.207-3.298 2.195-4.189 2.295h-.678l.411-.963.268-1.569-.607.325-.606.324-4.078 3.877-2.756 3.719-2.138 4.597-.905 3.574-.5 1.65-.367 3.658.189 1.264.19 1.264h1.065v-.259Zm-12.373-6.065-.324-2.062-.687-2.057-.687-2.057-1.668-3.309-2.085-3.077-2.766-3.027-3.056-2.359-.243.243.624 2.034-.17.169-.17.17-4.836-2.615-3.847-2.619-2.852-2.46-2.784-3.021-1.012-1.309-1.888-2.75-2.268-3.849-3.392-6.048-.56-.55.207 4.124 1.34 2.654 3.8 4.495 4.021 4.993 4.014 3.996 3.297 2.484 7.97 4.733 3.589 3.589 2.25 3.024.687 1.254.686 1.254.709 2.054.709 2.055.349 2.456.572 1.925.616.777.09-1.626.089-1.626-.324-2.062Zm-75.202-1.09.053-.403-1.65-.297-.191-1.361.58-3.859.676-5.069.637.529.493 1.094.493 1.094.452-.28-.52-1.366-.416-1.799-.417-1.798v-5.388l.86-7.638.511-1.924.003-1.238h-.419l-.767 3.918-.767 3.918-.402 3.024-.402 3.025-.807 11.822-.003 9.898 1.95-5.499.053-.403Zm74.529-16.299-.194-.619-.755-3.574-.01-.78-.01-.78-2.588-2.344-.298-2.926-.317-.105-.316-.104-1.428 3.018v3.266l.412.986.412.986.893 1.02.894 1.021 2.443 1.553h1.056l-.194-.618Zm23.112-1.747 2.986-1.815 2.825-2.752 1.422-2.907.185-1.574.185-1.573-1.124.602-4.076 2.7-3.439 3.755-1.849 3.867-.186.756-.186.756h.272l2.985-1.815Zm-40.441-9.114.189-.756 1.077-1.748 2.452-1.188v-.142l-3.558-7.457-1.427-3.761-1.367-4.125-1.358-5.498-.804-6.324-.005-8.11 1.512.006 3.023.812 1.084.006-1.235-.865-5.216-.611-.645.645-.017 2.271-.017 2.272.366 3.574.366 3.574.938 3.987.939 3.987.867 3.024 1.005 3.024 1.005 3.024 3.12 6.324-.181.07-.181.07-1.82 1.11-.79 1.894v1.668h.49l.188-.757Zm8.804-8.674-3.712-3.794-.005.22-.006.22-.546 3.782.84 4.431 1.363 2.328 3.137 1.963 2.642-5.356-3.713-3.794Zm13.675 7.85-.182-.481-3.465-5.728v-.645l1.699-4.9.15-1.434.149-1.435-.643-3.268-1.823-4.648-2.664-4.481-3.894-4.53-4.618-3.711h-.575l5.824 5.911 3.048 3.66 1.858 2.939 1.426 3.328.481 1.98.481 1.98-.278 3.467-1.971 4.838 1.198 2.386 1.198 2.387 2.264 2.866h.519l-.182-.481Zm-77.84-2.544v-.275H31.9l-.34.55h.582v-.275Zm46.555-5.709-.022-1.117-1.353-2.659-2.236-4.124-1.52-4.674-.188-.687h-.491l-.862 2.886-.179 1.603-.179 1.602 1.509 2.294 3.29 4.4 1.681 1.794.572-.2-.022-1.118Zm23.713-1.714.344-2.887.178-1.413.177-1.413-2.681-3.708-3.023-6.052-.534.048-1.13 4.793-.874-1.335-1.42-3.941-.316-2.372-.316-2.373.097-6.706.096-6.706.315-.314.314-.315 3.99 3.664 3.079 3.4 3.082 3.848 4.698 6.728.248.696.318-.289-1.95-3.836-2.943-4.399-3.731-4.666-6.39-6.426-.135-4.214-.135-4.214-.582-1.787-.582-1.787-1.156-1.65.15.825.148.825.331 2.941.33 2.942-.327 3.244-.328 3.245-.825 4.124-.27 2.2-.27 2.199.327 6.323.394 2.063.395 2.062 1.46 4.087 2.707 2.583-.322 3.053-.323 3.054.667 1.447.667 1.447 2.63 2.911 1.988 1.063 1.088-.125.344-2.886h.001Zm43.771.923 1.511-1.788 2.848-4.377-.145-1.022-.146-1.022-.493-1.924-.001-.757-.002-.756h-.474l-1.489 3.437-4.082 8.085v1.859l.164.164.165.164.633-.276 1.511-1.787Zm-53.395-7.119-.157-.972-1.42-3.104-1.994-2.434-.358-1.002-.357-1.001-.024-3.987h-.516l-1.767 3.59-.261 4.086.32 1.273.32 1.274 1.208 1.635 1.854 1.146 1.727.412 1.583.056-.158-.972Zm23.169-28.203v-.275l-.55.34v.55l.55-.34v-.275Zm-25.556-3.246v-.254l-.682-.811-.683-.811-2.894-1.389-1.237-.367v.526l.962 1.167 4.122 2.179.412.014v-.254Z" fill="url(#a)"/><defs><linearGradient id="a" x1="15.658" y1="110.405" x2="206.918" y2="110.405" gradientUnits="userSpaceOnUse"><stop stop-color="#495057"/><stop offset="1" stop-color="#6C757D"/></linearGradient></defs></svg>