<svg width="240" height="220" fill="none" xmlns="http://www.w3.org/2000/svg"><path d="M186.542 40.947c.45 0 .903.028 1.351-.005 1.781-.13 3.326.498 4.762 1.467.713.482 1.457.906 2.225 1.289.172.086.349.178.534.22.397.089.841.205 1.133-.176.267-.349.027-.7-.164-1.009-.69-1.113-1.386-2.222-1.689-3.52-.897-3.839-.442-7.455 1.762-10.785.774-1.168 1.532-1.365 2.703-.6 2.107 1.376 3.969 3.067 5.843 4.733 2.725 2.421 5.377 4.922 7.911 7.544 1.013 1.048 2.042 2.087 2.875 3.29.631.91.472 1.452-.554 1.819-2.65.946-4.997 2.448-7.337 3.962-1.967 1.272-3.863 2.634-5.402 4.432a16.416 16.416 0 0 0-2.422 3.705c-.401.852-.298 1.3.424 1.92.613.526 1.351.787 2.125.824 2.968.14 5.277 1.624 7.388 3.532.764.69 1.491 1.42 2.254 2.11.55.496 1.004 1.053 1.314 1.727.072.155.144.32.255.445.247.276.546.562.938.41.379-.145.27-.543.253-.853-.085-1.507-.449-2.963-.812-4.423-.94-3.784-.653-7.45 1.172-10.936.707-1.351 1.758-2.423 2.949-3.362.441-.349.871-.282 1.299.02.861.606 1.459 1.45 2.018 2.313 3.093 4.78 5.79 9.78 8.173 14.948 1.007 2.182 1.97 4.384 2.666 6.69.59 1.955-.006 2.789-2.052 2.747-1.841-.038-3.609.387-5.408.652-3.298.486-6.276 1.868-9.293 3.142-1.183.5-2.257 1.237-3.252 2.06-.31.256-.585.572-.819.901-.689.972-.49 1.663.585 2.148.059.027.115.063.177.077 2.912.65 4.571 2.796 6.085 5.11.399.609.756 1.245 1.134 1.87.224.37.326.775.438 1.194.305 1.139.966 2.097 1.754 2.958.337.367.653.27.836-.184.268-.663.34-1.372.448-2.07.431-2.768 1.09-5.473 2.296-8.014.674-1.42 1.495-2.756 2.62-3.873 1.549-1.537 3.482-2.045 5.595-1.98.875.027 1.256.44 1.227 1.313-.039 1.183.221 2.266.669 3.367.618 1.518.729 3.17.884 4.794.468 4.9.429 9.814.319 14.726-.027 1.221-.112 2.442-.119 3.665-.005.754-.219.951-.977.939-.838-.014-1.687-.072-2.483-.308-2.785-.824-5.623-.876-8.478-.654-2.971.231-5.947.456-8.812 1.38-.553.178-1.101.367-1.574.716-.674.497-.707.99-.037 1.505 1.087.835 2.27 1.539 3.282 2.479 1.51 1.402 2.64 3.033 3.16 5.051.223.868.121 1.751.132 2.628.002.172-.017.344-.009.515.016.359.204.624.537.727.384.118.5-.209.66-.466 1.355-2.185 2.662-4.392 4.903-5.859 2.218-1.454 4.624-2.111 7.249-2.013 1.175.044 1.651.534 1.711 1.733a22.243 22.243 0 0 1-.705 6.761 82.528 82.528 0 0 0-1.952 9.971c-.307 2.313-1.066 4.503-1.849 6.686-.213.595-.624.482-1.045.295-1.586-.707-3.203-1.353-4.747-2.144-4.267-2.187-8.803-2.727-13.506-2.358-1.075.084-1.536.513-1.445 1.311.034.289.144.541.356.738 1.278 1.18 1.678 2.76 1.951 4.38.257 1.524.096 3.034-.319 4.518a11.74 11.74 0 0 0-.433 2.532c-.03.548.262.696.726.58.547-.136.974-.466 1.2-.987.239-.552.625-.954 1.085-1.324.837-.672 1.704-1.3 2.59-1.905 1.558-1.065 3.296-1.531 5.156-1.572 1.33-.03 2.66-.005 3.99-.003.086 0 .172.002.258.007 1.914.108 2.507.951 1.853 2.742-.826 2.262-1.959 4.387-3.073 6.514-1.95 3.727-4.049 7.37-6.473 10.814-.764 1.086-1.509 2.194-2.511 3.088-.731.652-1.235.711-2.111.279-.43-.212-.787-.513-1.122-.85-2.641-2.656-5.752-4.676-8.982-6.509a9.966 9.966 0 0 0-5.441-1.3c-.993.046-1.135.329-.829 1.233.54 1.592 1.31 3.131 1.206 4.891-.12 2.022-.954 3.786-2.05 5.411-.501.742-.693 1.553-1.01 2.34a.281.281 0 0 0 .097.345c.097.071.194.044.299-.006 1.7-.803 3.406-1.593 5.101-2.407.906-.436 1.761-.979 2.718-1.313 2.942-1.027 5.874-1.395 8.806.059.925.458 1.932.579 2.952.455a2.14 2.14 0 0 1 1.575.398c.244.174.494.346.759.483 1.5.772 2.126 2.103 2.396 3.677.071.414.041.812-.076 1.207-.387 1.314-.758 2.636-1.31 3.89-.322.733-.923 1.287-1.478 1.849-2.999 3.037-6.068 6.006-8.923 9.182-.473.527-.934 1.067-1.262 1.7-.156.302-.349.632-.032.946.327.324.659.168.998-.016 2.02-1.096 4.096-2.066 6.308-2.714.287-.084.586-.129.878-.194.197-.044.395-.058.526.127.134.19.014.378-.068.544-.286.578-.787.957-1.287 1.326-1.301.959-2.75 1.669-4.189 2.382-1.541.763-2.953 1.66-3.927 3.121-.261.392-.536.779-.756 1.195-.885 1.672-2.28 2.757-3.971 3.508a6.428 6.428 0 0 0-1.58.981c-.578.496-.961 1.089-.947 1.888.003.167-.019.349-.085.5a.53.53 0 0 1-.631.328c-.295-.063-.326-.31-.289-.561.122-.849.253-1.697.375-2.546.028-.191.046-.385.046-.577.001-.306-.135-.541-.423-.66-.282-.117-.557-.087-.775.134-1.552 1.571-3.176 3.081-4.235 5.065a3.912 3.912 0 0 0-.445 1.467c-.042.405-.066.816-.15 1.212-.081.38-.09.924-.648.874-.486-.045-.685-.501-.724-.948-.079-.91.15-1.788.338-2.67.069-.318.352-.698.008-.955-.387-.289-.796-.032-1.12.211-1.087.814-1.909 1.906-2.888 2.832-2.383 2.253-3.905 5.083-5.432 7.917-.092.17-.177.345-.289.502-.178.251-.297.629-.714.519-.385-.103-.524-.441-.552-.795-.199-2.522-.054-4.978 1.398-7.183 1.669-2.534 3.822-4.607 6.128-6.546 2.397-2.014 5.056-3.699 7.353-5.835 1.869-1.737 3.611-3.617 5.548-5.271 3.201-2.734 5.688-6.117 8.577-9.13.369-.385.734-.789.911-1.312.247-.731-.031-1.142-.795-1.127-1.512.03-2.903.517-4.237 1.189-1.207.607-2.405 1.233-3.672 1.711-.327.123-.581.335-.814.604-1.081 1.249-1.988 2.638-3.112 3.853-.534.577-.754.58-1.261-.042-2.047-2.508-3.985-5.114-6.369-7.325-1.655-1.534-3.378-2.985-5.545-3.777-.757-.277-1.53-.416-2.335-.347-.736.063-1.355.635-1.309 1.336.228 3.487-1.435 6.128-3.727 8.502-.687.711-1.449 1.337-2.2 1.977-.097.083-.206.157-.29.253-.26.294-.73.583-.398 1.02.3.395.664-.007.972-.145 1.925-.864 3.945-1.365 6.048-1.327 3.605.065 6.98.935 9.901 3.178.469.36.865.772 1.08 1.33.133.342.169.69-.198.915-1.79 1.095-3.249 2.584-4.792 3.978-1.539 1.39-3.383 2.344-5.185 3.334-3.254 1.788-6.587 3.416-10.119 4.595-.731.244-1.462.479-2.258.446-.504-.021-.715-.246-.804-.723-.651-3.465-1.53-6.869-2.794-10.163-1.08-2.815-2.799-5.201-5.028-7.22-.707-.641-1.715-.406-2.11.496-.68 1.553-1.284 3.153-2.334 4.501-1.384 1.776-3.173 3.039-5.255 3.89-.04.016-.085.022-.121.044-.36.222-.883.405-.863.86.022.486.59.499.964.562.716.121 1.448.238 2.171.219 3.064-.077 5.573 1.179 7.77 3.181 1.34 1.222 2.463 2.618 3.238 4.284.546 1.174.208 2.044-1.064 2.324-3.554.782-7.126 1.478-10.748 1.869-3.43.371-6.864.707-10.297 1.058-.951.097-1.56-.433-1.613-1.382-.068-1.221.182-2.385.576-3.533.584-1.705.531-3.428.306-5.207-.279-2.217-1.035-4.283-1.655-6.397a2.952 2.952 0 0 0-.395-.875c-.954-1.371-1.809-1.496-3.092-.447-.083.068-.176.129-.242.211-1.938 2.399-4.751 3.002-7.529 3.68-.976.237-1.95.221-2.938.068-.462-.072-.94-.06-1.411-.063-.344-.003-.652.129-.768.473-.112.334.172.505.392.668 1.261.932 2.633 1.687 3.959 2.519 1.687 1.058 3.4 2.086 4.647 3.712 1.166 1.521 1.79 3.205 1.758 5.128-.017 1.036-.44 1.494-1.483 1.506-1.974.023-3.943-.108-5.906-.309-1.407-.143-2.83-.236-4.202-.582-3.768-.952-7.639-1.317-11.44-2.075-.5-.1-.986-.293-1.465-.479-.895-.347-1.043-.877-.456-1.631a36.297 36.297 0 0 0 3.165-4.843c1.257-2.288 2.296-4.666 2.612-7.285.179-1.487.317-2.988.131-4.49-.096-.78-.589-1.062-1.328-.769a2.29 2.29 0 0 0-.81.511c-1.268 1.29-2.829 1.859-4.619 1.956-2.173.119-4.278.025-6.23-1.119-.783-.458-1.705-.569-2.611-.617-.463-.024-.922.052-1.154.53-.227.466.12.761.381 1.069.47.557.942 1.112 1.415 1.665.145.17.244.362.226.586-.058.722.286 1.281.717 1.804.764.928 1.113 1.925.819 3.163-.16.673-.058 1.408-.071 2.116-.005.281.017.584-.21.785-.491.432-.597 1.018-.712 1.611a9.78 9.78 0 0 1-.243.934c-.519 1.71-1.464 2.265-3.222 1.886-1.544-.332-2.96-1.013-4.376-1.676a82.987 82.987 0 0 1-12.34-7.155 5.549 5.549 0 0 0-.491-.307c-.718-.396-1.415-.093-1.554.71a10.903 10.903 0 0 0-.153 2.051c.013.734-.076 1.447-.345 2.145-.32.832-.921 1.17-1.776 1.225-2.523.165-4.605-.792-6.411-2.468-3.78-3.507-7.931-6.555-12.012-9.69-1.088-.836-2.145-1.713-3.217-2.57-.386-.308-.784-.604-1.25-.78-.268-.1-.555-.328-.839-.071-.242.219-.135.517-.098.79.12.885.44 1.698.888 2.465.64 1.092 1.248 2.203 1.922 3.273 1.48 2.35 1.444 4.826.683 7.373-.123.411-.28.811-.43 1.213-.085.229-.208.456-.498.412-.317-.047-.376-.308-.391-.582-.023-.407-.063-.814-.074-1.221-.061-2.297-.782-4.437-1.686-6.501-.452-1.031-1.006-2.035-1.546-3.033a2.132 2.132 0 0 0-.642-.714c-1.281-.916-2.325-2.091-3.457-3.169-.261-.249-.384-.569-.49-.893-.44-1.325-1.31-1.714-2.81-1.478-.97.153-1.915.429-2.708 1.096-.45.38-1.038.513-1.625.544-.562.03-.787-.27-.622-.813.45-1.479 1.438-2.456 2.861-3.011.2-.078.409-.131.61-.202.6-.211.69-.488.3-.998-.38-.498-.883-.875-1.358-1.274-1.513-1.272-3.141-2.387-4.81-3.44-.79-.498-1.65-.763-2.597-.861-1.507-.156-2.986-.262-4.43.348-.246.104-.546.092-.823.105-.28.014-.581.015-.72-.299-.13-.294.03-.547.19-.774.395-.558 1.015-.767 1.615-1 .494-.192 1.037-.261 1.46-.637.184-.164.443-.108.682-.084.964.094 1.908.28 2.83.574 1.053.335 2.14.444 3.233.502.676.035.937-.351.593-.933-1.304-2.206-2.949-4.107-5.102-5.533-.089-.059-.217-.168-.278-.141-.676.299-.915-.056-1.116-.636-.064-.184-.411-.284-.643-.392-2.436-1.133-5.011-1.606-7.684-1.576-.93.011-1.813.318-2.715.506-.335.069-.708.195-.912-.205-.202-.396-.033-.757.245-1.056.518-.555 1.224-.689 1.926-.788 3.432-.484 6.8-.266 10.07.964.31.116.63.172.61.612-.009.178.164.34.282.22.314-.319.701-.301 1.08-.406.42-.116.27-.494.1-.798-.853-1.522-1.93-2.886-3.004-4.251-.915-1.163-1.885-2.282-2.651-3.557-.648-1.078-.875-2.316-1.36-3.46-2.227-5.244-4.072-10.617-5.071-16.246a51.533 51.533 0 0 1-.751-11.407c.064-1.394-.1-2.77-.039-4.161.173-3.927 1.005-7.688 2.587-11.285.52-1.185.919-2.404.987-3.711.03-.583-.163-.743-.72-.554-.623.212-1.02.694-1.364 1.221-1.25 1.911-2.189 3.983-3.083 6.074-1.342 3.14-2.57 6.321-3.277 9.676a35.244 35.244 0 0 0-.69 9.531c.066 1.048.06 2.102.144 3.149.13 1.635.535 3.213 1.088 4.755.255.711.4 1.448.474 2.196.058.586-.215.802-.775.622-.616-.197-1.077-.611-1.437-1.137-.887-1.298-1.393-2.756-1.712-4.276a47.006 47.006 0 0 1-1.023-9c-.024-1.687.438-3.313.64-4.972.257-2.103 1.103-4.053 1.578-6.095 1.1-4.735 3.155-9.057 5.545-13.241.882-1.546 1.874-3.029 3.084-4.347.25-.273.346-.543.162-.868-.182-.32-.491-.222-.752-.161-1.368.319-2.417 1.163-3.395 2.114-2.093 2.034-3.942 4.296-5.952 6.408a85.658 85.658 0 0 0-5.643 6.594c-.591.762-1.166 1.538-1.766 2.293-.619.779-1.144 1.604-1.448 2.56a2.96 2.96 0 0 1-.639 1.108c-.255.28-.544.511-.953.365-.398-.142-.423-.503-.433-.854-.05-1.866.39-3.61 1.276-5.252.72-1.334 1.73-2.448 2.679-3.608a45.087 45.087 0 0 0 3.345-4.644c.828-1.324 2.007-2.349 3.12-3.408 2.283-2.172 4.502-4.41 6.764-6.602.787-.763 1.754-1.302 2.647-1.93.729-.513 1.379-1.101 1.686-1.972.268-.762.054-1.025-.729-.896a7.62 7.62 0 0 0-2.414.848c-1.867 1.016-3.64 2.187-5.467 3.269-1.332.789-2.726 1.255-4.31 1.315-1.567.06-3.048.669-4.52 1.2-1.326.478-2.695.697-4.094.767-.212.01-.43-.002-.64-.033-.267-.039-.503-.151-.575-.442-.075-.306.121-.484.344-.63.72-.471 1.503-.826 2.291-1.163 4.438-1.895 8.95-3.604 13.415-5.429 2.699-1.103 5.396-2.213 7.985-3.564.265-.139.52-.3.768-.467.222-.15.405-.351.311-.643-.093-.285-.349-.352-.622-.362-1.36-.051-2.747-.032-3.997.495-2.928 1.235-5.95 1.109-8.993.823-2.599-.243-5.093-.962-7.556-1.79-.258-.087-.578-.145-.612-.49-.034-.353.164-.617.44-.81.284-.196.592-.352.944-.387 1.2-.12 2.392-.499 3.603.048.475.215 1.031.018 1.518-.118 1.9-.533 3.86-.548 5.8-.69 6.392-.47 12.79-.873 19.104-2.066.626-.118.988-.42 1.164-1.028.486-1.686.53-3.431.727-5.154.463-4.07.796-8.158 1.792-12.15.198-.792.415-1.581.828-2.292.404-.695.966-1.134 1.843-1.014.658.09 1.322.133 1.983.202 1.057.11 1.69-.218 2.098-1.2.437-1.053.726-2.157.82-3.298.066-.812-.257-1.06-1.04-.867-.775.19-1.216.765-1.602 1.397-.157.255-.27.537-.429.791-.264.426-.6.788-1.072.99-.548.233-1.162.404-1.646-.003-.475-.4-.282-1.017-.093-1.505a74.241 74.241 0 0 1 2.21-5.067c1.335-2.807 2.537-5.679 4.107-8.37a24.746 24.746 0 0 1 1.665-2.524c.49-.643 1.07-.725 1.714-.242a31.767 31.767 0 0 0 3.78 2.441c.78.43 1.121.372 1.764-.26 2.346-2.308 4.365-4.895 6.371-7.492.214-.276.739-.61.352-1.03-.357-.389-.868-.277-1.308-.014-1.096.655-2.289.995-3.531 1.281-1.563.36-3.08.923-4.62 1.382-.485.144-1.004.207-1.38-.224-.371-.427-.22-.935-.067-1.407.251-.768.832-1.288 1.428-1.782.569-.47 1.06-1.002 1.403-1.657.226-.43.589-.734.925-1.061 2.29-2.227 4.4-4.65 6.938-6.608 1.27-.98 2.347-2.206 3.779-2.977.056-.03.134-.066.15-.116.285-.9 1.174-.795 1.813-1.108.48-.235.745-.072.961.38a289.854 289.854 0 0 0 2.044 4.157c.77 1.54 1.666 3.001 2.818 4.29.199.224.42.431.65.622 1.122.932 1.618.905 2.743.003 1.426-1.143 2.398-2.679 3.573-4.038.941-1.088 1.987-2.009 3.35-2.53.543-.207 1.057-.476 1.46-.914.454-.493.376-.81-.273-1.021a3.443 3.443 0 0 0-2.155-.01c-.943.306-1.89.34-2.857.228-2.711-.317-5.394-.765-7.956-1.753-.62-.238-1.358-.464-1.434-1.226-.076-.763.614-1.129 1.162-1.494 1.825-1.217 3.77-2.224 5.781-3.084 2.643-1.129 5.142-2.595 7.883-3.48a117.457 117.457 0 0 1 9.542-2.614c5.886-1.366 11.862-2.067 17.881-2.47a142.68 142.68 0 0 1 8.672-.333c.411-.003.813.032 1.201.182.75.292 1.039.779.845 1.553-.303 1.212-.4 2.455-.597 3.683a7.494 7.494 0 0 1-1.013 2.76c-.2.326-.295.655-.283 1.033.013.407.044.82-.004 1.222-.287 2.373.426 4.583 1.088 6.8.261.872.658 1.018 1.494.664 1.776-.751 3.515-1.64 5.355-2.184 2.839-.84 5.788-.9 8.733-.653.502.042 1.15.14 1.273-.395.114-.497-.493-.804-.944-.991a36.321 36.321 0 0 0-2.472-.915c-2.81-.933-4.953-2.769-6.773-5.024-1.295-1.605-2.471-3.294-3.343-5.176-.054-.116-.11-.233-.154-.354-.473-1.283-.12-1.805 1.247-1.726 2.205.128 4.395.419 6.587.689 4.661.574 9.307 1.248 13.913 2.167 2.648.53 5.309 1.021 7.835 2.026.139.055.28.11.411.182 1.182.645 1.255 1.055.467 2.15-1.327 1.843-2.791 3.61-3.574 5.784-1.122 3.12-1.796 6.309-1.308 9.651.15 1.03.628 1.46 1.677 1.47 1.316.012 2.615-.138 3.873-.53a6.238 6.238 0 0 1 2.022-.305c.858.019 1.716.002 2.574.005 1.175.003 2.329-.018 3.49.37 1.097.366 2.294.239 3.453.206.327-.01.59-.156.673-.494.072-.296-.102-.528-.347-.625-1.693-.67-2.73-2.118-3.905-3.366-1.947-2.066-3.607-4.357-4.815-6.953-.777-1.672-1.273-3.412-1.432-5.248-.056-.645.099-.819.774-.734 1.188.148 2.245.702 3.333 1.148 1.607.659 3.202 1.348 4.802 2.024.459.194.935.306 1.436.311.826.009 1.528.434 2.235.763 2.467 1.15 4.929 2.316 7.284 3.691.46.27.969.453 1.452.684.627.302 1.249.54 1.709 1.172.458.63 1.297.799 2.042 1.005.705.194 1.392.432 2.052.747.173.083.326.22.505.279.447.145.106 1.157 1.064.846.475-.154.95.492 1.427.773.48.283.953.578 1.429.869.164.1.34.188.485.31.839.708.875 1.21.072 1.937a15.333 15.333 0 0 1-2.191 1.67c-.375.233-.687.579-.996.903-1.629 1.705-3.385 3.312-4.827 5.164-1.137 1.462-2.464 2.885-2.905 4.799-.062.269-.11.55-.107.824.009.714.389 1.124 1.108 1.152.814.031 1.63.007 2.445.007v.014Zm-40.452 89.504a33.875 33.875 0 0 1-.256 4.367c-.615 5.129-2.173 9.965-4.607 14.513-1.075 2.011-2.284 3.948-4.11 5.384-1.589 1.249-3.376 2.194-5.126 3.189-.758.432-1.616.371-2.455.314a.63.63 0 0 1-.562-.374c-.106-.237.063-.402.213-.56 1.564-1.649 3.085-3.341 4.701-4.935 2.761-2.723 4.707-5.915 5.917-9.594 1.404-4.266 1.852-8.669 1.961-13.117.062-2.517-.312-5.011-.783-7.477-.549-2.878-1.351-5.68-2.85-8.233-.442-.751-.982-1.432-1.814-1.763-.884-.352-1.792-.329-2.56.284-.743.594-.546 1.378-.349 2.188.733 3.018 1.861 5.946 2.086 9.081.019.256.07.512.138.76.563 2.06.568 4.147.389 6.258-.426 5.022-1.718 9.758-4.582 13.965-2.547 3.741-5.782 6.611-10.284 7.773-.401.103-.936.487-1.234-.001-.267-.438.126-.892.407-1.271.813-1.093 1.881-1.933 2.863-2.858 1.292-1.217 2.829-2.197 3.799-3.726 1.587-2.5 2.623-5.25 3.474-8.071 1.23-4.076 1.459-8.264 1.366-12.486a2.046 2.046 0 0 0-.178-.812c-.498-1.105-.728-2.282-.978-3.459-.366-1.721-.755-3.44-1.71-4.962-.786-1.253-1.855-2.06-3.369-2.191-.997-.086-1.381.251-1.436 1.245a6.576 6.576 0 0 0 .546 3.015c.989 2.273 1.785 4.583 1.984 7.088.163 2.043.309 4.063-.332 6.057-.124.384-.249.807-.212 1.197.123 1.32-.308 2.483-.852 3.639-.426.908-.771 1.835-.99 2.837-.272 1.247-1.171 2.223-1.849 3.288a5.99 5.99 0 0 1-2.001 1.966 12.457 12.457 0 0 1-4.763 1.67c-.254.034-.565.109-.704-.158-.168-.322.14-.504.342-.677a22.68 22.68 0 0 0 2.748-2.796c5.041-6.126 6.375-13.106 4.624-20.731-.52-2.266-1.83-4.08-3.864-5.331-2.731-1.681-5.752-2.418-8.878-2.833-.609-.081-1.223-.239-1.848-.039-1.532.49-3.071.955-4.602 1.448-2.784.895-4.712 2.889-6.476 5.088-1.597 1.99-2.998 4.136-4.704 6.036-1.098 1.222-2.05 2.521-2.825 3.97-2.833 5.294-4.124 10.935-3.777 16.928.33 5.693 2.07 10.919 5.272 15.664a51.515 51.515 0 0 0 11.759 12.408c1.115.841 2.343 1.509 3.503 2.281 1.148.765 2.47 1.159 3.651 1.873 1.573.952 3.296 1.656 5.02 2.31 1.86.704 3.733 1.346 5.682 1.82 1.719.419 3.404.809 5.176.801.612-.002 1.187.166 1.649.614.212.206.49.248.772.272 1.174.103 2.348.205 3.521.313 2.778.256 5.547.422 8.344.139 2.326-.235 4.615-.57 6.906-1.066 3.058-.661 6.148-1.108 9.026-2.463 2.423-1.14 5.068-1.75 7.467-2.97.513-.261 1.027-.495 1.617-.591.604-.097 1.079-.512 1.481-.97.257-.292.234-.565-.109-.812-.535-.386-1.056-.663-1.777-.509-.647.139-1.311.22-1.953.39-2.734.726-5.431 1.587-8.226 2.081a117.87 117.87 0 0 0-6.177 1.255c-3.973.925-7.963 1.721-12.034 2.064-.864.073-1.739.081-2.554-.166-1.539-.464-3.109-.173-4.645-.34-3.029-.331-5.899-1.288-8.605-2.704-.436-.229-.852-.503-1.12-.942-.4-.658-.18-1.052.597-1.089 1.349-.064 2.649.199 3.919.614 2.013.659 4.071.98 6.187 1.071 3.328.144 6.643-.191 9.968-.166 1.344.011 2.699-.13 4.017-.463.333-.084.726-.167.761-.581.037-.424-.354-.549-.666-.679-.896-.37-1.847-.554-2.78-.799-.893-.234-1.784-.478-2.587-.951-.32-.188-.645-.428-.557-.854.094-.455.518-.465.878-.484 1.039-.057 2.053.121 3.051.386 1.015.27 2.015.597 3.054.774.658.112 1.324.14 1.988.107.969-.049 1.582-.662 2.136-1.381.565-.734 1.192-1.371 2.266-1.1.277.07.569-.063.783-.233 1.169-.927 1.989-2.067 2.028-3.622.027-1.115.002-2.232.007-3.348.001-.285.026-.585.361-.68.314-.088.538.103.713.331.319.416.523.892.587 1.411.159 1.294.441 2.593-.162 3.859-.144.304-.027.591.189.829.209.232.464.177.714.082 1.153-.44 2.235-1.003 3.082-1.924 1.335-1.45 2.207-3.208 3.183-4.895a1.36 1.36 0 0 0 .161-.618c.049-1.761.074-3.521-.616-5.198a9.97 9.97 0 0 1-.708-2.734c-.058-.539.125-.71.655-.637.264.036.485.168.703.303.924.568 1.407 1.467 1.833 2.419 1.415 3.167 1.571 6.305-.228 9.383a17.954 17.954 0 0 1-4.071 4.771c-.376.312-.659.688-.422 1.164.221.445.705.295 1.045.194 2.096-.62 4.305-.724 6.376-1.468 2.666-.958 5.506-1.062 8.267-1.554 1.518-.271 2.982-.631 4.224-1.594.728-.565 1.487-1.105 2.139-1.751 2.164-2.14 4.376-4.232 6.451-6.46 2.663-2.861 5.2-5.817 7.237-9.175 1.506-2.483 2.669-5.133 3.849-7.774.586-1.311 1.235-2.595 1.791-3.915.556-1.322.967-2.706 1.438-4.063 1.15-3.315 2.155-6.659 2.011-10.228-.04-.999.129-1.969.408-2.92a88.874 88.874 0 0 0 1.741-6.991c.444-2.151.708-4.327.673-6.517-.053-3.367-.203-6.731-.614-10.078-.521-4.244-1.308-8.43-2.484-12.548-1.154-4.042-2.931-7.835-4.695-11.612-2.953-6.32-6.888-12.001-11.86-16.939-1.601-1.59-3.332-3.026-5.008-4.527-.969-.867-1.877-.715-2.555.37a13.695 13.695 0 0 1-1.496 2.011c-1.117 1.22-2.406 1.998-4.171 1.877-2.341-.162-4.422-.953-6.342-2.257-1.908-1.295-4.014-2.007-6.322-2.111-.46-.021-.841.055-1.052.542-.197.455-.016.765.274 1.096a6.02 6.02 0 0 0 1.708 1.346 89.9 89.9 0 0 1 2.479 1.366c2.293 1.327 3.165 3.388 3.03 5.956-.017.32-.145.588-.455.72-.297.127-.539-.029-.768-.2-.344-.255-.51-.63-.659-1.01-.204-.521-.429-1.026-.79-1.464-2.372-2.886-5.492-4.445-9.098-5.145-2.263-.439-4.258.013-5.868 1.76-.128.14-.278.318-.488.247-.256-.087-.22-.35-.221-.555-.001-.917.47-1.53 1.274-1.914.527-.253 1.046-.518 1.288-1.1.246-.59.01-.98-.625-1.002-.664-.022-1.333.032-1.994-.02-1.172-.095-2.226.186-3.268.725-1.14.59-2.333 1.085-3.525 1.565-.676.271-1.148-.184-.998-.899.19-.9.77-1.466 1.61-1.773.523-.192 1.064-.333 1.593-.51.59-.199 1.167-.428 1.684-.787.345-.239.36-.47.063-.782-.454-.477-1.019-.61-1.635-.615-1.18-.01-2.36.014-3.539-.012a13.45 13.45 0 0 0-5.852 1.19c-2.07.927-4.104 1.925-4.947 4.293-.125.35-.389.355-.653.09-.518-.518-.386-1.157-.29-1.762.298-1.895 1.576-3.126 3.042-4.134 4.827-3.318 10.031-4.345 15.7-2.472 1.791.592 3.62 1.129 5.547.854 1.152-.164 2.259-.04 3.368.267 3.281.91 6.66 1.472 9.809 2.846a6.595 6.595 0 0 0 3.08.536c.257-.016.536-.001.666-.287.128-.279-.038-.507-.2-.702-.328-.395-.684-.768-1.023-1.154-.634-.723-1.442-1.334-1.783-2.257-.499-1.355-1.191-2.613-1.795-3.915-.262-.564-.683-1.02-1.225-1.283-2.354-1.14-4.651-2.41-7.086-3.367-4.412-1.733-8.833-3.444-13.315-4.987-3.141-1.081-6.288-2.195-9.575-2.736-2.684-.441-5.413-.598-8.1-1.022-4.787-.754-9.586-.98-14.422-.738-5.334.268-10.553 1.215-15.731 2.467-3.19.772-6.33 1.723-9.493 2.595-1.379.38-2.838.51-4.097 1.279-1.147.7-2.33 1.316-3.58 1.832-2.502 1.033-4.837 2.4-7.154 3.794-1.506.906-3.058 1.743-4.518 2.717-2.219 1.48-4.118 3.36-6.097 5.132-.603.54-1.33.982-1.704 1.733a10.388 10.388 0 0 1-1.996 2.747c-2.672 2.65-4.573 5.82-6.33 9.101-2.61 4.875-4.142 10.157-5.813 15.384-.31.971-.455 1.955-.232 3.03.216 1.038-.093 2.131-.264 3.19-.423 2.63-.603 5.267.223 7.84 1.601 4.99 4.936 8.454 9.65 10.621 1.342.616 2.725 1.177 4.274.878.18-.035.386.014.57.062.317.082.633.197.677.59.042.389-.162.661-.481.84-.185.103-.39.186-.596.231-1.528.336-3.06.372-4.588.004-1.51-.364-2.917-.992-4.294-1.7-.877-.451-1.754-.903-2.648-1.319-.903-.421-1.383-.07-1.28.907.058.56.237 1.087.48 1.594 1.299 2.71 3.214 4.959 5.336 7.037 1.067 1.045 2.258 1.94 3.498 2.797 1.207.833 2.417 1.513 3.833 1.858.606.147 1.019-.012 1.383-.513 1.01-1.389 1.926-2.84 2.864-4.276 1.326-2.029 2.652-4.058 3.85-6.166.11-.194.3-.419.116-.652-.175-.22-.433-.121-.663-.079-1.618.294-3.062 1.104-4.62 1.58-.133.041-.247.165-.357.266-.791.724-1.683 1.099-2.768.808-.297-.08-.731.064-.854-.305-.138-.416.282-.63.525-.88.193-.198.423-.366.657-.516a98.73 98.73 0 0 1 2.452-1.539c2.28-1.369 4.649-2.584 6.886-4.025.18-.115.514-.194.386-.5-.12-.286-.42-.245-.68-.192-1.093.224-2.184.461-3.238.83-3.178 1.113-6.399 1.034-9.643.382a2.34 2.34 0 0 1-.666-.225c-.501-.276-.503-.617-.006-.901.51-.292 1.086-.397 1.653-.507 2.315-.445 4.638-.854 6.948-1.323 2.122-.431 4.23-.932 6.246-1.748.689-.279 1.288-.697 1.632-1.386.29-.581.104-.882-.532-.83-.553.044-1.124.089-1.647.257-2.095.673-4.22.646-6.367.386-1.326-.16-2.513-.694-3.664-1.33-.368-.203-.52-.512-.376-.918.148-.418.493-.42.853-.36.19.031.38.07.571.094 2.51.31 4.998.453 7.395-.633 1.07-.486 2.208-.681 3.39-.505.281.041.554-.012.818-.12 1.091-.447 2.183-.891 3.276-1.333.322-.13.612-.292.45-.706-.139-.352-.383-.544-.807-.445-2.396.556-4.828.184-7.242.255-.47.013-.932-.253-.971-.769-.04-.531.369-.765.87-.847a26.12 26.12 0 0 0 3.684-.895c1.402-.445 2.819-.773 4.088-1.644 2.453-1.682 4.912-3.363 7.639-4.621 1.255-.58 2.535-1.16 3.861-1.29 2.081-.203 4.203-.18 6.249.473.656.21 1.329.344 2.025.304.283-.016.585-.012.733-.301.162-.317.082-.642-.124-.908a16.335 16.335 0 0 0-.88-1.024c-1.317-1.44-2.617-2.909-4.187-4.078-2.278-1.698-7.205-2.402-10.673.14-1.253.917-2.713 1.364-4.28 1.399-.431.01-.902.04-1.115-.443-.22-.496.108-.865.408-1.199.456-.507 1.08-.762 1.681-1.047.658-.311 1.337-.587 1.903-1.064.151-.127.3-.265.233-.487-.064-.21-.252-.284-.447-.317-.146-.025-.299-.03-.448-.024a17.856 17.856 0 0 0-7.257 1.781c-4.175 2.024-7.827 4.786-11 8.155-1.106 1.174-2.229 2.389-2.777 3.978a.578.578 0 0 1-.4.393c-.998.244-1.662.923-2.274 1.693-.724.91-1.633 1.501-2.843 1.54-2.384.078-4.436-1.492-4.821-3.856-.352-2.16.087-4.23 1.152-6.144 1.06-1.904 2.847-2.996 4.662-4.025 3.997-2.266 8.391-3.315 12.859-4.122.866-.157 1.73-.32 2.504-.777.325-.193.634-.406.56-.846-.077-.45-.47-.458-.803-.491-1.26-.126-2.522-.163-3.788-.177-2.024-.023-4.03-.196-5.913-1.038-1.194-.533-2.062-1.328-2.376-2.676-.634-2.728.59-4.401 3.386-4.577 1.995-.126 3.885.23 5.66 1.164 1.77.93 3.623 1.699 5.525 2.27 3.056.92 6.122 1.823 9.259 2.454 1.813.365 3.625.676 5.483.613.492-.017.992-.008 1.44-.259.165-.091.383-.161.356-.403-.025-.22-.217-.312-.4-.376-.383-.134-.78-.22-1.152-.4-1.409-.681-2.833-1.33-4.243-2.01-1.475-.712-3.06-1.242-4.055-2.705-.357-.524-.869-.944-1.32-1.402-1.143-1.159-2.392-2.22-3.343-3.556-.417-.585-1.023-1.085-1.083-1.86-.036-.462-.128-.89-.344-1.29-.33-.612-.364-1.27-.336-1.941.008-.197.01-.412.223-.494.263-.101.389.124.508.292.396.561.777 1.132 1.165 1.698.752 1.094 1.42 2.247 2.442 3.137 2.72 2.367 5.695 4.333 8.975 5.833 2.87 1.312 5.774 2.539 8.887 3.163.713.143 1.441.258 2.173.176.346-.039.694-.18.788-.563.093-.375-.168-.603-.465-.76-2.35-1.249-4.393-2.911-6.321-4.72-1.821-1.707-3.177-3.693-3.677-6.203-.383-1.923-.278-3.845-.092-5.767.06-.618.323-1.194.81-1.642.362-.332.743-.281 1.138-.129.391.151.355.504.325.822-.027.276-.098.547-.16.819-.126.564-.233 1.122-.183 1.715.137 1.638.82 3.054 1.726 4.38.42.615.765 1.358 1.483 1.652.878.359 1.602.905 2.296 1.512 1.49 1.301 3.126 2.242 5.167 2.339.79.037 1.568.219 2.308.538.207.09.46.093.693.1 2.211.069 4.412-.088 6.612-.302 2.333-.228 4.659-.286 6.902.61.955.382 1.93.714 2.9 1.058 1.589.564 3.093 1.286 4.345 2.442 2.868 2.647 3.717 5.967 3.145 9.723-.217 1.424-.751 2.729-1.786 3.78-.15.153-.299.342-.542.283-.27-.065-.328-.32-.384-.548-.041-.165-.045-.34-.056-.51-.069-1.1-.249-2.174-.715-3.182-.751-1.624-2.097-2.512-3.714-3.161-2.574-1.035-5.285-1.233-7.914-.814-2.724.434-4.774 2.183-5.885 4.802-.588 1.386-1.058 2.824-.556 4.37.412 1.267 1.07 2.388 2.005 3.332.703.71 1.562 1.138 2.577 1.16.655.013.901-.35.667-.96-.193-.499-.425-.984-.651-1.47-.709-1.527-.808-3.06-.004-4.58 1.974-3.732 7.446-4.44 10.354-1.38 1.797 1.891 2.603 6.821-.625 8.855-.538.339-1.073.715-1.503 1.203-.24.27-.561.56-.423.948.15.423.595.464.981.467a7.5 7.5 0 0 0 3.182-.687c2.395-1.089 4.097-2.994 5.751-4.944.269-.317.436-.743.577-1.144a44.21 44.21 0 0 0 1.329-4.571c.295-1.252.497-2.535.905-3.749 1.001-2.981 3.578-4.268 6.265-4.999 1.992-.541 4.049.106 5.608 1.705.647.663.531 1.243-.338 1.614-.216.093-.448.148-.674.212-1.039.295-1.973.8-2.918 1.318-2.62 1.439-2.401 6.476.388 7.741 1.135.514 2.271.88 3.519.89 2.071.017 4.122-.104 6.055-.941.804-.349 1.482-.87 1.805-1.736.196-.522.054-.734-.495-.73-.496.003-.974.134-1.458.23-1.061.21-2.128.335-3.152-.158-2.529-1.22-2.637-4.505-1.505-6.244 1.682-2.586 5.554-3.236 8.021-1.395 1.564 1.167 2.673 2.704 3.648 4.36.577.981.674.987 1.49.23.881-.817 1.74-1.66 2.665-2.423 2.084-1.717 4.252-3.205 7.2-2.721 2.039.335 4.06.702 5.947 1.574 2.38 1.099 4.04 2.921 4.596 5.461.45 2.055.116 4.136-.844 6.077-.763 1.541-1.99 2.382-3.663 2.584-1.063.13-2.153.168-2.88-.816-.862-1.166-1.368-2.483-1.28-3.961.081-1.353.738-2.303 2.064-2.731.927-.3 1.882-.409 2.851-.43.331-.008.715.107.874-.338.139-.392.003-.708-.281-.987-.565-.557-1.124-1.121-1.684-1.684-.205-.206-.433-.347-.743-.296-.648.107-1.231-.094-1.786-.4-1.042-.575-2.153-.667-3.308-.496-1.637.242-3.148.824-4.554 1.683-.718.438-1.365.96-1.87 1.647-1.318 1.795-1.335 3.812-.728 5.786.946 3.08 2.813 5.633 5.166 7.794 2.341 2.152 5.121 3.65 7.947 5.065 2.26 1.131 4.609 2.09 6.697 3.554 2.744 1.923 5.316 4.016 6.916 7.047 1.074 2.037 1.812 4.216 2.503 6.406.372 1.179-.005 2.417.197 3.616.012.073-.046.165-.087.239-.229.407-.286.847-.272 1.306.02.629-.102 1.236-.29 1.835-.496 1.58-1.111 3.114-1.897 4.57-1.108 2.054-2.402 3.969-4.416 5.262-1.761 1.129-3.745 1.532-5.789 1.77-4.541.53-8.378-.744-11.401-4.275-2.692-3.146-3.219-7.453-1.27-10.773.773-1.316 1.935-1.954 3.445-2.004a6.911 6.911 0 0 1 2.035.257c2.594.695 4.122 2.773 3.96 5.434-.06.991-.349 1.927-1.232 2.507-1.054.694-2.253.92-3.5.871-.394-.016-.805-.114-1.018.32-.229.464-.161.912.212 1.302.506.531 1.088.968 1.678 1.398 2.366 1.721 4.94 2.215 7.732 1.267 1.68-.57 2.995-1.718 4.33-2.837 1.352-1.133 2.335-2.437 2.409-4.284.018-.471.339-.824.691-1.122.216-.182.425-.359.474-.662.134-.826.219-1.649.196-2.495-.057-2.096-.679-4.047-1.394-5.986-.26-.704-.622-1.309-1.204-1.788-.503-.414-.92-.89-1.096-1.55-.058-.217-.209-.427-.366-.595-1.773-1.91-3.826-3.433-6.234-4.455-2.605-1.105-5.214-2.203-7.691-3.583-1.976-1.1-4.023-2.045-5.614-3.78-1.21-1.32-2.502-2.525-3.12-4.26-.248-.696-.665-1.297-1.141-1.856-.337-.397-.66-.345-.928.08-.271.43-.365.909-.379 1.413-.008.32-.031.643-.094.956a.65.65 0 0 1-.507.53c-.277.058-.454-.164-.556-.362-.244-.475-.457-.969-.65-1.468-.189-.486-.425-.94-.772-1.328-.447-.502-.88-.464-1.252.1-.325.494-.343 1.05-.312 1.614.035.636-.056 1.244-.417 1.785-.386.58-.771.57-1.107-.031-.296-.528-.462-1.107-.628-1.685-.125-.433-.211-.88-.44-1.275-.531-.916-1.203-.962-1.862-.143-.541.672-.979 1.408-1.394 2.16-.251.453-.542.917-1.143.613-.554-.28-.41-.772-.202-1.233.132-.293.246-.59.246-.924-.001-.712-.364-.98-1.035-.742-.335.118-.57.378-.827.601-.47.408-.949.8-1.474 1.14-2.446 1.583-5.208 2.032-8.033 2.21-2.226.14-4.362.626-6.448 1.4-3.246 1.204-5.876 3.327-8.412 5.593-.618.552-.684.543-.958-.263-.269-.792-.515-1.593-.811-2.375-.645-1.708-1.36-3.265-3.066-4.348-1.323-.84-2.696-1.357-4.141-1.531-2.443-.296-4.727.416-6.737 1.851-2.763 1.974-4.118 4.662-3.584 8.058.364 2.31 1.876 3.952 3.799 5.197 1.31.847 2.776.947 4.278.745.415-.055.803-.206.918-.682.107-.445-.142-.747-.456-.991-.677-.526-1.377-1.023-2.051-1.552-1.749-1.372-2.23-4.574-.922-6.365 2.107-2.884 5.062-3.35 8.133-1.673 2.477 1.353 3.147 4.306 1.654 6.705-.324.522-.538 1.074-.553 1.69-.007.295-.077.642.235.82.304.173.584-.026.831-.194a25.502 25.502 0 0 0 2.625-2.069c1.826-1.628 3.679-3.227 5.758-4.526 2.469-1.544 5.11-2.654 8.076-2.695 1.455-.02 2.918.04 4.367.178 3.053.29 6.07.329 9.052-.575.895-.271 1.86-.302 2.809-.252.296.016.559.096.71.364.171.304-.025.55-.201.755-.39.456-.859.85-1.209 1.333-.948 1.303-2.228 1.918-3.784 2.285-1.986.468-3.929 1.079-6.003.937-.961-.065-1.912-.25-2.884-.195-1.997.114-3.968.383-5.908.873-2.105.53-4.208 1.081-5.899 2.557-1.404 1.227-2.782 2.485-4.173 3.727-.38.34-.286.684.003 1.011a11.77 11.77 0 0 0 3.137 2.534c.785.432 1.243.176 1.414-.719.141-.737.249-1.482.427-2.21.2-.821.891-1.165 1.689-.893.467.16.821.457 1.051.896.248.475.48.959.742 1.427.191.339.411.703.884.603.464-.098.695-.464.665-.905-.086-1.303.843-2.106 1.459-3.058.29-.447.783-.544 1.177-.207.938.803 1.959 1.555 2.389 2.801.048.14.12.281.214.393.2.239.453.422.782.339.331-.084.349-.383.394-.666.134-.825.277-1.65.432-2.471.076-.403.231-.783.44-1.136.427-.72 1.059-1.054 1.892-.928.793.119 1.237.632 1.43 1.384.08.312.12.635.217.94.186.592.542 1.036 1.199 1.11.662.075.937-.418 1.195-.898.223-.414.381-.862.671-1.243.575-.754 1.368-.923 2.241-.82.727.086.996.675 1.237 1.26.189.457.299.938.38 1.427.145.873.146 1.752.14 2.632-.006.939.379 1.599 1.278 1.944.465.178.865.472 1.234.804 2.852 2.573 5.208 5.534 6.769 9.056 2.319 5.235 3.1 10.822 3.531 16.467.206 2.697.116 5.405.134 8.108.004.617-.065 1.183-.418 1.713-.277.415-.441.908-.41 1.403.078 1.244-.173 2.422-.533 3.601-.695 2.277-1.222 4.615-2.179 6.797-1.512 3.444-3.683 6.482-6.116 9.331-1.283 1.504-2.674 2.902-4.409 3.903a5.263 5.263 0 0 1-2.446.711c-.254.01-.575.053-.692-.214-.112-.259.184-.406.344-.56.432-.417.894-.802 1.325-1.219 3.038-2.94 5.168-6.497 6.945-10.288.382-.815.846-1.609 1.034-2.491.345-1.622.898-3.176 1.419-4.741.74-2.218 1.574-4.419 1.184-6.836-.032-.201.034-.426.085-.632.433-1.721.504-3.48.512-5.237.014-2.799-.414-5.559-.9-8.306-.854-4.836-2.096-9.555-4.389-13.939-.797-1.524-1.625-3.041-3.099-4.042-1.256-.854-2.586-1.116-3.995-.357-.597.321-.944.775-.881 1.5.073.838.206 1.645.534 2.435.757 1.824 1.889 3.47 2.497 5.362.111.344.147.751.417 1 .523.482.687 1.125.892 1.753 1.08 3.31 1.14 6.748 1.269 10.176Zm-83.556 11.386c-.708 0-1.417-.029-2.123.006-1.316.064-2.374-.465-3.292-1.349-.55-.528-.848-1.149-.84-1.941.013-1.527.439-2.964.865-4.405.347-1.172.692-2.342.735-3.582.02-.566-.17-.904-.68-1.17-2.53-1.324-4.968-2.797-7.224-4.561-.94-.735-1.819-1.508-2.191-2.701a.648.648 0 0 0-.166-.272c-1.16-1.077-1.839-2.492-2.517-3.861-1.566-3.161-3.657-6.159-3.47-9.946.02-.394-.207-.754-.66-.842-.48-.093-.907-.012-1.145.478-.102.21-.194.43-.25.656-.185.733-.22 1.488-.223 2.236-.005 1.093-.303 2.242.043 3.265.435 1.283.564 2.59.775 3.898.394 2.435 1.304 4.709 2.236 6.969 1.624 3.94 3.595 7.694 6.195 11.091a40.499 40.499 0 0 0 4.682 5.122c.167.155.403.316.296.591-.112.286-.4.308-.657.305-.861-.011-1.646-.259-2.322-.811-.746-.611-1.447-1.294-2.253-1.813-.662-.426-1.384-.758-1.991-1.277-1.962-1.676-3.33-3.792-4.493-6.058-.361-.704-.848-1.396-.902-2.186-.053-.774-.41-1.223-1.015-1.582-.624-.371-1.078-.834-.987-1.655.023-.213-.107-.457-.207-.668-.802-1.699-1.322-3.491-1.698-5.321-.657-3.202-1.084-6.431-.945-9.712.018-.426-.1-.814-.503-.952-.429-.147-.51.314-.649.567-.976 1.788-1.444 3.755-1.957 5.704-.032.122-.03.256-.03.384.003 3.326.01 6.652.01 9.979 0 .416.09.801.249 1.185.493 1.197.754 2.454.964 3.728.25 1.516.183 3.091.87 4.527.612 1.279 1.114 2.603 1.556 3.95 1.074 3.28 2.451 6.42 4.495 9.218 1.133 1.552 1.683 3.46 3.093 4.844.41.402.605 1.028 1.007 1.481.242.274.498.533.343.965-.074.203.083.353.278.328.507-.063.729.275.953.62.175.27.386.537.09.865-.301.332-.606.241-.918.031-1.91-1.281-3.697-2.759-5.259-4.405-1.442-1.518-2.67-3.287-3.705-5.16-1.257-2.277-2.241-4.679-3.36-7.018-.73-1.526-1.546-2.989-1.906-4.685-.659-3.103-1.606-6.144-1.963-9.312-.356-3.167-.193-6.345-.182-9.518.005-1.39.21-2.764.658-4.11.35-1.051.605-2.149.685-3.268.025-.356.084-.827-.331-.953-.438-.132-.753.22-.972.582-.133.219-.223.464-.336.695-.56 1.135-.962 2.335-1.439 3.502-1.457 3.568-1.726 7.299-1.572 11.059.073 1.79.36 3.575.28 5.379-.005.129.008.258.014.386.178 3.787 1.146 7.407 2.32 10.984 1.918 5.834 4.555 11.338 7.625 16.643.408.705.868 1.382 1.247 2.102.199.378.728.464.781.901.058.479.325.831.56 1.211 3.886 6.315 8.53 11.966 14.407 16.549 4.573 3.566 9.577 6.332 15.07 8.199.589.2 1.187.371 1.783.549.344.103.685.143.923-.212.218-.326.085-.611-.126-.881-.066-.084-.126-.174-.189-.26a32.465 32.465 0 0 1-3.302-5.658c-1.403-3.108-2.56-6.322-4.105-9.369a5.114 5.114 0 0 1-.521-1.982c-.065-.994.203-1.325 1.194-1.29 1.198.043 2.4.126 3.586.291 3.138.439 6.28.484 9.423.152 2.584-.274 4.7-1.659 6.809-3.029.321-.209.666-.398.91-.71.288-.37.254-.768.033-1.142-.224-.379-.558-.202-.86-.107-.55.173-1.1.493-1.68.346-1.63-.414-3.45-.383-4.637-1.898-.14-.18-.365-.297-.558-.431-1.21-.844-1.964-2.008-2.429-3.391-.197-.587-.389-1.187-.784-1.684-.227-.286-.453-.601-.88-.561-.455.043-.569.437-.666.776-.264.928-.556 1.856-.71 2.805-.253 1.55-1.144 2.658-2.3 3.599-1.273 1.037-2.77 1.705-4.214 2.457a.971.971 0 0 1-.562.097c-.652-.068-1.28.054-1.889.281-.793.297-1.62.4-2.46.416-.654.013-1.107-.283-1.49-.831-.42-.6-.344-1.263-.44-1.91a65.517 65.517 0 0 0-1.247-6.246c-.967-3.862-1.279-7.781-1.155-11.746.021-.695.165-.822.854-.789.724.035 1.383.277 2.017.606.913.472 1.811.967 2.819 1.239 1.702.461 3.432.773 5.18.961 1.382.148 2.803.368 4.161.195 1.523-.194 3.062-.37 4.575-.676.889-.179 1.743-.462 2.51-.956.35-.226.67-.536.628-.982-.047-.486-.518-.528-.88-.616a13.62 13.62 0 0 1-2.897-1.045c-1.837-.921-3.688-2.783-3.381-5.627.044-.405.09-.81.142-1.214.05-.376-.016-.697-.418-.833-.4-.134-.652.081-.846.402-.145.239-.296.473-.436.714-.434.743-.891 1.469-1.545 2.044-1.42 1.247-2.865 2.424-4.96 2.061-.334-.058-.686-.008-1.029-.006Zm15.655-11.691c1.432-.018 2.801-.353 4.124-.881.811-.324 1.334-.925 1.494-1.798.133-.725-.177-1.035-.917-.976-1.045.083-2.084.212-3.143.155-1.647-.089-2.665-.946-3.195-2.443-.213-.605-.331-1.242-.513-1.859-.23-.779-.734-.916-1.319-.366-.501.472-1.028.91-1.64 1.232-1.91 1.004-3.921.932-5.96.558-1.708-.313-2.897-1.297-3.685-2.823-.563-1.09-1.05-2.209-1.409-3.381-.382-1.249-.38-1.214-1.706-1.341-2.336-.224-4.54-.862-6.515-2.189-1.844-1.238-3.476-2.722-5.042-4.283-.425-.424-.821-.876-1.219-1.326-.698-.79-1.068-1.748-1.37-2.739-.085-.281-.23-.52-.57-.525-.315-.004-.511.181-.655.443-.16.292-.193.606-.192.933.017 3.223 1.063 6.143 2.605 8.919.177.317.418.603.48.974.148.889.568 1.654 1.056 2.395 1.162 1.762 2.54 3.35 3.99 4.87 1.138 1.193 2.262 2.407 3.53 3.467 1.138.95 2.058.593 2.296-.882.078-.485.056-.988.156-1.467.176-.854.758-1.167 1.578-.898.946.311 1.657.973 2.371 1.622.694.629 1.452 1.155 2.364 1.385 1.482.374 2.965.72 4.427-.146 1.648-.975 2.707-.774 3.76.857 1.154 1.785 2.74 2.579 4.82 2.513Zm-4.488-26.114h-.008c0 .215-.002.429 0 .644.032 2.382.538 4.637 1.803 6.684 2.364 3.829 6.175 4.655 10.133 4.132 2.596-.343 4.574-1.837 6.19-3.905 1.43-1.831 2.396-3.739 1.956-6.134-.004-.021 0-.043-.002-.064-.197-2.771-1.204-5.052-3.908-6.23-1.703-.742-3.51-.946-5.352-.768-.977.094-1.863.477-2.663 1.05-.589.422-.955 1.01-1.05 1.707-.071.53-.3 1.21.178 1.58.487.378 1.115.077 1.65-.147.514-.215 1.018-.452 1.584-.507 3.209-.315 5.67 2.537 4.983 5.78-.799 3.778-5.171 5.915-8.693 4.131-3.186-1.615-4.828-4.339-4.999-7.901-.046-.955.13-1.921.197-2.882.038-.546-.164-.714-.684-.587-.799.196-1.268.751-1.31 1.616-.028.599-.005 1.201-.005 1.801Zm1.532 84.961c3.716-.199 8.774-1.24 12.62-2.606 2.662-.946 5.203-2.134 7.384-3.965 1.023-.859 1.802-1.907 1.904-3.31.066-.899-.083-1.007-.923-.745-.594.185-1.187.371-1.775.573-1.562.537-3.168.536-4.77.32-1.607-.218-2.925-1.055-4.093-2.146-.627-.584-1.215-1.219-1.892-1.738-.892-.683-1.528-.393-1.686.693-.03.212-.038.427-.067.639-.238 1.739-.267 3.516-.885 5.185-.644 1.743-1.55 3.266-3.268 4.216-1.083.599-2.06 1.389-2.995 2.214-.165.146-.465.261-.331.546.107.229.377.137.584.138.065.001.129-.009.193-.014Zm25.149-177.059c-.075 1.513-.299 3.034.209 4.518.014.04.007.085.011.128.14 1.357.807 2.471 1.657 3.483.405.483.925.556 1.505.234a9.516 9.516 0 0 0 1.719-1.237c1.553-1.39 3.277-2.405 5.404-2.604.338-.031.675-.132.997-.246.444-.158.991-.345 1.013-.862.02-.5-.567-.588-.939-.755-3.28-1.466-6.431-3.126-9.095-5.605-1.002-.933-2.119-.469-2.384.896-.132.679-.125 1.365-.097 2.05Zm-57.483 87.02c.944-.02 2.386-.779 3.553-2.077.469-.521.708-1.174.718-1.887.014-.964-.559-1.325-1.39-.89-2.223 1.165-4.477.196-5.14-2.222a14.709 14.709 0 0 1-.516-4.134c.007-.406-.134-.705-.497-.895-.387-.202-.699-.064-.993.198-.784.701-1.54 1.43-2.192 2.257a4.416 4.416 0 0 0-.948 2.287c-.439 4.038 2.515 7.35 7.406 7.362Z" fill="url(#a)"/><defs><linearGradient id="a" x1="3.197" y1="110" x2="236.803" y2="110" gradientUnits="userSpaceOnUse"><stop stop-color="#495057"/><stop offset="1" stop-color="#6C757D"/></linearGradient></defs></svg>