<svg width="130" height="128" viewBox="0 0 130 128" fill="none" xmlns="http://www.w3.org/2000/svg">
<path d="M62.3565 115.848L61.5799 115.802L59.5608 115.492L57.697 115.24L55.8332 114.987L54.4982 114.616L53.1632 114.246L50.5525 113.126L48.2227 111.856L47.3717 111.068L47.2688 111.171L47.1658 111.274L44.9611 110.056L41.8547 109.71L40.1463 109.446L37.5059 108.916L34.5549 107.971L31.7592 106.662L28.9635 104.529L26.3231 102.278L22.427 98.2759L20.8626 96.4073L18.519 93.293L16.4906 90.1786L14.627 86.8145L12.6119 82.3927L11.3609 78.8112L10.7158 76.728L10.2637 74.811L9.81165 72.8939L9.64498 71.8422L9.47831 70.7904L9.31712 69.74L9.15593 68.6896L9.00348 66.8988L8.85103 65.108L8.8501 59.4001L9.16548 55.6093L9.31318 54.7528L9.46087 53.8964L9.96531 50.9477L10.8567 47.3343L11.6781 44.709L13.2256 40.6604L15.2107 36.5056L17.5628 32.563L19.8895 29.293L22.5957 26.0277L25.5467 22.9392L28.9637 19.9709L31.7797 17.8749L35.3317 15.5552L39.3699 13.3372L43.1782 11.7619L46.6698 10.8529L48.9995 10.3889L51.9505 9.92437L56.9207 9.4246L58.9993 9.1275H68.9078L73.8502 9.59785L76.9565 10.0592L80.0712 10.8188L81.9266 11.4921L84.8227 12.5943L89.2265 14.8112L92.4882 16.7694L95.2061 18.7193L97.8568 20.8322L101.341 24.0261L104.603 27.6726L107.709 31.8354L110.191 35.8331L112.43 40.3489L113.953 44.2419L114.759 46.7334L115.434 49.2248L116.031 52.0278L116.61 55.9207L116.782 57.4779L116.953 59.0351V65.4195L116.782 66.9767L116.61 68.5338L116.036 72.4268L115.406 75.3854L115.253 75.9304L115.101 76.4755L114.53 78.3441L113.96 80.2127L112.479 83.9499L111.223 86.6642L109.468 89.8672L106.261 94.6944L103.883 97.6531L100.881 100.898L97.4582 103.992L94.412 106.01L91.2455 107.515L87.4028 108.788L84.4116 109.425L82.0818 109.759L79.6224 110.997L76.3746 112.872L72.918 114.517L70.9814 115.169L68.1032 115.662L65.7734 115.933L63.1331 115.894L62.3565 115.848ZM69.7928 114.719L71.4823 114.409L73.2288 113.863L78.1132 111.419L78.0235 110.687L77.9338 109.955L77.3157 107.775L77.1044 107.549L73.7725 109.537L70.5884 111.162L70.4872 111.259L70.3859 111.356L71.1071 112.913L70.9849 113.035L69.6943 111.866L68.1033 112.038L66.0841 112.533L62.0459 113.177L57.2311 112.994L55.3145 112.602L55.1258 112.412L56.2429 111.558L56.9204 111.727L59.8714 112.563L63.4437 112.705L68.1032 111.716L69.6564 111.41L71.0542 110.52L73.4616 109.375V109.148L72.1414 108.715L70.3045 106.932L70.0446 107.093L70.0423 107.434L70.0399 107.775L69.9124 107.976L69.7849 108.178L68.2585 107.665L65.7734 106.64L63.2107 105.385L59.5608 107.183L57.3863 107.989L56.1438 108.319L53.3537 108.969L52.2608 109.43L52.8821 109.902L54.3133 110.638L55.2895 111.462V112.007L54.5554 112.342L52.6534 111.434H52.3384V111.702L53.9853 112.798L55.2919 113.466L57.3862 114.218L60.4925 114.994L61.4244 115.148L68.1031 115.03L69.7926 114.72L69.7928 114.719ZM80.3965 110.002L81.8067 109.001L83.169 108.516L85.9309 108.149L88.9158 107.19L92.1774 105.8L94.9041 104.438L96.6816 103.063L100.409 99.6508L103.063 96.7189L104.827 94.6096L106.957 91.5802L107.692 89.7116L108.996 88.374L111.388 83.5934L111.281 83.0883L109.262 85.551L108.582 87.3758L108.564 86.2858L109.186 82.5486L109.386 79.9792H108.623L106.67 80.6407L104.758 81.9257L103.603 83.6386L103.593 84.1579L104.913 84.6568L107.709 84.8962L103.217 85.1431L101.864 85.938L100.175 87.4864L99.7102 87.3077L99.7105 87.1082L99.7108 86.9086L102.96 84.7716L103.05 82.2435L105.987 80.6482L106.272 80.1942L105.783 78.0433L105.908 77.9178L106.777 79.3947L107.249 80.002L109.262 79.2475L109.65 72.7383L109.488 70.7918L109.327 68.8454L109.238 68.5339L109.149 68.2225L107.144 63.1316L107.319 62.6747L107.46 62.7622L107.601 62.8497L108.244 64.9706L108.952 66.0184L109.388 66.1622L109.178 63.382L109.352 62.8825L109.526 62.3831H109.76L109.894 68.1057L110.028 73.8283L109.995 79.4342L109.335 84.5417L109.419 84.6258L109.502 84.7098L109.724 84.4078L109.946 84.1057L111.858 81.4585L112.481 80.2199L113.103 78.9812L113.467 77.7624L113.831 76.5437L114.634 73.2638L115.419 68.6897L115.594 65.4516L115.768 62.2134L115.586 58.9114L115.403 55.6094L115.026 53.4294L114.649 51.2493L114.241 49.5841L113.833 47.9188L112.422 43.6192L111.069 40.3058L109.456 37.079L107.738 34.1204L105.455 30.7623L103.57 28.3588L100.322 24.7325L96.5262 21.3029L93.7305 19.1391L90.4688 16.9551L86.8965 14.9557L84.5668 13.8357L81.1498 12.4335L78.0435 11.4691L76.335 11.1429L73.0734 10.6801L67.5346 10.3909L62.3565 10.6793L60.1821 11.1203L58.0076 11.5993L53.8141 13.0617L52.1056 13.8424L50.3538 15.0331L48.9153 16.68L48.6235 17.4586L48.3317 18.2372L48.4594 18.3707L50.5068 16.2567L52.4162 15.4006L53.5034 15.1921L56.9204 14.6088L58.233 14.4197L58.905 15.7457L60.2368 17.6217L62.1576 21.5073L62.2789 21.6371L62.3464 21.5694L62.4138 21.5018L61.7942 19.1715L60.9218 17.6143L58.8468 14.8567L58.965 14.5L63.133 14.4009L66.9383 14.6092V14.8193L64.6012 17.8966L64.1425 18.8604L63.6837 19.8242L63.5119 20.627L63.3402 21.4297L63.4536 21.7706L65.1023 18.393L67.4617 14.5779H67.7162L70.7435 15.372L71.753 15.692V15.9145L70.3275 17.3029L67.9234 20.1059L66.5801 22.1054L65.5461 24.6217L65.5502 25.2445L67.0175 22.4416L68.3051 20.5581L70.3739 18.0815L72.1304 15.9793H72.5183L74.1277 16.6153L75.7138 17.6717L75.9893 18.1406L76.2648 18.6094L76.5613 19.5397L76.8577 20.47L77.1012 20.942L77.3446 21.414V21.7234L75.4724 22.5658L74.5035 23.6722L74.8349 23.783L76.3623 23.007L77.7883 21.9157L78.0753 22.2859L79.7858 25.4003L81.1896 28.0475L82.8112 31.7257L84.1926 35.8334L85.2461 41.1278L85.4324 42.6071L85.6188 44.0864L85.6539 47.5122L85.2573 54.2081L85.0969 55.6874L84.9365 57.1667L84.4845 59.6598L82.4484 65.5755L80.7238 70.7724L81.8067 72.7385L81.9037 73.1278L82.0007 73.5171L84.1912 75.3471L84.0546 75.484L82.1683 74.5292H81.7263L78.5449 77.8699L78.1781 78.4257L77.8112 78.9815L77.2185 83.3273L77.0318 85.7815L76.8452 88.2358L77.312 88.95L78.8977 90.6897V90.8972L78.0168 90.3755L76.2872 90.8796L75.0925 90.8827L73.384 91.6518L74.1606 91.1142L75.6598 89.7248L75.9845 89.1165L76.4147 87.0646L76.6187 80.5593L76.2797 80.6801L72.868 83.8712L71.2347 86.5974L69.609 88.6217L67.0938 91.1059V91.9209L66.4725 93.7312L66.4787 94.0718L67.948 94.7449L65.6144 94.7725L61.1141 99.3121L58.9397 100.946L57.2057 102.087L56.7191 102.636L56.323 104.139L55.9269 105.641L55.7129 108.009H56.2175L59.4057 106.808L62.9003 105.156V104.901L61.3471 102.767V102.558H61.9489L66.0843 100.724L67.3094 100.387L67.3477 100.425L67.3861 100.464L63.9183 102.163L62.7451 103.375L62.7463 103.726L64.0686 104.271H64.4683L68.9579 101.244V100.223H68.4694L69.1132 99.4021L69.145 98.5876L69.3842 99.5979L69.7725 100.067H70.2326L72.7632 97.7904L75.0929 95.9015L77.8973 92.9818L79.7524 90.7002L82.3928 86.9927L84.47 83.3273L86.6442 78.9357L87.9291 75.8528L88.8035 73.2056L89.5823 70.5584L90.3673 67.2884L90.4601 66.8601L90.5529 66.4319H91.0475L90.9608 66.938L90.874 67.4441L90.6724 69.3127L89.7562 72.9532L89.2385 74.4809L88.7209 76.0085L87.4407 79.3594V79.6274L88.8364 80.0192L89.0839 79.8133L89.3313 79.6074L90.5557 77.166L91.9848 74.9186L93.6533 72.3924V72.0775L93.2676 70.8927L92.8818 69.7079L92.6368 68.6277L92.3917 67.5475L92.4401 66.8729L92.4885 66.1983L93.178 67.2774L94.4586 70.7778L94.8981 71.1434L96.2161 70.2877L99.552 66.8316L100.023 65.8357L100.121 64.9028L100.218 63.9699L100.474 63.5538L100.85 63.9303L100.477 69.5697L99.8593 75.5278L99.2448 79.4915V80.4466H99.5296L100.979 79.8237H101.157L100.565 80.4839L98.9424 81.5275L98.8678 81.8824L98.7932 82.2373L98.4658 83.9502L97.3068 88.5213L97.5145 88.7296L98.9794 87.7191L98.7802 88.5149L98.6852 88.7629L98.5903 89.011H99.1287L101 88.0575L100.825 92.3589L99.9833 94.6947L99.6885 95.2786L99.3938 95.8626H100.953V96.1681L100.099 96.3513L98.7752 96.8241L97.7906 98.2762L95.9363 100.54L93.4205 102.664L91.4013 104.231L89.1873 105.646L87.3631 106.584L86.1206 107.099L84.2568 107.693L83.6562 107.697L88.4616 102.792L89.8907 101.079L92.2316 97.4713L94.2565 93.6047L95.7812 89.7012L96.5841 86.5974L96.7897 84.5527L95.0076 81.7702L93.9639 80.1807L93.9645 79.7297L93.9651 79.2787L94.6628 78.1886L94.7443 79.3565L94.8257 80.5244L96.3322 83.4831L96.9646 84.3796L97.3703 83.3273L98.0105 80.213L98.6212 76.9429L98.9216 75.5414L99.222 74.14L99.3053 72.4249L99.3886 70.7098L99.6998 69.1569L99.9932 67.444L99.8616 67.3099L94.4853 72.7385L92.3145 75.6971L89.6468 79.5901L87.7836 82.0249L86.1601 83.7303L86.0401 83.6101L87.0523 80.9176L88.2252 80.9135L87.6825 79.9014L87.5726 80.6157L87.0088 80.4362L85.336 83.4828L84.9771 84.2614L84.6065 85.4726L83.5458 86.4063L83.2625 86.937L84.1013 88.1521L85.9811 91.2688L88.067 91.361L89.3781 89.9166L89.9401 89.6151L88.1706 92.281L87.9842 92.2797L86.9672 91.658H86.6345L87.4593 93.0689L86.5536 94.2274L85.6767 95.6288L82.8298 101.293L83.96 101.485L84.7795 101.172L85.4669 100.24L87.2077 99.5722L87.9212 99.2882L88.4502 99.3019L85.8112 100.612L85.7128 101.139L86.7417 101.691L84.4119 101.922L82.0166 102.283L81.5685 102.969L78.6077 106.497L78.4063 107.292L78.2049 108.086L78.2147 110.422L78.6115 111.147L78.7992 111.075L78.9869 111.003L80.397 110.002L80.3965 110.002ZM59.4055 102.403L59.3095 102.247L60.0268 102.278L60.8033 102.527L60.1524 102.543L59.5015 102.558L59.4055 102.403ZM69.1308 97.186L69.1054 96.5631L68.7257 95.6369L68.3459 94.7107L68.4139 94.6722L71.3649 92.6418L72.8544 91.7759L73.0121 91.9339L71.8309 92.6546L69.7541 94.3025L69.508 94.6946L69.1562 97.8089L69.1308 97.186ZM107.517 62.1355L107.608 61.8386L108.59 58.5685L108.504 56.8025L108.417 55.0365L107.763 50.9384L107.464 49.3984L107.165 47.8585L107.175 47.3569L107.634 47.9653L107.791 48.5176L107.948 49.0698L108.867 53.7413L109.103 55.5789L109.339 57.4165L109.348 58.1482L109.356 58.8799L109.756 61.5271L109.509 61.8726L109.262 62.2181L109.068 62.223L108.873 62.2279V60.6707L108.64 60.671L107.774 62.2167L107.601 62.3245L107.427 62.4323L107.517 62.1354L107.517 62.1355ZM50.3188 109.341L51.639 109.122L53.1463 108.779L53.9688 108.347L54.9436 107.308L55.4661 106.269L55.9048 104.194L55.9075 103.61L55.9102 103.026H55.7631L53.5359 104.113L50.8309 105.036L48.5327 105.643L47.1348 105.85L44.9133 108.242L44.7014 108.035L45.8146 106.29L45.8148 106.176L45.8149 106.062L39.9902 106.16L38.2818 105.917L39.9155 105.751L36.5026 102.077L35.0507 100.185L32.5887 96.0962L30.9126 92.626L29.536 88.4526L28.4643 84.1059L27.6136 79.9016L26.8946 76.3201L26.5393 73.05L26.08 70.0913L25.9236 69.157L25.7671 68.2227L25.6783 67.7734L25.5895 67.324L26.4001 67.5279V67.3801L25.6396 66.2566L25.5417 65.5268L25.4437 64.7969L25.3374 64.4855L25.3106 68.5342L25.639 73.2057L25.8759 74.9965L26.1128 76.7872L26.5566 79.7458L27.1497 83.0662L27.8235 85.8188L28.1865 86.9867L28.5496 88.1546L28.7631 88.6996H27.8533L26.7475 87.8432L24.5182 85.9746L22.4395 84.6971L22.5072 84.0122L22.5749 83.3274L22.5848 82.7823L22.5948 82.2373L20.7349 81.2472L20.6219 81.3604L21.4142 82.4019L22.0443 83.7945L22.0477 84.0388L22.0512 84.283L21.0422 84.7621L22.9053 85.2983L24.2133 86.0584L27.1847 88.5346L28.5527 89.4783H28.8574L30.6241 93.1376L31.0628 94.3541L30.9334 94.4839L27.0989 90.5459L26.0639 89.9043L26.1397 89.6134L26.2156 89.3226H25.513L25.2351 88.3648L24.9245 88.3766L24.7064 89.7119L24.8863 91.7362L25.1949 92.7484L25.5035 93.7605L26.2447 95.2295V95.559L25.3904 95.8998L25.8564 96.0563L26.8804 96.528L28.3308 98.5878L30.0498 100.567L32.8455 103.072L35.0851 104.549L37.505 105.532L37.7571 105.641L38.0092 105.751L37.2411 106.529L37.3449 106.178L37.4488 105.827L37.244 105.766L37.0391 105.705L35.1753 105.185L33.3115 104.555L31.3135 103.571L29.6515 102.051L28.9976 100.947L28.3437 99.8438L28.234 100.415L28.4359 101.765L29.2189 103.259L30.9818 105.087L33.0009 106.412L35.5767 107.707L38.9029 108.769L42.1646 109.401L42.9411 109.523L48.9985 109.56L50.3187 109.341L50.3188 109.341ZM87.1289 105.923L87.8278 105.708L89.5451 104.917L91.7107 103.444L94.6125 101.096L97.2302 98.3079L98.5725 96.4078L99.6844 94.3835L100.503 91.892L100.686 89.6341H100.483L99.1659 90.584L97.0321 92.6706L95.6874 94.2423L94.3252 94.9244L93.8391 95.4735L91.439 99.6779L89.7676 102.014L86.1968 105.891V106.14L86.4297 106.137L87.1287 105.922L87.1289 105.923ZM48.7346 105.207L50.566 104.742L52.7256 104.001L54.7447 103.15L57.1522 101.721V101.483L51.949 97.0936L49.3863 94.9294V95.1166L50.8146 96.7092L50.6448 96.766L50.4749 96.8228L48.8427 96.2523L43.5038 96.3059L41.0831 96.9717L40.9489 96.5637L39.7411 94.2614L38.8029 92.8942L40.3003 91.2503L41.178 89.4502L41.0407 89.3126L39.7428 91.5029H38.3979L37.0678 91.0324L36.9227 91.1779L38.2358 92.6708L40.353 95.8425L41.0745 97.4981L42.9992 101.33L42.6299 101.444L41.1236 101.59L40.163 100.223L39.9166 100.612L39.9119 101.211L39.4254 101.75L42.4746 101.951L43.6474 102.12L46.2022 105.241L46.3567 105.457L46.5113 105.673H46.9031L48.7345 105.208L48.7346 105.207ZM78.9546 105.35L79.3648 105.026L81.3513 102.481L82.191 101.702L84.3329 97.4243V97.2686L83.3234 96.8496L81.3043 96.4484L78.0426 96.45L76.0235 96.8216L73.6829 97.5775L69.6555 101.042L68.8013 101.683V102.236L69.3976 103.882L69.4996 104.387L69.6017 104.891L69.9241 105.091L69.8128 103.98L69.7016 102.87H69.8954L72.296 104.072L74.3151 104.782L77.5767 105.65L78.5444 105.673L78.9546 105.35H78.9546ZM62.6479 96.2132L62.5815 95.3178L62.4341 92.5928L62.2867 89.8677L61.7892 87.5319L61.015 85.9302L58.2984 82.8604L57.7301 81.9695L57.1618 81.0785L55.8632 80.1353H55.4778L55.3265 81.1475L55.1383 82.0753L54.9502 83.0031L54.5604 83.561L54.4638 79.9407L54.3672 76.3204L53.8934 73.6841L53.3997 72.1939H53.1381L52.979 72.7L52.8199 73.2061L52.4875 76.3204L52.3866 76.8654L52.2858 77.4105L52.1747 76.9433L52.0636 76.4762L52.0452 73.944L52.0268 71.4119L52.2617 69.8953L52.4965 68.3788L52.5736 68.0351L52.6507 67.6914L48.9329 65.4933L48.1795 64.4858L47.5007 63.1312L46.2406 61.7607H47.3674L47.3637 61.5271L45.5148 60.509L44.789 59.5028L44.3735 58.2571L43.4932 56.3769L42.3603 55.0499L42.4614 54.9486L42.5625 54.8472L44.494 55.8252L45.8142 56.6397V56.3306L42.4749 53.9243L40.715 52.5734H40.3359L40.4409 53.3131L40.5458 54.0527L40.7043 55.8391L40.8629 57.6255L41.0769 58.642L41.291 59.6585L42.09 61.9165L42.8891 64.1744L44.6991 69.6245L45.2033 71.2595L45.7075 72.8946L46.2622 74.0146L48.0218 76.1646L50.2683 79.4347L53.6273 85.0405L55.1529 87.3136L58.5086 90.9827L58.6709 91.5152L58.8332 92.0478L59.1076 92.9635L59.382 93.8792L58.3172 94.7925L60.0862 94.6708L62.5036 97.1085H62.7144L62.648 96.2132L62.6479 96.2132ZM66.3829 92.6888L66.782 91.4631V90.9093L70.1474 87.324L72.4745 83.7948L75.0651 79.4347L76.6167 77.099L79.0395 73.9349L79.6733 72.8946L80.788 69.3131L81.5294 67.0552L82.2708 64.7973L84.2069 59.3787L84.6187 57.1671L84.9478 54.5199L85.0339 53.7024L85.1201 52.8848H84.8414L81.1488 55.365L79.7509 56.6462L81.77 55.5101L83.0126 54.9425L83.7892 54.7201L82.1534 56.4034L81.0694 59.1915L80.5275 60.2201L79.1258 61.123L77.986 61.6004L77.7656 61.958L79.5553 61.7338L78.472 62.8199L77.2961 64.7973L76.4893 65.6786L73.6936 67.3414L73.128 67.7679L73.3723 69.1633L73.6165 70.5588L73.8139 73.9846L73.586 77.3326H73.3484L73.1526 75.5418L72.8665 73.0503L72.7567 72.6153L72.6469 72.1803L72.3209 72.2893L72.0997 72.9034L71.8786 73.5175L71.445 75.2304L71.2367 83.5613H71.0088L70.8905 83.2888L70.7723 83.0162L70.5166 81.6154L70.261 80.2146L69.7901 80.1237L68.3706 81.3764L67.3392 83.0162L64.9159 85.6086L64.2991 86.8862L63.6823 88.1638L63.2097 93.11V96.6879L65.9838 93.9146L66.3829 92.6888ZM76.9266 96.2492L77.9851 96.0186H80.8782L84.4104 96.6383L84.6223 96.6415L85.746 94.431L86.5072 93.222V92.891L85.309 91.2693L83.6693 88.3107L83.3232 88.0819L82.6874 88.0771L81.5952 89.245L79.2214 92.2517L75.7128 95.9418L75.0915 96.6906L75.8681 96.4798L76.9266 96.2493L76.9266 96.2492ZM57.3831 95.3995L57.4758 95.2492L56.9915 94.3103L56.1872 94.1079L55.9147 94.5393L55.9123 94.8189L55.9099 95.0985L56.6844 95.875L57.2905 95.5498L57.3831 95.3995V95.3995ZM49.2313 94.7192V94.6655L48.5324 94.0722L49.1241 94.7729H49.2313L49.2313 94.7192ZM96.2938 92.8342L97.5664 91.3626L97.6984 91.316L97.8305 91.2693L99.5542 89.6019V89.3228H97.5496L96.8068 89.6622L96.4504 90.3879L96.0941 91.1136L95.4167 92.635L94.7393 94.1564V94.3058H95.0213L96.2938 92.8342ZM48.3367 93.7997L48.1809 93.6051L45.461 90.1793L42.6034 85.8192L41.1938 83.3277L39.6375 80.2133L38.0196 76.6318L37.277 74.3739L36.5343 72.116L35.4307 67.9116L35.3387 67.4834L35.2466 67.0552H34.9114L35.1221 69.0017L35.7152 71.9603L37.406 77.099L38.2326 79.1233L40.2449 83.1545L41.0539 84.5734L42.3971 86.826V87.1353L41.777 88.1549L41.7763 88.2806L41.7757 88.4062L42.4661 87.9214H43.1558L44.9094 90.1793L48.3766 93.9898L48.4923 93.9944L48.3366 93.7997L48.3367 93.7997ZM50.3745 90.837L50.6454 90.6384L49.6828 89.3061L49.4168 88.6045L49.2293 84.8396L49.0419 81.0747L49.0199 80.7997L48.9979 80.5248L49.6969 80.599L49.6828 80.3691L48.1472 78.6786L48.0778 78.7482L48.0084 78.8178L48.1451 80.1385L48.2818 81.4591L48.4405 83.0163L48.5992 84.5735L48.9606 86.5473L48.8629 87.5069L48.7651 88.4664L48.5744 89.4786H49.1828L49.4499 89.7745L49.7171 90.0705L49.3787 90.2802L48.4334 90.0721L47.6143 89.646L47.4726 89.7881L47.7564 90.1026L48.0403 90.417L49.9299 91.0066L50.1035 91.0357L50.3745 90.837L50.3745 90.837ZM18.0903 89.4887L18.0783 88.5646L17.8295 88.2819L17.5807 87.9992L16.7853 85.352L16.4781 83.3277L16.4316 81.6646L16.3852 80.0015L16.566 79.8203L19.2955 80.6133L19.4064 80.5021L19.5376 79.5402L19.6688 78.5784H19.4176L18.9062 79.5905L18.6788 79.851L18.4514 80.1114L16.5401 79.391L16.4305 78.8679L16.3209 78.3448L16.0777 72.4275L15.9497 74.6076L15.8217 76.7876L16.1548 82.3935L16.3464 84.7292L15.5403 83.987L14.0728 81.7706L13.4712 80.992L13.5853 81.5371L13.6993 82.0821L15.2709 85.6402L16.7934 88.4665L18.0482 90.413H18.1023L18.0903 89.4889L18.0903 89.4887ZM77.2007 90.1014H77.3434V89.5149L77.0715 89.4442L76.7997 89.3735L76.4115 89.5045V90.0495L76.5198 90.1582L76.6282 90.2668L77.0581 90.1014H77.2007ZM63.9035 83.0552L64.304 82.7048L64.955 80.369L65.5852 79.1233L67.5809 77.0507L67.6439 76.6077L67.7069 76.1646L67.8677 73.0521L68.0285 69.9396L68.5911 68.8459L68.838 68.3788L69.0848 67.9116L69.2535 66.9679L69.4222 66.0242V65.1866H69.1754L68.0756 66.6659L67.7576 67.2109L67.4396 67.7559L66.798 69.6245L66.715 72.6985L66.6319 75.7726L66.3909 76.3509L66.1498 76.9293L64.9574 78.5005L63.3825 80.1355H62.424L60.4159 78.0923L59.4847 76.7355L59.016 74.9315L59.0052 70.7146L58.5861 68.3594L57.8865 66.9847L56.6932 65.365L56.3756 65.1683V66.5728L56.7273 68.2166L57.0677 68.7649L57.4081 69.3132L57.5935 70.0139L57.7789 70.7146L57.926 73.8052L58.0731 76.8957L60.2563 79.1998L60.8577 80.5249L61.3909 82.7959L62.1642 83.4058H63.5029L63.9035 83.0554L63.9035 83.0552ZM38.68 81.4201L38.2321 80.2133L38.0153 79.6683H37.7604L37.1166 80.4889V80.8601L38.893 82.6269H39.1279L38.68 81.4201ZM60.4383 81.0096L60.1256 80.3006L58.7239 78.9349L57.7742 78.5405V76.6904L57.3688 75.2596L56.9635 73.8289L56.5534 73.1673L56.1433 72.5058L55.8681 72.5052L55.97 73.2449L56.0719 73.9845L56.1612 75.5417L56.2506 77.0989L55.9582 78.8847L56.2061 79.1084L56.454 79.3322L60.6151 81.8547L60.6831 81.7865L60.7511 81.7183L60.4383 81.0094L60.4383 81.0096ZM67.2333 80.5739L69.0347 79.4636L69.6015 79.1215L69.6396 75.8216L69.6777 72.5216L69.5302 72.613L69.3828 72.7043L68.8776 73.8116L68.3724 74.919L68.1988 75.9439L68.0251 76.9688V78.3812L66.7049 79.2411L65.9688 79.9019L65.5924 80.4934L65.2159 81.0849L64.913 81.8839L65.1725 81.7841L65.432 81.6843L67.2333 80.5739ZM75.9271 80.2916L76.7126 79.6691L79.5681 75.8533L81.1975 74.1167L81.5359 72.8947L81.5378 72.6078L81.0237 72.0382H80.3713L79.6466 73.912L78.3324 75.5419L76.5921 77.8776L74.8591 80.6502V80.9141H75.1418L75.9273 80.2917L75.9271 80.2916ZM63.6362 79.1622L64.123 78.6561L64.4527 77.7794V75.8012L63.7944 74.296L63.5114 73.206L63.2244 68.0472L62.8604 67.133L62.5787 68.0673L62.4341 70.3252L62.2895 72.5831L61.9902 74.1403L61.2923 75.6975L61.2687 77.9065L61.4943 78.3592L61.7199 78.8118L62.4917 79.6683H63.1493L63.6362 79.1622V79.1622ZM34.6603 76.6882L34.3642 76.1646L33.4413 74.6074L31.8066 71.9948L32.5753 70.4031L33.0474 68.6902L33.153 67.9306L33.2586 67.171L33.4316 66.6658L33.0102 67.0705L32.5889 67.4751L31.4423 70.5588L31.1202 71.1116L29.7776 70.6366H29.3079L31.7695 73.2074L34.8597 77.5027L34.9081 77.3572L34.9565 77.2117L34.6603 76.6882ZM65.2282 71.8611V70.594L65.5607 67.7558L66.0021 64.8706L66.6778 62.7728L67.3773 61.1863L68.9209 58.8155L69.8958 55.7108L71.1432 53.838L73.6085 51.4054L76.234 49.6925L76.2556 49.4846L75.0211 48.9139L75.0171 48.7758L75.0131 48.6377L76.7016 45.1768L78.1131 40.9372L78.3607 39.9427L78.6083 38.9481L78.884 37.7024L79.1363 36.6123L79.3886 35.5223L79.8145 30.6951L79.8212 29.731L79.8279 28.767L79.7056 28.6912L79.5833 28.6154L75.8674 28.9835L75.882 33.9651L76.2067 34.588L76.5313 35.2108L76.8594 36.2783L77.1876 37.3458V38.765L76.644 40.5036L75.5284 41.6238L74.099 41.9846H73.1352L73.3384 40.8167L74.2721 39.1038L74.9683 38.1695L75.6609 36.8062L75.8332 35.133H75.5042L74.0837 37.7458L73.5226 38.2398L72.9614 38.7337L72.8158 38.5877L73.2638 37.7023L73.6681 36.4384L74.0724 35.1745L74.5472 32.4449L74.5374 28.3592L73.9039 24.9334L73.5814 22.9091L73.7306 17.3032L72.7913 19.2927L72.6917 21.9075L72.5922 24.5223L69.032 28.2036L66.822 30.8508L65.2688 33.1866L64.4365 34.8411L64.1214 35.6781L64.4015 35.3667L66.8284 31.7864L69.1695 28.8265L72.6951 25.3229H72.9327L73.3076 28.3594L73.3045 32.6306L72.6893 35.8122L72.3752 36.1272L72.476 33.4501L72.5769 30.773H72.1777L70.0758 32.3351L68.0786 34.4577L66.1707 37.3175L65.7073 38.3213L65.2438 39.3252L65.003 40.1381L64.7622 40.951V43.9534L65.2808 45.4882L65.8497 46.5102L65.0418 48.1087L63.2867 50.7825L63.3017 56.6998L63.3167 62.6171L63.6858 66.3543L63.8291 67.6L63.9724 68.8458L64.2627 72.5213L64.8103 73.128H65.2281L65.2282 71.8611ZM66.6346 56.1943L66.9126 54.6761L67.0854 54.2232L67.2583 53.7703L68.1798 52.718L68.4125 52.1597L68.6451 51.6015V50.7236L68.7782 50.6411L68.9113 50.5587L69.3084 51.2938L69.7054 52.0289L70.0281 53.7959L69.9009 54.2404L69.7738 54.6849L69.1374 55.9218L67.9462 57.0591L66.7083 57.7126H66.3567L66.6346 56.1943ZM69.8261 49.732L69.1245 48.2916L71.3632 46.1005L73.3623 43.8398L73.6452 44.3467L73.5875 46.397L73.5297 48.4474L72.961 49.5374L71.3739 51.1724H70.5277L69.8261 49.732ZM67.9675 45.8391L67.8669 44.8658L67.2211 41.7831L67.8547 40.9729L69.372 38.7929L70.3889 36.3014L70.7023 35.9121H70.9629L71.2713 37.08L71.5825 38.9486L71.8196 40.35L72.0567 41.7515L72.0622 43.0827L70.8128 45.0661L69.403 46.3689L68.3445 46.8123H68.0682L67.9676 45.8391L67.9675 45.8391ZM66.626 70.4908V70.3442L66.3571 70.1776L66.4837 69.3137L66.6455 68.3794L66.8072 67.4451L67.5898 65.0048L68.6604 63.1058L69.724 61.6532L71.9998 59.4857L76.178 57.0612L77.8769 55.7662L80.1475 53.6161L82.5451 50.6275L84.6313 48.1812L85.0253 47.3884L85.4194 46.5956L85.4145 45.5751L85.4095 44.5545L84.9369 45.1774L82.8739 48.9146L81.7993 50.6275L79.8577 53.119L78.3525 54.5429L76.7993 55.7927L74.9355 57.0361L72.5676 58.3355H72.1843L72.4167 57.7905L72.5681 56.9017L72.2254 57.0856L71.8827 57.2695L69.5776 59.4648L68.0198 61.5716L66.8117 64.1749L66.3002 66.1993L66.0174 67.1336L65.8098 69.2054L65.9169 69.9213L66.0239 70.6372H66.6262V70.4906L66.626 70.4908ZM59.6328 67.0558L59.4496 65.8879L59.0613 64.7229L58.673 63.5579L57.7304 61.6835L56.5515 59.9411L54.9885 58.2266L53.2608 56.8902L53.1235 57.0279L53.476 58.1797L53.38 58.2759L53.284 58.3722L50.5506 56.8908L48.3762 55.4076L46.7646 54.0138L45.1909 52.303L44.619 51.5619L43.5518 50.0047L42.2697 47.8247L40.3526 44.3989L40.0363 44.0875L40.1532 46.4232L40.9101 47.9261L43.0588 50.4719L45.3312 53.2999L47.5997 55.5631L49.4635 56.9703L53.9677 59.651L55.9966 61.6835L57.2683 63.3963L57.6564 64.1064L58.0445 64.8164L58.4452 65.9802L58.8458 67.1439L59.0434 68.535L59.3667 69.625L59.7145 70.0652L59.7653 69.1444L59.816 68.2236L59.6328 67.0558ZM17.1272 66.4383L17.157 66.21L16.2251 66.0416L16.1164 65.2708L16.4447 63.085L16.8267 60.2144L17.1866 60.5139L17.4653 61.1334L17.7439 61.7529L17.9993 61.5947L17.7059 60.821L17.4703 59.8022L17.2346 58.7835V55.7319L17.7203 51.4062L18.0095 50.3162L18.0113 49.6154H17.7745L17.341 51.8344L16.9074 54.0534L16.68 55.7663L16.4526 57.4792L15.997 64.175L15.9951 69.7809L17.0977 66.6665L17.1275 66.4383L17.1272 66.4383ZM59.2522 57.2067L59.1425 56.8563L58.7158 54.832L58.7101 54.3901L58.7044 53.9483L57.2419 52.6207L57.0736 50.9638L56.8945 50.9046L56.7154 50.8453L55.9087 52.5548V54.4047L56.1414 54.963L56.374 55.5212L56.8791 56.0993L57.3842 56.6774L58.7652 57.5571H59.3619L59.2522 57.2068L59.2522 57.2067ZM72.3156 56.2175L74.0031 55.1894L75.5999 53.6305L76.4039 51.9843L76.5084 51.0932L76.6129 50.2021L75.9774 50.5431L73.6738 52.0726L71.7301 54.1992L70.6847 56.3892L70.5798 56.8174L70.4748 57.2457H70.6282L72.3156 56.2175ZM49.4576 51.0558L49.5642 50.6276L50.173 49.6375L51.5592 48.9647V48.884L49.548 44.6607L48.7414 42.5302L47.9687 40.1945L47.2015 37.0801L46.7468 33.4986L46.7443 28.9049L47.5985 28.9086L49.307 29.3684L49.9197 29.3721L49.2217 28.8819L46.2735 28.536L45.9091 28.9013L45.8996 30.1878L45.89 31.4743L46.0967 33.4986L46.3035 35.523L46.834 37.7809L47.3644 40.0388L47.8545 41.7517L48.4228 43.4646L48.991 45.1775L50.7541 48.759L50.6518 48.7985L50.5494 48.8381L49.5212 49.4665L49.0739 50.5397V51.484H49.3509L49.4575 51.0558L49.4576 51.0558ZM54.434 46.143L52.3358 43.9943L52.3327 44.1187L52.3297 44.2431L52.0208 46.3853L52.4956 48.895L53.2662 50.2133L55.0392 51.3252L56.5322 48.2918L54.4341 46.143L54.434 46.143ZM62.1633 50.5886L62.0604 50.3161L60.1015 47.0722V46.7067L61.0623 43.9318L61.1467 43.1194L61.2312 42.3069L60.8679 40.4556L59.8371 37.8232L58.3314 35.2855L56.1307 32.7202L53.5206 30.618H53.1952L56.4873 33.9659L58.2098 36.0393L59.2601 37.7031L60.0661 39.5883L60.338 40.7098L60.6098 41.8313L60.4526 43.7949L59.3386 46.5346L60.0157 47.8864L60.6929 49.2382L61.9725 50.8613H62.2662L62.1633 50.5886ZM18.1668 49.1482V48.9925H18.0298L17.8378 49.304H18.1668L18.1668 49.1482ZM44.4805 45.9148L44.4681 45.2822L43.7035 43.776L42.4393 41.4402L41.5804 38.793L41.474 38.4037H41.1962L40.7092 40.0388L40.6081 40.9462L40.507 41.8536L41.3597 43.1531L43.2195 45.6446L44.1697 46.661L44.493 46.5473L44.4805 45.9148L44.4805 45.9148ZM57.8831 44.9439L58.0777 43.3088L58.1781 42.5084L58.2785 41.7079L56.763 39.608L55.0545 36.1805L54.7525 36.2073L54.1142 38.9221L53.62 38.1659L52.8169 35.9338L52.6385 34.5903L52.4602 33.2467L52.5148 29.4486L52.5695 25.6505L52.7471 25.4725L52.9247 25.2944L55.1799 27.3694L56.9199 29.2945L58.6621 31.4746L61.3174 35.285L61.4576 35.6789L61.6373 35.5155L60.5351 33.3431L58.8718 30.8516L56.7629 28.2089L53.1513 24.569L53.075 22.1823L52.9986 19.7956L52.6697 18.7835L52.3407 17.7713L51.6876 16.837L51.7718 17.3042L51.856 17.7713L52.043 19.4373L52.2299 21.1034L52.0447 22.941L51.8594 24.7786L51.3932 27.1144L51.2403 28.3601L51.0875 29.6059L51.2723 33.1874L51.4954 34.3553L51.7185 35.5231L52.5439 37.838L54.074 39.3012L53.8917 41.0304L53.7094 42.7597L54.0863 43.5794L54.4633 44.3991L55.9497 46.0478L57.0735 46.6495L57.6883 46.5792L57.883 44.9441L57.8831 44.9439ZM82.6235 45.4665L83.4777 44.4541L85.0874 41.9752L85.0051 41.3963L84.9227 40.8173L84.6444 39.7273L84.6434 39.2991L84.6427 38.8709H84.3744L83.5328 40.8173L81.2257 45.3965V46.4491L81.3186 46.5421L81.4114 46.6352L81.7693 46.4789L82.6235 45.4665ZM52.4439 41.4347L52.3548 40.8842L51.552 39.1261L50.4252 37.7475L50.2231 37.1802L50.0209 36.6129L50.0073 34.355H49.7161L48.7175 36.3887L48.5694 38.7025L48.7505 39.4237L48.9317 40.1449L49.6144 41.0707L50.6622 41.7199L51.6381 41.9533L52.533 41.9852L52.4439 41.4347ZM65.539 25.4612V25.3055L65.2283 25.4979V25.8094L65.539 25.6169V25.4612ZM51.0945 23.6229V23.4792L50.7088 23.0196L50.3231 22.56L48.6872 21.7737L47.9883 21.5656V21.8636L48.5319 22.5249L50.8616 23.7585L51.0946 23.7667V23.6229L51.0945 23.6229Z" fill="url(#paint0_linear_544_52)"/>
<defs>
<linearGradient id="paint0_linear_544_52" x1="8.8501" y1="62.5304" x2="116.953" y2="62.5304" gradientUnits="userSpaceOnUse">
<stop stop-color="#495057"/>
<stop offset="1" stop-color="#6C757D"/>
</linearGradient>
</defs>
</svg>
