<svg width="130" height="128" viewBox="0 0 130 128" fill="none" xmlns="http://www.w3.org/2000/svg">
<path d="M101.043 23.8238C101.287 23.8238 101.533 23.84 101.775 23.821C102.74 23.7451 103.577 24.1107 104.355 24.6744C104.741 24.9544 105.144 25.2013 105.56 25.4242C105.653 25.4741 105.749 25.5276 105.849 25.5518C106.064 25.6038 106.305 25.6717 106.463 25.4496C106.608 25.2469 106.478 25.0423 106.374 24.8628C106 24.215 105.624 23.5701 105.459 22.8143C104.973 20.5813 105.22 18.4772 106.414 16.54C106.833 15.8603 107.244 15.7455 107.878 16.1906C109.019 16.9916 110.028 17.9752 111.043 18.9444C112.519 20.3531 113.955 21.8086 115.328 23.3341C115.877 23.9436 116.434 24.5478 116.885 25.248C117.227 25.7776 117.141 26.093 116.585 26.3062C115.15 26.8568 113.878 27.7306 112.611 28.6115C111.545 29.3517 110.518 30.1442 109.685 31.1899C109.16 31.8477 108.716 32.5609 108.373 33.3456C108.156 33.8417 108.211 34.1021 108.602 34.4626C108.935 34.769 109.334 34.9207 109.754 34.9421C111.361 35.0239 112.612 35.8874 113.756 36.9971C114.169 37.3985 114.563 37.8234 114.976 38.2247C115.274 38.5135 115.52 38.8376 115.688 39.2298C115.727 39.32 115.766 39.4159 115.826 39.4884C115.96 39.649 116.122 39.8153 116.334 39.7274C116.539 39.6427 116.48 39.4114 116.471 39.2311C116.425 38.3538 116.228 37.5066 116.032 36.6576C115.522 34.4558 115.678 32.3229 116.666 30.2947C117.049 29.5085 117.619 28.8851 118.263 28.3386C118.503 28.1358 118.736 28.1744 118.967 28.3499C119.434 28.7027 119.758 29.1939 120.06 29.6961C121.736 32.4773 123.197 35.3861 124.488 38.3932C125.033 39.6626 125.555 40.9438 125.932 42.2857C126.251 43.4229 125.928 43.9078 124.82 43.8835C123.823 43.8616 122.865 44.1086 121.891 44.2628C120.104 44.5455 118.491 45.3496 116.857 46.0912C116.216 46.3821 115.635 46.8106 115.095 47.2892C114.927 47.4384 114.779 47.6223 114.652 47.8139C114.279 48.3793 114.387 48.7814 114.969 49.0637C115.001 49.0791 115.031 49.1005 115.064 49.1084C116.642 49.4861 117.54 50.7353 118.36 52.0811C118.577 52.4358 118.77 52.8061 118.975 53.169C119.096 53.3845 119.151 53.6204 119.212 53.8639C119.377 54.5267 119.735 55.084 120.162 55.5852C120.345 55.799 120.516 55.7425 120.615 55.4783C120.76 55.0924 120.799 54.6799 120.858 54.2733C121.091 52.6631 121.448 51.0895 122.101 49.6107C122.466 48.7845 122.911 48.0074 123.521 47.3578C124.36 46.4633 125.407 46.1679 126.551 46.2056C127.025 46.2212 127.231 46.4612 127.216 46.9696C127.195 47.6579 127.336 48.2877 127.578 48.9287C127.913 49.8117 127.973 50.7727 128.057 51.7177C128.311 54.569 128.289 57.4276 128.23 60.2858C128.215 60.9962 128.169 61.7063 128.165 62.4179C128.163 62.8565 128.047 62.9715 127.636 62.9642C127.182 62.9561 126.722 62.9225 126.291 62.7853C124.783 62.3056 123.245 62.2754 121.699 62.4045C120.09 62.5387 118.478 62.6699 116.926 63.2075C116.626 63.3113 116.33 63.4211 116.073 63.624C115.708 63.9133 115.69 64.2003 116.053 64.4998C116.642 64.9855 117.283 65.3952 117.831 65.9419C118.649 66.7581 119.261 67.7065 119.543 68.8811C119.664 69.3859 119.608 69.8995 119.614 70.4101C119.615 70.5098 119.605 70.6099 119.609 70.7094C119.618 70.9184 119.72 71.0728 119.9 71.1324C120.108 71.2012 120.171 71.011 120.258 70.8611C120.992 69.5898 121.7 68.3062 122.913 67.4523C124.115 66.6068 125.418 66.2241 126.84 66.2813C127.477 66.3069 127.734 66.5917 127.767 67.2897C127.83 68.621 127.696 69.9384 127.385 71.2233C126.921 73.1353 126.569 75.0674 126.327 77.0247C126.161 78.3704 125.75 79.6446 125.326 80.9147C125.211 81.2607 124.988 81.1951 124.76 81.086C123.901 80.675 123.025 80.2992 122.189 79.839C119.877 78.5665 117.42 78.2521 114.873 78.4667C114.29 78.5158 114.041 78.7652 114.09 79.2297C114.108 79.3977 114.168 79.5447 114.283 79.659C114.975 80.3458 115.192 81.265 115.34 82.2073C115.479 83.0939 115.392 83.9724 115.167 84.8361C115.042 85.3184 114.957 85.8079 114.932 86.3092C114.916 86.6279 115.074 86.7143 115.326 86.6469C115.622 86.5675 115.854 86.3754 115.976 86.0726C116.105 85.7513 116.314 85.5174 116.564 85.3022C117.017 84.9109 117.486 84.546 117.966 84.1937C118.81 83.5742 119.752 83.303 120.759 83.279C121.479 83.2618 122.2 83.2765 122.921 83.2772C122.967 83.2773 123.014 83.2784 123.06 83.2812C124.097 83.3444 124.418 83.8347 124.064 84.8767C123.617 86.1928 123.003 87.4291 122.4 88.6667C121.343 90.8352 120.206 92.9545 118.893 94.9586C118.479 95.5905 118.076 96.2351 117.533 96.7553C117.137 97.1347 116.864 97.1686 116.39 96.9176C116.157 96.7943 115.963 96.6191 115.782 96.423C114.351 94.8776 112.666 93.7023 110.916 92.6361C110.016 92.0873 109.02 91.8279 107.969 91.8797C107.431 91.9062 107.354 92.0707 107.521 92.5971C107.813 93.523 108.23 94.4184 108.174 95.4424C108.109 96.6191 107.657 97.6454 107.063 98.5908C106.792 99.0223 106.688 99.4945 106.516 99.9521C106.489 100.025 106.504 100.102 106.569 100.153C106.621 100.194 106.674 100.179 106.731 100.15C107.651 99.6823 108.576 99.2226 109.493 98.7488C109.985 98.4952 110.448 98.1794 110.966 97.9851C112.56 97.3876 114.148 97.1737 115.736 98.0195C116.237 98.2861 116.782 98.3565 117.335 98.2841C117.655 98.2422 117.93 98.3185 118.188 98.5158C118.32 98.6171 118.455 98.7173 118.599 98.797C119.411 99.246 119.751 100.02 119.897 100.936C119.936 101.177 119.919 101.409 119.856 101.639C119.646 102.403 119.445 103.172 119.146 103.901C118.972 104.328 118.646 104.65 118.345 104.978C116.721 106.744 115.059 108.472 113.512 110.32C113.256 110.626 113.006 110.94 112.829 111.309C112.744 111.484 112.639 111.677 112.811 111.859C112.988 112.047 113.168 111.957 113.352 111.85C114.446 111.212 115.57 110.648 116.769 110.271C116.924 110.222 117.086 110.196 117.244 110.158C117.351 110.132 117.458 110.124 117.529 110.232C117.602 110.342 117.537 110.452 117.492 110.548C117.338 110.884 117.066 111.105 116.795 111.32C116.09 111.878 115.306 112.291 114.526 112.706C113.692 113.15 112.927 113.671 112.399 114.522C112.258 114.75 112.109 114.975 111.99 115.217C111.51 116.189 110.755 116.821 109.838 117.258C109.528 117.406 109.241 117.592 108.983 117.829C108.67 118.117 108.462 118.463 108.47 118.927C108.472 119.024 108.46 119.13 108.424 119.218C108.362 119.372 108.234 119.444 108.082 119.409C107.922 119.372 107.906 119.229 107.925 119.082C107.992 118.588 108.063 118.095 108.129 117.601C108.144 117.49 108.153 117.377 108.154 117.265C108.154 117.088 108.081 116.951 107.924 116.881C107.772 116.813 107.623 116.831 107.504 116.96C106.664 117.874 105.784 118.752 105.211 119.906C105.077 120.175 104.998 120.458 104.97 120.76C104.947 120.996 104.934 121.234 104.888 121.465C104.844 121.686 104.84 122.003 104.537 121.973C104.274 121.948 104.166 121.682 104.145 121.422C104.103 120.893 104.226 120.381 104.329 119.869C104.365 119.683 104.519 119.462 104.333 119.313C104.123 119.145 103.901 119.294 103.726 119.435C103.137 119.909 102.692 120.545 102.162 121.083C100.871 122.394 100.046 124.041 99.2193 125.69C99.1697 125.788 99.1232 125.89 99.063 125.982C98.9664 126.128 98.902 126.348 98.676 126.283C98.4674 126.224 98.3924 126.027 98.3772 125.821C98.2693 124.353 98.3476 122.925 99.1343 121.642C100.038 120.168 101.205 118.961 102.454 117.834C103.752 116.661 105.192 115.681 106.437 114.438C107.449 113.428 108.392 112.334 109.441 111.371C111.175 109.781 112.522 107.813 114.087 106.059C114.288 105.835 114.485 105.601 114.581 105.296C114.715 104.871 114.564 104.632 114.15 104.641C113.331 104.658 112.578 104.942 111.855 105.332C111.201 105.686 110.552 106.05 109.866 106.328C109.689 106.4 109.552 106.523 109.425 106.679C108.84 107.406 108.348 108.214 107.74 108.921C107.45 109.256 107.331 109.258 107.057 108.896C105.948 107.437 104.898 105.921 103.607 104.635C102.71 103.742 101.777 102.898 100.603 102.437C100.193 102.276 99.7747 102.195 99.3386 102.235C98.9396 102.272 98.6047 102.605 98.6296 103.012C98.753 105.041 97.8522 106.578 96.6106 107.959C96.2384 108.373 95.8257 108.737 95.4192 109.11C95.3662 109.158 95.3073 109.201 95.2617 109.256C95.1213 109.428 94.8664 109.596 95.0463 109.85C95.2086 110.08 95.406 109.846 95.5725 109.766C96.6155 109.263 97.7094 108.971 98.8488 108.994C100.802 109.032 102.629 109.538 104.212 110.843C104.466 111.052 104.68 111.292 104.797 111.617C104.869 111.816 104.888 112.018 104.69 112.149C103.72 112.786 102.93 113.652 102.094 114.463C101.26 115.272 100.262 115.827 99.2856 116.403C97.5229 117.444 95.7176 118.391 93.8043 119.077C93.4085 119.218 93.0121 119.355 92.5813 119.336C92.308 119.324 92.1941 119.193 92.1456 118.915C91.793 116.9 91.3167 114.919 90.6322 113.002C90.0472 111.364 89.1162 109.976 87.9089 108.802C87.5256 108.429 86.9798 108.566 86.7659 109.09C86.3977 109.994 86.0706 110.925 85.5016 111.709C84.7521 112.742 83.7827 113.477 82.6551 113.972C82.6336 113.982 82.6091 113.985 82.5897 113.998C82.3946 114.127 82.1112 114.234 82.1222 114.498C82.1339 114.781 82.4419 114.789 82.6441 114.825C83.0322 114.896 83.4288 114.964 83.82 114.953C85.4801 114.908 86.8389 115.639 88.0287 116.804C88.755 117.515 89.3632 118.327 89.7826 119.296C90.0785 119.979 89.8955 120.485 89.2066 120.648C87.2815 121.103 85.3467 121.508 83.3849 121.736C81.5267 121.951 79.6665 122.147 77.8071 122.351C77.2922 122.408 76.9621 122.099 76.9335 121.547C76.8968 120.836 77.0322 120.159 77.2453 119.492C77.5619 118.499 77.5329 117.497 77.4114 116.462C77.2599 115.172 76.8504 113.97 76.5147 112.74C76.4655 112.56 76.4019 112.387 76.3005 112.231C75.7839 111.433 75.3212 111.36 74.626 111.971C74.5811 112.011 74.5307 112.046 74.4947 112.094C73.4449 113.489 71.9212 113.84 70.4166 114.234C69.8883 114.373 69.3602 114.363 68.8254 114.274C68.5748 114.232 68.3163 114.24 68.0612 114.237C67.8744 114.236 67.7079 114.313 67.6452 114.513C67.5844 114.707 67.7383 114.807 67.8572 114.901C68.5401 115.444 69.2838 115.883 70.0016 116.367C70.9155 116.983 71.8432 117.581 72.5188 118.527C73.1504 119.412 73.4886 120.391 73.4713 121.51C73.462 122.113 73.233 122.38 72.668 122.387C71.5984 122.4 70.5323 122.324 69.4689 122.207C68.7064 122.123 67.9356 122.069 67.1927 121.868C65.1515 121.315 63.0548 121.102 60.9962 120.661C60.7251 120.603 60.4618 120.491 60.2025 120.382C59.7178 120.18 59.6375 119.872 59.9554 119.433C60.5995 118.545 61.1654 117.602 61.6697 116.616C62.351 115.284 62.9133 113.901 63.0846 112.377C63.1818 111.512 63.2565 110.639 63.1557 109.765C63.1034 109.311 62.8367 109.147 62.4363 109.317C62.2741 109.387 62.1239 109.477 61.9978 109.615C61.3108 110.365 60.4654 110.696 59.4957 110.753C58.3188 110.822 57.1784 110.767 56.1208 110.102C55.6968 109.835 55.1974 109.77 54.707 109.743C54.4559 109.728 54.2075 109.773 54.0818 110.051C53.959 110.322 54.1466 110.493 54.2878 110.673C54.5425 110.997 54.7981 111.32 55.0543 111.642C55.1328 111.741 55.1869 111.852 55.1771 111.982C55.1454 112.403 55.3319 112.728 55.5652 113.032C55.9793 113.572 56.1683 114.152 56.0091 114.872C55.9225 115.264 55.9775 115.692 55.9707 116.103C55.968 116.267 55.9797 116.444 55.8567 116.56C55.5907 116.812 55.5335 117.153 55.4708 117.498C55.4374 117.681 55.3899 117.862 55.3394 118.041C55.0584 119.036 54.5466 119.359 53.5941 119.138C52.7577 118.945 51.9911 118.549 51.2239 118.163C48.883 116.986 46.6583 115.59 44.5393 114C44.4538 113.936 44.3649 113.876 44.2736 113.822C43.885 113.591 43.507 113.768 43.4319 114.235C43.3688 114.628 43.3422 115.027 43.3489 115.428C43.3561 115.855 43.3079 116.27 43.1622 116.676C42.9884 117.16 42.6633 117.357 42.2 117.389C40.8339 117.485 39.7058 116.928 38.7275 115.953C36.6796 113.912 34.4313 112.139 32.221 110.315C31.6316 109.829 31.0593 109.318 30.4785 108.82C30.2693 108.64 30.0538 108.468 29.8013 108.366C29.6563 108.308 29.501 108.175 29.347 108.325C29.2159 108.452 29.2738 108.625 29.2939 108.784C29.3593 109.299 29.5322 109.772 29.7752 110.219C30.1212 110.854 30.4508 111.5 30.8158 112.123C31.6175 113.49 31.5979 114.93 31.1857 116.413C31.1193 116.652 31.0345 116.885 30.9532 117.118C30.907 117.251 30.8404 117.383 30.6833 117.358C30.5116 117.331 30.4799 117.179 30.4715 117.019C30.459 116.782 30.4373 116.546 30.4314 116.309C30.3981 114.973 30.008 113.727 29.518 112.527C29.2731 111.927 28.9734 111.343 28.6805 110.762C28.5976 110.597 28.4767 110.456 28.3332 110.346C27.639 109.813 27.0737 109.13 26.4604 108.503C26.319 108.358 26.2526 108.171 26.1947 107.983C25.9572 107.212 25.4851 106.986 24.6733 107.123C24.1477 107.212 23.6354 107.373 23.2061 107.761C22.9619 107.982 22.6436 108.06 22.3261 108.078C22.0213 108.095 21.8995 107.92 21.989 107.604C22.2326 106.744 22.7676 106.176 23.5387 105.852C23.6467 105.807 23.76 105.776 23.8696 105.735C24.1942 105.612 24.2431 105.451 24.032 105.154C23.8258 104.864 23.5535 104.645 23.296 104.413C22.4762 103.673 21.5946 103.024 20.6904 102.412C20.2631 102.122 19.7965 101.968 19.2841 101.911C18.4678 101.82 17.6663 101.758 16.8844 102.113C16.7512 102.174 16.5884 102.166 16.4386 102.174C16.2871 102.182 16.1238 102.183 16.0486 102C15.9781 101.829 16.0644 101.682 16.1514 101.55C16.3652 101.225 16.7014 101.104 17.0261 100.968C17.294 100.856 17.5878 100.816 17.8167 100.598C17.9166 100.502 18.0571 100.535 18.1864 100.548C18.7085 100.604 19.2202 100.711 19.7199 100.883C20.2895 101.078 20.8783 101.141 21.4704 101.175C21.8369 101.195 21.9783 100.971 21.792 100.632C21.0854 99.3485 20.1945 98.2425 19.0283 97.4124C18.9802 97.3783 18.9105 97.3149 18.8777 97.3305C18.5113 97.5043 18.3818 97.2979 18.273 96.9604C18.2386 96.8536 18.0505 96.7951 17.925 96.7325C16.6053 96.0735 15.2103 95.7983 13.7625 95.8157C13.2593 95.8218 12.7806 96.0008 12.2922 96.1097C12.1103 96.1502 11.9085 96.2233 11.798 95.9906C11.6886 95.7603 11.78 95.55 11.9309 95.3763C12.2114 95.0534 12.5937 94.9753 12.9739 94.9177C14.833 94.6363 16.657 94.7633 18.4289 95.4786C18.5964 95.5463 18.7703 95.5785 18.7589 95.835C18.7544 95.9381 18.848 96.0328 18.912 95.9627C19.0817 95.7771 19.2918 95.7877 19.4969 95.7267C19.724 95.6592 19.643 95.439 19.5509 95.2624C19.0887 94.3768 18.5054 93.5831 17.9237 92.7887C17.4283 92.1122 16.9025 91.4614 16.4877 90.7196C16.137 90.0925 16.014 89.3719 15.751 88.7066C14.5451 85.6555 13.5455 82.529 13.0042 79.254C12.6414 77.0595 12.5017 74.8414 12.5974 72.6175C12.6324 71.8061 12.5433 71.0056 12.5765 70.1964C12.6703 67.9117 13.1207 65.7234 13.9775 63.6305C14.2597 62.9411 14.4755 62.2319 14.5121 61.4712C14.5285 61.1322 14.4242 61.0389 14.1225 61.1492C13.7846 61.2726 13.5701 61.5527 13.3835 61.8592C12.7064 62.9713 12.198 64.1766 11.7136 65.3935C10.9865 67.2203 10.3218 69.0711 9.93847 71.0232C9.57922 72.8529 9.45537 74.7012 9.56481 76.5684C9.60057 77.1784 9.59733 77.7914 9.64261 78.4005C9.7133 79.3516 9.9325 80.2701 10.2319 81.167C10.37 81.5806 10.4489 82.0093 10.4891 82.4446C10.5205 82.7856 10.3724 82.9114 10.069 82.8069C9.73534 82.692 9.48564 82.4513 9.29071 82.1449C8.81042 81.39 8.53626 80.5414 8.36346 79.6576C8.02604 77.9318 7.83308 76.1859 7.80939 74.421C7.79621 73.4397 8.04674 72.4933 8.15627 71.5281C8.29511 70.3048 8.75345 69.1701 9.0106 67.982C9.6069 65.227 10.7198 62.7123 12.014 60.2781C12.4922 59.3787 13.0292 58.5159 13.6848 57.749C13.8204 57.5903 13.872 57.4332 13.7723 57.2442C13.6739 57.0578 13.5065 57.1149 13.3654 57.1502C12.6239 57.3356 12.0557 57.8271 11.526 58.3801C10.3922 59.5636 9.39096 60.8795 8.30217 62.1087C7.22157 63.3285 6.20627 64.6127 5.24536 65.9448C4.92528 66.3886 4.61385 66.8396 4.28882 67.2791C3.95372 67.7322 3.66923 68.2122 3.50482 68.7688C3.43395 69.0088 3.31777 69.2258 3.15874 69.413C3.0201 69.5762 2.86356 69.7107 2.6423 69.6257C2.42686 69.5428 2.41305 69.3329 2.40785 69.1289C2.38016 68.0431 2.61869 67.0283 3.09873 66.073C3.48875 65.2968 4.0356 64.6486 4.55004 63.9735C5.2058 63.113 5.81238 62.2154 6.36175 61.2718C6.81029 60.5013 7.44897 59.9051 8.05173 59.2892C9.28866 58.0252 10.4906 56.7237 11.716 55.4476C12.1419 55.004 12.6657 54.6903 13.1498 54.3246C13.5444 54.0264 13.8965 53.6842 14.0626 53.1776C14.2079 52.7344 14.0921 52.5811 13.6681 52.6563C13.2064 52.7383 12.7742 52.9078 12.3603 53.1497C11.349 53.7407 10.3887 54.4222 9.39908 55.0515C8.67731 55.5105 7.92263 55.7818 7.06487 55.8169C6.2154 55.8517 5.41349 56.2059 4.61569 56.5149C3.898 56.7928 3.15624 56.9201 2.39879 56.961C2.28346 56.9672 2.16579 56.9597 2.05147 56.9419C1.90719 56.9193 1.77955 56.8541 1.74067 56.6845C1.69996 56.5069 1.80608 56.4035 1.92658 56.3187C2.31702 56.0441 2.74061 55.8376 3.16792 55.6416C5.57138 54.5392 8.01546 53.5446 10.4342 52.4829C11.8959 51.8413 13.3571 51.1953 14.7592 50.4092C14.9028 50.3287 15.0409 50.2352 15.1753 50.1378C15.2956 50.0505 15.3949 49.9331 15.3438 49.7636C15.2937 49.5975 15.1549 49.5588 15.0068 49.5528C14.27 49.523 13.5188 49.534 12.8416 49.8408C11.2556 50.5592 9.61919 50.486 7.97058 50.3199C6.56295 50.1781 5.21214 49.7598 3.87756 49.2779C3.73805 49.2275 3.56484 49.1937 3.54645 48.9926C3.5277 48.7876 3.63505 48.6339 3.78504 48.5222C3.93859 48.4078 4.10528 48.3169 4.29572 48.2966C4.94633 48.2269 5.59168 48.0066 6.24782 48.3249C6.50487 48.4496 6.80613 48.3352 7.07002 48.2557C8.09918 47.9461 9.1605 47.9369 10.2114 47.8541C13.674 47.5811 17.1394 47.3465 20.5598 46.6524C20.8985 46.5837 21.095 46.4081 21.1901 46.0541C21.4535 45.0737 21.4772 44.0581 21.5836 43.0555C21.8348 40.6876 22.015 38.309 22.5547 35.9871C22.6619 35.526 22.7796 35.0666 23.0032 34.6533C23.2221 34.2489 23.5263 33.9935 24.0011 34.063C24.3575 34.1152 24.7172 34.1407 25.0753 34.1807C25.6478 34.2445 25.9911 34.0539 26.2118 33.4823C26.4484 32.8695 26.6053 32.2274 26.6558 31.5636C26.6917 31.0912 26.517 30.9473 26.0924 31.0593C25.6727 31.1701 25.4341 31.5046 25.2247 31.8719C25.1399 32.0205 25.0784 32.1846 24.9927 32.3325C24.8493 32.5802 24.667 32.7908 24.4121 32.9078C24.1151 33.044 23.7822 33.1431 23.5202 32.9063C23.2631 32.674 23.3676 32.3149 23.4701 32.0307C23.8308 31.0309 24.2371 30.0526 24.6667 29.0828C25.3904 27.4495 26.0411 25.7787 26.8916 24.2124C27.1671 23.7052 27.4627 23.2122 27.7937 22.7447C28.0589 22.3701 28.3733 22.3225 28.722 22.6036C29.3734 23.1286 30.0552 23.6032 30.7689 24.0241C31.1922 24.2738 31.3767 24.24 31.7249 23.8722C32.9959 22.5298 34.0895 21.0244 35.176 19.5138C35.2916 19.353 35.5759 19.1589 35.3664 18.9139C35.1733 18.688 34.8965 18.7531 34.6579 18.9064C34.0646 19.2875 33.4183 19.4853 32.7453 19.6515C31.8986 19.8605 31.0776 20.1885 30.2428 20.4554C29.9804 20.5393 29.6989 20.5759 29.4955 20.3249C29.2945 20.0768 29.3757 19.7811 29.4592 19.5068C29.5953 19.0596 29.9099 18.7575 30.2328 18.4699C30.5405 18.1959 30.8069 17.8867 30.9928 17.5055C31.1149 17.2551 31.3114 17.0789 31.4939 16.8883C32.7343 15.5926 33.8771 14.183 35.2515 13.0439C35.9395 12.4737 36.5229 11.7605 37.2987 11.3116C37.3289 11.2941 37.3713 11.273 37.3799 11.244C37.5342 10.721 38.0156 10.7819 38.3617 10.5995C38.6217 10.4626 38.7653 10.5578 38.8825 10.8202C39.2445 11.6302 39.6158 12.4356 39.9898 13.2393C40.4069 14.1356 40.8922 14.9853 41.516 15.7357C41.6238 15.8654 41.7432 15.9862 41.8679 16.0973C42.4761 16.6394 42.7444 16.6238 43.354 16.099C44.1263 15.4339 44.6531 14.5404 45.2895 13.7497C45.7992 13.1164 46.3658 12.5806 47.1043 12.2775C47.3983 12.1569 47.6764 12.0004 47.8948 11.7455C48.1405 11.4589 48.0984 11.2747 47.747 11.1514C47.3602 11.0156 46.9608 11.0133 46.5796 11.1459C46.0689 11.3237 45.5561 11.3442 45.0318 11.2784C43.5634 11.0939 42.1102 10.8333 40.7222 10.2588C40.3868 10.1199 39.9872 9.98885 39.9459 9.54514C39.9045 9.10106 40.2784 8.88839 40.5749 8.67595C41.5635 7.96773 42.6171 7.3819 43.7067 6.88183C45.138 6.22495 46.492 5.37177 47.9763 4.85725C49.6766 4.26786 51.4033 3.76985 53.145 3.33591C56.3334 2.54157 59.5706 2.13371 62.8309 1.8985C64.3951 1.78564 65.9604 1.7158 67.5281 1.70528C67.7507 1.70379 67.9685 1.72363 68.1785 1.81124C68.5849 1.98083 68.7415 2.26432 68.6364 2.71462C68.4719 3.41971 68.4195 4.14319 68.3126 4.85747C68.2262 5.43457 68.0463 5.96898 67.7644 6.46298C67.656 6.65299 67.6045 6.84463 67.6108 7.06415C67.6177 7.30118 67.6347 7.54156 67.6085 7.77543C67.4533 9.15621 67.8393 10.4419 68.1982 11.7319C68.3393 12.2389 68.5543 12.3242 69.0071 12.1183C69.9694 11.681 70.9113 11.1639 71.9077 10.8473C73.4455 10.3589 75.043 10.3241 76.6385 10.4675C76.9099 10.4919 77.2613 10.5487 77.3277 10.2374C77.3893 9.94866 77.0609 9.76983 76.8165 9.66101C76.3772 9.46539 75.9292 9.28969 75.4777 9.12873C73.9552 8.58595 72.7947 7.5177 71.8086 6.20534C71.1072 5.27189 70.4702 4.28917 69.998 3.1944C69.9687 3.12647 69.9386 3.05856 69.9145 2.9884C69.6586 2.24189 69.8498 1.93807 70.5898 1.9841C71.7843 2.05839 72.9706 2.22748 74.1578 2.38463C76.6825 2.71885 79.1993 3.11068 81.6943 3.64589C83.1283 3.95349 84.5699 4.23969 85.9383 4.82446C86.0136 4.85665 86.0897 4.88884 86.1607 4.93043C86.8013 5.30581 86.8405 5.54428 86.4135 6.18119C85.6947 7.25346 84.9019 8.28185 84.4781 9.54639C83.8698 11.3613 83.5048 13.217 83.7692 15.1616C83.8507 15.7613 84.1094 16.0112 84.6779 16.0169C85.3904 16.024 86.0942 15.9365 86.7753 15.708C87.1351 15.5873 87.4943 15.522 87.8709 15.531C88.3355 15.542 88.8004 15.5321 89.2652 15.5338C89.9015 15.536 90.5267 15.5234 91.1557 15.7491C91.7499 15.9624 92.3982 15.888 93.0258 15.8688C93.2032 15.8633 93.3455 15.7783 93.3903 15.5818C93.4297 15.4092 93.3352 15.2746 93.2026 15.2182C92.2856 14.8286 91.7239 13.9856 91.0871 13.2597C90.0324 12.0574 89.1336 10.7244 88.4793 9.21405C88.058 8.24169 87.7898 7.22906 87.7033 6.16065C87.6729 5.7857 87.7572 5.68458 88.1228 5.73355C88.7662 5.81969 89.3386 6.14253 89.928 6.40196C90.7986 6.78514 91.6625 7.18604 92.5293 7.57933C92.778 7.69217 93.0354 7.75748 93.3072 7.76051C93.7543 7.76549 94.1348 8.01297 94.5173 8.20444C95.8538 8.87341 97.1873 9.55144 98.4629 10.3519C98.7122 10.5083 98.9881 10.6151 99.2495 10.7499C99.5892 10.9251 99.9262 11.0641 100.175 11.4314C100.423 11.7976 100.878 11.8964 101.282 12.0161C101.663 12.1293 102.036 12.2675 102.393 12.4509C102.487 12.4992 102.569 12.5788 102.667 12.6129C102.909 12.6978 102.724 13.2862 103.243 13.1055C103.5 13.0159 103.757 13.3915 104.016 13.5551C104.276 13.7198 104.532 13.8913 104.79 14.0607C104.879 14.1191 104.974 14.1701 105.053 14.2416C105.507 14.6529 105.526 14.9449 105.091 15.3679C104.723 15.7264 104.331 16.0558 103.905 16.3399C103.702 16.4751 103.533 16.6765 103.365 16.865C102.483 17.857 101.532 18.7923 100.751 19.8697C100.134 20.7201 99.4158 21.5482 99.1772 22.6616C99.1437 22.8183 99.1172 22.9815 99.1191 23.1412C99.1239 23.5564 99.3299 23.7953 99.719 23.8115C100.16 23.8297 100.602 23.8157 101.043 23.8157C101.043 23.8183 101.043 23.8211 101.043 23.8238ZM79.1321 75.8989C79.1397 76.7497 79.0875 77.5966 78.9935 78.4394C78.6606 81.4236 77.8162 84.2371 76.4982 86.8835C75.9155 88.0536 75.2609 89.1807 74.2715 90.0161C73.4111 90.7426 72.4429 91.2922 71.4952 91.8717C71.0845 92.1229 70.6196 92.0872 70.1654 92.0544C70.0296 92.0446 69.9162 91.9711 69.8608 91.8368C69.8037 91.6985 69.8953 91.6023 69.9765 91.5104C70.8236 90.5514 71.6471 89.5669 72.5229 88.6391C74.0182 87.0551 75.0725 85.198 75.728 83.0574C76.488 80.5755 76.731 78.0137 76.7899 75.4256C76.8233 73.9613 76.621 72.5105 76.3659 71.0752C76.0684 69.4013 75.6342 67.7707 74.8218 66.2856C74.5827 65.8485 74.29 65.452 73.8397 65.2596C73.3606 65.0549 72.8687 65.0684 72.453 65.4251C72.0505 65.7705 72.157 66.2268 72.2636 66.6978C72.6611 68.4536 73.2721 70.1574 73.3938 71.9816C73.4037 72.1301 73.4317 72.2794 73.4683 72.4234C73.7731 73.622 73.7763 74.8365 73.6793 76.0648C73.4485 78.9862 72.7487 81.742 71.1971 84.1899C69.8176 86.3665 68.0653 88.0363 65.6267 88.7119C65.4097 88.772 65.1196 88.9954 64.9585 88.7116C64.8139 88.4566 65.0266 88.1925 65.1788 87.9723C65.6189 87.3358 66.1978 86.8472 66.7298 86.309C67.4296 85.6011 68.2622 85.0308 68.7876 84.1416C69.6472 82.6869 70.208 81.0868 70.6691 79.4453C71.3351 77.0741 71.4595 74.6372 71.409 72.1807C71.4056 72.0164 71.3757 71.8584 71.3127 71.7082C71.043 71.0657 70.9182 70.3809 70.7828 69.6962C70.5848 68.6949 70.3736 67.6948 69.8566 66.8092C69.4309 66.0802 68.8518 65.6104 68.0317 65.5343C67.4919 65.4842 67.2838 65.6804 67.2539 66.2588C67.2223 66.8698 67.325 67.458 67.5497 68.0126C68.0855 69.3351 68.5165 70.6795 68.6245 72.1366C68.7126 73.3255 68.7918 74.5009 68.4443 75.6607C68.3773 75.8844 68.3098 76.1305 68.3295 76.3575C68.3961 77.1251 68.1627 77.8016 67.8684 78.4747C67.6374 79.003 67.4503 79.5423 67.332 80.1251C67.1848 80.8504 66.6977 81.4184 66.3305 82.038C66.0509 82.5099 65.693 82.8964 65.2464 83.1822C64.4482 83.6931 63.5885 84.0205 62.6666 84.1534C62.5292 84.1732 62.3607 84.217 62.2851 84.0617C62.194 83.8745 62.3612 83.7686 62.4707 83.6676C63.0094 83.1701 63.508 82.6297 63.9588 82.0413C66.6894 78.4766 67.4123 74.4159 66.4637 69.9795C66.1817 68.6609 65.4723 67.6058 64.3706 66.8774C62.8913 65.8995 61.2548 65.471 59.5617 65.2295C59.2317 65.1825 58.8994 65.0903 58.5606 65.2068C57.7311 65.4919 56.8972 65.7623 56.0682 66.0489C54.5602 66.5701 53.5159 67.7302 52.5601 69.0093C51.695 70.1672 50.9363 71.416 50.012 72.5214C49.4175 73.2323 48.9019 73.9882 48.4821 74.8309C46.9476 77.9115 46.2482 81.1936 46.4361 84.6801C46.6146 87.9924 47.5576 91.0332 49.2916 93.7938C51.0436 96.5831 53.1631 98.989 55.6611 101.013C56.2649 101.502 56.9304 101.891 57.5584 102.34C58.1807 102.785 58.8967 103.014 59.536 103.43C60.3885 103.984 61.3213 104.393 62.2554 104.774C63.2627 105.184 64.2773 105.557 65.333 105.833C66.2643 106.077 67.1771 106.304 68.1369 106.299C68.4684 106.297 68.78 106.395 69.0298 106.656C69.1447 106.776 69.2953 106.8 69.4482 106.814C70.084 106.874 70.7199 106.934 71.3554 106.996C72.8599 107.145 74.3601 107.242 75.8749 107.077C77.1349 106.94 78.3751 106.745 79.6158 106.457C81.2725 106.073 82.9458 105.812 84.5048 105.024C85.8174 104.361 87.2499 104.006 88.5493 103.296C88.8276 103.144 89.1057 103.008 89.4256 102.952C89.7526 102.896 90.0098 102.654 90.2276 102.388C90.3669 102.218 90.3545 102.059 90.1686 101.915C89.8787 101.691 89.5965 101.529 89.2062 101.619C88.8556 101.7 88.4961 101.747 88.1484 101.846C86.6675 102.268 85.2065 102.77 83.6925 103.057C82.5719 103.27 81.4545 103.51 80.3463 103.787C78.1947 104.325 76.0334 104.788 73.8282 104.988C73.36 105.03 72.886 105.035 72.4444 104.892C71.6113 104.621 70.7606 104.791 69.9285 104.693C68.2879 104.501 66.7333 103.944 65.2678 103.12C65.0315 102.987 64.8061 102.828 64.6612 102.572C64.4442 102.189 64.5633 101.96 64.9842 101.939C65.7152 101.901 66.4192 102.054 67.1073 102.296C68.1973 102.679 69.312 102.866 70.4585 102.919C72.2611 103.003 74.0569 102.808 75.8577 102.823C76.5855 102.829 77.3198 102.747 78.0337 102.553C78.2142 102.504 78.4266 102.456 78.446 102.215C78.4659 101.968 78.2543 101.895 78.0848 101.82C77.5996 101.605 77.0845 101.498 76.5791 101.355C76.0956 101.219 75.613 101.077 75.1777 100.802C75.0044 100.692 74.8286 100.553 74.8761 100.305C74.927 100.04 75.1569 100.035 75.352 100.023C75.9145 99.9901 76.4639 100.094 77.0044 100.248C77.5542 100.405 78.0961 100.595 78.6587 100.698C79.0153 100.763 79.3756 100.78 79.7353 100.76C80.2605 100.732 80.5924 100.376 80.8927 99.9569C81.1988 99.5302 81.538 99.1595 82.12 99.3172C82.2702 99.3579 82.428 99.2805 82.5443 99.1813C83.1771 98.6422 83.6215 97.9785 83.6423 97.074C83.6572 96.4251 83.6438 95.7754 83.6463 95.126C83.647 94.9602 83.6604 94.7855 83.8421 94.7305C84.0117 94.6792 84.1334 94.7902 84.2281 94.923C84.4008 95.1653 84.5114 95.4421 84.5459 95.7441C84.632 96.4966 84.7849 97.2526 84.4585 97.9895C84.3802 98.1663 84.4439 98.3334 84.5605 98.4718C84.6738 98.6063 84.8121 98.5746 84.9475 98.5191C85.5717 98.263 86.1582 97.9354 86.617 97.4C87.3401 96.5562 87.8123 95.5332 88.3409 94.5518C88.3969 94.448 88.4252 94.3137 88.4283 94.1924C88.4546 93.1674 88.4681 92.1439 88.0948 91.1678C87.8997 90.6578 87.766 90.1278 87.7112 89.5776C87.6799 89.2634 87.7787 89.164 88.0656 89.2066C88.2087 89.2278 88.3285 89.3045 88.4468 89.3827C88.9471 89.7134 89.2089 90.2365 89.4395 90.7906C90.206 92.633 90.2902 94.459 89.3161 96.2495C88.7369 97.314 87.9948 98.2371 87.111 99.0254C86.9072 99.2071 86.754 99.4256 86.8824 99.703C87.0022 99.9618 87.2639 99.8745 87.4484 99.8158C88.5835 99.4548 89.7799 99.3943 90.9018 98.9614C92.3461 98.404 93.8844 98.3437 95.3797 98.0574C96.2024 97.8998 96.9949 97.6905 97.6678 97.1301C98.0624 96.8014 98.4733 96.4868 98.8267 96.1113C99.9985 94.8661 101.197 93.6491 102.321 92.3524C103.763 90.6881 105.138 88.9683 106.241 87.0145C107.057 85.5697 107.687 84.028 108.326 82.4913C108.643 81.7285 108.995 80.9818 109.296 80.2133C109.597 79.4442 109.819 78.6393 110.075 77.8495C110.698 75.921 111.242 73.9755 111.164 71.8988C111.142 71.3178 111.234 70.7532 111.385 70.1997C111.751 68.8575 112.065 67.5019 112.328 66.1322C112.569 64.8807 112.712 63.6148 112.693 62.3405C112.664 60.3819 112.583 58.4242 112.36 56.4769C112.078 54.008 111.652 51.5726 111.015 49.1766C110.39 46.8247 109.427 44.618 108.471 42.4204C106.872 38.743 104.741 35.4377 102.047 32.5649C101.18 31.6401 100.243 30.8041 99.3346 29.9311C98.8099 29.4267 98.3177 29.5152 97.9509 30.1462C97.7101 30.5604 97.4466 30.9569 97.1404 31.3164C96.5353 32.0267 95.837 32.479 94.8808 32.4082C93.6131 32.3143 92.4858 31.8536 91.4459 31.0953C90.4124 30.3416 89.2714 29.9277 88.0212 29.8669C87.7724 29.8548 87.5659 29.899 87.4517 30.1825C87.345 30.4473 87.4428 30.6277 87.6 30.8203C87.8645 31.1447 88.173 31.4004 88.5251 31.6034C88.9753 31.8629 89.4256 32.1232 89.8678 32.398C91.1102 33.17 91.5823 34.369 91.5091 35.8629C91.5 36.0491 91.4307 36.2056 91.263 36.2822C91.1017 36.3559 90.9707 36.2655 90.8467 36.1663C90.6606 36.0177 90.5706 35.7997 90.4899 35.5782C90.3795 35.275 90.2573 34.9813 90.0621 34.7262C88.7771 33.0471 87.0871 32.1402 85.1339 31.7331C83.9081 31.4777 82.8271 31.7407 81.9554 32.7574C81.8859 32.8385 81.8049 32.942 81.6909 32.9006C81.5524 32.8501 81.5716 32.6965 81.5714 32.5776C81.5705 32.0441 81.8258 31.6881 82.2614 31.4641C82.547 31.3172 82.8277 31.1628 82.9592 30.8237C83.092 30.4811 82.9644 30.2535 82.6205 30.2412C82.2607 30.2283 81.8984 30.26 81.5404 30.229C80.9054 30.174 80.3348 30.3378 79.7703 30.6514C79.1527 30.9947 78.5067 31.2827 77.8606 31.5616C77.4947 31.7196 77.2388 31.4548 77.3203 31.039C77.4232 30.5147 77.7375 30.1857 78.1923 30.0071C78.4757 29.8958 78.7688 29.8136 79.0551 29.7103C79.3747 29.595 79.6873 29.4615 79.9674 29.2529C80.1542 29.1137 80.1625 28.9796 80.0013 28.7978C79.7555 28.5204 79.4493 28.4428 79.1159 28.4398C78.4769 28.4342 77.8375 28.4477 77.1987 28.4327C76.0921 28.4067 75.0328 28.6421 74.0291 29.1249C72.9077 29.6644 71.8059 30.2455 71.3493 31.623C71.2819 31.8261 71.1387 31.8293 70.9959 31.6758C70.7152 31.3739 70.7869 31.0023 70.8385 30.6501C71.0002 29.5474 71.6921 28.8315 72.4864 28.2449C75.1011 26.3142 77.9199 25.7168 80.9904 26.8065C81.9604 27.1508 82.9513 27.4636 83.9954 27.3038C84.619 27.2083 85.219 27.2802 85.8197 27.459C87.5967 27.9881 89.4272 28.3155 91.1326 29.1149C91.6595 29.3619 92.2218 29.4659 92.8012 29.4267C92.9404 29.4173 93.0914 29.4259 93.1619 29.2599C93.2309 29.0974 93.141 28.9647 93.0536 28.8514C92.876 28.6211 92.683 28.4046 92.4992 28.1797C92.1558 27.7593 91.718 27.4039 91.5337 26.8665C91.2634 26.0784 90.8884 25.3463 90.5611 24.589C90.4191 24.2606 90.1912 23.9953 89.8975 23.8423C88.6229 23.1786 87.3787 22.4404 86.0592 21.8836C83.6698 20.8753 81.2748 19.8797 78.8472 18.982C77.1457 18.3527 75.4413 17.7049 73.6606 17.3901C72.2071 17.1332 70.7286 17.0418 69.273 16.7956C66.6803 16.3569 64.0808 16.2251 61.4613 16.3661C58.5719 16.5217 55.7448 17.0726 52.9403 17.8015C51.2122 18.2506 49.5113 18.8036 47.7985 19.3109C47.0515 19.5321 46.2612 19.6079 45.5791 20.055C44.9577 20.4624 44.3167 20.8207 43.6401 21.1209C42.2848 21.7223 41.02 22.5176 39.7649 23.3284C38.9489 23.8554 38.1084 24.3424 37.3174 24.9093C36.1159 25.7705 35.0873 26.8639 34.0148 27.8953C33.6886 28.2091 33.2943 28.4666 33.0918 28.9033C32.8134 29.5035 32.4466 30.0377 32.0107 30.502C30.5637 32.0432 29.5337 33.8875 28.582 35.797C27.1684 38.6336 26.3385 41.7061 25.4335 44.7477C25.2653 45.3128 25.187 45.8853 25.308 46.5103C25.4249 47.1148 25.2571 47.7506 25.1648 48.3663C24.9354 49.8964 24.8381 51.431 25.2855 52.9284C26.1528 55.8309 27.959 57.8468 30.5123 59.1072C31.2393 59.4661 31.9889 59.7925 32.828 59.6183C32.9254 59.5981 33.0369 59.6265 33.1366 59.6543C33.3083 59.702 33.4794 59.7687 33.5029 59.9976C33.5262 60.2238 33.4153 60.382 33.2424 60.4863C33.1426 60.5466 33.0313 60.5944 32.9196 60.6208C32.0921 60.8163 31.2624 60.8372 30.4349 60.6232C29.6166 60.4115 28.8543 60.0458 28.1088 59.6339C27.6339 59.3715 27.1586 59.1087 26.6747 58.8666C26.1853 58.6217 25.9252 58.8257 25.9806 59.3942C26.0123 59.7202 26.1095 60.0269 26.2411 60.3219C26.9446 61.8984 27.9818 63.2069 29.1312 64.416C29.7092 65.0241 30.3544 65.5447 31.0264 66.0433C31.6799 66.5281 32.3351 66.9233 33.1026 67.1241C33.4306 67.2099 33.6541 67.1177 33.8517 66.8257C34.3987 66.0175 34.8947 65.1735 35.403 64.3381C36.1211 63.1577 36.8392 61.9771 37.4883 60.7505C37.5479 60.6379 37.6511 60.5069 37.5509 60.3714C37.4561 60.2433 37.3165 60.3008 37.1921 60.3251C36.3153 60.4963 35.5334 60.9673 34.6899 61.2445C34.6172 61.2684 34.5555 61.3407 34.496 61.3992C34.0674 61.8203 33.5844 62.0385 32.9966 61.8693C32.8358 61.823 32.6007 61.9065 32.5344 61.6917C32.4597 61.4497 32.6871 61.3251 32.8187 61.1796C32.9229 61.0644 33.0477 60.9668 33.1742 60.8796C33.6142 60.5764 34.0545 60.2734 34.5026 59.9844C35.7373 59.1878 37.0206 58.4807 38.2327 57.6427C38.3301 57.5754 38.5106 57.5295 38.4414 57.3515C38.3767 57.1849 38.2141 57.2091 38.0731 57.2401C37.4811 57.3702 36.89 57.5082 36.3192 57.7229C34.5981 58.37 32.8534 58.3242 31.0961 57.9452C30.9722 57.9185 30.8448 57.8792 30.7352 57.8142C30.4638 57.6532 30.4627 57.4551 30.7319 57.2897C31.008 57.12 31.3201 57.0586 31.6274 56.9951C32.8815 56.736 34.1395 56.498 35.3909 56.2249C36.5404 55.9741 37.6824 55.6827 38.7741 55.2081C39.1473 55.0458 39.4719 54.8023 39.6581 54.4019C39.8156 54.0634 39.7147 53.8888 39.3702 53.9185C39.0704 53.9444 38.7614 53.9705 38.4779 54.0682C37.343 54.4597 36.1916 54.4444 35.0289 54.2932C34.3109 54.1998 33.6679 53.8891 33.0443 53.5193C32.8449 53.4011 32.763 53.2214 32.8408 52.9851C32.9208 52.7417 33.1077 52.7408 33.303 52.7755C33.4061 52.7937 33.5087 52.8164 33.6123 52.8301C34.9713 53.0106 36.3194 53.0941 37.6177 52.4618C38.1977 52.1793 38.8136 52.0655 39.4541 52.1679C39.6062 52.1922 39.7539 52.1612 39.8972 52.0982C40.4881 51.8381 41.0797 51.5798 41.6717 51.3226C41.8458 51.2469 42.0028 51.1529 41.9149 50.9121C41.84 50.707 41.7081 50.5957 41.4782 50.6531C40.1805 50.9766 38.8632 50.7602 37.5552 50.8012C37.3009 50.8092 37.0507 50.6541 37.0294 50.3541C37.0074 50.0449 37.2293 49.909 37.5005 49.8614C38.1779 49.7426 38.8426 49.563 39.4963 49.3403C40.2555 49.0816 41.0231 48.8906 41.7105 48.3841C43.0391 47.405 44.3714 46.4274 45.8481 45.6954C46.5281 45.3583 47.2215 45.0208 47.94 44.9451C49.0671 44.8265 50.2164 44.8405 51.3246 45.2201C51.68 45.3419 52.0442 45.4199 52.4217 45.397C52.5748 45.3878 52.7382 45.3899 52.8185 45.2215C52.9061 45.0376 52.8629 44.8484 52.7515 44.6934C52.6027 44.4864 52.4387 44.2914 52.2743 44.098C51.5613 43.2596 50.8573 42.4054 50.0069 41.7249C48.7728 40.7374 46.104 40.3275 44.2252 41.8064C43.5469 42.3404 42.7561 42.6 41.9075 42.6203C41.6735 42.6259 41.4184 42.644 41.303 42.3628C41.1845 42.0742 41.3618 41.8594 41.5242 41.6653C41.7711 41.3701 42.109 41.2217 42.4348 41.056C42.7911 40.8747 43.1587 40.7142 43.4655 40.4371C43.5475 40.3629 43.6285 40.2828 43.5918 40.1535C43.5571 40.0311 43.4554 39.9881 43.3499 39.9692C43.2703 39.9549 43.1879 39.9522 43.107 39.9551C41.7292 40.0045 40.4127 40.3479 39.1759 40.9917C36.9145 42.1688 34.9364 43.776 33.2177 45.7361C32.6186 46.4194 32.0106 47.1258 31.7137 48.0508C31.6792 48.1586 31.6061 48.2507 31.4973 48.2792C30.956 48.421 30.5965 48.8162 30.2649 49.2643C29.8727 49.7943 29.3806 50.1376 28.7251 50.1605C27.4338 50.2056 26.3223 49.2923 26.1137 47.9169C25.923 46.6596 26.1607 45.4555 26.7376 44.3419C27.3116 43.2342 28.2798 42.5987 29.2631 42C31.4282 40.6818 33.8081 40.0715 36.2282 39.6019C36.6975 39.5108 37.1655 39.4163 37.5845 39.1499C37.7608 39.0378 37.9281 38.914 37.8878 38.6576C37.8465 38.3958 37.6331 38.3914 37.4529 38.372C36.7709 38.2989 36.0868 38.277 35.401 38.2688C34.305 38.2558 33.2184 38.1549 32.1982 37.6654C31.5515 37.355 31.0812 36.8924 30.9114 36.108C30.5679 34.521 31.2306 33.5476 32.7454 33.4451C33.8261 33.3721 34.8497 33.5792 35.8114 34.1223C36.7702 34.6637 37.7739 35.1108 38.804 35.4435C40.4593 35.978 42.1201 36.5038 43.8191 36.8711C44.801 37.0834 45.783 37.264 46.789 37.2276C47.0557 37.2179 47.3262 37.223 47.5697 37.0769C47.6583 37.0238 47.7769 36.9832 47.762 36.8423C47.7486 36.7147 47.6447 36.6611 47.5453 36.6237C47.3376 36.5457 47.1231 36.496 46.9214 36.3912C46.1583 35.9945 45.3867 35.6168 44.6231 35.2212C43.8243 34.8073 42.9651 34.4989 42.4265 33.6479C42.2334 33.3428 41.956 33.0982 41.7115 32.8319C41.0925 32.1577 40.4161 31.54 39.9008 30.7634C39.675 30.4229 39.3465 30.1318 39.3141 29.681C39.2948 29.412 39.245 29.163 39.1278 28.93C38.9489 28.5741 38.9308 28.1915 38.9457 27.801C38.9501 27.6865 38.951 27.5612 39.0665 27.5136C39.2091 27.4548 39.2774 27.5855 39.3418 27.6836C39.5561 28.01 39.7626 28.3422 39.9731 28.6715C40.38 29.3081 40.7419 29.9789 41.2957 30.4967C42.7686 31.8737 44.3802 33.0177 46.157 33.8902C47.7121 34.6538 49.2844 35.3675 50.971 35.7307C51.3572 35.8139 51.7515 35.8807 52.1477 35.833C52.3351 35.8104 52.5237 35.7285 52.575 35.5052C52.6251 35.287 52.4836 35.1543 52.323 35.0627C51.05 34.3368 49.9435 33.3695 48.8988 32.3173C47.9125 31.3238 47.1781 30.1682 46.9072 28.7079C46.6996 27.589 46.7566 26.4709 46.8573 25.3526C46.8897 24.9934 47.0321 24.658 47.2961 24.3976C47.4922 24.2041 47.6986 24.2339 47.9126 24.3226C48.1244 24.4103 48.1051 24.6153 48.0885 24.8008C48.0742 24.961 48.0356 25.1191 48.0025 25.2768C47.9335 25.6054 47.8759 25.9299 47.9028 26.2747C47.9773 27.228 48.347 28.0517 48.8377 28.823C49.0654 29.181 49.2524 29.6135 49.6412 29.7843C50.1166 29.9931 50.5087 30.3113 50.8847 30.6642C51.6913 31.4212 52.5777 31.9687 53.6835 32.0248C54.1119 32.0466 54.5329 32.1524 54.9337 32.3379C55.046 32.3899 55.1828 32.3923 55.3089 32.3965C56.5068 32.4362 57.6986 32.3452 58.8905 32.2204C60.1544 32.088 61.4141 32.0542 62.6291 32.5754C63.1465 32.7973 63.6748 32.9905 64.2001 33.1909C65.0609 33.5193 65.8754 33.9389 66.5536 34.6115C68.107 36.152 68.5667 38.0832 68.2571 40.2685C68.1398 41.0971 67.8503 41.8564 67.2896 42.4684C67.2085 42.5569 67.1278 42.667 66.9962 42.6328C66.8498 42.5947 66.8182 42.4461 66.7879 42.3136C66.766 42.2177 66.7635 42.1161 66.7577 42.0167C66.7206 41.3774 66.6229 40.7522 66.3704 40.1659C65.9635 39.2207 65.2346 38.7045 64.3588 38.3265C62.9644 37.7247 61.496 37.6094 60.072 37.853C58.5963 38.1056 57.4861 39.1229 56.8844 40.6468C56.5658 41.4536 56.3111 42.2901 56.5832 43.1894C56.8062 43.9266 57.1628 44.5788 57.6693 45.1282C58.0499 45.5412 58.5151 45.7904 59.0648 45.8025C59.4195 45.8103 59.5532 45.5995 59.4261 45.245C59.3218 44.9542 59.196 44.6721 59.0737 44.3892C58.6897 43.5006 58.6359 42.6083 59.0714 41.7243C60.1406 39.5534 63.1047 39.1409 64.6798 40.9215C65.6534 42.0221 66.0899 44.8903 64.3415 46.0735C64.0501 46.2707 63.7601 46.4896 63.527 46.7732C63.3972 46.9312 63.2236 47.0988 63.2981 47.3249C63.3792 47.5713 63.6204 47.5951 63.8295 47.5966C64.43 47.6011 65.0063 47.4636 65.5529 47.1969C66.8504 46.5637 67.7724 45.4549 68.6684 44.3204C68.8142 44.1358 68.9044 43.8884 68.9809 43.6551C69.267 42.7835 69.5028 41.8951 69.7003 40.9952C69.8602 40.267 69.9698 39.5205 70.1907 38.8142C70.7332 37.0796 72.1287 36.3311 73.5843 35.906C74.6632 35.5908 75.7774 35.9673 76.622 36.8977C76.9725 37.2837 76.9096 37.6209 76.439 37.837C76.3222 37.8907 76.1965 37.9227 76.0737 37.9601C75.5109 38.1315 75.0049 38.4254 74.493 38.7272C73.0738 39.5641 73.1925 42.4949 74.7036 43.2309C75.318 43.5302 75.9333 43.7427 76.6094 43.7486C77.7311 43.7585 78.8422 43.688 79.8891 43.2011C80.3249 42.9984 80.692 42.695 80.8673 42.1914C80.973 41.8876 80.8965 41.7639 80.5989 41.7662C80.3303 41.7683 80.0713 41.8445 79.8092 41.9003C79.2343 42.0226 78.6563 42.0954 78.1016 41.8081C76.7321 41.0987 76.6735 39.1875 77.2864 38.1756C78.1977 36.6709 80.2952 36.2926 81.6316 37.3638C82.4785 38.0426 83.0792 38.9372 83.6073 39.9008C83.9201 40.4714 83.9722 40.4746 84.4147 40.0338C84.8915 39.5589 85.3568 39.0682 85.858 38.6247C86.9869 37.6257 88.161 36.7599 89.758 37.0414C90.8624 37.2361 91.957 37.4501 92.9794 37.9572C94.2683 38.5965 95.1675 39.6567 95.4687 41.1348C95.7123 42.3304 95.5318 43.541 95.0117 44.6701C94.5985 45.567 93.9338 46.0559 93.0273 46.1739C92.4519 46.2488 91.8612 46.2717 91.4673 45.699C91.0005 45.0206 90.7263 44.2541 90.7742 43.3942C90.818 42.6074 91.1736 42.0546 91.8923 41.8052C92.3945 41.6308 92.9117 41.5676 93.4364 41.5551C93.6159 41.5508 93.8239 41.6174 93.9096 41.3583C93.9851 41.1302 93.9113 40.9467 93.7576 40.784C93.4514 40.46 93.1491 40.1318 92.8457 39.8047C92.7343 39.6846 92.6112 39.6026 92.4432 39.6323C92.0922 39.6945 91.7763 39.5775 91.4758 39.3996C90.911 39.0653 90.3094 39.0115 89.684 39.1108C88.7973 39.2516 87.9788 39.5902 87.2169 40.0901C86.8284 40.3451 86.4779 40.6483 86.2043 41.0482C85.49 42.0926 85.481 43.2663 85.8097 44.4149C86.3223 46.2063 87.3336 47.6919 88.608 48.9498C89.8761 50.2014 91.3819 51.0734 92.9128 51.8964C94.1368 52.5545 95.4092 53.1128 96.5402 53.9642C98.0267 55.0833 99.4198 56.3005 100.286 58.0643C100.868 59.2492 101.268 60.5173 101.642 61.7916C101.843 62.4774 101.639 63.1977 101.749 63.8954C101.755 63.9379 101.724 63.9913 101.702 64.0343C101.578 64.2713 101.547 64.527 101.555 64.794C101.565 65.1599 101.499 65.5132 101.397 65.8615C101.129 66.7811 100.795 67.6733 100.37 68.5206C99.7694 69.7157 99.0689 70.8299 97.9775 71.5821C97.0238 72.2394 95.9491 72.4734 94.8422 72.6122C92.3825 72.9206 90.3037 72.1792 88.6667 70.1249C87.2081 68.2946 86.9229 65.7886 87.9786 63.857C88.3973 63.091 89.0268 62.7202 89.8448 62.6906C90.2206 62.677 90.5866 62.7366 90.9471 62.8404C92.3521 63.2451 93.1797 64.4541 93.0919 66.0018C93.0592 66.5788 92.903 67.1233 92.4248 67.4609C91.8535 67.8643 91.2042 67.996 90.5287 67.9671C90.3155 67.958 90.0926 67.901 89.9771 68.1534C89.8534 68.4238 89.8902 68.6839 90.092 68.911C90.3664 69.22 90.6816 69.4744 91.0013 69.7243C92.2825 70.7256 93.677 71.013 95.1894 70.4616C96.0993 70.1298 96.8118 69.4623 97.5349 68.8112C98.2669 68.152 98.7993 67.3934 98.8394 66.3183C98.8495 66.0446 99.0229 65.8389 99.2141 65.6657C99.3307 65.5601 99.4442 65.4571 99.4708 65.2807C99.5431 64.7998 99.5893 64.3209 99.5768 63.8291C99.5457 62.6093 99.209 61.4743 98.8216 60.3461C98.681 59.9364 98.4846 59.5848 98.1693 59.3059C97.8972 59.0652 97.6712 58.7879 97.576 58.404C97.5447 58.278 97.4626 58.1557 97.3778 58.0577C96.4174 56.9463 95.3053 56.0606 94.0009 55.4661C92.5897 54.8229 91.1765 54.1842 89.8348 53.3812C88.7648 52.7408 87.6559 52.1914 86.7941 51.1819C86.1388 50.4144 85.4388 49.7129 85.1037 48.7029C84.9696 48.2986 84.7435 47.9485 84.4862 47.6235C84.3034 47.3927 84.1285 47.4226 83.9831 47.6706C83.8366 47.9205 83.7855 48.1988 83.7782 48.4919C83.7735 48.6781 83.7612 48.8666 83.7273 49.0486C83.6987 49.2021 83.5999 49.3243 83.4526 49.3572C83.3023 49.3908 83.2067 49.2616 83.1515 49.1463C83.0191 48.8697 82.9038 48.5824 82.7989 48.2923C82.6968 48.0095 82.5688 47.7455 82.3812 47.5196C82.1387 47.2274 81.9041 47.2495 81.7028 47.578C81.5267 47.8652 81.5169 48.1888 81.5338 48.5167C81.5528 48.8869 81.5035 49.2405 81.3082 49.5553C81.099 49.8925 80.8905 49.8863 80.7084 49.537C80.5481 49.2297 80.4583 48.8929 80.3681 48.5566C80.3007 48.3051 80.2541 48.0447 80.1301 47.815C79.8422 47.2818 79.4784 47.2552 79.1213 47.7318C78.8285 48.1226 78.591 48.5508 78.366 48.9881C78.2303 49.2519 78.0726 49.5222 77.7473 49.3452C77.4472 49.1819 77.5252 48.8959 77.6376 48.6278C77.7091 48.457 77.7709 48.2847 77.7708 48.0899C77.7705 47.6761 77.5737 47.5204 77.2101 47.6582C77.0289 47.727 76.9017 47.8782 76.7624 48.0082C76.5078 48.2458 76.2482 48.4735 75.9639 48.6711C74.6389 49.5923 73.1428 49.8536 71.6128 49.957C70.4071 50.0385 69.25 50.3216 68.1203 50.7716C66.3617 51.4722 64.9374 52.7077 63.5633 54.026C63.2288 54.3468 63.1932 54.3415 63.0447 53.8727C62.8987 53.4119 62.7655 52.9459 62.6055 52.4908C62.2561 51.4975 61.8687 50.5914 60.9447 49.9613C60.2279 49.4725 59.4844 49.1719 58.7013 49.0703C57.3784 48.8986 56.1409 49.3126 55.0525 50.1477C53.5558 51.2961 52.8216 52.8599 53.1111 54.8357C53.3082 56.1802 54.1272 57.1352 55.1686 57.8592C55.8782 58.3525 56.6727 58.4105 57.4861 58.2931C57.7109 58.2607 57.9212 58.1731 57.9833 57.8959C58.0413 57.6375 57.9064 57.4617 57.7362 57.3195C57.3697 57.0133 56.9905 56.7245 56.6252 56.4167C55.6778 55.6184 55.4172 53.7553 56.1259 52.713C57.2669 51.0352 58.8677 50.7638 60.5312 51.7399C61.8728 52.5271 62.236 54.2452 61.4274 55.641C61.2516 55.9445 61.1359 56.2659 61.1276 56.6245C61.1236 56.7956 61.086 56.9977 61.2547 57.101C61.4195 57.2019 61.5713 57.0863 61.7048 56.9888C62.205 56.6235 62.6759 56.2172 63.127 55.7849C64.1158 54.8373 65.1199 53.9073 66.2457 53.1512C67.5832 52.2528 69.0138 51.607 70.6203 51.5835C71.4085 51.572 72.2011 51.607 72.9859 51.687C74.6395 51.8557 76.2739 51.8782 77.8888 51.3525C78.3735 51.1947 78.8963 51.1765 79.4106 51.2061C79.5707 51.2152 79.7132 51.2618 79.7951 51.4179C79.8878 51.5944 79.7814 51.7373 79.6863 51.8567C79.475 52.122 79.2211 52.3516 79.0312 52.6322C78.5178 53.3908 77.8247 53.7487 76.9815 53.9619C75.9059 54.234 74.8537 54.5895 73.7302 54.5072C73.2096 54.469 72.6946 54.3616 72.1679 54.3937C71.0864 54.4597 70.0185 54.6167 68.9677 54.9012C67.8273 55.21 66.6884 55.5306 65.7727 56.3895C65.0118 57.1031 64.2655 57.8348 63.5122 58.5579C63.3065 58.7554 63.3573 58.9557 63.5139 59.1458C64.0029 59.7394 64.5674 60.2382 65.2129 60.62C65.6382 60.8716 65.8862 60.7228 65.9789 60.2018C66.0551 59.773 66.1138 59.3397 66.21 58.9161C66.3184 58.4384 66.6927 58.2385 67.1249 58.3967C67.3781 58.4893 67.5696 58.6626 67.694 58.9178C67.8287 59.1942 67.9543 59.4759 68.0964 59.7478C68.1996 59.9451 68.3187 60.1572 68.5749 60.099C68.8266 60.0418 68.9512 59.8292 68.9354 59.5722C68.8886 58.8143 69.3918 58.3473 69.7257 57.7934C69.8829 57.5328 70.1498 57.4765 70.3629 57.6725C70.8713 58.1401 71.4242 58.5772 71.6571 59.3026C71.6832 59.3838 71.722 59.4659 71.773 59.5313C71.8813 59.6702 72.0181 59.7765 72.1963 59.728C72.376 59.6791 72.3855 59.5052 72.4103 59.3408C72.4826 58.8605 72.5599 58.381 72.6438 57.903C72.6849 57.6688 72.7689 57.4475 72.8822 57.2424C73.1134 56.8237 73.456 56.629 73.9072 56.702C74.3368 56.7715 74.5773 57.0702 74.682 57.5076C74.7254 57.6888 74.7469 57.8767 74.7992 58.0546C74.9003 58.3985 75.0931 58.657 75.449 58.7003C75.8075 58.7439 75.9563 58.4572 76.0961 58.178C76.2169 57.9368 76.3023 57.6763 76.4596 57.4547C76.771 57.016 77.2004 56.9176 77.6734 56.9775C78.0673 57.0274 78.2129 57.37 78.3434 57.7102C78.4457 57.9766 78.5052 58.2564 78.5492 58.5409C78.6277 59.0486 78.6285 59.5604 78.6252 60.072C78.6218 60.6182 78.8306 61.0023 79.3175 61.203C79.569 61.3066 79.7862 61.4776 79.9857 61.6709C81.5307 63.1678 82.8069 64.8906 83.6522 66.9401C84.9083 69.9858 85.3313 73.2361 85.5648 76.5206C85.6764 78.0896 85.6279 79.6652 85.6375 81.2381C85.6397 81.597 85.6025 81.9263 85.4111 82.2345C85.2611 82.4761 85.1724 82.7631 85.1892 83.0512C85.2315 83.775 85.0953 84.4601 84.9002 85.1464C84.5236 86.4708 84.2385 87.8313 83.7199 89.1006C82.9013 91.1047 81.725 92.872 80.4074 94.5298C79.7121 95.4046 78.959 96.2181 78.0189 96.8004C77.6083 97.0547 77.1667 97.1935 76.694 97.2141C76.5565 97.2201 76.3824 97.2453 76.3193 97.0895C76.2585 96.9393 76.419 96.8534 76.5055 96.7638C76.7395 96.5214 76.9899 96.2975 77.2234 96.0547C78.8689 94.344 80.0223 92.2746 80.9852 90.0687C81.1921 89.5949 81.4434 89.133 81.5452 88.6194C81.7322 87.6759 82.0314 86.7718 82.3141 85.861C82.7146 84.5705 83.1667 83.2904 82.9553 81.8842C82.9376 81.767 82.9733 81.6361 83.0014 81.5162C83.2356 80.5152 83.274 79.4913 83.2788 78.469C83.2864 76.8405 83.054 75.2348 82.7913 73.6369C82.3286 70.8232 81.6555 68.0772 80.4137 65.527C79.982 64.6402 79.5337 63.7576 78.7352 63.1749C78.0548 62.6783 77.3344 62.5258 76.5709 62.9672C76.2479 63.1539 76.0598 63.4183 76.0939 63.8401C76.1333 64.3274 76.2057 64.7973 76.3833 65.257C76.7931 66.3178 77.4066 67.2755 77.7357 68.3762C77.7956 68.5768 77.8151 68.8132 77.9615 68.9582C78.2448 69.2389 78.3339 69.6126 78.445 69.9783C79.0297 71.9042 79.0621 73.9042 79.1321 75.8989ZM33.8727 82.5232C33.4893 82.5232 33.1051 82.5067 32.7225 82.5267C32.0101 82.5639 31.4369 82.2561 30.9393 81.7421C30.6416 81.4345 30.48 81.0735 30.484 80.6125C30.4918 79.7241 30.7221 78.8884 30.9529 78.05C31.1407 77.3677 31.3278 76.6872 31.3511 75.9658C31.3617 75.6363 31.2591 75.44 30.983 75.2848C29.6123 74.5147 28.2916 73.6573 27.0698 72.6312C26.5604 72.2034 26.0848 71.7538 25.8829 71.06C25.8661 71.0023 25.8337 70.9421 25.7929 70.9014C25.1648 70.2747 24.797 69.4515 24.4296 68.6551C23.5812 66.8159 22.4488 65.0718 22.5501 62.8686C22.5606 62.639 22.4383 62.4297 22.1928 62.3785C21.9327 62.3243 21.7014 62.3716 21.5725 62.6563C21.5172 62.7786 21.4675 62.907 21.4367 63.0384C21.3366 63.4647 21.3183 63.9037 21.3164 64.339C21.3136 64.9749 21.1519 65.6434 21.3398 66.2388C21.5752 66.9851 21.6449 67.7459 21.7596 68.5068C21.973 69.9234 22.4658 71.2466 22.9702 72.5612C23.8499 74.8539 24.918 77.0377 26.3261 79.0147C27.0903 80.0875 27.9392 81.0773 28.8621 81.9947C28.9525 82.0845 29.0804 82.178 29.0223 82.3382C28.962 82.5046 28.8057 82.5176 28.6668 82.5157C28.2001 82.5095 27.7748 82.3654 27.4091 82.044C27.0046 81.6884 26.6254 81.2909 26.1888 80.9891C25.8302 80.7413 25.4388 80.5479 25.1098 80.2461C24.0473 79.2712 23.3059 78.0396 22.6761 76.7212C22.4805 76.3118 22.2169 75.9094 22.1876 75.4497C22.159 74.9994 21.9655 74.7381 21.6378 74.5289C21.2998 74.3132 21.0538 74.0438 21.1032 73.5665C21.116 73.4425 21.0453 73.3006 20.9914 73.1779C20.5568 72.1893 20.2754 71.1465 20.0716 70.0815C19.7154 68.2188 19.4845 66.3402 19.5597 64.4313C19.5694 64.1833 19.5056 63.9577 19.2873 63.8774C19.0548 63.7919 19.0107 64.0597 18.9357 64.2072C18.4071 65.2476 18.1533 66.3916 17.8754 67.5258C17.858 67.5969 17.8589 67.6745 17.859 67.7492C17.8608 69.6844 17.8647 71.6197 17.8651 73.555C17.8651 73.797 17.9137 74.0213 17.9995 74.2449C18.2668 74.9412 18.4081 75.6723 18.5219 76.4139C18.6571 77.2957 18.6209 78.2123 18.9933 79.0477C19.3248 79.7915 19.5965 80.562 19.8356 81.3458C20.4177 83.2539 21.1637 85.0812 22.2705 86.709C22.8843 87.6117 23.1823 88.722 23.9462 89.5275C24.1678 89.7611 24.2738 90.1256 24.4914 90.3891C24.6227 90.5481 24.7614 90.6993 24.6771 90.9501C24.6373 91.0688 24.7222 91.1557 24.8277 91.1415C25.1025 91.1043 25.2227 91.3012 25.3441 91.5022C25.439 91.6593 25.5533 91.8146 25.3923 92.0053C25.2295 92.1982 25.0648 92.1454 24.8956 92.0234C23.8611 91.2778 22.8933 90.4179 22.0469 89.4606C21.2657 88.5769 20.6005 87.5482 20.0402 86.4584C19.359 85.1334 18.826 83.7361 18.2196 82.3747C17.8244 81.4873 17.3827 80.6358 17.1877 79.6491C16.8309 77.8438 16.3177 76.0746 16.1247 74.2313C15.9317 72.3885 16.0197 70.5395 16.0258 68.6933C16.0285 67.8845 16.1396 67.0854 16.3822 66.3023C16.5716 65.6907 16.71 65.0517 16.7532 64.4007C16.7669 64.1939 16.7989 63.9199 16.5738 63.8467C16.3364 63.7694 16.1661 63.9743 16.0473 64.1851C15.9754 64.3126 15.9269 64.4551 15.8652 64.5894C15.5621 65.2499 15.3444 65.9479 15.0862 66.627C14.2968 68.7029 14.1512 70.8734 14.2343 73.0614C14.2738 74.1026 14.4297 75.1415 14.3865 76.191C14.3835 76.2656 14.3906 76.3407 14.3938 76.4155C14.4904 78.6189 15.0142 80.725 15.6509 82.806C16.6893 86.2005 18.1175 89.4027 19.7805 92.4892C20.0016 92.8996 20.2507 93.2935 20.4561 93.7124C20.5639 93.9322 20.8505 93.9825 20.8792 94.2363C20.9107 94.5149 21.0552 94.7201 21.182 94.9413C23.2871 98.6151 25.8024 101.903 28.986 104.57C31.4635 106.644 34.1735 108.254 37.1493 109.34C37.4681 109.456 37.7923 109.556 38.115 109.66C38.3015 109.719 38.4859 109.742 38.6147 109.536C38.7332 109.346 38.6612 109.181 38.5468 109.023C38.511 108.974 38.4785 108.922 38.4444 108.872C37.7484 107.837 37.1454 106.746 36.6557 105.58C35.8959 103.772 35.2685 101.902 34.4321 100.129C34.2646 99.7742 34.174 99.3788 34.1497 98.9762C34.1148 98.3975 34.26 98.2048 34.7968 98.2255C35.4454 98.2506 36.0965 98.2985 36.7389 98.395C38.4386 98.6503 40.1404 98.6762 41.8431 98.4829C43.243 98.324 44.389 97.5179 45.5313 96.7209C45.7053 96.5995 45.8923 96.4891 46.024 96.308C46.1805 96.0927 46.162 95.8609 46.0423 95.6433C45.9209 95.4227 45.7402 95.5259 45.5759 95.5812C45.2781 95.6815 44.9802 95.8681 44.6661 95.7824C43.7835 95.5418 42.7978 95.5595 42.1548 94.678C42.0786 94.5735 41.957 94.5056 41.8523 94.4271C41.1968 93.9361 40.7888 93.259 40.5368 92.4542C40.4299 92.1129 40.326 91.7635 40.1121 91.4744C39.9893 91.3084 39.8668 91.1247 39.6358 91.1483C39.3891 91.1735 39.3273 91.4023 39.2749 91.5996C39.1316 92.1394 38.9734 92.6795 38.8897 93.2315C38.7528 94.1335 38.2704 94.7784 37.6446 95.3257C36.9547 95.9291 36.1437 96.3175 35.3616 96.7553C35.2679 96.8078 35.1659 96.8239 35.0573 96.8117C34.704 96.772 34.3644 96.843 34.0343 96.9754C33.6043 97.1478 33.1564 97.2077 32.7016 97.2173C32.3472 97.2248 32.1019 97.0526 31.8944 96.7337C31.6672 96.3844 31.7082 95.999 31.6558 95.6224C31.4858 94.3994 31.2604 93.1865 30.9809 91.9884C30.4566 89.7413 30.2881 87.4614 30.3549 85.1544C30.3666 84.75 30.4441 84.6763 30.8177 84.6954C31.2095 84.7153 31.5667 84.8566 31.9103 85.0476C32.4049 85.3226 32.8913 85.6104 33.4369 85.7688C34.3589 86.0367 35.2961 86.2187 36.2424 86.3277C36.9913 86.4139 37.7612 86.5419 38.4969 86.4412C39.3219 86.3282 40.1555 86.2261 40.9749 86.0482C41.4565 85.9436 41.9189 85.7794 42.3343 85.4916C42.5241 85.36 42.6976 85.1797 42.6745 84.9201C42.6494 84.6378 42.3941 84.6135 42.1979 84.5623C41.6536 84.4202 41.1286 84.2231 40.6288 83.9539C39.6338 83.4182 38.6314 82.3346 38.7974 80.6801C38.8211 80.4445 38.8457 80.2089 38.8745 79.974C38.9012 79.7552 38.8656 79.5683 38.6481 79.4894C38.4317 79.411 38.2949 79.5365 38.1896 79.7231C38.1113 79.8618 38.0296 79.9984 37.9534 80.1384C37.7184 80.5707 37.4709 80.9932 37.1164 81.3276C36.3475 82.0531 35.5648 82.7382 34.4297 82.5268C34.2492 82.4932 34.0586 82.5221 33.8727 82.5232ZM42.3527 75.7216C43.1281 75.7109 43.8696 75.5161 44.586 75.2086C45.0257 75.0199 45.3087 74.6705 45.3954 74.1627C45.4675 73.7409 45.2997 73.5606 44.899 73.5948C44.3325 73.6432 43.7699 73.7183 43.1962 73.6849C42.3039 73.6331 41.7526 73.1347 41.4658 72.2634C41.3501 71.9118 41.2864 71.5407 41.1879 71.1821C41.0634 70.729 40.7901 70.6489 40.4736 70.9689C40.2018 71.2437 39.9166 71.4986 39.5848 71.686C38.5506 72.2699 37.4609 72.2278 36.3566 72.0106C35.4313 71.8286 34.7876 71.256 34.3608 70.3682C34.0559 69.734 33.7922 69.0829 33.5976 68.4006C33.3903 67.674 33.3916 67.6942 32.6734 67.6205C31.4081 67.4906 30.2145 67.1193 29.1442 66.3471C28.1454 65.6266 27.2616 64.7634 26.4131 63.8549C26.1831 63.6086 25.9684 63.3454 25.7531 63.0837C25.3747 62.6238 25.1745 62.0666 25.011 61.4898C24.9647 61.3265 24.8865 61.1877 24.7027 61.1848C24.5317 61.1822 24.4253 61.2899 24.3475 61.4421C24.2607 61.6121 24.2426 61.795 24.2435 61.9853C24.2525 63.8602 24.8193 65.5595 25.6546 67.1743C25.7501 67.3589 25.8806 67.5251 25.9142 67.7413C25.9946 68.2585 26.2223 68.7037 26.4867 69.1344C27.1161 70.1595 27.8624 71.0834 28.648 71.968C29.2643 72.6619 29.8729 73.3684 30.5601 73.9851C31.1759 74.5377 31.6747 74.3301 31.8032 73.4722C31.8455 73.1899 31.8339 72.8971 31.8877 72.6182C31.9835 72.1218 32.2983 71.9395 32.7429 72.0961C33.2552 72.2766 33.6404 72.6622 34.0272 73.0395C34.4028 73.4058 34.8135 73.7116 35.3073 73.8454C36.1104 74.0631 36.9136 74.2642 37.7055 73.7607C38.5983 73.193 39.1719 73.3103 39.7425 74.2593C40.367 75.298 41.2262 75.7597 42.3527 75.7216ZM39.9214 60.5278C39.92 60.5278 39.9187 60.5278 39.9173 60.5278C39.9173 60.6527 39.916 60.7775 39.9175 60.9023C39.9343 62.2881 40.2088 63.6003 40.8936 64.7915C42.1742 67.0189 44.2383 67.4997 46.3825 67.1953C47.7886 66.9956 48.86 66.1266 49.7348 64.9236C50.5096 63.8582 51.0331 62.748 50.7947 61.3546C50.7926 61.3425 50.7946 61.3297 50.7938 61.3172C50.6868 59.705 50.1413 58.3781 48.677 57.6926C47.7547 57.2609 46.7752 57.1421 45.7779 57.2454C45.2486 57.3002 44.7686 57.5232 44.3353 57.8567C44.0164 58.1021 43.8183 58.4439 43.7671 58.8498C43.7282 59.1583 43.6039 59.554 43.8628 59.7692C44.127 59.9888 44.4668 59.8139 44.7567 59.6836C45.0354 59.5583 45.3081 59.4208 45.6146 59.3884C47.3528 59.205 48.6856 60.8646 48.3141 62.7515C47.8812 64.9497 45.513 66.193 43.6052 65.1547C41.8793 64.2153 40.9902 62.6304 40.8975 60.5582C40.8726 60.0023 40.9679 59.4404 41.0042 58.8809C41.0248 58.5636 40.9153 58.4659 40.6339 58.5397C40.2011 58.6534 39.9469 58.9766 39.9244 59.4797C39.9088 59.8283 39.9214 60.1784 39.9214 60.5278ZM40.7512 109.96C42.7639 109.844 45.5039 109.238 47.5869 108.443C49.0292 107.893 50.4051 107.202 51.587 106.136C52.141 105.637 52.563 105.027 52.6182 104.211C52.6536 103.688 52.5731 103.625 52.1179 103.777C51.7964 103.885 51.475 103.993 51.1566 104.111C50.3105 104.423 49.4407 104.422 48.5727 104.296C47.7022 104.17 46.9885 103.683 46.3558 103.048C46.0164 102.708 45.6977 102.339 45.3309 102.037C44.848 101.639 44.5034 101.808 44.4178 102.44C44.4011 102.563 44.397 102.688 44.3813 102.812C44.2527 103.823 44.2367 104.857 43.9022 105.829C43.5531 106.843 43.063 107.729 42.1319 108.282C41.5452 108.63 41.0157 109.09 40.5098 109.57C40.4203 109.655 40.2578 109.722 40.3303 109.888C40.3881 110.02 40.5343 109.967 40.647 109.968C40.6817 109.968 40.7164 109.962 40.7512 109.96ZM54.3735 6.94347C54.3331 7.8238 54.2118 8.70866 54.487 9.57201C54.4943 9.59487 54.4906 9.62159 54.493 9.64642C54.5688 10.4359 54.9299 11.0842 55.3901 11.6732C55.6096 11.9542 55.8913 11.9966 56.2053 11.8091C56.543 11.6073 56.8512 11.3638 57.1366 11.0893C57.9777 10.2803 58.9119 9.6904 60.064 9.57465C60.2468 9.55629 60.4296 9.49747 60.6037 9.43112C60.8446 9.33931 61.1407 9.23028 61.1523 8.92947C61.1635 8.63924 60.8453 8.58746 60.6438 8.49069C58.8671 7.63735 57.1604 6.67199 55.7175 5.2291C55.175 4.6866 54.5697 4.95673 54.4259 5.75056C54.3544 6.14556 54.3582 6.5446 54.3735 6.94347ZM23.2373 57.5728C23.7485 57.5616 24.5294 57.1202 25.1616 56.3649C25.4154 56.0617 25.545 55.6816 25.5505 55.2671C25.558 54.7063 25.2478 54.4959 24.7977 54.7492C23.5934 55.4269 22.3723 54.863 22.0135 53.456C21.813 52.6699 21.7223 51.8662 21.7341 51.051C21.7376 50.8146 21.6613 50.6411 21.4645 50.5303C21.2552 50.4126 21.0861 50.4928 20.9268 50.6457C20.5023 51.0535 20.0922 51.477 19.7395 51.9585C19.4539 52.3484 19.2763 52.7916 19.2259 53.2891C18.9881 55.639 20.5884 57.5654 23.2373 57.5728Z" fill="url(#paint0_linear_544_54)"/>
<defs>
<linearGradient id="paint0_linear_544_54" x1="1.73181" y1="64" x2="128.268" y2="64" gradientUnits="userSpaceOnUse">
<stop stop-color="#495057"/>
<stop offset="1" stop-color="#6C757D"/>
</linearGradient>
</defs>
</svg>
