<svg width="138" height="138" viewBox="0 0 138 138" fill="none" xmlns="http://www.w3.org/2000/svg">
<path d="M96.2193 1.75238C98.4782 5.33474 96.9115 9.60234 95.8003 13.2888C96.743 13.2628 97.6857 13.2237 98.6284 13.2281C97.4626 15.0756 95.3358 16.2336 94.4614 18.2547C93.8375 20.5446 93.6599 22.995 92.5806 25.1461C90.9456 26.599 88.5183 26.9243 86.9744 28.4943C85.8632 29.6003 84.6154 30.6281 83.7957 31.9639C83.1763 32.9571 84.4241 33.8115 84.3558 34.8133C84.374 35.7631 84.0553 37.0599 82.8985 37.2507C82.0469 37.5239 81.2636 36.9861 80.4985 36.7129C80.6169 37.7451 80.453 38.76 80.0886 39.7315C79.196 39.9006 78.2989 40.0567 77.4017 40.2085C77.2696 40.9849 77.0738 41.7655 77.0966 42.5592C77.3835 43.4786 78.0575 44.2289 78.522 45.0747C76.3998 44.5933 74.4461 43.1534 73.7174 41.1627C73.5444 39.996 73.9178 38.8424 73.9952 37.6844C73.0753 37.8622 72.169 38.0964 71.2992 38.4304C71.5724 39.584 72.925 40.5685 72.3057 41.8046C71.6681 42.5419 70.6206 42.6199 69.728 42.8931C69.2271 44.4675 69.4502 46.0808 70.2608 47.5164C68.4529 46.9699 67.6468 45.2004 67.0047 43.6521C66.5174 41.7048 67.1185 39.7271 67.4783 37.8102C66.8453 38.4694 66.3762 39.2978 65.5883 39.8052C64.6502 39.8486 63.712 39.5537 62.7784 39.7185C61.7173 41.3231 62.4505 43.1924 63.0653 44.8058C61.1845 43.6868 59.6452 41.7742 59.9685 39.5493C59.8091 37.9229 61.1253 36.7476 62.3412 35.8325C63.3659 35.0996 63.9215 33.9112 64.9872 33.239C66.1485 33.4732 67.2597 33.9503 68.4574 33.998C69.7144 33.5079 70.1607 31.7384 71.6635 31.7948C72.5743 32.0853 73.2392 32.8053 74.0089 33.3214C75.53 31.8468 77.7797 31.3611 79.2279 29.7997C80.1296 28.8196 81.2955 27.8524 81.6325 26.56C81.2181 24.8426 80.8537 23.1164 80.8719 21.3426C80.5941 21.4293 80.0431 21.6028 79.7653 21.6896C79.6059 23.3029 80.1251 24.8903 80.0158 26.495C78.9957 27.705 77.7296 28.7242 76.4954 29.7304C75.2795 30.0426 73.977 30.2074 72.7337 29.9515C68.2434 28.9367 63.5936 30.6498 59.9686 33.1175C57.564 34.4924 54.6493 33.6033 52.1264 33.0568C52.4452 31.9422 52.855 30.8536 53.151 29.7347C49.0797 30.6801 44.9126 31.6126 41.2192 33.5686C41.3786 30.3766 44.2022 28.2948 45.9191 25.814C46.6614 24.3872 47.2489 22.8736 47.595 21.3122C42.6584 22.648 38.2727 25.9615 36.2689 30.5197C35.5949 32.2501 34.5657 33.8895 34.4199 35.7674C36.7243 32.0246 38.3547 27.5011 42.376 25.0507C43.3506 24.4782 44.4754 23.6889 45.6777 24.166C42.6811 27.0674 39.8576 30.3158 38.5961 34.2755C39.3111 34.2408 40.0261 34.2061 40.7456 34.1714C40.8048 34.5791 40.9232 35.3901 40.9779 35.7978C42.3623 34.8176 43.6511 33.6293 45.3316 33.1306C47.4311 32.48 49.535 31.8251 51.7074 31.4261C51.4933 32.827 49.6352 32.8356 48.7335 33.7204C46.584 35.633 43.9927 37.0469 42.0117 39.1373C42.2803 39.4539 42.5536 39.7662 42.8314 40.0741C42.5581 40.5165 42.3031 40.9675 42.0617 41.4272C45.1995 41.7829 49.3848 41.5357 51.1927 44.5195C49.8675 44.4241 48.5377 44.0728 47.2124 44.3634C44.817 44.7754 42.376 45.066 40.1126 45.9551C40.3494 46.636 40.5862 47.3125 40.8094 48.0021C39.2928 47.9761 37.7763 47.9804 36.2598 47.9718C34.9755 50.1793 36.0503 52.595 37.1251 54.6377C36.5831 54.8199 36.0412 55.015 35.5038 55.2145C36.3418 56.1427 37.6625 56.1904 38.7964 56.5764C38.7737 57.0621 38.7509 57.5522 38.7327 58.0423C37.5577 58.7752 36.3964 59.5689 35.6222 60.7139C34.5702 62.3316 32.366 62.4096 30.5854 62.5137C31.6374 61.5813 32.999 60.8526 33.245 59.3694C31.7968 59.3998 30.3167 59.5038 28.9277 59.0398C30.089 58.6538 31.3459 58.3328 32.0837 57.3136C31.4005 57.0664 30.7083 56.8366 30.0161 56.6154C30.3531 56.16 30.6855 55.7003 31.0134 55.2406C30.0161 54.0132 29.9432 52.4953 30.0981 51.012C29.3284 50.6781 28.5588 50.3484 27.8028 49.9928C29.1326 49.2815 30.8222 48.6266 30.7766 46.8918C28.8821 47.6508 26.9603 48.3925 25.2525 49.494C24.6969 49.2035 24.1413 48.9086 23.5766 48.631C23.0119 49.0777 22.4244 49.4897 21.8141 49.8757C21.9644 50.7778 22.1284 51.6799 22.2878 52.5776C21.5864 52.6427 20.8805 52.7078 20.1792 52.7771C20.6802 53.5708 21.2221 54.3428 21.7003 55.1451C20.58 55.3099 19.446 55.388 18.312 55.401C18.6171 56.5807 19.4551 57.5045 20.161 58.4803C18.4441 58.0423 17.0141 57.0404 15.748 55.8868C15.4657 56.6197 15.1924 57.3614 14.8509 58.0726C14.1769 56.7845 13.7943 55.388 13.4482 53.9958C11.7176 54.616 9.88688 55.4184 7.99692 55.1495C6.70354 55.0281 6.13429 53.6272 5.9931 52.5646C6.35743 50.4785 7.41399 48.5876 8.088 46.5882C8.54796 45.2048 9.12179 43.8603 9.9051 42.6112C10.7476 42.6459 11.6266 42.9972 12.4508 42.7023C14.2315 41.5443 14.5093 39.3628 15.6934 37.7755C16.4858 36.5264 17.7017 35.6026 18.9951 34.848C17.7518 36.444 16.0896 37.7972 15.3518 39.7098C14.8509 40.9892 14.3089 42.325 13.1249 43.1837C12.2915 44.0424 10.989 43.5784 9.93242 43.574C8.94873 45.53 8.57073 47.6942 7.65536 49.6805C7.21361 51.0597 6.21171 52.6817 7.34568 54.0088C9.20376 54.7895 11.244 53.9048 13.011 53.2846C12.3598 52.0572 10.6793 51.1768 11.0482 49.6285C11.3214 48.1669 11.5992 46.4191 13.1112 45.6428C12.838 47.1174 11.8315 49.4073 13.9264 50.0101C14.2998 49.3119 14.6733 48.6093 15.0513 47.911C15.8346 48.0238 16.6179 48.1496 17.4012 48.2493C17.3146 47.3906 17.0141 46.5752 16.6953 45.7729C18.0934 45.6124 19.4915 45.3565 20.6984 44.6322C20.1655 43.7085 19.5917 42.7977 19.2365 41.7958C21.6593 40.1131 25.3572 38.9638 25.717 35.685C25.9584 33.3474 26.3318 31.0271 26.769 28.7155C26.4958 23.2465 28.2036 17.873 30.6673 12.9852C30.9133 12.3823 31.4279 11.979 32.0199 11.6971C31.9516 12.5992 31.8377 13.5056 31.5099 14.3643C30.3941 17.4523 30.0844 20.731 29.6336 23.9448C30.0298 26.161 29.8795 28.4596 30.6036 30.6151C30.9178 31.8728 29.884 33.1912 30.6446 34.3926C32.366 31.5952 33.919 28.5203 34.0192 25.2198C34.6385 25.5625 35.2397 25.9268 35.8499 26.2867C37.6943 23.6325 38.7054 20.5619 39.3293 17.4566C39.7756 18.4888 40.1854 19.5384 40.5862 20.5879C42.8405 18.7447 44.8534 16.5719 46.2561 14.0694C46.5293 13.627 46.8572 13.2324 47.2489 12.8811C47.1077 14.4424 46.7616 15.9907 46.8436 17.5694C48.0641 16.9752 49.0432 16.0514 50.0497 15.184C50.159 15.9864 50.2683 16.793 50.6189 17.539C52.9415 15.4746 54.704 12.8724 57.3044 11.0899C58.9894 9.9189 60.7336 8.81296 62.578 7.88052C60.9932 9.92324 59.2581 11.9703 58.5021 14.4554C59.3628 14.1171 60.1826 13.6964 60.9795 13.2454C61.1799 13.8049 61.3712 14.3687 61.5625 14.9368C63.6847 13.935 65.1192 12.0614 67.0502 10.7993C68.84 9.61097 70.6343 8.39662 72.6426 7.56392C71.659 9.34643 70.4931 11.0509 69.8783 12.9938C70.6388 12.7466 71.3948 12.4734 72.1645 12.2435C72.1827 14.5899 69.9967 16.1815 69.5959 18.4498C68.2069 18.7794 66.5811 18.736 65.5018 19.7596C64.6456 20.4101 64.09 21.3339 63.8031 22.3314C65.9117 21.078 68.2297 20.2583 70.5159 19.3779C71.4905 18.0378 71.8366 16.3724 72.8931 15.0799C75.6894 12.018 79.5786 9.47654 84.0279 9.7194C87.1885 10.062 89.9574 8.37927 92.6352 7.04781C93.3229 8.30988 93.3411 9.71506 93.3138 11.1029C93.7555 10.7776 94.2565 10.4784 94.4296 9.9406C95.6546 7.37747 96.1874 4.55842 96.2193 1.75238ZM24.7652 43.1707C26.4593 42.9408 27.5478 41.501 28.0715 40.0611C26.892 41.0152 25.7216 42.0041 24.7652 43.1707Z" fill="url(#paint0_linear_544_57)"/>
<path d="M95.5863 17.5868C100.309 15.6698 105.223 13.7529 110.446 13.7919C112.3 13.8223 114.345 13.7529 115.943 14.7764C112.364 15.2405 108.72 16.0992 105.838 18.2937C106.452 18.7578 107.09 19.1958 107.732 19.6339C107.418 20.1413 107.09 20.64 106.78 21.1475C109.718 21.6419 112.851 21.2862 115.624 22.5049C116.936 23.0297 118.507 23.4287 119.167 24.7602C117.25 24.964 115.278 24.9857 113.484 25.736C114.053 26.4906 114.878 26.9937 115.697 27.4751C115.497 28.0563 115.301 28.6418 115.11 29.2273C117.018 29.6653 119.072 29.9082 120.657 31.1182C122.068 32.1938 123.749 33.0829 124.664 34.6268C123.603 34.796 122.538 34.9131 121.486 35.1083C122.278 35.7848 123.107 36.4224 123.917 37.0816C123.717 37.5717 123.521 38.0661 123.325 38.5562C127.032 39.892 129.496 42.9625 131.924 45.7859C130.717 46.3237 129.369 46.2066 128.084 46.3064C128.426 47.3386 129.073 48.232 129.851 49.0127C129.669 49.429 129.296 49.802 129.31 50.2791C130.147 52.4649 132.311 53.8311 133.486 55.8218C134.324 57.4351 134.92 59.1526 135.521 60.857C134.173 60.7616 132.834 60.5534 131.482 60.6011C132.179 62.0714 133.171 63.3811 133.996 64.782C133.454 65.2113 132.894 65.6103 132.343 66.0267C134.31 70.2466 136.569 74.6443 136.25 79.389C134.811 79.042 133.44 78.0922 131.91 78.5259C132.179 80.2997 132.657 82.0389 133.021 83.7997C132.411 84.2334 131.801 84.6671 131.195 85.1051C131.395 90.4266 132.78 96.1645 130.193 101.178C129.041 100.389 127.72 98.32 126.194 99.6384C125.466 100.861 125.798 102.336 125.684 103.68C125.106 103.442 124.528 103.195 123.954 102.961C122.897 105.133 123.148 107.601 122.337 109.843C121.618 112.398 120.224 114.753 118.566 116.861C118.266 115.568 118.184 114.206 117.564 113.009C117.068 112.775 116.663 112.871 116.353 113.296C115.661 114.384 115.347 115.638 114.878 116.822C114.418 116.475 113.971 116.115 113.52 115.763C112.323 117.169 111.69 118.89 110.756 120.447C109.308 123.297 107.231 125.799 105.104 128.206C104.617 128.779 103.92 129.126 103.255 129.473C103.082 127.556 104.134 125.621 103.51 123.756C102.158 123.587 101.953 125.378 100.837 125.773C100.186 125.604 99.6622 125.166 99.0838 124.862C97.3123 126.719 95.181 128.206 93.2956 129.95C91.9248 131.168 90.2898 132.196 88.3953 132.443C88.5547 131.351 88.8416 130.279 89.0466 129.195C87.8989 129.728 86.856 130.427 85.8314 131.151C85.4488 130.739 85.089 130.31 84.6701 129.932C83.0989 129.854 81.6598 130.605 80.1478 130.895C78.6586 131.329 77.133 130.886 75.662 130.618C75.6165 131.459 75.5345 132.296 75.4252 133.133C74.1045 132.591 73.2574 131.294 71.8001 131.012C70.5569 130.613 69.2362 130.622 67.9473 130.722C68.3026 131.697 69.1496 132.335 69.9785 132.942C67.4464 134.174 64.8369 132.253 62.4095 131.593C62.7784 133.719 64.8005 135.371 67.0912 135.245C67.0912 135.462 67.0912 135.891 67.0957 136.108C63.6209 136.789 60.1826 135.362 57.3454 133.562C55.1229 132.123 54.663 128.935 51.976 128.089C52.1628 129.113 52.3905 130.136 52.7548 131.121C52.6136 131.194 52.3313 131.342 52.1901 131.416C50.4868 129.316 48.4512 127.204 45.6322 126.562C43.5282 125.764 41.2648 125.717 39.0788 125.318C36.3099 124.225 33.8825 122.425 32.0518 120.174C32.4434 121.831 33.6093 123.149 34.4564 124.602C30.9178 124.424 28.2673 121.839 26.1633 119.385C24.9519 118.079 24.7834 116.214 23.5811 114.909C23.276 115.902 22.9982 116.904 22.7386 117.906C22.479 117.954 21.9644 118.049 21.7048 118.097C22.8661 115.534 22.6111 112.437 20.7302 110.247C19.0498 107.701 15.3746 107.094 14.2224 104.14C13.8854 105.025 13.5302 105.901 13.2934 106.816C13.2934 107.714 13.685 108.568 13.8034 109.457C11.7267 107.35 10.9161 104.431 11.0527 101.594C11.5173 99.6775 12.6512 97.9513 12.9063 95.978C10.6429 96.3206 8.84399 97.9644 6.55782 98.1378C7.70545 96.9235 9.33583 96.1688 10.2512 94.755C11.3761 93.0158 11.918 90.9861 12.2732 88.9911C12.3825 85.1355 10.6292 81.5878 8.96239 78.1746C7.79199 79.7793 7.414 81.7006 6.96769 83.5612C6.11152 81.371 6.02044 78.7775 7.21361 76.6827C8.89863 72.9746 12.3461 70.3377 15.9894 68.4598C17.515 67.4406 19.3503 66.6079 20.2202 64.9468C19.1818 65.0552 18.1617 65.2591 17.1188 65.3458C18.1162 63.8018 19.9788 63.0645 21.0946 61.616C23.6039 58.437 23.2578 54.0262 25.7443 50.8516C25.8992 50.9426 26.2134 51.1204 26.3682 51.2115C24.8198 54.4643 26.1633 58.0076 26.6096 61.3514C27.1197 63.2424 26.3546 65.1073 25.8491 66.9158C26.0904 66.8507 26.5686 66.725 26.8054 66.6599C27.2335 65.8879 27.6525 65.1159 28.0851 64.3483C29.3694 65.567 28.6362 67.4926 28.2764 68.9542C27.1288 71.0359 24.7287 72.3327 23.8817 74.6053C23.2805 76.3011 23.4308 78.166 23.9637 79.8617C24.4327 81.4881 26.1906 82.4032 26.6506 84.0426C25.4346 83.8691 24.2323 83.5872 23.0118 83.4614C23.4126 85.7253 26.1587 86.6708 28.24 87.1132C30.3622 87.8505 32.6392 86.4149 34.7296 87.317C36.5831 88.05 38.4731 89.0735 39.4522 90.8213C39.6571 92.1961 39.5296 93.597 39.5023 94.9805C38.2317 94.408 37.2844 93.1503 35.7634 93.185C34.3197 93.2414 32.325 93.2674 31.7603 94.8244C30.6992 96.1732 32.1246 97.5784 33.3224 98.2463C35.5448 99.504 38.2317 98.9272 40.5088 98.1335C40.8776 100.246 38.8511 101.304 37.4712 102.523C40.1217 102.592 42.6629 101.577 45.3179 101.516C47.1669 101.846 48.5695 103.164 49.4986 104.656C47.4173 104.76 45.2223 104.396 43.264 105.25C42.2712 105.571 41.875 106.591 41.242 107.302C40.5907 108.278 39.3019 108.473 38.2863 108.95C39.3611 109.614 40.5224 110.199 41.8021 110.403C42.5353 110.581 43.4371 110.429 44.0018 111.019C42.5581 111.838 40.8913 112.042 39.27 112.328C40.7501 113.378 42.6264 113.677 44.4162 113.851C46.8572 113.63 49.1798 112.502 51.6709 112.727C54.2166 112.931 56.8854 113.261 59.1305 114.506C59.2672 114.692 59.5404 115.069 59.6725 115.256C58.6888 115.2 57.7324 114.935 56.7442 114.918C55.0136 115.49 53.5062 116.514 51.8394 117.225C54.5263 118.604 57.5913 117.68 60.4695 117.672C60.1188 118.374 59.7362 119.059 59.3901 119.766C62.5051 119.71 64.9826 117.498 68.1113 117.555C68.635 117.42 69.9557 117.468 69.2179 118.253C68.0247 118.873 66.3443 119.32 66.2441 120.859C68.9082 121.007 71.5952 121.081 74.2502 120.799C75.8578 120.33 77.388 119.602 79.0776 119.406C79.1322 119.753 79.2415 120.443 79.2916 120.79C82.9212 119.988 86.4917 118.582 89.215 116.093C89.9255 115.26 91.187 115.811 92.0796 115.334C94.0014 114.683 95.1035 112.957 96.069 111.361C96.5381 110.576 97.6311 110.711 98.428 110.533C99.5438 108.898 100.86 107.402 102.03 105.806C102.181 106.504 102.34 107.202 102.513 107.9C103.601 106.343 103.724 104.383 104.795 102.809C105.865 101.213 106.279 99.17 107.901 97.96C108.024 99.3565 107.896 100.827 108.447 102.15C108.62 102.232 108.966 102.397 109.139 102.475C109.394 100.011 109.28 97.535 108.994 95.0803C108.279 95.2754 107.591 95.6527 106.83 95.6571C105.328 94.794 104.458 93.3108 103.51 91.9663C103.57 93.8052 105.127 95.3578 104.745 97.2357C103.447 99.3522 100.792 100.302 99.5074 102.44C98.6056 103.876 97.8724 105.459 96.5426 106.604C95.4178 107.467 93.9149 107.488 92.5487 107.632C93.6007 105.801 94.1062 103.759 93.9103 101.672C93.1088 102.124 92.3301 102.848 91.319 102.661C89.9756 102.579 89.4154 101.065 89.6113 99.9637C90.8363 95.1756 90.9137 90.1577 90.0029 85.309C88.8143 85.1615 87.6393 84.9143 86.5418 84.4546C86.6374 83.2576 87.0655 82.0432 86.7012 80.8549C86.3323 79.3499 85.549 77.6585 86.5645 76.2143C87.4981 75.9801 88.4864 76.2924 89.4154 76.0408C91.023 75.1647 91.5559 73.1524 90.9502 71.5477C90.0849 70.4287 88.4272 70.3593 87.1247 70.0471C87.4754 68.2863 89.3107 67.7311 90.9046 67.3668C89.9483 66.6165 88.7551 66.4994 87.571 66.6122C88.0902 65.9616 88.5501 65.1116 89.4928 64.9815C90.85 64.7646 92.2253 65.0769 93.5824 65.1766C92.8174 63.8972 91.0504 63.9753 90.1441 62.891C92.0022 62.9084 94.1426 62.3489 95.7502 63.5112C97.5946 64.8644 98.7924 66.9288 99.0519 69.132C98.51 69.4356 97.9589 69.7348 97.417 70.0427C97.754 70.9925 98.3369 71.8252 98.8425 72.697C99.0747 74.0892 98.3005 75.3729 97.6994 76.5873C97.0527 76.0798 96.4151 75.5637 95.7502 75.0823C95.5179 75.6591 95.3403 76.2533 95.2219 76.8605C95.4678 77.9144 96.6883 78.6387 96.62 79.775C96.1327 81.024 94.9532 81.9912 94.8166 83.366C94.6618 85.5952 95.0079 87.9502 96.2557 89.8802C97.0162 90.7129 98.51 90.5741 99.2387 91.4198C99.143 92.6472 98.7696 93.8398 98.7195 95.0759C100.937 92.2265 101.315 88.4793 100.619 85.0834C100.241 83.8777 100.96 82.8195 101.529 81.809C102.381 80.6076 101.525 79.107 102.112 77.8276C102.636 76.5222 103.255 74.9609 104.663 74.332C105.765 73.8506 106.512 74.9912 107.309 75.503C110.674 78.0141 113.744 81.3753 114.363 85.5388C114.9 87.4254 115.255 89.3424 115.597 91.2637C116.959 88.8046 115.838 85.9291 115.388 83.3703C114.909 81.1021 116.749 79.1548 116.544 76.8952C116.563 74.3277 114.477 72.4584 113.584 70.1728C114.263 70.1468 114.941 70.1165 115.62 70.0861C114.9 68.7676 114.176 67.4492 113.548 66.083C114.317 66.0917 115.087 66.1134 115.857 66.1264C114.194 63.8365 112.418 61.4338 112.058 58.5887C111.817 56.3942 111.252 54.1303 109.759 52.3825C108.402 50.6303 105.965 49.6762 105.346 47.434C106.744 47.4123 108.966 48.4055 109.709 46.8181C107.468 46.7574 105.154 45.942 103.829 44.1422C103.683 43.483 103.816 42.8064 103.834 42.1428C102.458 41.7352 100.942 41.4619 99.8352 40.5165C99.4026 39.7792 99.8398 38.9205 99.9081 38.1441C98.2185 38.0921 96.4789 38.1268 94.8713 37.5586C92.9358 36.6609 91.3783 35.182 89.4154 34.3319C88.4409 33.8462 87.3342 33.5426 86.5145 32.8096C86.3095 32.2198 86.3004 31.4652 86.856 31.0401C88.4409 29.5916 90.7817 29.0625 92.1206 27.3363C92.9449 26.1784 93.5825 24.8989 94.0925 23.5892C94.803 21.6505 94.2064 19.2869 95.5863 17.5868Z" fill="url(#paint1_linear_544_57)"/>
<path d="M8.58896 58.927C11.1393 59.6079 13.7624 59.1178 16.1397 58.1464C15.3017 60.1891 14.1495 62.2361 12.2414 63.5503C10.356 64.6865 8.01514 64.8427 6.16617 66.0527C4.65421 66.7249 3.89367 68.1692 2.8781 69.3401C2.92364 66.2349 4.68608 63.3854 7.10887 61.3991C5.24624 62.4443 3.33806 63.4505 1.7168 64.834C2.66861 63.29 3.01928 61.3427 4.59045 60.2108C5.73808 59.4128 7.07243 58.3415 8.58896 58.927Z" fill="url(#paint2_linear_544_57)"/>
<defs>
<linearGradient id="paint0_linear_544_57" x1="5.9931" y1="32.133" x2="98.6284" y2="32.133" gradientUnits="userSpaceOnUse">
<stop stop-color="#495057"/>
<stop offset="1" stop-color="#6C757D"/>
</linearGradient>
<linearGradient id="paint1_linear_544_57" x1="6.32104" y1="75.0363" x2="136.28" y2="75.0363" gradientUnits="userSpaceOnUse">
<stop stop-color="#495057"/>
<stop offset="1" stop-color="#6C757D"/>
</linearGradient>
<linearGradient id="paint2_linear_544_57" x1="1.7168" y1="63.7433" x2="16.1397" y2="63.7433" gradientUnits="userSpaceOnUse">
<stop stop-color="#495057"/>
<stop offset="1" stop-color="#6C757D"/>
</linearGradient>
</defs>
</svg>
