<svg width="226" height="226" viewBox="0 0 226 226" fill="none" xmlns="http://www.w3.org/2000/svg">
<path d="M105.506 221.11C71.6704 219.171 44.484 204.513 27.3771 178.986C8.91276 151.434 5.41621 117.022 18.3293 89.9408C22.5827 81.0206 27.1099 74.5711 34.4001 67.0461C38.22 63.1033 40.2067 61.5068 46.3717 57.4261C50.4372 54.7351 54.7708 51.9994 56.002 51.3469L58.2405 50.1604L60.5675 52.0085C63.7418 54.5296 66.7954 55.8936 69.2769 55.8988L71.3114 55.9031L70.0433 53.4029C66.9346 47.2735 69.3394 46.1696 77.4966 49.9815C82.2539 52.2046 84.9594 53.022 86.2276 52.6195C86.9736 52.3827 87.0847 52.0841 86.8851 50.8536C86.7529 50.0391 86.2414 48.8063 85.7485 48.114C84.5996 46.5006 84.6082 44.9526 85.7719 43.9046C86.6005 43.1583 87.3862 43.0803 93.7071 43.1169C116.953 43.2514 136.447 50.0741 150.846 63.1149C158.11 69.6944 167.881 83.1547 169.856 89.3055C170.959 92.7368 172.214 92.7697 174.007 89.4142L174.837 87.8614L174.521 90.4702C174.347 91.9051 174.207 95.5249 174.209 98.5142C174.212 102.897 174.365 104.244 174.998 105.471C177.301 109.935 176.888 126.14 174.244 135.042C173.879 136.272 172.699 139.201 171.622 141.55C168.407 148.563 168.505 150.55 172.006 149.395C172.849 149.117 173.983 149.03 174.524 149.202C175.338 149.46 175.047 149.641 172.856 150.241C168.044 151.559 164.218 154.379 159.856 159.822C149.281 173.018 134.746 180.18 114.795 182.025C109.781 182.488 108.793 182.451 103.49 181.599C100.294 181.086 95.8268 180.192 93.5629 179.614C91.299 179.035 89.3765 178.632 89.2907 178.718C89.0408 178.968 94.6555 181.999 97.8222 183.324C101.203 184.738 105.745 185.649 107.65 185.294C108.951 185.052 109.031 185.138 110.866 188.73C113.866 194.603 118.046 198.491 121.405 198.533C123.287 198.557 121.412 199.267 117.518 200.005C101.895 202.969 83.3989 196.167 70.6855 182.782C64.1964 175.95 58.381 164.327 55.2814 151.995C54.7705 149.963 54.2495 147.908 54.1236 147.43C53.9978 146.952 54.9414 148.316 56.2206 150.461C59.219 155.491 63.7169 160.114 67.4599 162.013C71.2244 163.924 75.9304 164.261 79.8113 162.898C81.2238 162.402 82.9257 161.996 83.5934 161.996C85.5609 161.996 91.3956 159.955 94.0759 158.33C103.174 152.813 112.941 151.034 119.187 153.756L121.564 154.792L119.169 155.272C114.384 156.23 111.526 158.763 110.481 162.971C110.186 164.162 110.044 166.874 110.145 169.394L110.32 173.755L100.304 173.501C89.6283 173.229 88.9231 173.428 95.0774 174.97C100.504 176.33 104.621 176.823 110.506 176.817C124.834 176.802 136.136 172.267 147.436 162.001C158.395 152.044 164.84 138.866 166.556 122.908C167.21 116.828 165.328 112.325 160.21 107.721C158.73 106.39 157.627 105.126 157.759 104.912C158.143 104.291 161.017 105.001 162.782 106.152C164.785 107.459 165.443 107.503 165.063 106.304C164.904 105.806 164.321 103.39 163.767 100.936C158.593 78.0388 138.757 60.627 110.888 54.5184C106.96 53.6575 105.163 53.5304 97.0268 53.5388C89.0249 53.547 87.0638 53.6854 83.4114 54.4996C68.9228 57.7294 55.5051 64.8664 45.7753 74.5186C34.5811 85.6237 28.2249 96.9722 25.697 110.367C24.0964 118.849 24.92 120.273 29.0301 116.13C30.3676 114.781 31.5244 113.741 31.6009 113.817C31.6773 113.894 31.1834 115.938 30.5034 118.361C28.4473 125.685 27.7662 130.833 27.9933 137.333C28.173 142.474 28.3419 143.472 29.5918 146.778C38.4695 170.256 55.9278 187.659 79.8684 196.896C89.9386 200.781 104.952 202.678 117.189 201.611C134.842 200.073 149.434 194.081 162.221 183.119C168.332 177.881 174.17 170.714 179.407 162.022C184.086 154.256 186.825 146.936 188.608 137.429C189.878 130.658 189.764 116.07 188.391 109.624C185.61 96.564 179.814 85.0849 170.38 73.9475C164.274 66.7388 151.715 57.7068 141.765 53.3687L138.51 51.9491L137.17 47.9475C136.434 45.7465 135.131 42.0381 134.275 39.7064C133.419 37.3748 132.78 35.467 132.856 35.467C132.931 35.467 134.507 36.1662 136.356 37.0208C138.206 37.8753 139.822 38.4718 139.947 38.3462C140.667 37.6266 133.834 27.3274 129.494 22.5892L126.959 19.8217L128.407 20.0943C131.137 20.6082 140.006 23.2533 144.279 24.8278C149.884 26.8934 161.451 32.5693 166.379 35.6716C176.368 41.9615 187.323 51.668 193.628 59.8163C204.993 74.5042 211.484 90.3366 214.484 110.689C218.104 135.24 210.639 161.558 194.63 180.693C190.095 186.113 179.712 195.955 175.075 199.229C160.653 209.41 144.381 216.245 126.594 219.593C122.885 220.291 112.415 221.622 111.596 221.499C111.355 221.463 108.614 221.288 105.506 221.11V221.11ZM84.5439 76.8816C82.6462 74.0738 81.3948 71.1765 81.3833 69.5642C81.3763 68.5834 81.0805 68.0676 80.2792 67.6388C79.6772 67.3166 78.7146 66.4366 78.1399 65.6833C77.1335 64.3637 74.3727 59.2806 74.5605 59.0928C74.6109 59.0424 76.1851 59.7716 78.0586 60.7131C81.7502 62.5684 84.0123 62.8779 85.6251 61.7483C86.1566 61.376 86.5914 60.6903 86.5914 60.2246C86.5914 59.6702 87.8054 58.4778 90.1075 56.7708C93.5682 54.2049 93.6687 54.1638 96.4853 54.1638C98.0592 54.1638 100.579 54.3783 102.084 54.6404C104.254 55.0184 104.882 55.3071 105.112 56.0343C105.297 56.6147 105.198 57.0201 104.844 57.1382C104.536 57.2409 103.238 57.875 101.959 58.5474C93.1499 63.1815 87.3963 69.9705 86.7193 76.5301C86.582 77.8598 86.3504 78.9474 86.2045 78.9469C86.0586 78.9469 85.3113 78.0171 84.5439 76.8816V76.8816ZM65.2242 53.2887C64.3533 52.8285 62.6901 51.3941 61.5283 50.1012C59.5329 47.8805 59.2822 47.7397 57.0009 47.5586C55.6727 47.4531 53.6585 46.9179 52.525 46.3692C50.4598 45.3694 45.7195 41.772 45.7195 41.2044C45.7195 41.0382 47.0854 40.9022 48.7548 40.9022C51.6025 40.9022 51.8779 40.8144 53.2101 39.4822L54.6301 38.0622L53.4768 37.0907C52.8425 36.5564 52.0752 35.6301 51.7717 35.0323C51.1922 33.891 50.4826 30.6842 50.8095 30.6842C50.9141 30.6842 51.8173 31.1591 52.8164 31.7395C55.1524 33.0965 59.5847 33.8892 62.8124 33.5272C65.2648 33.2522 71.7618 31.7449 72.1445 31.3622C72.2488 31.2579 71.654 30.5754 70.8227 29.8456C69.2958 28.505 66.1555 23.1026 66.1555 21.8165C66.1555 21.292 66.6873 21.502 68.308 22.6663C70.7231 24.4014 74.5764 25.9013 76.6186 25.9013H77.9726L76.8807 24.6037C75.7696 23.2833 73.982 19.0626 73.982 17.7597C73.982 17.1899 74.2278 17.2719 75.1777 18.1584C81.5219 24.0792 91.9932 25.3756 100.84 21.3356C106.343 18.8225 114.668 11.7685 118.039 6.76226L119.567 4.49286L120.035 6.17484C120.979 9.5776 120.473 12.1225 118.413 14.3219L117.245 15.5692L118.332 15.2481C120.807 14.517 122.154 13.764 123.098 12.5837L124.097 11.3353L123.883 15.2684C123.743 17.8533 123.372 19.873 122.803 21.1606L121.936 23.1197L124.919 23.5895C126.56 23.8478 128.198 24.3048 128.56 24.6051C129.092 25.0465 133.863 31.7019 134.966 33.5417C135.12 33.798 134.282 33.5307 133.104 32.9478C131.489 32.1485 130.589 31.958 129.443 32.1729L127.924 32.4579L129.383 34.506C131.444 37.3991 133.792 42.2408 135.277 46.6597C135.976 48.74 136.481 50.5089 136.399 50.5908C136.317 50.6726 134.5 49.8605 132.361 48.7862C127.058 46.1229 120.539 43.9186 114.01 42.5811C109.576 41.6729 107.2 41.4508 101.375 41.3998C93.8606 41.334 86.4828 41.7099 85.1622 42.2258C84.092 42.6439 83.2809 44.3629 82.7187 47.4042C82.4572 48.8184 82.2433 50.0349 82.2433 50.1075C82.2433 50.1801 81.1183 49.7297 79.7432 49.1066C71.2206 45.2446 68.2558 44.4109 67.1121 45.5546C66.3309 46.3358 66.4826 49.523 67.4181 51.9851C68.171 53.9664 68.1808 54.162 67.5268 54.1446C67.1313 54.134 66.0951 53.7488 65.2242 53.2887V53.2887ZM99.422 34.2214C100.381 33.7859 101.78 32.7291 102.532 31.8731C103.827 30.3976 104.083 30.3005 107.448 30.007C109.4 29.8367 110.838 29.5439 110.643 29.3563C110.095 28.8288 105.404 28.0753 102.669 28.0753C99.9432 28.0753 94.3796 29.3624 92.1731 30.5034L90.7472 31.2407L92.6088 32.8928C94.2248 34.3268 94.9952 34.67 97.2442 34.9576C97.4833 34.9881 98.4633 34.6569 99.422 34.2214V34.2214Z" fill="url(#paint0_linear_544_67)"/>
<defs>
<linearGradient id="paint0_linear_544_67" x1="10.6179" y1="113" x2="215.382" y2="113" gradientUnits="userSpaceOnUse">
<stop stop-color="#495057"/>
<stop offset="1" stop-color="#6C757D"/>
</linearGradient>
</defs>
</svg>
