<svg width="167" height="167" viewBox="0 0 167 167" fill="none" xmlns="http://www.w3.org/2000/svg">
<path d="M83.5 148.734C119.528 148.734 148.734 119.528 148.734 83.5C148.734 47.472 119.528 18.2656 83.5 18.2656C47.472 18.2656 18.2656 47.472 18.2656 83.5C18.2656 119.528 47.472 148.734 83.5 148.734Z" fill="#F0652A"/>
<path d="M52.4482 50.8828L58.0584 114.16L83.3693 121.336L108.811 114.16L114.551 50.8828H52.4482ZM102.287 71.4969H72.5404L73.1928 79.4555H101.504L99.2865 103.462L83.4998 107.767H83.3693L67.4521 103.331L66.5389 91.1977H74.2365L74.7584 97.3297L83.3693 99.6781L91.9803 97.3297L92.8935 87.2836H66.1475L64.06 63.7992H102.94L102.287 71.4969Z" fill="white"/>
</svg>
