<svg width="167" height="167" viewBox="0 0 167 167" fill="none" xmlns="http://www.w3.org/2000/svg">
<g clip-path="url(#clip0_634_124)">
<path fill-rule="evenodd" clip-rule="evenodd" d="M83.5 100.2V167C62.6915 166.987 42.6374 159.206 27.2666 145.18C11.8958 131.153 2.31595 111.894 0.403775 91.1731C-1.5084 70.4526 4.38493 49.7648 16.9292 33.1625C29.4735 16.5602 47.7647 5.23997 68.2195 1.41943L83.5 16.6999H125.25C136.308 16.6999 146.915 21.0871 154.742 28.8987C162.569 36.7103 166.978 47.3081 167 58.3664V133.683C166.978 142.527 163.449 151.001 157.188 157.247C150.927 163.493 142.444 167 133.6 167V150.3C138.029 150.3 142.277 148.54 145.409 145.409C148.541 142.277 150.3 138.029 150.3 133.6C150.3 129.171 148.541 124.923 145.409 121.791C142.277 118.659 138.029 116.9 133.6 116.9H100.2L83.5 100.2ZM129.425 75.1499C132.747 75.1499 135.933 73.8303 138.281 71.4815C140.63 69.1326 141.95 65.9468 141.95 62.6249C141.95 59.3031 140.63 56.1173 138.281 53.7684C135.933 51.4195 132.747 50.0999 129.425 50.0999C126.103 50.0999 122.917 51.4195 120.568 53.7684C118.22 56.1173 116.9 59.3031 116.9 62.6249C116.9 65.9468 118.22 69.1326 120.568 71.4815C122.917 73.8303 126.103 75.1499 129.425 75.1499V75.1499Z" fill="url(#paint0_linear_634_124)"/>
</g>
<defs>
<linearGradient id="paint0_linear_634_124" x1="0.050293" y1="84.2097" x2="167" y2="84.2097" gradientUnits="userSpaceOnUse">
<stop stop-color="#495057"/>
<stop offset="1" stop-color="#6C757D"/>
</linearGradient>
<clipPath id="clip0_634_124">
<rect width="167" height="167" fill="white"/>
</clipPath>
</defs>
</svg>
