<svg width="149" height="171" viewBox="0 0 149 171" fill="none" xmlns="http://www.w3.org/2000/svg">
<path fill-rule="evenodd" clip-rule="evenodd" d="M149 0L135.427 153.883L74.4106 171L13.5592 153.911L0 0H149Z" fill="#E44D26"/>
<path fill-rule="evenodd" clip-rule="evenodd" d="M74.4932 157.919L123.807 144.086L135.4 12.5801H74.4932V157.919Z" fill="#F16529"/>
<path fill-rule="evenodd" clip-rule="evenodd" d="M48.1172 50.3342H74.5068V31.4641H27.7234L28.1634 36.5295L32.7428 88.5476H74.4793V69.6636H49.8224L48.1172 50.3342ZM52.3115 97.9827H33.5954L36.2082 127.624L74.4243 138.353L74.5068 138.325V118.69L74.4243 118.718L53.6454 113.04L52.3115 97.9827Z" fill="#EBEBEB"/>
<path fill-rule="evenodd" clip-rule="evenodd" d="M74.4382 88.5476H97.4036L95.2446 113.026L74.4382 118.704V138.339L112.682 127.61L112.957 124.423L117.344 74.729L117.797 69.6636H74.4382V88.5476ZM74.4382 50.2925V50.3342H119.489L119.86 46.0898L120.713 36.5156L121.153 31.4502H74.4382V50.2925Z" fill="white"/>
</svg>
