<svg width="109" height="109" viewBox="0 0 109 109" fill="none" xmlns="http://www.w3.org/2000/svg">
<path d="M54.5 109C84.5995 109 109 84.5995 109 54.5C109 24.4005 84.5995 0 54.5 0C24.4005 0 0 24.4005 0 54.5C0 84.5995 24.4005 109 54.5 109Z" fill="#FFD75E"/>
<path d="M86.2092 73.0577C86.2092 74.6491 84.919 75.9402 83.3266 75.9402H25.6736C24.0812 75.9402 22.791 74.6491 22.791 73.0577V32.6999C22.791 31.1085 24.0812 29.8174 25.6736 29.8174H83.3266C84.919 29.8174 86.2092 31.1085 86.2092 32.6999V73.0577Z" fill="#3D320C"/>
<path d="M63.1479 75.9404H45.8516V83.3267H63.1479V75.9404Z" fill="#FFF5D9"/>
<path d="M68.913 84.7684C68.913 85.5641 68.2679 86.2092 67.4712 86.2092H41.5282C40.7325 86.2092 40.0864 85.5641 40.0864 84.7684C40.0864 83.9717 40.7315 83.3267 41.5282 83.3267H67.4722C68.2679 83.3267 68.913 83.9717 68.913 84.7684Z" fill="white"/>
<path d="M86.2092 73.0578V64.4092H22.791V73.0578C22.791 74.6492 24.0822 75.9404 25.6736 75.9404H83.3266C84.918 75.9404 86.2092 74.6492 86.2092 73.0578Z" fill="white"/>
<path d="M54.4999 74.2281C52.3645 74.2281 50.6265 72.4901 50.6265 70.3547C50.6265 68.2193 52.3645 66.4812 54.4999 66.4812C56.6353 66.4812 58.3734 68.2193 58.3734 70.3547C58.3734 72.4901 56.6353 74.2281 54.4999 74.2281ZM54.4999 68.463C53.4565 68.463 52.6083 69.3112 52.6083 70.3547C52.6083 71.3981 53.4565 72.2463 54.4999 72.2463C55.5434 72.2463 56.3916 71.3971 56.3916 70.3547C56.3916 69.3112 55.5434 68.463 54.4999 68.463Z" fill="#FFE9A1"/>
<path d="M22.791 32.6099V64.3189H42.3357L76.9274 29.7273H25.6736C24.0822 29.7273 22.791 31.0185 22.791 32.6099Z" fill="#66510D"/>
<path d="M30.1377 37.1483C30.1377 36.0543 30.5113 35.4399 31.2317 35.4399C31.9511 35.4399 32.3256 36.0543 32.3256 37.1483C32.3256 38.2472 31.9511 38.8615 31.2317 38.8615C30.5123 38.8615 30.1377 38.2472 30.1377 37.1483ZM31.8708 37.1483C31.8708 36.1831 31.636 35.7897 31.2327 35.7897C30.8343 35.7897 30.5935 36.1821 30.5935 37.1483C30.5935 38.1184 30.8333 38.5108 31.2327 38.5108C31.635 38.5108 31.8708 38.1174 31.8708 37.1483ZM31.2327 36.8361C31.415 36.8361 31.5488 36.9758 31.5488 37.1483C31.5488 37.3256 31.415 37.4654 31.2327 37.4654C31.0553 37.4654 30.9205 37.3256 30.9205 37.1483C30.9205 36.9758 31.0543 36.8361 31.2327 36.8361Z" fill="white"/>
<path d="M34.0956 35.9819L33.3038 36.4615L33.0928 36.1543L34.1481 35.4963H34.5375V38.4483H35.2143V38.803H33.285V38.4483H34.0956V35.9819Z" fill="white"/>
<path d="M40.6869 35.9434L40.898 36.2743L39.2184 37.3009L40.898 38.3334L40.6681 38.6545L38.8389 37.513V37.0849L40.6869 35.9434Z" fill="white"/>
<path d="M43.3448 38.804V37.2542H42.1448V38.804H41.689V35.4973H42.1448V36.8796H43.3448V35.4973H43.8006V38.804H43.3448Z" fill="white"/>
<path d="M45.8437 35.8808V38.804H45.3879V35.8808H44.3652V35.4973H46.8802L46.8326 35.8808H45.8437Z" fill="white"/>
<path d="M49.3693 38.804L49.2732 37.1095C49.2494 36.6438 49.2494 36.1057 49.2544 36.0007H49.2395L48.7163 38.2134H48.2793L47.7323 36.0007H47.7135C47.7135 36.1117 47.7234 36.6824 47.7036 37.1095L47.6223 38.804H47.2002L47.3875 35.4973H47.9919L48.5013 37.7051H48.5201L49.0046 35.4973H49.614L49.8013 38.804H49.3693Z" fill="white"/>
<path d="M50.5674 38.804V35.4973H51.0232V38.4056H52.5254L52.4729 38.804H50.5674Z" fill="white"/>
<path d="M55.2881 37.0859V37.5139L53.4599 38.6555L53.23 38.3344L54.9096 37.3019L53.23 36.2753L53.441 35.9443L55.2881 37.0859Z" fill="white"/>
<path d="M30.1377 42.9044C30.1377 41.8104 30.5113 41.1951 31.2317 41.1951C31.9511 41.1951 32.3256 41.8094 32.3256 42.9044C32.3256 44.0033 31.9511 44.6177 31.2317 44.6177C30.5123 44.6177 30.1377 44.0033 30.1377 42.9044ZM31.8708 42.9044C31.8708 41.9392 31.636 41.5458 31.2327 41.5458C30.8343 41.5458 30.5935 41.9392 30.5935 42.9044C30.5935 43.8735 30.8333 44.2679 31.2327 44.2679C31.635 44.2679 31.8708 43.8735 31.8708 42.9044ZM31.2327 42.5922C31.415 42.5922 31.5488 42.731 31.5488 42.9044C31.5488 43.0818 31.415 43.2215 31.2327 43.2215C31.0553 43.2215 30.9205 43.0818 30.9205 42.9044C30.9205 42.731 31.0543 42.5922 31.2327 42.5922Z" fill="white"/>
<path d="M33.5872 44.1906H35.0894L35.0369 44.5592H33.0689V44.2094C34.2114 43.0768 34.5622 42.62 34.5622 42.1216C34.5622 41.7658 34.3214 41.5647 34.0004 41.5647C33.7269 41.5647 33.5396 41.6658 33.3384 41.9194L33.0312 41.7034C33.2909 41.3824 33.6169 41.1941 34.0251 41.1941C34.6296 41.1941 35.019 41.5786 35.019 42.1067C35.017 42.6834 34.5612 43.2591 33.5872 44.1906Z" fill="white"/>
<path d="M40.6869 41.6995L40.898 42.0304L39.2184 43.058L40.898 44.0905L40.6681 44.4126L38.8389 43.2701V42.843L40.6869 41.6995Z" fill="white"/>
<path d="M42.6577 44.5603H41.7461V41.2537H42.5864C43.177 41.2537 43.7666 41.44 43.7666 42.089C43.7666 42.5111 43.4693 42.7311 43.1908 42.7945V42.8143C43.5218 42.8758 43.9112 43.069 43.9112 43.616C43.9102 44.3394 43.277 44.5603 42.6577 44.5603ZM42.6676 41.6134H42.2019V42.6499H42.7053C43.0898 42.6499 43.3008 42.4913 43.3008 42.1167C43.3008 41.7521 43.061 41.6134 42.6676 41.6134ZM42.739 43.0145H42.2019V44.1907H42.7202C43.0422 44.1907 43.4306 44.0996 43.4306 43.6239C43.4306 43.1394 43.1185 43.0145 42.739 43.0145Z" fill="white"/>
<path d="M45.6228 44.6177C44.8112 44.6177 44.394 43.9409 44.394 42.9143C44.394 41.9055 44.8112 41.196 45.6228 41.196C46.4333 41.196 46.8515 41.8818 46.8515 42.9103C46.8515 43.9171 46.4333 44.6177 45.6228 44.6177ZM45.6228 41.5696C45.0847 41.5696 44.8687 42.0403 44.8687 42.9133C44.8687 43.7863 45.0986 44.2431 45.6228 44.2431C46.1598 44.2431 46.3759 43.7823 46.3759 42.9083C46.3759 42.0353 46.1598 41.5696 45.6228 41.5696Z" fill="white"/>
<path d="M48.2177 44.5603H47.4448V41.2537H48.1652C48.948 41.2537 49.7249 41.5172 49.7249 42.8897C49.7239 44.273 48.9183 44.5603 48.2177 44.5603ZM48.2653 41.6183H47.9006V44.2006H48.2703C48.7409 44.2006 49.2394 43.9608 49.2394 42.8906C49.2394 41.766 48.7162 41.6183 48.2653 41.6183Z" fill="white"/>
<path d="M51.6087 43.289V44.5603H51.148V43.293L50.0342 41.2527H50.5386L51.3838 42.8698H51.3977L52.2479 41.2527H52.7225L51.6087 43.289Z" fill="white"/>
<path d="M55.2881 42.842V43.2691L53.4589 44.4116L53.229 44.0895L54.9086 43.057L53.229 42.0294L53.4401 41.6985L55.2881 42.842Z" fill="white"/>
<path d="M30.1377 48.6598C30.1377 47.5658 30.5113 46.9504 31.2317 46.9504C31.9511 46.9504 32.3256 47.5648 32.3256 48.6598C32.3256 49.7587 31.9511 50.374 31.2317 50.374C30.5123 50.374 30.1377 49.7597 30.1377 48.6598ZM31.8708 48.6598C31.8708 47.6946 31.636 47.3012 31.2327 47.3012C30.8343 47.3012 30.5935 47.6946 30.5935 48.6598C30.5935 49.6299 30.8333 50.0232 31.2327 50.0232C31.635 50.0232 31.8708 49.6299 31.8708 48.6598ZM31.2327 48.3486C31.415 48.3486 31.5488 48.4883 31.5488 48.6598C31.5488 48.8381 31.415 48.9768 31.2327 48.9768C31.0553 48.9768 30.9205 48.8371 30.9205 48.6598C30.9205 48.4883 31.0543 48.3486 31.2327 48.3486Z" fill="white"/>
<path d="M33.9803 50.374C33.5968 50.374 33.2024 50.2353 32.9478 49.9281L33.2361 49.6883C33.4234 49.9093 33.6969 50.0143 33.9664 50.0143C34.4123 50.0143 34.6818 49.7646 34.6818 49.3623C34.6818 48.9015 34.3984 48.7479 34.01 48.7479H33.7553L33.8079 48.407H33.9803C34.2974 48.407 34.5946 48.2297 34.5946 47.8452C34.5946 47.4944 34.3251 47.3032 33.9852 47.3032C33.7018 47.3032 33.5056 47.4042 33.2896 47.6054L33.0488 47.3418C33.3322 47.0733 33.6582 46.9524 34.009 46.9524C34.6422 46.9524 35.0366 47.3319 35.0366 47.7828C35.0366 48.1861 34.7383 48.4843 34.4074 48.5468V48.5656C34.772 48.5894 35.1416 48.8629 35.1416 49.3672C35.1416 49.938 34.6769 50.374 33.9803 50.374Z" fill="white"/>
<path d="M40.6869 47.4558L40.898 47.7868L39.2184 48.8144L40.898 49.8459L40.6681 50.1679L38.8389 49.0254V48.5983L40.6869 47.4558Z" fill="white"/>
<path d="M43.3448 50.3165V48.7657H42.1448V50.3165H41.689V47.0088H42.1448V48.3921H43.3448V47.0088H43.8006V50.3165H43.3448Z" fill="white"/>
<path d="M45.1755 47.3744V48.4545H46.3944V48.8192H45.1755V49.9567H46.6679V50.3174H44.7197V47.0088H46.6302L46.5777 47.3734H45.1755V47.3744Z" fill="white"/>
<path d="M49.1244 49.4861H47.8531L47.5984 50.3165H47.1426L48.2128 47.0088H48.7895L49.8596 50.3165H49.38L49.1244 49.4861ZM47.963 49.1165H49.0144L48.5011 47.422H48.4813L47.963 49.1165Z" fill="white"/>
<path d="M51.0957 50.3165H50.3228V47.0088H51.0431C51.826 47.0088 52.6028 47.2734 52.6028 48.6458C52.6028 50.0281 51.7962 50.3165 51.0957 50.3165ZM51.1432 47.3744H50.7776V49.9568H51.1482C51.6189 49.9568 52.1183 49.7169 52.1183 48.6468C52.1183 47.5231 51.5941 47.3744 51.1432 47.3744Z" fill="white"/>
<path d="M53.8103 47.3744V48.4545H55.0291V48.8192H53.8103V49.9567H55.3026V50.3174H53.3535V47.0088H55.264L55.2115 47.3734H53.8103V47.3744Z" fill="white"/>
<path d="M57.4949 48.8578L58.464 50.3165H57.921L57.0381 48.9143H56.616V50.3165H56.1602V47.0088H57.0282C57.8536 47.0088 58.2866 47.3249 58.2866 47.9442C58.2866 48.4397 57.9408 48.7429 57.4949 48.8578ZM57.0728 47.3645H56.617V48.5645H57.0777C57.5385 48.5645 57.8021 48.3921 57.8021 47.9452C57.8021 47.533 57.5663 47.3645 57.0728 47.3645Z" fill="white"/>
<path d="M61.044 48.5983V49.0254L59.2148 50.1679L58.9849 49.8459L60.6645 48.8144L58.9849 47.7868L59.1959 47.4558L61.044 48.5983Z" fill="white"/>
<path d="M30.1377 54.4168C30.1377 53.3229 30.5113 52.7075 31.2317 52.7075C31.9511 52.7075 32.3256 53.3219 32.3256 54.4168C32.3256 55.5158 31.9511 56.1301 31.2317 56.1301C30.5123 56.1311 30.1377 55.5158 30.1377 54.4168ZM31.8708 54.4168C31.8708 53.4517 31.636 53.0583 31.2327 53.0583C30.8343 53.0583 30.5935 53.4527 30.5935 54.4168C30.5935 55.3869 30.8333 55.7803 31.2327 55.7803C31.635 55.7803 31.8708 55.3869 31.8708 54.4168ZM31.2327 54.1057C31.415 54.1057 31.5488 54.2444 31.5488 54.4168C31.5488 54.5942 31.415 54.7339 31.2327 54.7339C31.0553 54.7339 30.9205 54.5942 30.9205 54.4168C30.9205 54.2434 31.0543 54.1057 31.2327 54.1057Z" fill="white"/>
<path d="M34.7821 55.2809V56.0726H34.355V55.2809H33.0015V54.9688L33.9716 52.7085L34.3412 52.8621L33.4682 54.9311H34.356L34.3996 54.067H34.7841V54.9311H35.2013V55.2819H34.7821V55.2809Z" fill="white"/>
<path d="M40.6869 53.2119L40.898 53.5429L39.2184 54.5704L40.898 55.602L40.6681 55.924L38.8389 54.7815V54.3544L40.6869 53.2119Z" fill="white"/>
<path d="M41.8997 56.5721L41.5449 56.4135L43.5941 52.1853L43.9449 52.3528L41.8997 56.5721Z" fill="white"/>
<path d="M46.2222 56.0725V54.5228H45.0222V56.0725H44.5664V52.7659H45.0222V54.1482H46.2222V52.7659H46.678V56.0725H46.2222Z" fill="white"/>
<path d="M48.0544 53.1305V54.2106H49.2733V54.5753H48.0544V55.7118H49.5468V56.0715H47.5986V52.7659H49.5091L49.4566 53.1305H48.0544Z" fill="white"/>
<path d="M52.0023 55.2422H50.73L50.4753 56.0725H50.0195L51.0897 52.7659H51.6664L52.7366 56.0725H52.257L52.0023 55.2422ZM50.841 54.8735H51.8923L51.3791 53.1781H51.3602L50.841 54.8735Z" fill="white"/>
<path d="M53.9731 56.0725H53.2002V52.7659H53.9206C54.7034 52.7659 55.4803 53.0304 55.4803 54.4019C55.4803 55.7852 54.6747 56.0725 53.9731 56.0725ZM54.0217 53.1305H53.657V55.7118H54.0266C54.4973 55.7118 54.9967 55.472 54.9967 54.4019C54.9957 53.2792 54.4725 53.1305 54.0217 53.1305Z" fill="white"/>
<path d="M56.6882 53.1305V54.2106H57.9071V54.5753H56.6882V55.7118H58.1805V56.0715H56.2324V52.7659H58.1429L58.0904 53.1305H56.6882Z" fill="white"/>
<path d="M60.3723 54.6129L61.3424 56.0725H60.8004L59.9165 54.6714H59.4944V56.0725H59.0386V52.7659H59.9076C60.733 52.7659 61.1651 53.082 61.1651 53.7013C61.1651 54.1958 60.8192 54.499 60.3723 54.6129ZM59.9502 53.1206H59.4944V54.3206H59.9552C60.4159 54.3206 60.6795 54.1482 60.6795 53.7013C60.6795 53.2891 60.4447 53.1206 59.9502 53.1206Z" fill="white"/>
<path d="M63.9229 54.3544V54.7815L62.0937 55.924L61.8638 55.602L63.5434 54.5704L61.8638 53.5429L62.0748 53.2119L63.9229 54.3544Z" fill="white"/>
</svg>
