<svg width="167" height="167" viewBox="0 0 167 167" fill="none" xmlns="http://www.w3.org/2000/svg">
<path d="M83.5 148.734C119.528 148.734 148.734 119.528 148.734 83.5C148.734 47.472 119.528 18.2656 83.5 18.2656C47.472 18.2656 18.2656 47.472 18.2656 83.5C18.2656 119.528 47.472 148.734 83.5 148.734Z" fill="#F7DF1E"/>
<path d="M63.1469 58.189H74.4977V90.1538C74.4977 104.505 67.5828 109.594 56.6234 109.594C53.8836 109.594 50.4914 109.202 48.2734 108.419L49.5781 99.1562C51.1438 99.678 53.2313 100.069 55.4492 100.069C60.2766 100.069 63.2773 97.8515 63.2773 90.1538L63.1469 58.189Z" fill="#06070C"/>
<path d="M84.5438 97.0688C87.5445 98.6344 92.3719 100.2 97.1992 100.2C102.418 100.2 105.158 97.982 105.158 94.5898C105.158 91.4586 102.809 89.632 96.6773 87.5445C88.3273 84.5437 82.7172 79.8469 82.7172 72.4102C82.7172 63.9297 90.0234 57.4062 101.896 57.4062C107.637 57.4062 111.812 58.5805 114.813 60.0156L112.203 69.1484C110.246 68.2352 106.593 66.8 101.766 66.8C96.8078 66.8 94.4594 69.1484 94.4594 71.6273C94.4594 74.8891 97.1992 76.3242 103.853 78.8031C112.725 82.0648 116.9 86.7617 116.9 93.9375C116.9 102.418 110.507 109.594 96.5469 109.594C90.8063 109.594 85.0656 108.028 82.1953 106.462L84.5438 97.0688Z" fill="#06070C"/>
</svg>
