<svg width="142" height="166" viewBox="0 0 142 166" fill="none" xmlns="http://www.w3.org/2000/svg">
<g clip-path="url(#clip0_591_77)">
<path d="M121.631 166H5.48758C3.20948 166 1.36182 163.841 1.36182 161.177V83.297C1.36182 80.6332 3.2092 78.4739 5.48758 78.4739C7.76596 78.4739 9.61335 80.6332 9.61335 83.297V156.354H117.506V145.709C117.506 143.045 119.353 140.886 121.632 140.886C123.91 140.886 125.757 143.045 125.757 145.709V161.177C125.757 163.841 123.91 166 121.631 166Z" fill="#2D527C"/>
<path d="M5.4873 57.4263V55.8733L48.6961 4.82312V57.4263H5.4873Z" fill="#CEE8FA"/>
<path d="M136.513 71.145H54.4023V124.203H136.513V71.145Z" fill="#CEE8FA"/>
<path d="M136.513 66.3219H125.757V4.82308C125.757 2.1593 123.91 0 121.631 0H48.6964C48.6457 0 48.5955 0.00680859 48.5447 0.00875391C48.4989 0.0106992 48.4535 0.0129688 48.4077 0.0168594C48.2285 0.0314492 48.0508 0.0551172 47.8766 0.096293C47.8746 0.0966172 47.873 0.0972656 47.8713 0.0975899C47.6977 0.13909 47.5285 0.197449 47.3613 0.264563C47.3191 0.281422 47.2775 0.29893 47.2362 0.317086C47.072 0.390035 46.9106 0.470441 46.7556 0.567383C46.752 0.569652 46.7478 0.571274 46.7439 0.573543C46.5856 0.672754 46.435 0.7885 46.2885 0.912027C46.2519 0.942828 46.2156 0.974602 46.1795 1.00702C46.0347 1.13768 45.8936 1.2758 45.7635 1.42948L2.55446 52.4806C2.45739 52.5951 2.36642 52.7144 2.28045 52.8386C2.22304 52.9209 2.17284 53.0075 2.1207 53.0928C2.09518 53.1352 2.06661 53.1758 2.04221 53.2186C1.98313 53.3233 1.93044 53.4313 1.87913 53.5399C1.86582 53.5674 1.85056 53.594 1.83836 53.6219C1.78816 53.7334 1.74434 53.8472 1.70218 53.9614C1.69137 53.9902 1.67861 54.0178 1.6689 54.0466C1.63063 54.1562 1.59873 54.2671 1.56795 54.3789C1.55769 54.4166 1.54493 54.4532 1.53495 54.4908C1.50887 54.5929 1.48918 54.6964 1.46894 54.8001C1.45895 54.8504 1.44703 54.899 1.43843 54.9496C1.42262 55.0442 1.41319 55.1396 1.4021 55.2352C1.39516 55.2955 1.38546 55.3552 1.38074 55.4161C1.37325 55.5088 1.37214 55.6019 1.36882 55.695C1.36687 55.7543 1.36133 55.813 1.36133 55.8723V57.426C1.36133 60.0897 3.20871 62.249 5.48709 62.249H48.6961C50.9742 62.249 52.8219 60.0897 52.8219 57.426V9.64616H117.506V66.3219H54.4025C52.1244 66.3219 50.2767 68.4812 50.2767 71.145V124.201C50.2767 126.865 52.1241 129.024 54.4025 129.024H136.513C138.792 129.024 140.639 126.865 140.639 124.201V71.145C140.639 68.4812 138.791 66.3219 136.513 66.3219ZM44.5707 52.6032H14.0592L29.6729 34.1564L44.5712 16.5546V52.6032H44.5707ZM132.387 119.378H58.5283V75.968H132.387V119.378Z" fill="#2D527C"/>
<path d="M67.3618 85.1927C67.3618 84.1795 68.1589 83.2886 69.372 83.2886H76.5458C81.1203 83.2886 84.7246 85.8003 84.7246 92.6063V92.8093C84.7246 99.6149 80.9819 102.208 76.1991 102.208H72.7686V110.959C72.7686 112.256 71.4171 112.903 70.0651 112.903C68.7139 112.903 67.3618 112.255 67.3618 110.959V85.1927ZM72.7681 88.7977V97.346H76.1985C78.1394 97.346 79.3175 96.0495 79.3175 93.2953V92.8495C79.3175 90.0939 78.1397 88.798 76.1985 88.798H72.7681V88.7977Z" fill="#2D527C"/>
<path d="M99.3836 99.9797H92.4869V110.959C92.4869 112.256 91.1354 112.904 89.7834 112.904C88.4321 112.904 87.0801 112.256 87.0801 110.959V85.1927C87.0801 83.8556 88.4316 83.2886 89.7834 83.2886C91.1351 83.2886 92.4869 83.8556 92.4869 85.1927V95.118H99.3836V85.1927C99.3836 83.8556 100.735 83.2886 102.087 83.2886C103.438 83.2886 104.79 83.8556 104.79 85.1927V110.959C104.79 112.256 103.439 112.904 102.087 112.904C100.735 112.904 99.3836 112.256 99.3836 110.959V99.9797Z" fill="#2D527C"/>
<path d="M108.533 85.1927C108.533 84.1795 109.33 83.2886 110.542 83.2886H117.717C122.291 83.2886 125.895 85.8003 125.895 92.6063V92.8093C125.895 99.6149 122.153 102.208 117.37 102.208H113.939V110.959C113.939 112.256 112.588 112.903 111.236 112.903C109.884 112.903 108.533 112.255 108.533 110.959V85.1927ZM113.939 88.7977V97.346H117.37C119.31 97.346 120.489 96.0495 120.489 93.2953V92.8495C120.489 90.0939 119.31 88.798 117.37 88.798H113.939V88.7977Z" fill="#2D527C"/>
</g>
<defs>
<clipPath id="clip0_591_77">
<rect width="142" height="166" fill="white"/>
</clipPath>
</defs>
</svg>
