<svg width="154" height="166" viewBox="0 0 154 166" fill="none" xmlns="http://www.w3.org/2000/svg">
<path fill-rule="evenodd" clip-rule="evenodd" d="M0 0H154V166H0V0Z" fill="#F7DF1E"/>
<path fill-rule="evenodd" clip-rule="evenodd" d="M40.4927 138.725L52.2733 131.038C54.5417 135.388 56.6095 139.063 61.5724 139.063C66.3223 139.063 69.3301 137.063 69.3301 129.255V76.2049H83.8052V129.471C83.8052 145.628 75.0199 152.977 62.1991 152.977C50.619 152.977 43.9015 146.52 40.4927 138.725ZM91.6631 137.05L103.444 129.701C106.552 135.159 110.575 139.171 117.706 139.171C123.696 139.171 127.531 135.942 127.531 131.484C127.531 126.135 123.609 124.243 116.991 121.123L113.369 119.448C102.93 114.652 95.9993 108.64 95.9993 95.9417C95.9993 84.2428 104.271 75.3268 117.192 75.3268C126.391 75.3268 133.008 78.7851 137.758 87.8092L126.491 95.604C124.01 90.8082 121.328 88.917 117.192 88.917C112.956 88.917 110.261 91.8079 110.261 95.604C110.261 100.278 112.943 102.183 119.147 105.074L122.769 106.749C135.076 112.436 141.994 118.232 141.994 131.268C141.994 145.304 131.755 152.991 118.007 152.991C104.584 152.991 95.8991 146.074 91.6631 137.05Z" fill="black"/>
</svg>
