<svg width="160" height="167" viewBox="0 0 160 167" fill="none" xmlns="http://www.w3.org/2000/svg">
<path fill-rule="evenodd" clip-rule="evenodd" d="M0 0H160V167H0V0Z" fill="#F7DF1E"/>
<path fill-rule="evenodd" clip-rule="evenodd" d="M42.0703 139.561L54.3099 131.828C56.6667 136.204 58.8151 139.901 63.9714 139.901C68.9063 139.901 72.0313 137.889 72.0313 130.034V76.664H87.0703V130.251C87.0703 146.506 77.9427 153.899 64.6224 153.899C52.5911 153.899 45.612 147.403 42.0703 139.561ZM95.2344 137.876L107.474 130.482C110.703 135.973 114.883 140.009 122.292 140.009C128.516 140.009 132.5 136.761 132.5 132.276C132.5 126.894 128.424 124.992 121.549 121.852L117.786 120.167C106.94 115.343 99.7396 109.295 99.7396 96.5197C99.7396 84.7504 108.333 75.7806 121.758 75.7806C131.315 75.7806 138.19 79.2598 143.125 88.3383L131.419 96.18C128.841 91.3553 126.055 89.4527 121.758 89.4527C117.357 89.4527 114.557 92.361 114.557 96.18C114.557 100.882 117.344 102.799 123.789 105.707L127.552 107.392C140.339 113.114 147.526 118.944 147.526 132.059C147.526 146.179 136.888 153.912 122.604 153.912C108.659 153.912 99.6354 146.954 95.2344 137.876Z" fill="black"/>
</svg>
