<svg width="167" height="167" viewBox="0 0 167 167" fill="none" xmlns="http://www.w3.org/2000/svg">
<path d="M83.5 148.734C119.528 148.734 148.734 119.528 148.734 83.5C148.734 47.472 119.528 18.2656 83.5 18.2656C47.472 18.2656 18.2656 47.472 18.2656 83.5C18.2656 119.528 47.472 148.734 83.5 148.734Z" fill="#36447F"/>
<path d="M54.4055 73.9757C57.4063 73.9757 59.3633 74.4976 60.407 75.6718C61.4508 76.7156 61.5812 78.6726 61.0594 81.282C60.5375 84.0218 59.4938 86.1093 57.9281 87.2835C56.3625 88.4578 54.0141 89.1101 50.8828 89.1101H46.0555L48.9258 73.9757C48.9258 73.9757 54.4055 73.9757 54.4055 73.9757ZM35.2266 104.375H43.0547L44.8813 94.7203H51.6656C54.6664 94.7203 57.0148 94.4593 58.9719 93.807C60.9289 93.1546 62.625 92.1109 64.1906 90.6757C65.4953 89.5015 66.5391 88.0664 67.4523 86.6312C68.2352 85.196 68.8875 83.5 69.1484 81.8039C69.9313 77.4984 69.4094 74.2367 67.3219 71.7578C65.2344 69.4093 61.9727 68.2351 57.4062 68.2351H42.2719L35.2266 104.375Z" fill="white"/>
<path d="M77.1069 58.7109H84.9351L83.1085 68.3656H90.0233C94.3288 68.3656 97.4601 69.1484 99.0257 70.7141C100.722 72.2797 101.244 74.7586 100.461 78.1508L97.1991 94.9813H89.2405L92.3718 79.0641C92.7632 77.2375 92.6327 76.0633 91.9804 75.4109C91.328 74.7586 90.0233 74.3672 88.0663 74.3672H81.8038L77.7593 94.9813H69.9312L77.1069 58.7109Z" fill="white"/>
<path d="M117.944 73.9757C120.944 73.9757 122.901 74.4976 123.945 75.6718C124.989 76.7156 125.119 78.6726 124.597 81.282C124.076 84.0218 123.032 86.1093 121.466 87.2835C119.901 88.4578 117.552 89.1101 114.421 89.1101H109.594L112.464 73.9757C112.464 73.9757 117.944 73.9757 117.944 73.9757ZM98.7646 104.375H106.593L108.419 94.7203H115.204C118.205 94.7203 120.553 94.4593 122.51 93.807C124.467 93.1546 126.163 92.1109 127.729 90.6757C129.033 89.5015 130.077 88.0664 130.99 86.6312C131.773 85.196 132.426 83.5 132.687 81.8039C133.469 77.4984 132.947 74.2367 130.86 71.7578C128.772 69.4093 125.511 68.2351 120.944 68.2351H105.81L98.7646 104.375Z" fill="white"/>
</svg>
