<svg width="167" height="167" viewBox="0 0 167 167" fill="none" xmlns="http://www.w3.org/2000/svg">
<path d="M83.5 167C129.616 167 167 129.616 167 83.5C167 37.3842 129.616 0 83.5 0C37.3842 0 0 37.3842 0 83.5C0 129.616 37.3842 167 83.5 167Z" fill="#FABBAF"/>
<path d="M132.082 111.932C132.082 114.371 130.105 116.349 127.665 116.349H39.3344C36.8946 116.349 34.918 114.371 34.918 111.932V50.1C34.918 47.6618 36.8946 45.6836 39.3344 45.6836H127.665C130.105 45.6836 132.082 47.6618 132.082 50.1V111.932Z" fill="#4A1410"/>
<path d="M96.7489 116.349H70.249V127.665H96.7489V116.349Z" fill="#FFEFED"/>
<path d="M105.582 129.874C105.582 131.093 104.594 132.082 103.373 132.082H63.6255C62.4064 132.082 61.4165 131.093 61.4165 129.874C61.4165 128.654 62.4048 127.665 63.6255 127.665H103.374C104.594 127.665 105.582 128.654 105.582 129.874Z" fill="white"/>
<path d="M132.082 111.932V98.6818H34.918V111.932C34.918 114.371 36.8962 116.349 39.3344 116.349H127.665C130.103 116.349 132.082 114.371 132.082 111.932Z" fill="white"/>
<path d="M83.5 113.725C80.2283 113.725 77.5654 111.063 77.5654 107.791C77.5654 104.519 80.2283 101.856 83.5 101.856C86.7717 101.856 89.4346 104.519 89.4346 107.791C89.4346 111.063 86.7717 113.725 83.5 113.725ZM83.5 104.893C81.9014 104.893 80.6018 106.192 80.6018 107.791C80.6018 109.39 81.9014 110.689 83.5 110.689C85.0986 110.689 86.3982 109.388 86.3982 107.791C86.3982 106.192 85.0986 104.893 83.5 104.893Z" fill="#FFD7D4"/>
<path d="M34.918 49.9618V98.5436H64.8626L117.861 45.5454H39.3344C36.8962 45.5454 34.918 47.5236 34.918 49.9618Z" fill="#7D261E"/>
<path d="M46.1738 56.9151C46.1738 55.239 46.7462 54.2977 47.8499 54.2977C48.9521 54.2977 49.526 55.239 49.526 56.9151C49.526 58.5987 48.9521 59.54 47.8499 59.54C46.7477 59.54 46.1738 58.5987 46.1738 56.9151ZM48.8291 56.9151C48.8291 55.4364 48.4693 54.8336 47.8514 54.8336C47.2411 54.8336 46.8722 55.4348 46.8722 56.9151C46.8722 58.4014 47.2396 59.0026 47.8514 59.0026C48.4678 59.0026 48.8291 58.3999 48.8291 56.9151ZM47.8514 56.4368C48.1308 56.4368 48.3357 56.6509 48.3357 56.9151C48.3357 57.1868 48.1308 57.4009 47.8514 57.4009C47.5797 57.4009 47.3732 57.1868 47.3732 56.9151C47.3732 56.6509 47.5781 56.4368 47.8514 56.4368Z" fill="white"/>
<path d="M52.2376 55.1282L51.0245 55.863L50.7012 55.3924L52.318 54.3843H52.9147V58.9069H53.9516V59.4505H50.9957V58.9069H52.2376V55.1282Z" fill="white"/>
<path d="M62.3363 55.069L62.6597 55.576L60.0863 57.1489L62.6597 58.7308L62.3075 59.2227L59.5049 57.4738V56.8179L62.3363 55.069Z" fill="white"/>
<path d="M66.408 59.4519V57.0775H64.5695V59.4519H63.8711V54.3857H64.5695V56.5036H66.408V54.3857H67.1063V59.4519H66.408Z" fill="white"/>
<path d="M70.2369 54.9733V59.4519H69.537V54.9733H67.9702V54.3857H71.8234L71.7505 54.9733H70.2369Z" fill="white"/>
<path d="M75.6388 59.4519L75.4915 56.8558C75.4551 56.1423 75.4551 55.3179 75.4627 55.157H75.4399L74.6383 58.5471H73.9688L73.1307 55.157H73.1004C73.1004 55.327 73.1156 56.2015 73.0852 56.8558L72.9607 59.4519H72.314L72.6009 54.3857H73.527L74.3073 57.7682H74.3362L75.0786 54.3857H76.0123L76.2992 59.4519H75.6388Z" fill="white"/>
<path d="M77.4741 59.4519V54.3857H78.1725V58.8416H80.4741L80.3936 59.4519H77.4741Z" fill="white"/>
<path d="M84.707 56.8194V57.4752L81.9059 59.2242L81.5537 58.7323L84.127 57.1503L81.5537 55.5775L81.8771 55.0704L84.707 56.8194Z" fill="white"/>
<path d="M46.1738 65.7342C46.1738 64.0581 46.7462 63.1154 47.8499 63.1154C48.9521 63.1154 49.526 64.0566 49.526 65.7342C49.526 67.4179 48.9521 68.3591 47.8499 68.3591C46.7477 68.3591 46.1738 67.4179 46.1738 65.7342ZM48.8291 65.7342C48.8291 64.2555 48.4693 63.6528 47.8514 63.6528C47.2411 63.6528 46.8722 64.2555 46.8722 65.7342C46.8722 67.219 47.2396 67.8232 47.8514 67.8232C48.4678 67.8232 48.8291 67.219 48.8291 65.7342ZM47.8514 65.256C48.1308 65.256 48.3357 65.4685 48.3357 65.7342C48.3357 66.006 48.1308 66.22 47.8514 66.22C47.5797 66.22 47.3732 66.006 47.3732 65.7342C47.3732 65.4685 47.5781 65.256 47.8514 65.256Z" fill="white"/>
<path d="M51.4586 67.7047H53.7602L53.6797 68.2695H50.6646V67.7336C52.4151 65.9983 52.9525 65.2984 52.9525 64.5348C52.9525 63.9898 52.5836 63.6816 52.0917 63.6816C51.6727 63.6816 51.3858 63.8364 51.0776 64.2251L50.6069 63.8941C51.0047 63.4022 51.5042 63.1138 52.1297 63.1138C53.0558 63.1138 53.6524 63.7028 53.6524 64.512C53.6494 65.3956 52.951 66.2777 51.4586 67.7047Z" fill="white"/>
<path d="M62.3363 63.8881L62.6597 64.3951L60.0863 65.9695L62.6597 67.5514L62.3075 68.0448L59.5049 66.2944V65.64L62.3363 63.8881Z" fill="white"/>
<path d="M65.3562 68.2711H63.9595V63.205H65.2469C66.1517 63.205 67.055 63.4904 67.055 64.4848C67.055 65.1315 66.5996 65.4686 66.173 65.5657V65.5961C66.6801 65.6902 67.2767 65.9863 67.2767 66.8243C67.2752 67.9326 66.3051 68.2711 65.3562 68.2711ZM65.3714 63.7561H64.6578V65.3441H65.4291C66.0181 65.3441 66.3415 65.1012 66.3415 64.5273C66.3415 63.9686 65.9741 63.7561 65.3714 63.7561ZM65.4807 65.9028H64.6578V67.7048H65.4518C65.9453 67.7048 66.5404 67.5652 66.5404 66.8364C66.5404 66.0941 66.0622 65.9028 65.4807 65.9028Z" fill="white"/>
<path d="M69.8987 68.3591C68.6553 68.3591 68.0161 67.3222 68.0161 65.7493C68.0161 64.2038 68.6553 63.1168 69.8987 63.1168C71.1405 63.1168 71.7812 64.1674 71.7812 65.7433C71.7812 67.2857 71.1405 68.3591 69.8987 68.3591ZM69.8987 63.6892C69.0743 63.6892 68.7433 64.4103 68.7433 65.7478C68.7433 67.0853 69.0955 67.7852 69.8987 67.7852C70.7215 67.7852 71.0525 67.0793 71.0525 65.7402C71.0525 64.4027 70.7215 63.6892 69.8987 63.6892Z" fill="white"/>
<path d="M73.8746 68.2711H72.6904V63.205H73.7941C74.9935 63.205 76.1838 63.6088 76.1838 65.7115C76.1823 67.8309 74.948 68.2711 73.8746 68.2711ZM73.9475 63.7636H73.3888V67.72H73.9551C74.6762 67.72 75.4399 67.3526 75.4399 65.713C75.4399 63.9899 74.6383 63.7636 73.9475 63.7636Z" fill="white"/>
<path d="M79.0696 66.3232V68.2711H78.3637V66.3293L76.6572 63.2034H77.43L78.7235 65.681H78.7447L80.0473 63.2034H80.7745L79.0696 66.3232Z" fill="white"/>
<path d="M84.707 65.6386V66.2929L81.9045 68.0434L81.5522 67.55L84.1256 65.968L81.5522 64.3937L81.8756 63.8866L84.707 65.6386Z" fill="white"/>
<path d="M46.1738 74.5518C46.1738 72.8758 46.7462 71.933 47.8499 71.933C48.9521 71.933 49.526 72.8743 49.526 74.5518C49.526 76.2355 48.9521 77.1783 47.8499 77.1783C46.7477 77.1783 46.1738 76.237 46.1738 74.5518ZM48.8291 74.5518C48.8291 73.0731 48.4693 72.4704 47.8514 72.4704C47.2411 72.4704 46.8722 73.0731 46.8722 74.5518C46.8722 76.0381 47.2396 76.6409 47.8514 76.6409C48.4678 76.6409 48.8291 76.0381 48.8291 74.5518ZM47.8514 74.0751C48.1308 74.0751 48.3357 74.2892 48.3357 74.5518C48.3357 74.8251 48.1308 75.0377 47.8514 75.0377C47.5797 75.0377 47.3732 74.8236 47.3732 74.5518C47.3732 74.2892 47.5781 74.0751 47.8514 74.0751Z" fill="white"/>
<path d="M52.0614 77.1782C51.4739 77.1782 50.8697 76.9657 50.4795 76.495L50.9213 76.1276C51.2082 76.4662 51.6272 76.6271 52.0402 76.6271C52.7234 76.6271 53.1363 76.2445 53.1363 75.6281C53.1363 74.9222 52.7021 74.6869 52.107 74.6869H51.7168L51.7973 74.1646H52.0614C52.5473 74.1646 53.0027 73.8929 53.0027 73.3038C53.0027 72.7664 52.5913 72.4733 52.069 72.4733C51.6348 72.4733 51.3342 72.6282 51.0033 72.9364L50.6343 72.5326C51.0685 72.1211 51.568 71.9359 52.1055 71.9359C53.0756 71.9359 53.6798 72.5174 53.6798 73.2082C53.6798 73.8261 53.2228 74.283 52.7158 74.3787V74.4075C53.2745 74.444 53.8407 74.863 53.8407 75.6357C53.8407 76.5102 53.1287 77.1782 52.0614 77.1782Z" fill="white"/>
<path d="M62.3363 72.7072L62.6597 73.2142L60.0863 74.7886L62.6597 76.369L62.3075 76.8624L59.5049 75.112V74.4576L62.3363 72.7072Z" fill="white"/>
<path d="M66.408 77.0902V74.7142H64.5695V77.0902H63.8711V72.0225H64.5695V74.1418H66.408V72.0225H67.1063V77.0902H66.408Z" fill="white"/>
<path d="M69.214 72.5827V74.2375H71.0813V74.7962H69.214V76.5391H71.5004V77.0917H68.5156V72.0225H71.4427L71.3622 72.5812H69.214V72.5827Z" fill="white"/>
<path d="M75.2635 75.8179H73.3156L72.9255 77.0902H72.2256L73.8652 72.0225H74.7488L76.3884 77.0902H75.6536L75.2635 75.8179ZM73.4842 75.2516H75.0949L74.3085 72.6555H74.2782L73.4842 75.2516Z" fill="white"/>
<path d="M78.2833 77.0902H77.0991V72.0225H78.2028C79.4022 72.0225 80.5925 72.4278 80.5925 74.5305C80.5925 76.6484 79.3567 77.0902 78.2833 77.0902ZM78.3562 72.5827H77.796V76.5391H78.3638C79.0849 76.5391 79.8486 76.1717 79.8486 74.532C79.8501 72.8104 79.0469 72.5827 78.3562 72.5827Z" fill="white"/>
<path d="M82.4431 72.5827V74.2375H84.3104V74.7962H82.4431V76.5391H84.7294V77.0917H81.7432V72.0225H84.6702L84.5898 72.5812H82.4431V72.5827Z" fill="white"/>
<path d="M88.088 74.8554L89.5727 77.0902H88.7408L87.3881 74.9419H86.7413V77.0902H86.043V72.0225H87.3729C88.6375 72.0225 89.301 72.5068 89.301 73.4556C89.301 74.2147 88.7711 74.6793 88.088 74.8554ZM87.4412 72.5675H86.7429V74.406H87.4488C88.1548 74.406 88.5586 74.1418 88.5586 73.4571C88.5586 72.8256 88.1973 72.5675 87.4412 72.5675Z" fill="white"/>
<path d="M93.5259 74.4576V75.112L90.7233 76.8624L90.3711 76.369L92.9444 74.7886L90.3711 73.2142L90.6945 72.7072L93.5259 74.4576Z" fill="white"/>
<path d="M46.1738 83.3724C46.1738 81.6963 46.7462 80.7535 47.8499 80.7535C48.9521 80.7535 49.526 81.6948 49.526 83.3724C49.526 85.0561 48.9521 85.9973 47.8499 85.9973C46.7477 85.9989 46.1738 85.0561 46.1738 83.3724ZM48.8291 83.3724C48.8291 81.8937 48.4693 81.291 47.8514 81.291C47.2411 81.291 46.8722 81.8952 46.8722 83.3724C46.8722 84.8587 47.2396 85.4614 47.8514 85.4614C48.4678 85.4614 48.8291 84.8587 48.8291 83.3724ZM47.8514 82.8957C48.1308 82.8957 48.3357 83.1082 48.3357 83.3724C48.3357 83.6442 48.1308 83.8582 47.8514 83.8582C47.5797 83.8582 47.3732 83.6442 47.3732 83.3724C47.3732 83.1067 47.5781 82.8957 47.8514 82.8957Z" fill="white"/>
<path d="M53.2897 84.6963V85.9094H52.6354V84.6963H50.5615V84.2181L52.0478 80.7551L52.6141 80.9904L51.2766 84.1604H52.6369L52.7037 82.8366H53.2927V84.1604H53.9319V84.6978H53.2897V84.6963Z" fill="white"/>
<path d="M62.3363 81.5264L62.6597 82.0334L60.0863 83.6078L62.6597 85.1882L62.3075 85.6816L59.5049 83.9312V83.2768L62.3363 81.5264Z" fill="white"/>
<path d="M64.1949 86.6745L63.6514 86.4316L66.791 79.9535L67.3284 80.2101L64.1949 86.6745Z" fill="white"/>
<path d="M70.8172 85.9093V83.5349H68.9786V85.9093H68.2803V80.8431H68.9786V82.961H70.8172V80.8431H71.5155V85.9093H70.8172Z" fill="white"/>
<path d="M73.6241 81.4018V83.0567H75.4915V83.6153H73.6241V85.3567H75.9105V85.9078H72.9258V80.8431H75.8528L75.7724 81.4018H73.6241Z" fill="white"/>
<path d="M79.6726 84.6371H77.7233L77.3331 85.9093H76.6348L78.2744 80.8431H79.158L80.7976 85.9093H80.0628L79.6726 84.6371ZM77.8933 84.0723H79.5041L78.7177 81.4747H78.6889L77.8933 84.0723Z" fill="white"/>
<path d="M82.692 85.9093H81.5078V80.8431H82.6115C83.8109 80.8431 85.0011 81.2485 85.0011 83.3497C85.0011 85.469 83.7669 85.9093 82.692 85.9093ZM82.7664 81.4018H82.2077V85.3567H82.774C83.4951 85.3567 84.2603 84.9893 84.2603 83.3497C84.2588 81.6296 83.4572 81.4018 82.7664 81.4018Z" fill="white"/>
<path d="M86.8522 81.4018V83.0567H88.7195V83.6153H86.8522V85.3567H89.1386V85.9078H86.1538V80.8431H89.0809L89.0004 81.4018H86.8522Z" fill="white"/>
<path d="M92.4966 83.673L93.9829 85.9093H93.1525L91.7982 83.7626H91.1515V85.9093H90.4531V80.8431H91.7846C93.0492 80.8431 93.7111 81.3274 93.7111 82.2763C93.7111 83.0339 93.1813 83.4984 92.4966 83.673ZM91.8499 81.3867H91.1515V83.2252H91.8574C92.5634 83.2252 92.9672 82.961 92.9672 82.2763C92.9672 81.6447 92.6074 81.3867 91.8499 81.3867Z" fill="white"/>
<path d="M97.936 83.2768V83.9312L95.1335 85.6816L94.7812 85.1882L97.3546 83.6078L94.7812 82.0334L95.1046 81.5264L97.936 83.2768Z" fill="white"/>
</svg>
