<svg width="87" height="87" viewBox="0 0 87 87" fill="none" xmlns="http://www.w3.org/2000/svg">
<path d="M71.9663 12.6672C73.567 12.876 75.0982 13.6416 76.1426 14.8247L76.5601 15.2422C75.725 10.7185 71.8969 9.53476 69.0433 9.18713C64.7282 4.59341 58.6728 1.73969 51.8521 1.73969C41.6209 1.73969 32.9209 8.28221 29.7193 17.3997C29.4411 17.0516 29.2318 16.6341 29.0231 16.2165L28.8143 15.7291C28.675 17.0516 28.8143 18.2347 29.2318 19.2091C29.1624 19.4873 29.0925 19.766 29.0231 20.0442C28.5356 19.4873 28.1181 18.9304 27.8399 18.2347L27.6312 17.7472C27.4224 19.696 27.8399 21.2272 28.675 22.4104C28.6056 22.6886 28.6056 23.0367 28.6056 23.3154C27.9094 22.6891 27.283 21.9235 26.935 21.0879L26.7263 20.6005C26.4481 23.1061 27.2831 24.9854 28.6056 26.3079C28.6056 26.5167 28.6056 26.7255 28.675 27.0041C27.5613 26.3079 26.6569 25.2641 26.1694 24.1504L25.9607 23.663C25.5431 27.0735 27.2832 29.2311 29.2319 30.5535C29.9975 34.103 31.5981 37.3047 33.8256 40.0191L30.6237 46.9791C27.2831 45.796 23.2463 45.6566 19.4875 48.8584L20.3924 48.7191C22.898 48.3016 25.6124 48.9278 27.7699 50.3198C24.2204 49.1366 19.9748 49.0672 16.1467 52.756L16.9818 52.5472C20.3224 51.7816 23.9418 52.756 26.4474 55.1922C17.8168 51.7816 10.7874 58.9503 10.7874 58.9503C25.125 51.2941 34.521 68.0678 34.521 68.0678C32.5028 63.4741 31.5978 59.7159 31.6672 56.584C31.8066 49.9722 38.4184 45.5178 44.6824 47.6059H44.7519C43.6381 48.789 42.9424 50.4596 43.2207 52.6171L43.4294 52.1297C44.195 50.3897 45.7957 49.0671 47.675 48.7191C47.0487 49.7629 46.7006 50.9466 46.3525 51.7817C50.6676 48.441 59.5069 48.9279 62.0821 51.5035C62.2214 51.6428 63.7526 52.5473 63.8221 52.3385C64.2396 51.2947 65.1446 50.181 66.0495 49.1367C66.0495 49.1367 64.8664 49.5542 63.7528 49.3454C64.5184 49.1367 64.7271 48.7191 64.7271 48.7191C64.5184 48.7886 63.6833 48.7886 62.9176 48.5798C62.5001 48.4405 62.152 48.0924 62.0127 47.9535C61.5952 47.536 60.9689 46.701 59.4376 46.0742C59.0201 42.8724 66.8851 43.638 66.8851 43.638C67.0244 44.0555 66.1194 44.6123 66.1194 44.6123C67.0244 44.4036 67.9988 43.7074 67.9988 43.7074C68.4163 44.1948 67.7206 45.0993 67.7206 45.0993C70.7831 43.7767 70.9224 41.2018 70.9224 41.2018C69.3912 41.6892 66.0506 41.4105 64.5887 41.0624C62.6399 40.6449 62.1525 40.2274 61.735 39.0443C58.8813 39.7405 52.8957 35.425 54.2875 32.4324C54.2875 32.4324 51.8513 34.6599 54.1482 38.905C53.9394 38.4874 50.877 38.4175 47.745 32.4324C47.745 32.4324 47.3275 37.7917 52.1299 40.2973C52.1299 40.2973 48.9281 39.0448 44.8218 35.5648C44.8218 35.5648 45.1 37.0266 46.0049 38.6967C44.3344 37.7223 42.8731 36.5392 41.62 35.1472C42.8031 32.8504 43.4295 29.7879 41.0631 26.8647L41.1326 27.4215C41.2719 28.3959 41.1326 29.4397 40.8544 30.4141C40.9238 28.9522 40.5063 27.3516 39.2537 25.8204L39.3231 26.3772C39.4625 27.2822 39.3926 28.1172 39.1144 28.9523C39.0449 27.6997 38.5575 26.3772 37.5137 25.1242L37.5831 25.681C37.6525 26.2379 37.6525 26.7948 37.5831 27.421C37.3049 26.1685 37.0957 24.7761 37.0957 23.3842C37.0957 13.6405 45.0301 5.70585 54.7741 5.70585C59.4373 5.70585 63.7522 7.51533 66.8846 10.5084C65.2839 12.7358 63.9614 16.0065 66.3277 19.4865V18.9297C66.2583 17.329 66.7453 15.7278 67.7896 14.4753C67.024 16.8415 66.7458 19.9041 69.5991 22.3402L69.4597 21.8527C68.7635 19.7646 69.251 17.329 70.7823 15.7278C73.1485 15.7278 75.306 17.1197 76.2804 19.1383L76.4892 19.6258C76.5601 15.7987 74.1937 13.78 71.9663 12.6668L71.9663 12.6672ZM59.1599 40.7856C59.5774 41.2031 60.2736 41.2031 60.8999 41.1337L61.3174 41.4119L60.7606 41.76C60.4824 41.9687 60.0644 41.9687 59.7862 41.8294C59.1599 41.6206 58.9511 40.7162 59.1599 40.7856V40.7856Z" fill="#EC2127"/>
<path d="M43.2216 35.844C46.1448 28.884 52.3391 24.7777 65.5632 29.5103C65.5632 29.5103 48.0936 21.4366 54.6358 6.61188C54.6358 6.61188 48.0932 14.1287 52.1302 22.5503C49.5551 20.2535 48.302 16.634 48.7895 13.2935L48.9288 12.3885C45.5882 16.4948 46.0056 20.7404 47.3976 24.151C45.797 22.0629 45.0314 19.4878 45.2402 16.9129L45.3096 16.008C42.3864 20.0447 42.804 24.0117 44.2658 27.283L42.5953 28.188C43.4303 30.2061 43.2915 32.4336 42.1777 34.7998C42.5253 35.2179 42.8734 35.566 43.2215 35.8441L43.2216 35.844Z" fill="#EC2127"/>
</svg>
