<svg width="400" height="48" fill="none" xmlns="http://www.w3.org/2000/svg"><path d="M15.22 25.485H4.636v-.276h.363c.484 0 .893-.166 1.229-.497.353-.35.54-.764.558-1.242V7.704c-1.955.202-3.435.745-4.44 1.629-.857.754-1.545 1.72-2.067 2.899L0 12.122c.372-1.989 1.331-3.48 2.876-4.474 1.564-.994 3.52-1.49 5.865-1.49h6.479c3.5 0 6.227.855 8.182 2.567 1.974 1.694 2.96 4.059 2.96 7.096s-.986 5.412-2.96 7.124c-1.973 1.693-4.7 2.54-8.182 2.54Zm-2.709-1.38h2.15c1.732 0 3.09-.728 4.078-2.182.986-1.472 1.48-3.506 1.48-6.102 0-2.595-.494-4.62-1.48-6.074-.987-1.473-2.346-2.21-4.078-2.21l-2.15.056v16.512ZM53.682 0c.261 0 .522.018.782.055v.276c-1.675.203-2.941.985-3.798 2.347-.856 1.362-1.284 3.166-1.284 5.412V18.39c-.038 2.43-.829 4.289-2.374 5.578-1.527 1.27-3.798 1.905-6.814 1.905s-5.39-.663-7.121-1.988c-1.732-1.326-2.598-3.093-2.598-5.302V7.787c0-.387-.148-.71-.446-.967a1.467 1.467 0 0 0-1.034-.387h-.446v-.276h9.578v.276h-.447c-.577 0-1.005.221-1.284.663a1.577 1.577 0 0 0-.196.635v10.575c0 1.915.484 3.424 1.453 4.528.986 1.087 2.29 1.63 3.91 1.63h.083c1.545 0 2.811-.507 3.798-1.52 1.005-1.03 1.508-2.456 1.508-4.279V8.09c0-2.282.67-4.243 2.01-5.881.634-.755 1.37-1.307 2.207-1.657C52.025.184 52.863 0 53.682 0Z" fill="#EC2127"/><path d="M83.513 29.213a6.901 6.901 0 0 1-3.687 1.049c-1.154 0-2.355-.34-3.602-1.022-1.285-.68-2.542-1.647-3.77-2.899l-12.26-12.535v9.719c0 .478.167.883.503 1.215.335.313.735.469 1.2.469h.531v.276H52.207v-.276h.53c.466 0 .866-.157 1.201-.47.336-.33.503-.736.503-1.214V7.897c-2.867-3.019-5.38-4.528-7.54-4.528-.54 0-1.061.092-1.564.276l-.14-.249c1.043-.736 2.17-1.104 3.38-1.104.8 0 1.62.156 2.457.47.82.294 1.536.634 2.15 1.02a18.74 18.74 0 0 1 3.072 2.486l11.478 11.735V8.118a1.648 1.648 0 0 0-.53-1.188 1.648 1.648 0 0 0-1.201-.497h-.53v-.276h10.22v.276h-.503c-.465 0-.865.166-1.2.497-.335.313-.512.7-.531 1.16v15.766l.503.525.642.69c.447.46.745.764.894.911l.977.856c.484.442.875.745 1.173.911.298.184.707.414 1.229.69.521.295.996.48 1.424.553.484.11.996.165 1.536.165s1.061-.073 1.564-.22l.112.276Z" fill="#EC2127"/><path d="M103.504 31.339c-.447 0-.894-.028-1.341-.083-1.861-.295-3.472-.985-4.83-2.071a10.01 10.01 0 0 1-3.045-4.059c-1.62.497-3.323.746-5.11.746-3.52 0-6.377-.92-8.574-2.762-2.178-1.859-3.267-4.298-3.267-7.316 0-3.02 1.117-5.44 3.351-7.262 2.234-1.84 5.176-2.761 8.825-2.761 2.103 0 4.151.211 6.143.635.894.184 1.62.386 2.179.607l-.28 5.302h-.25c-.448-1.73-1.332-3.02-2.654-3.866-1.303-.865-2.886-1.298-4.747-1.298-1.862 0-3.398.81-4.608 2.43-1.21 1.62-1.815 3.755-1.815 6.406 0 1.675.26 3.157.782 4.445.52 1.289 1.266 2.292 2.234 3.01a5.36 5.36 0 0 0 3.211 1.05c1.192 0 2.123-.268 2.793-.802.689-.552 1.033-1.27 1.033-2.153v-3.755c.019-.405-.102-.718-.363-.94-.242-.22-.596-.33-1.061-.33h-.419v-.277h9.383v.277h-.447c-.446 0-.79.11-1.033.33-.242.222-.354.535-.335.94v4.473c0 1.067.214 2.126.642 3.175.968 2.32 2.514 3.81 4.636 4.473a6.395 6.395 0 0 0 1.843.276c.615 0 1.22-.064 1.815-.193l.056.276c-1.675.718-3.258 1.077-4.747 1.077Z" fill="#EC2127"/><path d="M103.45 25.209c.484 0 .894-.166 1.229-.497.353-.35.54-.764.558-1.242V8.172c-.018-.59-.27-1.059-.754-1.408a1.688 1.688 0 0 0-1.033-.332h-.363v-.276h9.299c.801 0 1.508-.064 2.123-.193.633-.129 1.033-.23 1.201-.304v5.688h-.28v-.22c0-1.087-.307-1.943-.921-2.569-.615-.625-1.471-.957-2.569-.994h-.978v7.704h3.882c.894-.018 1.62-.304 2.178-.856.559-.57.838-1.298.838-2.181v-.11h.279v7.675h-.279v-.138c0-.865-.279-1.574-.838-2.126-.558-.57-1.275-.865-2.15-.884h-3.91v7.428h5.111c1.359 0 2.56-.442 3.602-1.325 1.043-.884 1.778-2.108 2.206-3.673h.28l-1.062 6.406h-18.012v-.276h.363ZM133.217 13.53c-.577-.958-.866-1.97-.866-3.038 0-1.472.559-2.669 1.676-3.59.67-.57 1.499-.947 2.485-1.131.596-.092 1.071-.138 1.425-.138.372 0 .763.009 1.172.027.41 0 1.006.12 1.788.36.8.239 1.573.533 2.318.883a7.92 7.92 0 0 1 2.094 1.38 11.55 11.55 0 0 1 1.76 1.933c1.079 1.51 1.619 3.332 1.619 5.467 0 3.093-1.163 5.568-3.491 7.427-2.308 1.841-5.371 2.762-9.187 2.762-3.817 0-6.898-.93-9.244-2.79-2.346-1.858-3.519-4.306-3.519-7.344 0-2.503.782-4.647 2.346-6.433 1.583-1.804 3.64-2.918 6.172-3.341l.167.276c-.763.792-1.377 1.97-1.843 3.534-.447 1.547-.67 3.222-.67 5.026 0 2.926.596 5.273 1.787 7.04 1.192 1.768 2.774 2.651 4.748 2.651 1.992 0 3.584-.8 4.775-2.402 1.192-1.601 1.788-3.737 1.788-6.406 0-1.693-.243-3.212-.727-4.556-.465-1.343-1.117-2.347-1.954-3.01-.838-.662-1.723-.993-2.653-.993-1.211 0-2.141.359-2.793 1.077-.763.828-1.145 1.859-1.145 3.092 0 .7.102 1.445.307 2.237h-.335Z" fill="#EC2127"/><path d="M181.688 29.213a6.903 6.903 0 0 1-3.686 1.049c-1.155 0-2.356-.34-3.603-1.022-1.285-.68-2.541-1.647-3.77-2.899l-12.26-12.535v9.719c0 .478.168.883.503 1.215.335.313.735.469 1.201.469h.53v.276h-10.221v-.276h.531a1.7 1.7 0 0 0 1.201-.47c.335-.33.502-.736.502-1.214V7.897c-2.867-3.019-5.38-4.528-7.54-4.528-.54 0-1.061.092-1.564.276l-.139-.249c1.042-.736 2.169-1.104 3.379-1.104.801 0 1.62.156 2.457.47.82.294 1.536.634 2.151 1.02a18.763 18.763 0 0 1 3.072 2.486l11.477 11.735V8.118a1.645 1.645 0 0 0-.53-1.188 1.65 1.65 0 0 0-1.201-.497h-.531v-.276h10.221v.276h-.502c-.466 0-.866.166-1.201.497a1.62 1.62 0 0 0-.531 1.16v15.766l.503.525.642.69c.447.46.745.764.894.911l.977.856c.484.442.875.745 1.173.911.298.184.708.414 1.229.69.521.295.996.48 1.424.553.484.11.996.165 1.536.165s1.061-.073 1.564-.22l.112.276Z" fill="#EC2127"/><path d="M193.301 20.791c0 .792-.177 1.639-.53 2.54-.354.884-.922 1.703-1.704 2.458-.782.755-1.787 1.371-3.016 1.85-1.229.478-2.569.718-4.021.718s-2.756-.23-3.91-.69c-2.16-.847-3.565-2.33-4.217-4.446a5.72 5.72 0 0 1-.251-1.602c0-1.6.493-3.101 1.48-4.5l.251.193c-.614 1.086-.921 2.135-.921 3.148 0 1.252.316 2.356.949 3.313a6.472 6.472 0 0 0 2.541 2.237c1.062.534 2.141.8 3.24.8 1.117 0 2.057-.174 2.82-.524.764-.35 1.322-.82 1.676-1.408a3.539 3.539 0 0 0 .531-1.85c0-.645-.233-1.298-.698-1.96-.466-.682-1.155-1.27-2.067-1.768l-4.552-2.65c-2.309-1.344-3.463-3.074-3.463-5.191 0-1.896.67-3.36 2.011-4.39 1.117-.866 2.634-1.298 4.552-1.298 1.229 0 2.792.092 4.691.276h2.179l-.587 4.5h-.279c0-1.012-.4-1.831-1.201-2.457-.8-.626-1.824-.939-3.072-.939-1.247 0-2.206.212-2.876.635-.67.424-1.033.985-1.089 1.685-.056.478.074.883.391 1.214.279.295.558.525.837.69.28.148.531.286.754.415.224.129.382.212.475.249l5.222 2.954c1.173.644 2.086 1.445 2.737 2.402.745 1.086 1.117 2.218 1.117 3.396ZM236.668 29.075c-3.277 1.27-6.618 1.37-10.025.303a15.096 15.096 0 0 1-4.692-2.485l-2.737-2.126a13.087 13.087 0 0 1-5.055.994c-1.824 0-3.639-.248-5.445-.745-2.495-.7-4.143-1.85-4.943-3.452a4.452 4.452 0 0 1-.447-1.988c0-.718.13-1.362.391-1.933a4.37 4.37 0 0 1 1.061-1.49 7.288 7.288 0 0 1 2.988-1.63c-.8-1.288-1.201-2.457-1.201-3.506 0-1.05.215-1.915.643-2.596a4.458 4.458 0 0 1 1.787-1.573c1.452-.718 3.146-1.077 5.083-1.077 1.321 0 2.541.165 3.658.497 1.136.313 1.918.8 2.346 1.463l-1.313 4.5h-.251c-.037-3.386-1.117-5.08-3.24-5.08-.837 0-1.526.258-2.066.773-.521.516-.782 1.224-.782 2.126 0 .884.382 1.786 1.145 2.706.763.902 1.852 1.951 3.267 3.148a525.269 525.269 0 0 0 5.586 4.639c2.048-2.19 3.072-4.648 3.072-7.372 0-.718-.103-1.547-.308-2.486-.204-.938-.744-2.024-1.619-3.258-.857-1.233-2.002-2.393-3.435-3.479l.195-.165c1.881 1.27 3.351 2.715 4.413 4.335 1.228 1.914 1.843 3.893 1.843 5.936 0 2.853-.959 5.366-2.877 7.538.149.129.494.433 1.034.911.539.46.977.838 1.312 1.132.354.295.847.7 1.48 1.215.633.497 1.164.884 1.592 1.16.428.276.968.598 1.62.966.651.368 1.256.654 1.815.856 1.396.497 2.755.81 4.077.939l.028.303Zm-27.172-12.343c-.149.479-.224.902-.224 1.27 0 3.075 1.248 5.007 3.742 5.799.633.202 1.341.304 2.123.304.8 0 1.666-.166 2.597-.497l-4.859-3.783c-1.378-1.086-2.504-2.117-3.379-3.093ZM249.374 25.485H238.79v-.276h.363a1.68 1.68 0 0 0 1.228-.497c.354-.35.54-.764.559-1.242V7.704c-1.955.202-3.435.745-4.44 1.629-.857.754-1.546 1.72-2.067 2.899l-.279-.11c.372-1.989 1.331-3.48 2.876-4.474 1.564-.994 3.519-1.49 5.865-1.49h6.479c3.5 0 6.227.855 8.182 2.567 1.974 1.694 2.96 4.059 2.96 7.096s-.986 5.412-2.96 7.124c-1.973 1.693-4.701 2.54-8.182 2.54Zm-2.709-1.38h2.15c1.732 0 3.091-.728 4.077-2.182.987-1.472 1.481-3.506 1.481-6.102 0-2.595-.494-4.62-1.481-6.074-.986-1.473-2.345-2.21-4.077-2.21l-2.15.056v16.512ZM281.863 11.57c0 .993-.279 1.913-.838 2.76-.54.829-1.2 1.418-1.982 1.767-.782.332-1.555.497-2.318.497-.224 0-.438-.009-.643-.027 1.173.239 2.244.957 3.212 2.153.447.534.949 1.224 1.508 2.071.559.828.949 1.4 1.173 1.712 1.117 1.583 2.234 2.872 3.351 3.866 2.383 2.135 5.446 3.313 9.188 3.534v.276c-1.024.718-2.309 1.233-3.854 1.546-.912.184-1.825.276-2.737.276-.893 0-1.843-.128-2.848-.386a13.318 13.318 0 0 1-2.96-1.16c-.969-.515-1.955-1.26-2.961-2.236-.986-.976-1.796-1.97-2.429-2.982a41.12 41.12 0 0 1-1.648-2.927c-.465-.939-.912-1.86-1.34-2.761l-.754-1.657c-.54-1.104-1.024-1.721-1.453-1.85v-.276h.447c1.21 0 2.206-.47 2.988-1.408.447-.534.708-1.086.782-1.657.075-.589.112-.966.112-1.132 0-1.38-.41-2.384-1.229-3.01a4.396 4.396 0 0 0-2.792-.966h-1.229V23.47c0 .478.177.892.53 1.242.354.331.773.497 1.257.497h.335v.276h-10.025v-.276h.363a1.68 1.68 0 0 0 1.228-.497c.354-.331.54-.736.559-1.215V8.173c-.019-.681-.316-1.187-.894-1.519a1.886 1.886 0 0 0-.893-.22h-.335v-.277h10.891c2.774 0 4.878.479 6.311 1.436 1.285.865 1.927 2.19 1.927 3.976Z" fill="#EC2127"/><path d="M311.75 30.207c-1.433.828-2.895 1.242-4.384 1.242-1.49 0-2.905-.276-4.245-.828-1.322-.552-2.625-1.519-3.91-2.9-1.266-1.362-2.308-3.027-3.128-4.997l-.754-1.822h-5.976l-1.117 2.567c-.093.24-.14.433-.14.58 0 .148.028.313.084.497.075.166.214.322.419.47.224.129.456.193.698.193h.252v.276h-6.228v-.276h.251c.429 0 .847-.12 1.257-.359.428-.258.782-.635 1.061-1.132l5.697-12.37c-.558-1.528-1.024-2.55-1.396-3.065-.354-.533-.652-.938-.894-1.215a3.918 3.918 0 0 0-1.675-1.132 2.773 2.773 0 0 0-.922-.138c-.354 0-.754.083-1.201.249l-.056-.276c1.49-.865 2.914-1.298 4.273-1.298 2.011 0 3.826.976 5.446 2.927.819 1.012 1.554 2.236 2.206 3.672l4.468 10.133c.819 1.86 1.424 3.111 1.815 3.756.391.625.736 1.16 1.034 1.6.316.461.623.857.921 1.188.298.332.624.654.978.967.614.552 1.387.966 2.318 1.242.391.129.819.193 1.284.193.484 0 .987-.073 1.508-.22l.056.276ZM289.968 19.52h4.803l-1.759-4.28c-.149-.331-.326-.8-.531-1.408l-2.513 5.688ZM330.922 31.339c-.447 0-.894-.028-1.341-.083-1.862-.295-3.472-.985-4.831-2.071a10.009 10.009 0 0 1-3.044-4.059c-1.62.497-3.323.746-5.111.746-3.518 0-6.376-.92-8.573-2.762-2.178-1.859-3.267-4.298-3.267-7.316 0-3.02 1.117-5.44 3.351-7.262 2.234-1.84 5.175-2.761 8.824-2.761 2.104 0 4.152.211 6.144.635.894.184 1.62.386 2.178.607l-.279 5.302h-.251c-.447-1.73-1.331-3.02-2.653-3.866-1.303-.865-2.886-1.298-4.748-1.298-1.861 0-3.397.81-4.607 2.43-1.211 1.62-1.816 3.755-1.816 6.406 0 1.675.261 3.157.782 4.445.522 1.289 1.266 2.292 2.234 3.01a5.36 5.36 0 0 0 3.212 1.05c1.191 0 2.122-.268 2.793-.802.688-.552 1.033-1.27 1.033-2.153v-3.755c.018-.405-.103-.718-.363-.94-.242-.22-.596-.33-1.061-.33h-.419v-.277h9.383v.277h-.447c-.447 0-.791.11-1.033.33-.242.222-.354.535-.335.94v4.473c0 1.067.214 2.126.642 3.175.968 2.32 2.513 3.81 4.636 4.473a6.395 6.395 0 0 0 1.843.276c.614 0 1.219-.064 1.815-.193l.056.276c-1.676.718-3.258 1.077-4.747 1.077Z" fill="#EC2127"/><path d="M339.916 13.53c-.577-.958-.866-1.97-.866-3.038 0-1.472.559-2.669 1.676-3.59.67-.57 1.498-.947 2.485-1.131.596-.092 1.071-.138 1.424-.138.373 0 .764.009 1.173.027.41 0 1.006.12 1.788.36.8.239 1.573.533 2.317.883a7.925 7.925 0 0 1 2.095 1.38c.67.59 1.257 1.234 1.759 1.933 1.08 1.51 1.62 3.332 1.62 5.467 0 3.093-1.164 5.568-3.491 7.427-2.308 1.841-5.371 2.762-9.188 2.762-3.816 0-6.897-.93-9.243-2.79-2.346-1.858-3.519-4.306-3.519-7.344 0-2.503.782-4.647 2.346-6.433 1.582-1.804 3.64-2.918 6.172-3.341l.167.276c-.763.792-1.378 1.97-1.843 3.534-.447 1.547-.67 3.222-.67 5.026 0 2.926.596 5.273 1.787 7.04 1.192 1.768 2.774 2.651 4.748 2.651 1.992 0 3.583-.8 4.775-2.402 1.191-1.601 1.787-3.737 1.787-6.406 0-1.693-.242-3.212-.726-4.556-.465-1.343-1.117-2.347-1.955-3.01-.837-.662-1.722-.993-2.653-.993-1.21 0-2.141.359-2.792 1.077-.764.828-1.145 1.859-1.145 3.092 0 .7.102 1.445.307 2.237h-.335Z" fill="#EC2127"/><path d="M388.387 29.213a6.904 6.904 0 0 1-3.687 1.049c-1.154 0-2.355-.34-3.602-1.022-1.285-.68-2.542-1.647-3.77-2.899l-12.26-12.535v9.719c0 .478.168.883.503 1.215.335.313.735.469 1.201.469h.53v.276h-10.221v-.276h.531c.465 0 .865-.157 1.201-.47.335-.33.502-.736.502-1.214V7.897c-2.867-3.019-5.38-4.528-7.54-4.528-.54 0-1.061.092-1.564.276l-.139-.249c1.042-.736 2.169-1.104 3.379-1.104.8 0 1.619.156 2.457.47.819.294 1.536.634 2.151 1.02a18.712 18.712 0 0 1 3.071 2.486l11.478 11.735V8.118a1.645 1.645 0 0 0-.53-1.188 1.65 1.65 0 0 0-1.201-.497h-.531v-.276h10.221v.276h-.503c-.465 0-.865.166-1.2.497a1.62 1.62 0 0 0-.531 1.16v15.766l.503.525.642.69c.447.46.745.764.894.911l.977.856c.484.442.875.745 1.173.911.298.184.707.414 1.229.69.521.295.996.48 1.424.553.484.11.996.165 1.536.165s1.061-.073 1.564-.22l.112.276Z" fill="#EC2127"/><path d="M400 20.791c0 .792-.177 1.639-.531 2.54-.353.884-.921 1.703-1.703 2.458-.782.755-1.787 1.371-3.016 1.85-1.229.478-2.569.718-4.022.718-1.452 0-2.755-.23-3.909-.69-2.16-.847-3.566-2.33-4.217-4.446a5.684 5.684 0 0 1-.251-1.602c0-1.6.493-3.101 1.48-4.5l.251.193c-.614 1.086-.922 2.135-.922 3.148 0 1.252.317 2.356.95 3.313a6.472 6.472 0 0 0 2.541 2.237c1.061.534 2.141.8 3.24.8 1.117 0 2.057-.174 2.82-.524.764-.35 1.322-.82 1.676-1.408.354-.59.53-1.206.53-1.85 0-.645-.232-1.298-.698-1.96-.465-.682-1.154-1.27-2.066-1.768l-4.552-2.65c-2.309-1.344-3.463-3.074-3.463-5.191 0-1.896.67-3.36 2.011-4.39 1.117-.866 2.634-1.298 4.552-1.298 1.228 0 2.792.092 4.691.276h2.178l-.586 4.5h-.279c0-1.012-.401-1.831-1.201-2.457-.801-.626-1.825-.939-3.072-.939s-2.206.212-2.876.635c-.671.424-1.034.985-1.09 1.685-.055.478.075.883.391 1.214.28.295.559.525.838.69.279.148.531.286.754.415.224.129.382.212.475.249l5.222 2.954c1.173.644 2.085 1.445 2.737 2.402.745 1.086 1.117 2.218 1.117 3.396ZM168.065 47.23c-.615.356-1.241.533-1.879.533a4.723 4.723 0 0 1-1.819-.355c-.567-.236-1.125-.65-1.676-1.242-.543-.584-.989-1.298-1.34-2.142l-.324-.781h-2.561l-.479 1.1a.745.745 0 0 0-.059.249c0 .063.012.134.035.213a.523.523 0 0 0 .18.201.59.59 0 0 0 .299.083h.108v.118h-2.669v-.118h.108c.183 0 .363-.051.538-.154.184-.11.335-.272.455-.485l2.442-5.301c-.24-.655-.439-1.093-.599-1.314a4.956 4.956 0 0 0-.383-.52 1.678 1.678 0 0 0-.718-.486 1.188 1.188 0 0 0-.395-.059c-.151 0-.323.036-.514.107l-.024-.119c.638-.37 1.248-.556 1.831-.556.861 0 1.639.418 2.334 1.255.351.433.666.958.945 1.573l1.915 4.343c.351.797.61 1.333.778 1.61.168.268.315.497.443.686.135.197.267.367.395.509.127.142.267.28.419.414.263.236.594.414.993.532.168.056.351.083.551.083.207 0 .422-.031.646-.095l.024.119Zm-9.336-4.579h2.059l-.754-1.834a6.76 6.76 0 0 1-.227-.603l-1.078 2.437ZM175.832 34.285c.112 0 .224.008.335.024v.118c-.718.087-1.26.422-1.627 1.006-.367.584-.551 1.357-.551 2.32v4.413c-.016 1.042-.355 1.838-1.017 2.39-.654.545-1.628.817-2.92.817-1.293 0-2.31-.284-3.052-.852-.742-.568-1.113-1.325-1.113-2.272v-4.627a.525.525 0 0 0-.192-.414.628.628 0 0 0-.443-.166h-.191v-.118h4.105v.118h-.192c-.247 0-.431.095-.55.284a.675.675 0 0 0-.084.273v4.532c0 .82.207 1.467.622 1.94.423.466.982.699 1.676.699H170.674c.662 0 1.205-.217 1.628-.651.43-.442.646-1.053.646-1.834v-4.533c0-.978.287-1.818.862-2.52.271-.324.586-.56.945-.71a2.715 2.715 0 0 1 1.077-.237Z" fill="#EC2127"/><path d="M175.217 39.953c-.487-.426-.73-.883-.73-1.372 0-.458.187-.845.562-1.16.399-.34.918-.509 1.556-.509h6.116c.247 0 .514-.023.802-.07.287-.048.49-.096.61-.143v2.438l-.12-.012v-.083c0-.639-.239-1.089-.718-1.349a1.895 1.895 0 0 0-.825-.19h-1.173v6.852a.746.746 0 0 0 .227.521.762.762 0 0 0 .539.213h.155v.118h-4.296v-.118h.155a.721.721 0 0 0 .527-.213.717.717 0 0 0 .239-.509v-6.863h-2.238c-.447 0-.818.106-1.113.32-.343.244-.515.552-.515.922 0 .363.124.746.371 1.148l-.131.06ZM189.097 40.084a2.484 2.484 0 0 1-.371-1.302c0-.631.24-1.144.718-1.538a2.248 2.248 0 0 1 1.066-.486c.255-.04.458-.059.61-.059.159 0 .327.004.503.012.175 0 .43.051.766.154.343.102.674.229.993.378.319.142.618.34.898.592.287.253.538.529.754.828.462.647.694 1.428.694 2.344 0 1.325-.499 2.386-1.496 3.183-.99.788-2.302 1.183-3.938 1.183-1.636 0-2.956-.398-3.961-1.195-1.006-.797-1.509-1.846-1.509-3.148 0-1.073.336-1.992 1.006-2.757.678-.773 1.56-1.25 2.645-1.432l.072.118c-.327.34-.591.845-.79 1.515a7.71 7.71 0 0 0-.287 2.154c0 1.254.255 2.26.766 3.017.51.758 1.188 1.136 2.034 1.136.854 0 1.536-.343 2.047-1.03.51-.685.766-1.6.766-2.744 0-.726-.104-1.377-.311-1.953-.2-.576-.479-1.006-.838-1.29-.359-.284-.738-.426-1.137-.426-.519 0-.918.154-1.197.462-.327.355-.491.796-.491 1.325 0 .3.044.62.132.959h-.144Z" fill="#EC2127"/><path d="M194.78 36.38c.566-.3 1.121-.45 1.663-.45.551 0 1.053.114 1.508.343.91.466 1.688 1.227 2.334 2.284l2.142 3.444 3.555-5.243h.108l1.352 6.923c.272 1.42.674 2.406 1.209 2.958.423.434.962.651 1.616.651h.179v.118a3.99 3.99 0 0 1-1.544.308c-1.061 0-1.982-.41-2.764-1.23-.655-.68-1.113-1.638-1.377-2.876l-.55-2.497-2.047 3.006c-.135.189-.255.418-.359.686-.104.268-.151.497-.144.686h-.107l-2.909-4.922-.598 3.976v.047a.56.56 0 0 0 .132.355.443.443 0 0 0 .335.154h.179v.106h-2.621v-.118h.192a.878.878 0 0 0 .562-.19.846.846 0 0 0 .311-.532l.826-5.076a10.91 10.91 0 0 0-1.352-1.87c-.567-.615-1.133-.923-1.7-.923h-.095l-.036-.118Z" fill="#EC2127"/><path d="M220.095 47.23c-.615.356-1.241.533-1.879.533a4.723 4.723 0 0 1-1.819-.355c-.567-.236-1.125-.65-1.676-1.242-.543-.584-.989-1.298-1.34-2.142l-.324-.781h-2.561l-.479 1.1a.745.745 0 0 0-.059.249c0 .063.012.134.035.213a.523.523 0 0 0 .18.201.59.59 0 0 0 .299.083h.108v.118h-2.669v-.118h.108c.183 0 .363-.051.538-.154.184-.11.335-.272.455-.485l2.442-5.301c-.24-.655-.439-1.093-.599-1.314a4.956 4.956 0 0 0-.383-.52 1.678 1.678 0 0 0-.718-.486 1.188 1.188 0 0 0-.395-.059c-.151 0-.323.036-.515.107l-.023-.119c.638-.37 1.248-.556 1.831-.556.861 0 1.639.418 2.334 1.255.351.433.666.958.945 1.573l1.915 4.343c.351.797.61 1.333.778 1.61.168.268.315.497.443.686.135.197.267.367.395.509.127.142.267.28.419.414.263.236.594.414.993.532.168.056.351.083.551.083.207 0 .422-.031.646-.095l.024.119Zm-9.336-4.579h2.059l-.754-1.834a6.76 6.76 0 0 1-.227-.603l-1.078 2.437Z" fill="#EC2127"/><path d="M215.924 39.953c-.486-.426-.73-.883-.73-1.372 0-.458.188-.845.563-1.16.399-.34.917-.509 1.556-.509h6.116c.247 0 .514-.023.801-.07.288-.048.491-.096.611-.143v2.438l-.12-.012v-.083c0-.639-.239-1.089-.718-1.349a1.9 1.9 0 0 0-.826-.19h-1.173v6.852a.747.747 0 0 0 .228.521.76.76 0 0 0 .538.213h.156v.118h-4.297v-.118h.156a.719.719 0 0 0 .526-.213.715.715 0 0 0 .24-.509v-6.863h-2.238c-.447 0-.818.106-1.113.32-.344.244-.515.552-.515.922 0 .363.124.746.371 1.148l-.132.06ZM229.805 40.084a2.484 2.484 0 0 1-.371-1.302c0-.631.239-1.144.718-1.538a2.24 2.24 0 0 1 1.065-.486c.255-.04.459-.059.611-.059.159 0 .327.004.502.012.176 0 .431.051.766.154.343.102.674.229.994.378.319.142.618.34.897.592.287.253.539.529.754.828.463.647.694 1.428.694 2.344 0 1.325-.498 2.386-1.496 3.183-.989.788-2.302 1.183-3.937 1.183-1.636 0-2.956-.398-3.962-1.195-1.005-.797-1.508-1.846-1.508-3.148 0-1.073.335-1.992 1.006-2.757.678-.773 1.559-1.25 2.645-1.432l.071.118c-.327.34-.59.845-.79 1.515a7.748 7.748 0 0 0-.287 2.154c0 1.254.256 2.26.766 3.017.511.758 1.189 1.136 2.035 1.136.854 0 1.536-.343 2.046-1.03.511-.685.766-1.6.766-2.744 0-.726-.103-1.377-.311-1.953-.199-.576-.479-1.006-.838-1.29-.359-.284-.738-.426-1.137-.426-.518 0-.917.154-1.196.462-.328.355-.491.796-.491 1.325 0 .3.044.62.132.959h-.144ZM245.539 39.243c0 .426-.119.82-.359 1.184-.231.355-.514.607-.849.757a2.539 2.539 0 0 1-1.269.201c.503.103.961.41 1.376.923.192.229.407.525.647.888.239.355.407.6.502.733.479.679.958 1.231 1.436 1.657 1.022.915 2.334 1.42 3.938 1.515v.118c-.439.308-.989.529-1.652.663a5.914 5.914 0 0 1-1.172.118c-.383 0-.79-.055-1.221-.166a5.714 5.714 0 0 1-1.269-.497c-.415-.22-.838-.54-1.269-.958a7.142 7.142 0 0 1-1.041-1.278 17.86 17.86 0 0 1-.706-1.255 76.866 76.866 0 0 1-.574-1.183l-.324-.71c-.231-.473-.438-.738-.622-.793v-.118h.192c.518 0 .945-.201 1.28-.604.192-.228.303-.465.335-.71a5.22 5.22 0 0 0 .048-.485c0-.591-.175-1.021-.526-1.29a1.886 1.886 0 0 0-1.197-.414h-.527v6.804c0 .206.076.383.227.533a.764.764 0 0 0 .539.213h.144v.118h-4.297v-.118h.156a.719.719 0 0 0 .526-.213.727.727 0 0 0 .24-.52v-6.568a.727.727 0 0 0-.383-.651.812.812 0 0 0-.383-.095h-.144v-.118h4.668c1.189 0 2.09.205 2.705.615.55.371.825.94.825 1.704Z" fill="#EC2127"/></svg>