<svg width="402" height="49" viewBox="0 0 402 49" fill="none" xmlns="http://www.w3.org/2000/svg">
<path d="M15.26 25.844H4.648V25.564H5.012C5.49733 25.564 5.908 25.396 6.244 25.06C6.59867 24.7053 6.78533 24.2853 6.804 23.8V7.812C4.844 8.01733 3.36 8.568 2.352 9.464C1.49333 10.2293 0.802667 11.2093 0.28 12.404L0 12.292C0.373333 10.276 1.33467 8.764 2.884 7.756C4.452 6.748 6.412 6.244 8.764 6.244H15.26C18.7693 6.244 21.504 7.112 23.464 8.848C25.4427 10.5653 26.432 12.964 26.432 16.044C26.432 19.124 25.4427 21.532 23.464 23.268C21.4853 24.9853 18.7507 25.844 15.26 25.844ZM12.544 24.444H14.7C16.436 24.444 17.7987 23.7067 18.788 22.232C19.7773 20.7387 20.272 18.676 20.272 16.044C20.272 13.412 19.7773 11.3587 18.788 9.884C17.7987 8.39067 16.436 7.644 14.7 7.644L12.544 7.7V24.444Z" fill="#EC2127"/>
<path d="M53.8239 0C54.0852 0 54.3465 0.0186664 54.6079 0.0559993V0.335999C52.9279 0.541333 51.6585 1.33467 50.7999 2.716C49.9412 4.09733 49.5119 5.92667 49.5119 8.204V18.648C49.4745 21.112 48.6812 22.9973 47.1319 24.304C45.6012 25.592 43.3239 26.236 40.2999 26.236C37.2759 26.236 34.8959 25.564 33.1599 24.22C31.4239 22.876 30.5559 21.084 30.5559 18.844C30.5559 18.788 30.5559 18.732 30.5559 18.676V7.896C30.5559 7.504 30.4065 7.17733 30.1079 6.916C29.8279 6.65467 29.4825 6.524 29.0719 6.524H28.6239V6.244H38.2279V6.524H37.7799C37.2012 6.524 36.7719 6.748 36.4919 7.196C36.3799 7.40133 36.3145 7.616 36.2959 7.84V18.564C36.2959 20.5053 36.7812 22.036 37.7519 23.156C38.7412 24.2573 40.0479 24.808 41.6719 24.808C41.6905 24.808 41.6999 24.808 41.6999 24.808C41.7185 24.808 41.7372 24.808 41.7559 24.808C43.3052 24.808 44.5745 24.2947 45.5639 23.268C46.5719 22.2227 47.0759 20.776 47.0759 18.928V8.204C47.0759 5.88933 47.7479 3.90133 49.0919 2.24C49.7265 1.47467 50.4639 0.914666 51.3039 0.559999C52.1625 0.186666 53.0025 0 53.8239 0Z" fill="#EC2127"/>
<path d="M83.7327 29.624C82.594 30.3333 81.362 30.688 80.0367 30.688C78.8794 30.688 77.6754 30.3427 76.4247 29.652C75.1367 28.9613 73.8767 27.9813 72.6447 26.712L60.3527 14V23.856C60.3527 24.3413 60.5207 24.752 60.8567 25.088C61.1927 25.4053 61.594 25.564 62.0607 25.564H62.5927V25.844H52.3447V25.564H52.8767C53.3434 25.564 53.7447 25.4053 54.0807 25.088C54.4167 24.752 54.5847 24.3413 54.5847 23.856V8.008C51.71 4.94667 49.19 3.416 47.0247 3.416C46.4834 3.416 45.9607 3.50933 45.4567 3.696L45.3167 3.444C46.362 2.69733 47.4914 2.324 48.7047 2.324C49.5074 2.324 50.3287 2.48267 51.1687 2.8C51.99 3.09867 52.7087 3.444 53.3247 3.836C54.482 4.60133 55.5087 5.44133 56.4047 6.356L67.9127 18.256V8.232C67.894 7.74667 67.7167 7.34533 67.3807 7.028C67.0447 6.692 66.6434 6.524 66.1767 6.524H65.6447V6.244H75.8927V6.524H75.3887C74.922 6.524 74.5207 6.692 74.1847 7.028C73.8487 7.34533 73.6714 7.73733 73.6527 8.204V24.192L74.1567 24.724C74.1567 24.724 74.3714 24.9573 74.8007 25.424C75.2487 25.8907 75.5474 26.1987 75.6967 26.348C75.8647 26.4973 76.1914 26.7867 76.6767 27.216C77.162 27.664 77.554 27.972 77.8527 28.14C78.1514 28.3267 78.562 28.56 79.0847 28.84C79.6074 29.1387 80.0834 29.3253 80.5127 29.4C80.998 29.512 81.5114 29.568 82.0527 29.568C82.594 29.568 83.1167 29.4933 83.6207 29.344L83.7327 29.624Z" fill="#EC2127"/>
<path d="M103.777 31.78C103.329 31.78 102.881 31.752 102.433 31.696C100.566 31.3973 98.9514 30.6973 97.5887 29.596C96.2261 28.4947 95.2088 27.1227 94.5368 25.48C92.9128 25.984 91.2048 26.236 89.4128 26.236C85.8848 26.236 83.0194 25.3027 80.8167 23.436C78.6327 21.5507 77.5407 19.0773 77.5407 16.016C77.5407 12.9547 78.6607 10.5 80.9007 8.652C83.1407 6.78533 86.0901 5.852 89.7487 5.852C91.8581 5.852 93.9114 6.06667 95.9087 6.496C96.8047 6.68267 97.5328 6.888 98.0928 7.112L97.8127 12.488H97.5607C97.1127 10.7333 96.2261 9.42667 94.9007 8.568C93.5941 7.69067 92.0074 7.252 90.1407 7.252C88.2741 7.252 86.7341 8.07333 85.5207 9.716C84.3074 11.3587 83.7007 13.524 83.7007 16.212C83.7007 17.9107 83.9621 19.4133 84.4847 20.72C85.0074 22.0267 85.7541 23.044 86.7247 23.772C87.6954 24.4813 88.7687 24.836 89.9447 24.836C91.1394 24.836 92.0728 24.5653 92.7448 24.024C93.4354 23.464 93.7807 22.736 93.7807 21.84V18.032C93.7994 17.6213 93.6781 17.304 93.4167 17.08C93.1741 16.856 92.8194 16.744 92.3527 16.744H91.9327V16.464H101.341V16.744H100.893C100.445 16.744 100.099 16.856 99.8568 17.08C99.6141 17.304 99.5021 17.6213 99.5207 18.032V22.568C99.5207 23.6507 99.7354 24.724 100.165 25.788C101.135 28.14 102.685 29.652 104.813 30.324C105.429 30.5107 106.045 30.604 106.661 30.604C107.277 30.604 107.883 30.5387 108.481 30.408L108.537 30.688C106.857 31.416 105.27 31.78 103.777 31.78Z" fill="#EC2127"/>
<path d="M103.723 25.564C104.208 25.564 104.619 25.396 104.955 25.06C105.309 24.7053 105.496 24.2853 105.515 23.8V8.288C105.496 7.69067 105.244 7.21467 104.759 6.86C104.46 6.636 104.115 6.524 103.723 6.524H103.359V6.244H112.683C113.485 6.244 114.195 6.17867 114.811 6.048C115.445 5.91733 115.847 5.81467 116.015 5.74V11.508H115.735V11.284C115.735 10.1827 115.427 9.31467 114.811 8.68C114.195 8.04533 113.336 7.70933 112.235 7.672H111.255V15.484H115.147C116.043 15.4653 116.771 15.176 117.331 14.616C117.891 14.0373 118.171 13.3 118.171 12.404V12.292H118.451V20.076H118.171V19.936C118.171 19.0587 117.891 18.34 117.331 17.78C116.771 17.2013 116.052 16.9027 115.175 16.884H111.255V24.416H116.379C117.741 24.416 118.945 23.968 119.991 23.072C121.036 22.176 121.773 20.9347 122.203 19.348H122.483L121.419 25.844H103.359V25.564H103.723Z" fill="#EC2127"/>
<path d="M133.568 13.72C132.99 12.7493 132.7 11.7227 132.7 10.64C132.7 9.14667 133.26 7.93333 134.38 7C135.052 6.42133 135.883 6.03867 136.872 5.852C137.47 5.75867 137.946 5.712 138.3 5.712C138.674 5.712 139.066 5.72133 139.476 5.74C139.887 5.74 140.484 5.86133 141.268 6.104C142.071 6.34667 142.846 6.64533 143.592 7C144.339 7.336 145.039 7.80267 145.692 8.4C146.364 8.99733 146.952 9.65067 147.456 10.36C148.539 11.8907 149.08 13.7387 149.08 15.904C149.08 19.04 147.914 21.5507 145.58 23.436C143.266 25.3027 140.195 26.236 136.368 26.236C132.542 26.236 129.452 25.2933 127.1 23.408C124.748 21.5227 123.572 19.04 123.572 15.96C123.572 13.4213 124.356 11.2467 125.924 9.436C127.511 7.60667 129.574 6.47733 132.112 6.048L132.28 6.328C131.515 7.13067 130.899 8.32533 130.432 9.912C129.984 11.48 129.76 13.1787 129.76 15.008C129.76 17.976 130.358 20.356 131.552 22.148C132.747 23.94 134.334 24.836 136.312 24.836C138.31 24.836 139.906 24.024 141.1 22.4C142.295 20.776 142.892 18.6107 142.892 15.904C142.892 14.1867 142.65 12.6467 142.164 11.284C141.698 9.92133 141.044 8.904 140.204 8.232C139.364 7.56 138.478 7.224 137.544 7.224C136.331 7.224 135.398 7.588 134.744 8.316C133.979 9.156 133.596 10.2013 133.596 11.452C133.596 12.1613 133.699 12.9173 133.904 13.72H133.568Z" fill="#EC2127"/>
<path d="M182.167 29.624C181.028 30.3333 179.796 30.688 178.471 30.688C177.314 30.688 176.11 30.3427 174.859 29.652C173.571 28.9613 172.311 27.9813 171.079 26.712L158.787 14V23.856C158.787 24.3413 158.955 24.752 159.291 25.088C159.627 25.4053 160.028 25.564 160.495 25.564H161.027V25.844H150.779V25.564H151.311C151.778 25.564 152.179 25.4053 152.515 25.088C152.851 24.752 153.019 24.3413 153.019 23.856V8.008C150.144 4.94667 147.624 3.416 145.459 3.416C144.918 3.416 144.395 3.50933 143.891 3.696L143.751 3.444C144.796 2.69733 145.926 2.324 147.139 2.324C147.942 2.324 148.763 2.48267 149.603 2.8C150.424 3.09867 151.143 3.444 151.759 3.836C152.916 4.60133 153.943 5.44133 154.839 6.356L166.347 18.256V8.232C166.328 7.74667 166.151 7.34533 165.815 7.028C165.479 6.692 165.078 6.524 164.611 6.524H164.079V6.244H174.327V6.524H173.823C173.356 6.524 172.955 6.692 172.619 7.028C172.283 7.34533 172.106 7.73733 172.087 8.204V24.192L172.591 24.724C172.591 24.724 172.806 24.9573 173.235 25.424C173.683 25.8907 173.982 26.1987 174.131 26.348C174.299 26.4973 174.626 26.7867 175.111 27.216C175.596 27.664 175.988 27.972 176.287 28.14C176.586 28.3267 176.996 28.56 177.519 28.84C178.042 29.1387 178.518 29.3253 178.947 29.4C179.432 29.512 179.946 29.568 180.487 29.568C181.028 29.568 181.551 29.4933 182.055 29.344L182.167 29.624Z" fill="#EC2127"/>
<path d="M193.811 21.084C193.811 21.8867 193.634 22.7453 193.279 23.66C192.924 24.556 192.355 25.3867 191.571 26.152C190.787 26.9173 189.779 27.5427 188.547 28.028C187.315 28.5133 185.971 28.756 184.515 28.756C183.059 28.756 181.752 28.5227 180.595 28.056C178.43 27.1973 177.02 25.6947 176.367 23.548C176.199 22.9693 176.115 22.428 176.115 21.924C176.115 20.3 176.61 18.7787 177.599 17.36L177.851 17.556C177.235 18.6573 176.927 19.7213 176.927 20.748C176.927 22.0173 177.244 23.1373 177.879 24.108C178.514 25.0787 179.363 25.8347 180.427 26.376C181.491 26.9173 182.574 27.188 183.675 27.188C184.795 27.188 185.738 27.0107 186.503 26.656C187.268 26.3013 187.828 25.8253 188.183 25.228C188.538 24.6307 188.715 24.0053 188.715 23.352C188.715 22.6987 188.482 22.036 188.015 21.364C187.548 20.6733 186.858 20.076 185.943 19.572L181.379 16.884C179.064 15.5213 177.907 13.7667 177.907 11.62C177.907 9.69733 178.579 8.21333 179.923 7.168C181.043 6.29067 182.564 5.852 184.487 5.852C185.719 5.852 187.287 5.94533 189.191 6.132H191.375L190.787 10.696H190.507C190.507 9.66933 190.106 8.83867 189.303 8.204C188.5 7.56933 187.474 7.252 186.223 7.252C184.972 7.252 184.011 7.46667 183.339 7.896C182.667 8.32533 182.303 8.89467 182.247 9.604C182.191 10.0893 182.322 10.5 182.639 10.836C182.919 11.1347 183.199 11.368 183.479 11.536C183.759 11.6853 184.011 11.8253 184.235 11.956C184.459 12.0867 184.618 12.1707 184.711 12.208L189.947 15.204C191.123 15.8573 192.038 16.6693 192.691 17.64C193.438 18.7413 193.811 19.8893 193.811 21.084Z" fill="#EC2127"/>
<path d="M237.292 29.484C234.007 30.772 230.656 30.8747 227.24 29.792C225.523 29.232 223.955 28.392 222.536 27.272L219.792 25.116C218.187 25.788 216.497 26.124 214.724 26.124C212.895 26.124 211.075 25.872 209.264 25.368C206.763 24.6587 205.111 23.492 204.308 21.868C204.009 21.252 203.86 20.58 203.86 19.852C203.86 19.124 203.991 18.4707 204.252 17.892C204.513 17.2947 204.868 16.7907 205.316 16.38C206.175 15.596 207.173 15.0453 208.312 14.728C207.509 13.4213 207.108 12.236 207.108 11.172C207.108 10.108 207.323 9.23067 207.752 8.54C208.2 7.84933 208.797 7.31733 209.544 6.944C211 6.216 212.699 5.852 214.64 5.852C215.965 5.852 217.188 6.02 218.308 6.356C219.447 6.67333 220.231 7.168 220.66 7.84L219.344 12.404H219.092C219.055 8.96933 217.972 7.252 215.844 7.252C215.004 7.252 214.313 7.51333 213.772 8.036C213.249 8.55867 212.988 9.27733 212.988 10.192C212.988 11.088 213.371 12.0027 214.136 12.936C214.901 13.8507 215.993 14.9147 217.412 16.128C218.831 17.3413 220.697 18.9093 223.012 20.832C225.065 18.6107 226.092 16.1187 226.092 13.356C226.092 12.628 225.989 11.788 225.784 10.836C225.579 9.884 225.037 8.78267 224.16 7.532C223.301 6.28133 222.153 5.10533 220.716 4.004L220.912 3.836C222.797 5.124 224.272 6.58933 225.336 8.232C226.568 10.1733 227.184 12.18 227.184 14.252C227.184 17.1453 226.223 19.6933 224.3 21.896C224.449 22.0267 224.795 22.3347 225.336 22.82C225.877 23.2867 226.316 23.6693 226.652 23.968C227.007 24.2667 227.501 24.6773 228.136 25.2C228.771 25.704 229.303 26.096 229.732 26.376C230.161 26.656 230.703 26.9827 231.356 27.356C232.009 27.7293 232.616 28.0187 233.176 28.224C234.576 28.728 235.939 29.0453 237.264 29.176L237.292 29.484ZM210.048 16.968C209.899 17.4533 209.824 17.8827 209.824 18.256C209.824 21.3733 211.075 23.3333 213.576 24.136C214.211 24.3413 214.92 24.444 215.704 24.444C216.507 24.444 217.375 24.276 218.308 23.94L213.436 20.104C212.055 19.0027 210.925 17.9573 210.048 16.968Z" fill="#EC2127"/>
<path d="M250.031 25.844H239.419V25.564H239.783C240.269 25.564 240.679 25.396 241.015 25.06C241.37 24.7053 241.557 24.2853 241.575 23.8V7.812C239.615 8.01733 238.131 8.568 237.123 9.464C236.265 10.2293 235.574 11.2093 235.051 12.404L234.771 12.292C235.145 10.276 236.106 8.764 237.655 7.756C239.223 6.748 241.183 6.244 243.535 6.244H250.031C253.541 6.244 256.275 7.112 258.235 8.848C260.214 10.5653 261.203 12.964 261.203 16.044C261.203 19.124 260.214 21.532 258.235 23.268C256.257 24.9853 253.522 25.844 250.031 25.844ZM247.315 24.444H249.471C251.207 24.444 252.57 23.7067 253.559 22.232C254.549 20.7387 255.043 18.676 255.043 16.044C255.043 13.412 254.549 11.3587 253.559 9.884C252.57 8.39067 251.207 7.644 249.471 7.644L247.315 7.7V24.444Z" fill="#EC2127"/>
<path d="M282.606 11.732C282.606 12.74 282.326 13.6733 281.766 14.532C281.225 15.372 280.562 15.9693 279.778 16.324C278.994 16.66 278.22 16.828 277.454 16.828C277.23 16.828 277.016 16.8187 276.81 16.8C277.986 17.0427 279.06 17.7707 280.03 18.984C280.478 19.5253 280.982 20.2253 281.542 21.084C282.102 21.924 282.494 22.5027 282.718 22.82C283.838 24.4253 284.958 25.732 286.078 26.74C288.468 28.9053 291.538 30.1 295.29 30.324V30.604C294.264 31.332 292.976 31.8547 291.426 32.172C290.512 32.3587 289.597 32.452 288.682 32.452C287.786 32.452 286.834 32.3213 285.826 32.06C284.818 31.7987 283.829 31.4067 282.858 30.884C281.888 30.3613 280.898 29.6053 279.89 28.616C278.901 27.6267 278.089 26.6187 277.454 25.592C276.82 24.5467 276.269 23.5573 275.802 22.624C275.336 21.672 274.888 20.7387 274.458 19.824C274.048 18.9093 273.796 18.3493 273.702 18.144C273.161 17.024 272.676 16.3987 272.246 16.268V15.988H272.694C273.908 15.988 274.906 15.512 275.69 14.56C276.138 14.0187 276.4 13.4587 276.474 12.88C276.549 12.2827 276.586 11.9 276.586 11.732C276.586 10.332 276.176 9.31467 275.354 8.68C274.533 8.02667 273.6 7.7 272.554 7.7H271.322V23.8C271.322 24.2853 271.5 24.7053 271.854 25.06C272.209 25.396 272.629 25.564 273.114 25.564H273.45V25.844H263.398V25.564H263.762C264.248 25.564 264.658 25.396 264.994 25.06C265.349 24.724 265.536 24.3133 265.554 23.828V8.288C265.536 7.59733 265.237 7.084 264.658 6.748C264.378 6.59867 264.08 6.524 263.762 6.524H263.426V6.244H274.346C277.128 6.244 279.237 6.72933 280.674 7.7C281.962 8.57733 282.606 9.92133 282.606 11.732Z" fill="#EC2127"/>
<path d="M312.572 30.632C311.135 31.472 309.669 31.892 308.176 31.892C306.683 31.892 305.264 31.612 303.92 31.052C302.595 30.492 301.288 29.512 300 28.112C298.731 26.7307 297.685 25.0413 296.864 23.044L296.108 21.196H290.116L288.996 23.8C288.903 24.0427 288.856 24.2387 288.856 24.388C288.856 24.5373 288.884 24.7053 288.94 24.892C289.015 25.06 289.155 25.2187 289.36 25.368C289.584 25.4987 289.817 25.564 290.06 25.564H290.312V25.844H284.068V25.564H284.32C284.749 25.564 285.169 25.4427 285.58 25.2C286.009 24.9387 286.364 24.556 286.644 24.052L292.356 11.508C291.796 9.95867 291.329 8.92267 290.956 8.4C290.601 7.85867 290.303 7.448 290.06 7.168C289.612 6.64533 289.052 6.26267 288.38 6.02C288.119 5.92667 287.811 5.88 287.456 5.88C287.101 5.88 286.7 5.964 286.252 6.132L286.196 5.852C287.689 4.97467 289.117 4.536 290.48 4.536C292.496 4.536 294.316 5.52533 295.94 7.504C296.761 8.53067 297.499 9.772 298.152 11.228L302.632 21.504C303.453 23.3893 304.06 24.6587 304.452 25.312C304.844 25.9467 305.189 26.488 305.488 26.936C305.805 27.4027 306.113 27.804 306.412 28.14C306.711 28.476 307.037 28.8027 307.392 29.12C308.008 29.68 308.783 30.1 309.716 30.38C310.108 30.5107 310.537 30.576 311.004 30.576C311.489 30.576 311.993 30.5013 312.516 30.352L312.572 30.632ZM290.732 19.796H295.548L293.784 15.456C293.635 15.12 293.457 14.644 293.252 14.028L290.732 19.796Z" fill="#EC2127"/>
<path d="M331.794 31.78C331.346 31.78 330.898 31.752 330.45 31.696C328.583 31.3973 326.969 30.6973 325.606 29.596C324.243 28.4947 323.226 27.1227 322.554 25.48C320.93 25.984 319.222 26.236 317.43 26.236C313.902 26.236 311.037 25.3027 308.834 23.436C306.65 21.5507 305.558 19.0773 305.558 16.016C305.558 12.9547 306.678 10.5 308.918 8.652C311.158 6.78533 314.107 5.852 317.766 5.852C319.875 5.852 321.929 6.06667 323.926 6.496C324.822 6.68267 325.55 6.888 326.11 7.112L325.83 12.488H325.578C325.13 10.7333 324.243 9.42667 322.918 8.568C321.611 7.69067 320.025 7.252 318.158 7.252C316.291 7.252 314.751 8.07333 313.538 9.716C312.325 11.3587 311.718 13.524 311.718 16.212C311.718 17.9107 311.979 19.4133 312.502 20.72C313.025 22.0267 313.771 23.044 314.742 23.772C315.713 24.4813 316.786 24.836 317.962 24.836C319.157 24.836 320.09 24.5653 320.762 24.024C321.453 23.464 321.798 22.736 321.798 21.84V18.032C321.817 17.6213 321.695 17.304 321.434 17.08C321.191 16.856 320.837 16.744 320.37 16.744H319.95V16.464H329.358V16.744H328.91C328.462 16.744 328.117 16.856 327.874 17.08C327.631 17.304 327.519 17.6213 327.538 18.032V22.568C327.538 23.6507 327.753 24.724 328.182 25.788C329.153 28.14 330.702 29.652 332.83 30.324C333.446 30.5107 334.062 30.604 334.678 30.604C335.294 30.604 335.901 30.5387 336.498 30.408L336.554 30.688C334.874 31.416 333.287 31.78 331.794 31.78Z" fill="#EC2127"/>
<path d="M340.812 13.72C340.233 12.7493 339.944 11.7227 339.944 10.64C339.944 9.14667 340.504 7.93333 341.624 7C342.296 6.42133 343.127 6.03867 344.116 5.852C344.713 5.75867 345.189 5.712 345.544 5.712C345.917 5.712 346.309 5.72133 346.72 5.74C347.131 5.74 347.728 5.86133 348.512 6.104C349.315 6.34667 350.089 6.64533 350.836 7C351.583 7.336 352.283 7.80267 352.936 8.4C353.608 8.99733 354.196 9.65067 354.7 10.36C355.783 11.8907 356.324 13.7387 356.324 15.904C356.324 19.04 355.157 21.5507 352.824 23.436C350.509 25.3027 347.439 26.236 343.612 26.236C339.785 26.236 336.696 25.2933 334.344 23.408C331.992 21.5227 330.816 19.04 330.816 15.96C330.816 13.4213 331.6 11.2467 333.168 9.436C334.755 7.60667 336.817 6.47733 339.356 6.048L339.524 6.328C338.759 7.13067 338.143 8.32533 337.676 9.912C337.228 11.48 337.004 13.1787 337.004 15.008C337.004 17.976 337.601 20.356 338.796 22.148C339.991 23.94 341.577 24.836 343.556 24.836C345.553 24.836 347.149 24.024 348.344 22.4C349.539 20.776 350.136 18.6107 350.136 15.904C350.136 14.1867 349.893 12.6467 349.408 11.284C348.941 9.92133 348.288 8.904 347.448 8.232C346.608 7.56 345.721 7.224 344.788 7.224C343.575 7.224 342.641 7.588 341.988 8.316C341.223 9.156 340.84 10.2013 340.84 11.452C340.84 12.1613 340.943 12.9173 341.148 13.72H340.812Z" fill="#EC2127"/>
<path d="M389.411 29.624C388.272 30.3333 387.04 30.688 385.715 30.688C384.557 30.688 383.353 30.3427 382.103 29.652C380.815 28.9613 379.555 27.9813 378.323 26.712L366.031 14V23.856C366.031 24.3413 366.199 24.752 366.535 25.088C366.871 25.4053 367.272 25.564 367.739 25.564H368.271V25.844H358.023V25.564H358.555C359.021 25.564 359.423 25.4053 359.759 25.088C360.095 24.752 360.263 24.3413 360.263 23.856V8.008C357.388 4.94667 354.868 3.416 352.703 3.416C352.161 3.416 351.639 3.50933 351.135 3.696L350.995 3.444C352.04 2.69733 353.169 2.324 354.383 2.324C355.185 2.324 356.007 2.48267 356.847 2.8C357.668 3.09867 358.387 3.444 359.003 3.836C360.16 4.60133 361.187 5.44133 362.083 6.356L373.591 18.256V8.232C373.572 7.74667 373.395 7.34533 373.059 7.028C372.723 6.692 372.321 6.524 371.855 6.524H371.323V6.244H381.571V6.524H381.067C380.6 6.524 380.199 6.692 379.863 7.028C379.527 7.34533 379.349 7.73733 379.331 8.204V24.192L379.835 24.724C379.835 24.724 380.049 24.9573 380.479 25.424C380.927 25.8907 381.225 26.1987 381.375 26.348C381.543 26.4973 381.869 26.7867 382.355 27.216C382.84 27.664 383.232 27.972 383.531 28.14C383.829 28.3267 384.24 28.56 384.763 28.84C385.285 29.1387 385.761 29.3253 386.191 29.4C386.676 29.512 387.189 29.568 387.731 29.568C388.272 29.568 388.795 29.4933 389.299 29.344L389.411 29.624Z" fill="#EC2127"/>
<path d="M401.055 21.084C401.055 21.8867 400.877 22.7453 400.523 23.66C400.168 24.556 399.599 25.3867 398.815 26.152C398.031 26.9173 397.023 27.5427 395.791 28.028C394.559 28.5133 393.215 28.756 391.759 28.756C390.303 28.756 388.996 28.5227 387.839 28.056C385.673 27.1973 384.264 25.6947 383.611 23.548C383.443 22.9693 383.359 22.428 383.359 21.924C383.359 20.3 383.853 18.7787 384.843 17.36L385.095 17.556C384.479 18.6573 384.171 19.7213 384.171 20.748C384.171 22.0173 384.488 23.1373 385.123 24.108C385.757 25.0787 386.607 25.8347 387.671 26.376C388.735 26.9173 389.817 27.188 390.919 27.188C392.039 27.188 392.981 27.0107 393.747 26.656C394.512 26.3013 395.072 25.8253 395.427 25.228C395.781 24.6307 395.959 24.0053 395.959 23.352C395.959 22.6987 395.725 22.036 395.259 21.364C394.792 20.6733 394.101 20.076 393.187 19.572L388.623 16.884C386.308 15.5213 385.151 13.7667 385.151 11.62C385.151 9.69733 385.823 8.21333 387.167 7.168C388.287 6.29067 389.808 5.852 391.731 5.852C392.963 5.852 394.531 5.94533 396.435 6.132H398.619L398.031 10.696H397.751C397.751 9.66933 397.349 8.83867 396.547 8.204C395.744 7.56933 394.717 7.252 393.467 7.252C392.216 7.252 391.255 7.46667 390.583 7.896C389.911 8.32533 389.547 8.89467 389.491 9.604C389.435 10.0893 389.565 10.5 389.883 10.836C390.163 11.1347 390.443 11.368 390.723 11.536C391.003 11.6853 391.255 11.8253 391.479 11.956C391.703 12.0867 391.861 12.1707 391.955 12.208L397.191 15.204C398.367 15.8573 399.281 16.6693 399.935 17.64C400.681 18.7413 401.055 19.8893 401.055 21.084Z" fill="#EC2127"/>
<path d="M168.508 47.896C167.892 48.256 167.264 48.436 166.624 48.436C165.984 48.436 165.376 48.316 164.8 48.076C164.232 47.836 163.672 47.416 163.12 46.816C162.576 46.224 162.128 45.5 161.776 44.644L161.452 43.852H158.884L158.404 44.968C158.364 45.072 158.344 45.156 158.344 45.22C158.344 45.284 158.356 45.356 158.38 45.436C158.412 45.508 158.472 45.576 158.56 45.64C158.656 45.696 158.756 45.724 158.86 45.724H158.968V45.844H156.292V45.724H156.4C156.584 45.724 156.764 45.672 156.94 45.568C157.124 45.456 157.276 45.292 157.396 45.076L159.844 39.7C159.604 39.036 159.404 38.592 159.244 38.368C159.092 38.136 158.964 37.96 158.86 37.84C158.668 37.616 158.428 37.452 158.14 37.348C158.028 37.308 157.896 37.288 157.744 37.288C157.592 37.288 157.42 37.324 157.228 37.396L157.204 37.276C157.844 36.9 158.456 36.712 159.04 36.712C159.904 36.712 160.684 37.136 161.38 37.984C161.732 38.424 162.048 38.956 162.328 39.58L164.248 43.984C164.6 44.792 164.86 45.336 165.028 45.616C165.196 45.888 165.344 46.12 165.472 46.312C165.608 46.512 165.74 46.684 165.868 46.828C165.996 46.972 166.136 47.112 166.288 47.248C166.552 47.488 166.884 47.668 167.284 47.788C167.452 47.844 167.636 47.872 167.836 47.872C168.044 47.872 168.26 47.84 168.484 47.776L168.508 47.896ZM159.148 43.252H161.212L160.456 41.392C160.392 41.248 160.316 41.044 160.228 40.78L159.148 43.252Z" fill="#EC2127"/>
<path d="M176.296 34.768C176.408 34.768 176.52 34.776 176.632 34.792V34.912C175.912 35 175.368 35.34 175 35.932C174.632 36.524 174.448 37.308 174.448 38.284V42.76C174.432 43.816 174.092 44.624 173.428 45.184C172.772 45.736 171.796 46.012 170.5 46.012C169.204 46.012 168.184 45.724 167.44 45.148C166.696 44.572 166.324 43.804 166.324 42.844C166.324 42.82 166.324 42.796 166.324 42.772V38.152C166.324 37.984 166.26 37.844 166.132 37.732C166.012 37.62 165.864 37.564 165.688 37.564H165.496V37.444H169.612V37.564H169.42C169.172 37.564 168.988 37.66 168.868 37.852C168.82 37.94 168.792 38.032 168.784 38.128V42.724C168.784 43.556 168.992 44.212 169.408 44.692C169.832 45.164 170.392 45.4 171.088 45.4C171.096 45.4 171.1 45.4 171.1 45.4C171.108 45.4 171.116 45.4 171.124 45.4C171.788 45.4 172.332 45.18 172.756 44.74C173.188 44.292 173.404 43.672 173.404 42.88V38.284C173.404 37.292 173.692 36.44 174.268 35.728C174.54 35.4 174.856 35.16 175.216 35.008C175.584 34.848 175.944 34.768 176.296 34.768Z" fill="#EC2127"/>
<path d="M175.679 40.516C175.191 40.084 174.947 39.62 174.947 39.124C174.947 38.66 175.135 38.268 175.511 37.948C175.911 37.604 176.431 37.432 177.071 37.432H183.203C183.451 37.432 183.719 37.408 184.007 37.36C184.295 37.312 184.499 37.264 184.619 37.216V39.688L184.499 39.676V39.592C184.499 38.944 184.259 38.488 183.779 38.224C183.547 38.104 183.271 38.04 182.951 38.032H181.775V44.98C181.783 45.188 181.859 45.364 182.003 45.508C182.155 45.652 182.335 45.724 182.543 45.724H182.699V45.844H178.391V45.724H178.547C178.755 45.724 178.931 45.652 179.075 45.508C179.227 45.364 179.307 45.192 179.315 44.992V38.032H177.071C176.623 38.032 176.251 38.14 175.955 38.356C175.611 38.604 175.439 38.916 175.439 39.292C175.439 39.66 175.563 40.048 175.811 40.456L175.679 40.516Z" fill="#EC2127"/>
<path d="M189.596 40.648C189.348 40.232 189.224 39.792 189.224 39.328C189.224 38.688 189.464 38.168 189.944 37.768C190.232 37.52 190.588 37.356 191.012 37.276C191.268 37.236 191.472 37.216 191.624 37.216C191.784 37.216 191.952 37.22 192.128 37.228C192.304 37.228 192.56 37.28 192.896 37.384C193.24 37.488 193.572 37.616 193.892 37.768C194.212 37.912 194.512 38.112 194.792 38.368C195.08 38.624 195.332 38.904 195.548 39.208C196.012 39.864 196.244 40.656 196.244 41.584C196.244 42.928 195.744 44.004 194.744 44.812C193.752 45.612 192.436 46.012 190.796 46.012C189.156 46.012 187.832 45.608 186.824 44.8C185.816 43.992 185.312 42.928 185.312 41.608C185.312 40.52 185.648 39.588 186.32 38.812C187 38.028 187.884 37.544 188.972 37.36L189.044 37.48C188.716 37.824 188.452 38.336 188.252 39.016C188.06 39.688 187.964 40.416 187.964 41.2C187.964 42.472 188.22 43.492 188.732 44.26C189.244 45.028 189.924 45.412 190.772 45.412C191.628 45.412 192.312 45.064 192.824 44.368C193.336 43.672 193.592 42.744 193.592 41.584C193.592 40.848 193.488 40.188 193.28 39.604C193.08 39.02 192.8 38.584 192.44 38.296C192.08 38.008 191.7 37.864 191.3 37.864C190.78 37.864 190.38 38.02 190.1 38.332C189.772 38.692 189.608 39.14 189.608 39.676C189.608 39.98 189.652 40.304 189.74 40.648H189.596Z" fill="#EC2127"/>
<path d="M195.293 36.892C195.861 36.588 196.417 36.436 196.961 36.436C197.513 36.436 198.017 36.552 198.473 36.784C199.385 37.256 200.165 38.028 200.813 39.1L202.961 42.592L206.525 37.276H206.633L207.989 44.296C208.261 45.736 208.665 46.736 209.201 47.296C209.625 47.736 210.165 47.956 210.821 47.956C210.877 47.956 210.937 47.956 211.001 47.956V48.076C210.505 48.284 209.989 48.388 209.453 48.388C208.389 48.388 207.465 47.972 206.681 47.14C206.025 46.452 205.565 45.48 205.301 44.224L204.749 41.692L202.697 44.74C202.561 44.932 202.441 45.164 202.337 45.436C202.233 45.708 202.185 45.94 202.193 46.132H202.085L199.169 41.14L198.569 45.172V45.22C198.569 45.348 198.613 45.468 198.701 45.58C198.797 45.684 198.909 45.736 199.037 45.736H199.217V45.844H196.589V45.724H196.781C196.997 45.724 197.185 45.66 197.345 45.532C197.513 45.396 197.617 45.216 197.657 44.992L198.485 39.844C198.077 39.132 197.625 38.5 197.129 37.948C196.561 37.324 195.993 37.012 195.425 37.012C195.393 37.012 195.361 37.012 195.329 37.012L195.293 36.892Z" fill="#EC2127"/>
<path d="M220.675 47.896C220.059 48.256 219.431 48.436 218.791 48.436C218.151 48.436 217.543 48.316 216.967 48.076C216.399 47.836 215.839 47.416 215.287 46.816C214.743 46.224 214.295 45.5 213.943 44.644L213.619 43.852H211.051L210.571 44.968C210.531 45.072 210.511 45.156 210.511 45.22C210.511 45.284 210.523 45.356 210.547 45.436C210.579 45.508 210.639 45.576 210.727 45.64C210.823 45.696 210.923 45.724 211.027 45.724H211.135V45.844H208.459V45.724H208.567C208.751 45.724 208.931 45.672 209.107 45.568C209.291 45.456 209.443 45.292 209.563 45.076L212.011 39.7C211.771 39.036 211.571 38.592 211.411 38.368C211.259 38.136 211.131 37.96 211.027 37.84C210.835 37.616 210.595 37.452 210.307 37.348C210.195 37.308 210.063 37.288 209.911 37.288C209.759 37.288 209.587 37.324 209.395 37.396L209.371 37.276C210.011 36.9 210.623 36.712 211.207 36.712C212.071 36.712 212.851 37.136 213.547 37.984C213.899 38.424 214.215 38.956 214.495 39.58L216.415 43.984C216.767 44.792 217.027 45.336 217.195 45.616C217.363 45.888 217.511 46.12 217.639 46.312C217.775 46.512 217.907 46.684 218.035 46.828C218.163 46.972 218.303 47.112 218.455 47.248C218.719 47.488 219.051 47.668 219.451 47.788C219.619 47.844 219.803 47.872 220.003 47.872C220.211 47.872 220.427 47.84 220.651 47.776L220.675 47.896ZM211.315 43.252H213.379L212.623 41.392C212.559 41.248 212.483 41.044 212.395 40.78L211.315 43.252Z" fill="#EC2127"/>
<path d="M216.494 40.516C216.006 40.084 215.762 39.62 215.762 39.124C215.762 38.66 215.95 38.268 216.326 37.948C216.726 37.604 217.246 37.432 217.886 37.432H224.018C224.266 37.432 224.534 37.408 224.822 37.36C225.11 37.312 225.314 37.264 225.434 37.216V39.688L225.314 39.676V39.592C225.314 38.944 225.074 38.488 224.594 38.224C224.362 38.104 224.086 38.04 223.766 38.032H222.59V44.98C222.598 45.188 222.674 45.364 222.818 45.508C222.97 45.652 223.15 45.724 223.358 45.724H223.514V45.844H219.206V45.724H219.362C219.57 45.724 219.746 45.652 219.89 45.508C220.042 45.364 220.122 45.192 220.13 44.992V38.032H217.886C217.438 38.032 217.066 38.14 216.77 38.356C216.426 38.604 216.254 38.916 216.254 39.292C216.254 39.66 216.378 40.048 216.626 40.456L216.494 40.516Z" fill="#EC2127"/>
<path d="M230.411 40.648C230.163 40.232 230.039 39.792 230.039 39.328C230.039 38.688 230.279 38.168 230.759 37.768C231.047 37.52 231.403 37.356 231.827 37.276C232.083 37.236 232.287 37.216 232.439 37.216C232.599 37.216 232.767 37.22 232.943 37.228C233.119 37.228 233.375 37.28 233.711 37.384C234.055 37.488 234.387 37.616 234.707 37.768C235.027 37.912 235.327 38.112 235.607 38.368C235.895 38.624 236.147 38.904 236.363 39.208C236.827 39.864 237.059 40.656 237.059 41.584C237.059 42.928 236.559 44.004 235.559 44.812C234.567 45.612 233.251 46.012 231.611 46.012C229.971 46.012 228.647 45.608 227.639 44.8C226.631 43.992 226.127 42.928 226.127 41.608C226.127 40.52 226.463 39.588 227.135 38.812C227.815 38.028 228.699 37.544 229.787 37.36L229.859 37.48C229.531 37.824 229.267 38.336 229.067 39.016C228.875 39.688 228.779 40.416 228.779 41.2C228.779 42.472 229.035 43.492 229.547 44.26C230.059 45.028 230.739 45.412 231.587 45.412C232.443 45.412 233.127 45.064 233.639 44.368C234.151 43.672 234.407 42.744 234.407 41.584C234.407 40.848 234.303 40.188 234.095 39.604C233.895 39.02 233.615 38.584 233.255 38.296C232.895 38.008 232.515 37.864 232.115 37.864C231.595 37.864 231.195 38.02 230.915 38.332C230.587 38.692 230.423 39.14 230.423 39.676C230.423 39.98 230.467 40.304 230.555 40.648H230.411Z" fill="#EC2127"/>
<path d="M246.187 39.796C246.187 40.228 246.067 40.628 245.827 40.996C245.595 41.356 245.311 41.612 244.975 41.764C244.639 41.908 244.307 41.98 243.979 41.98C243.883 41.98 243.791 41.976 243.703 41.968C244.207 42.072 244.667 42.384 245.083 42.904C245.275 43.136 245.491 43.436 245.731 43.804C245.971 44.164 246.139 44.412 246.235 44.548C246.715 45.236 247.195 45.796 247.675 46.228C248.699 47.156 250.015 47.668 251.623 47.764V47.884C251.183 48.196 250.631 48.42 249.967 48.556C249.575 48.636 249.183 48.676 248.791 48.676C248.407 48.676 247.999 48.62 247.567 48.508C247.135 48.396 246.711 48.228 246.295 48.004C245.879 47.78 245.455 47.456 245.023 47.032C244.599 46.608 244.251 46.176 243.979 45.736C243.707 45.288 243.471 44.864 243.271 44.464C243.071 44.056 242.879 43.656 242.695 43.264C242.519 42.872 242.411 42.632 242.371 42.544C242.139 42.064 241.931 41.796 241.747 41.74V41.62H241.939C242.459 41.62 242.887 41.416 243.223 41.008C243.415 40.776 243.527 40.536 243.559 40.288C243.591 40.032 243.607 39.868 243.607 39.796C243.607 39.196 243.431 38.76 243.079 38.488C242.727 38.208 242.327 38.068 241.879 38.068H241.351V44.968C241.351 45.176 241.427 45.356 241.579 45.508C241.731 45.652 241.911 45.724 242.119 45.724H242.263V45.844H237.955V45.724H238.111C238.319 45.724 238.495 45.652 238.639 45.508C238.791 45.364 238.871 45.188 238.879 44.98V38.32C238.871 38.024 238.743 37.804 238.495 37.66C238.375 37.596 238.247 37.564 238.111 37.564H237.967V37.444H242.647C243.839 37.444 244.743 37.652 245.359 38.068C245.911 38.444 246.187 39.02 246.187 39.796Z" fill="#EC2127"/>
</svg>
