<svg width="24" height="24" viewBox="0 0 24 24" fill="none" xmlns="http://www.w3.org/2000/svg">
<path d="M12 24C18.6274 24 24 18.6274 24 12C24 5.37258 18.6274 0 12 0C5.37258 0 0 5.37258 0 12C0 18.6274 5.37258 24 12 24Z" fill="#8C9EFF"/>
<path d="M17.4561 7.90776C17.4561 7.90776 15.8952 6.68433 14.0483 6.5437L13.8843 6.87651C15.553 7.28433 16.3171 7.87026 17.1186 8.58745C15.7405 7.88433 14.3765 7.22339 12.0046 7.22339C9.63271 7.22339 8.26865 7.88433 6.89053 8.58745C7.69209 7.87026 8.60146 7.2187 10.1249 6.87651L9.96084 6.5437C8.0249 6.72651 6.55303 7.90776 6.55303 7.90776C6.55303 7.90776 4.80928 10.439 4.50928 15.4078C6.26709 17.4374 8.93896 17.4515 8.93896 17.4515L9.49677 16.7062C8.5499 16.3781 7.47646 15.7874 6.55303 14.7234C7.65459 15.5578 9.32334 16.4296 12.0093 16.4296C14.6952 16.4296 16.3593 15.5624 17.4655 14.7234C16.5421 15.7874 15.4686 16.3781 14.5218 16.7062L15.0796 17.4515C15.0796 17.4515 17.7515 17.4374 19.5093 15.4078C19.1999 10.439 17.4561 7.90776 17.4561 7.90776ZM9.78271 14.0437C9.12177 14.0437 8.5874 13.4343 8.5874 12.6796C8.5874 11.925 9.12177 11.3156 9.78271 11.3156C10.4436 11.3156 10.978 11.925 10.978 12.6796C10.978 13.4343 10.4436 14.0437 9.78271 14.0437ZM14.2171 14.0437C13.5561 14.0437 13.0218 13.4343 13.0218 12.6796C13.0218 11.925 13.5561 11.3156 14.2171 11.3156C14.878 11.3156 15.4124 11.925 15.4124 12.6796C15.4124 13.4343 14.8733 14.0437 14.2171 14.0437Z" fill="white"/>
</svg>
