<svg width="25" height="24" viewBox="0 0 25 24" fill="none" xmlns="http://www.w3.org/2000/svg">
<g clip-path="url(#clip0_483_91)">
<path d="M12.4988 23.817C19.0333 23.817 24.3305 18.5198 24.3305 11.9853C24.3305 5.45086 19.0333 0.153625 12.4988 0.153625C5.96435 0.153625 0.667114 5.45086 0.667114 11.9853C0.667114 18.5198 5.96435 23.817 12.4988 23.817Z" fill="url(#paint0_linear_483_91)"/>
<path d="M16.6874 8.78379C17.195 8.78379 17.6065 8.37227 17.6065 7.86463C17.6065 7.35699 17.195 6.94547 16.6874 6.94547C16.1797 6.94547 15.7682 7.35699 15.7682 7.86463C15.7682 8.37227 16.1797 8.78379 16.6874 8.78379Z" fill="white"/>
<path d="M12.6009 8.12421C10.4719 8.12421 8.73975 9.85633 8.73975 11.9853C8.73975 14.1144 10.4719 15.8465 12.6009 15.8465C14.73 15.8465 16.462 14.1144 16.462 11.9853C16.462 9.85633 14.73 8.12421 12.6009 8.12421ZM12.6009 14.4587C11.2371 14.4587 10.1275 13.3492 10.1275 11.9853C10.1275 10.6215 11.2371 9.51203 12.6009 9.51203C13.9648 9.51203 15.0742 10.6215 15.0742 11.9853C15.0742 13.3492 13.9648 14.4587 12.6009 14.4587Z" fill="white"/>
<path d="M15.6662 19.8246H9.40662C6.80982 19.8246 4.69727 17.7121 4.69727 15.1153V8.85544C4.69727 6.25861 6.80982 4.14609 9.40662 4.14609H15.6662C18.263 4.14609 20.3758 6.25861 20.3758 8.85544V15.1153C20.3758 17.712 18.263 19.8246 15.6662 19.8246ZM9.40662 5.62109C7.62307 5.62109 6.17227 7.0719 6.17227 8.85544V15.1153C6.17227 16.8988 7.62307 18.3496 9.40662 18.3496H15.6662C17.4497 18.3496 18.9008 16.8988 18.9008 15.1153V8.85544C18.9008 7.0719 17.4497 5.62109 15.6662 5.62109H9.40662Z" fill="white"/>
</g>
<defs>
<linearGradient id="paint0_linear_483_91" x1="0.667114" y1="11.9853" x2="24.3305" y2="11.9853" gradientUnits="userSpaceOnUse">
<stop stop-color="#495057"/>
<stop offset="1" stop-color="#6C757D"/>
</linearGradient>
<clipPath id="clip0_483_91">
<rect width="24" height="24" fill="white" transform="translate(0.5)"/>
</clipPath>
</defs>
</svg>
