<svg width="25" height="24" fill="none" xmlns="http://www.w3.org/2000/svg"><g clip-path="url(#a)"><path d="M.683 11.999c0 6.534 5.297 11.832 11.832 11.832 6.534 0 11.831-5.298 11.831-11.832C24.346 5.464 19.05.167 12.515.167 5.98.167.683 5.464.683 12Z" fill="url(#b)"/><path d="M15.716 16.187a.92.92 0 1 0 1.839 0 .92.92 0 0 0-1.839 0ZM16.376 12.1a3.866 3.866 0 0 0-3.861-3.86 3.866 3.866 0 0 0-3.861 3.86 3.866 3.866 0 0 0 3.86 3.862 3.866 3.866 0 0 0 3.862-3.861Zm-6.335 0a2.476 2.476 0 0 1 2.474-2.473 2.476 2.476 0 0 1 2.473 2.474 2.476 2.476 0 0 1-2.473 2.473 2.476 2.476 0 0 1-2.474-2.473Z" fill="#fff"/><path d="M4.675 15.166v-6.26a4.715 4.715 0 0 1 4.71-4.709h6.26a4.715 4.715 0 0 1 4.709 4.71v6.26a4.715 4.715 0 0 1-4.71 4.709h-6.26a4.715 4.715 0 0 1-4.709-4.71Zm14.204-6.26a3.238 3.238 0 0 0-3.234-3.234h-6.26A3.238 3.238 0 0 0 6.15 8.907v6.26A3.238 3.238 0 0 0 9.385 18.4h6.26a3.238 3.238 0 0 0 3.234-3.235v-6.26Z" fill="#fff"/></g><defs><linearGradient id="b" x1="12.515" y1=".167" x2="12.515" y2="23.831" gradientUnits="userSpaceOnUse"><stop stop-color="#495057"/><stop offset="1" stop-color="#6C757D"/></linearGradient><clipPath id="a"><path fill="#fff" transform="rotate(90 12.25 12.25)" d="M0 0h24v24H0z"/></clipPath></defs></svg>