<svg width="25" height="24" fill="none" xmlns="http://www.w3.org/2000/svg"><g clip-path="url(#a)"><path d="M12.5 24c6.627 0 12-5.372 12-12 0-6.627-5.373-12-12-12S.5 5.373.5 12c0 6.628 5.373 12 12 12Z" fill="url(#b)"/><path d="M16.659 8.18a9.895 9.895 0 0 0-2.443-.758.037.037 0 0 0-.04.019 6.898 6.898 0 0 0-.304.625 9.135 9.135 0 0 0-2.743 0 6.34 6.34 0 0 0-.31-.625.039.039 0 0 0-.039-.019c-.843.146-1.664.4-2.442.758a.035.035 0 0 0-.016.014c-1.555 2.324-1.981 4.591-1.772 6.83a.042.042 0 0 0 .015.028 9.952 9.952 0 0 0 2.997 1.515.038.038 0 0 0 .042-.014c.231-.315.436-.649.613-.997a.037.037 0 0 0 .001-.031.038.038 0 0 0-.022-.022 6.558 6.558 0 0 1-.936-.445.038.038 0 0 1-.004-.064c.063-.047.126-.096.186-.146a.037.037 0 0 1 .039-.005c1.964.897 4.09.897 6.03 0a.037.037 0 0 1 .04.005c.06.049.123.099.187.146a.038.038 0 0 1-.003.064c-.3.174-.613.323-.937.445a.039.039 0 0 0-.025.038c0 .005.002.01.004.015.18.347.384.68.613.997a.038.038 0 0 0 .042.014 9.918 9.918 0 0 0 3-1.515.037.037 0 0 0 .016-.027c.25-2.589-.42-4.837-1.775-6.83a.03.03 0 0 0-.014-.015Zm-6.149 5.48c-.591 0-1.078-.542-1.078-1.209 0-.666.477-1.209 1.078-1.209.605 0 1.088.547 1.078 1.21 0 .666-.477 1.209-1.078 1.209Zm3.987 0c-.591 0-1.078-.542-1.078-1.209 0-.666.478-1.209 1.078-1.209.606 0 1.088.547 1.079 1.21 0 .666-.473 1.209-1.079 1.209Z" fill="#fff"/></g><defs><linearGradient id="b" x1=".5" y1="12" x2="24.5" y2="12" gradientUnits="userSpaceOnUse"><stop stop-color="#495057"/><stop offset="1" stop-color="#6C757D"/></linearGradient><clipPath id="a"><path fill="#fff" transform="translate(.5)" d="M0 0h24v24H0z"/></clipPath></defs></svg>