<svg width="25" height="24" fill="none" xmlns="http://www.w3.org/2000/svg"><g clip-path="url(#a)"><path d="M.5 12c0-6.627 5.373-12 12-12s12 5.373 12 12-5.373 12-12 12-12-5.373-12-12Z" fill="url(#b)"/><path d="M13.75 19.056v-6.529h1.803l.239-2.25H13.75l.003-1.126c0-.587.056-.9.898-.9h1.127V6h-1.802c-2.165 0-2.928 1.091-2.928 2.927v1.35H9.7v2.25h1.35v6.529h2.7Z" fill="#fff"/></g><defs><linearGradient id="b" x1=".5" y1="12" x2="24.5" y2="12" gradientUnits="userSpaceOnUse"><stop stop-color="#495057"/><stop offset="1" stop-color="#6C757D"/></linearGradient><clipPath id="a"><path fill="#fff" transform="translate(.5)" d="M0 0h24v24H0z"/></clipPath></defs></svg>