<svg width="76" height="78" viewBox="0 0 76 78" fill="none" xmlns="http://www.w3.org/2000/svg">
<path fill-rule="evenodd" clip-rule="evenodd" d="M76 0L69.0769 70.1924L37.9544 78L6.91611 70.2051L0 0H76Z" fill="#E44D26"/>
<path fill-rule="evenodd" clip-rule="evenodd" d="M37.9966 72.0332L63.1499 65.7236L69.0629 5.73828H37.9966V72.0332Z" fill="#F16529"/>
<path fill-rule="evenodd" clip-rule="evenodd" d="M24.5428 22.9595H38.0033V14.3521H14.1406L14.3651 16.6626L16.7008 40.3901H37.9893V31.7764H25.4126L24.5428 22.9595ZM26.6822 44.6938H17.1357L18.4685 58.2144L37.9612 63.1084L38.0033 63.0957V54.1392L37.9612 54.1519L27.3626 51.562L26.6822 44.6938Z" fill="#EBEBEB"/>
<path fill-rule="evenodd" clip-rule="evenodd" d="M37.9683 40.3901H49.6822L48.5809 51.5557L37.9683 54.1455V63.102L57.475 58.208L57.6153 56.7544L59.8529 34.0869L60.0844 31.7764H37.9683V40.3901ZM37.9683 22.9404V22.9595H60.9471L61.1365 21.0234L61.5714 16.6562L61.7959 14.3457H37.9683V22.9404Z" fill="white"/>
</svg>
