<svg width="116" height="121" viewBox="0 0 116 121" fill="none" xmlns="http://www.w3.org/2000/svg">
<g clip-path="url(#clip0_483_300)">
<path fill-rule="evenodd" clip-rule="evenodd" d="M0.350098 0.638428H115.35V120.325H0.350098V0.638428Z" fill="#F7DF1E"/>
<path fill-rule="evenodd" clip-rule="evenodd" d="M30.5881 100.66L39.3853 95.1175C41.0793 98.2538 42.6235 100.903 46.3295 100.903C49.8765 100.903 52.1226 99.4615 52.1226 93.8318V55.5823H62.9319V93.9876C62.9319 105.637 56.3714 110.935 46.7974 110.935C38.15 110.935 33.1337 106.28 30.5881 100.66ZM68.7998 99.4518L77.597 94.1532C79.918 98.0882 82.9221 100.981 88.2472 100.981C92.7207 100.981 95.5845 98.6531 95.5845 95.4389C95.5845 91.5818 92.6552 90.2182 87.7138 87.9682L85.0091 86.7604C77.2133 83.3027 72.0379 78.9683 72.0379 69.8126C72.0379 61.3777 78.2147 54.9492 87.8635 54.9492C94.7328 54.9492 99.6742 57.4427 103.221 63.9491L94.8077 69.5691C92.9547 66.1114 90.9519 64.7478 87.8635 64.7478C84.7003 64.7478 82.6882 66.8322 82.6882 69.5691C82.6882 72.9392 84.6909 74.3126 89.3235 76.397L92.0282 77.6047C101.218 81.7053 106.384 85.8838 106.384 95.283C106.384 105.403 98.7384 110.945 88.4718 110.945C78.4487 110.945 71.9631 105.958 68.7998 99.4518Z" fill="black"/>
</g>
<defs>
<clipPath id="clip0_483_300">
<rect width="115" height="119.687" fill="white" transform="translate(0.350098 0.638428)"/>
</clipPath>
</defs>
</svg>
