<svg width="77" height="39" viewBox="0 0 77 39" fill="none" xmlns="http://www.w3.org/2000/svg">
<path fill-rule="evenodd" clip-rule="evenodd" d="M38.5 39C59.7615 39 77 30.2693 77 19.4969C77 8.73069 59.7615 0 38.5 0C17.2385 0 0 8.73069 0 19.5031C0 30.2693 17.2385 39 38.5 39ZM58.8278 15.6514C58.5333 15.3257 57.7563 15.1628 56.4905 15.1628H54.5793L53.4576 20.9186H54.5542C55.325 20.9186 55.9766 20.8497 56.5218 20.7119C56.998 20.5929 57.3803 20.4238 57.6685 20.2046C57.9505 19.9916 58.1886 19.691 58.3892 19.3027C58.6147 18.8706 58.7965 18.3319 58.9218 17.6868C59.0409 17.0856 59.0722 16.5908 59.0221 16.1962C58.9907 15.9395 58.9281 15.7578 58.8278 15.6514ZM34.1888 4.29645H38.4561C39.1454 4.29645 39.7094 4.86013 39.7094 5.54906C39.7094 5.65553 39.6969 5.762 39.6718 5.86221L38.9574 9.53862H41.2384C42.5355 9.53862 43.6446 9.65762 44.572 9.88935C45.5997 10.1524 46.4206 10.5595 47.0347 11.1232C47.5673 11.6117 47.9433 12.2129 48.1689 12.9269L48.6138 10.6284C48.6952 10.0146 49.2216 9.53862 49.8545 9.53862H58.126C59.5046 9.53862 60.7202 9.72651 61.773 10.1086C62.8821 10.5094 63.797 11.1169 64.5113 11.9311C65.2319 12.7578 65.7019 13.7349 65.915 14.8685C66.1155 15.9395 66.0904 17.1294 65.8335 18.4509C65.727 18.9833 65.5828 19.5094 65.4011 20.023C65.2194 20.5303 65.0001 21.0125 64.7432 21.4697C64.48 21.9332 64.1855 22.3779 63.8596 22.785C63.5275 23.1983 63.1578 23.5992 62.7505 23.9687C62.2555 24.4322 61.7354 24.8267 61.1902 25.1524C60.6262 25.4906 60.0435 25.7537 59.4356 25.9541C58.8466 26.1482 58.1698 26.2923 57.4179 26.3862C56.6722 26.4802 55.8764 26.5303 55.0367 26.5303H52.3861L51.5589 30.6889C51.4775 31.3027 50.9511 31.7787 50.3182 31.7787H46.0195C45.9443 31.7787 45.8629 31.7724 45.7814 31.7537C45.1047 31.6221 44.6598 30.9708 44.7851 30.2881L45.5245 26.4864C45.4242 26.5115 45.3177 26.524 45.2112 26.524H40.8749C40.1856 26.524 39.6217 25.9603 39.6217 25.2714C39.6217 25.1649 39.6342 25.0585 39.6593 24.9582L41.3386 16.309C41.4138 15.9269 41.4389 15.6326 41.4138 15.4196C41.4076 15.357 41.4577 15.3883 41.4389 15.3633L41.2634 15.3194C41.0128 15.2568 40.6619 15.2255 40.2107 15.2255H37.8295L35.8431 25.5157C35.7303 26.1169 35.2039 26.5303 34.6149 26.5303H30.3476C29.6583 26.5303 29.0943 25.9666 29.0943 25.2777C29.0943 25.1712 29.1069 25.0647 29.1319 24.9645L29.3575 23.7933L29.1695 23.9687C28.6745 24.4322 28.1544 24.8267 27.6092 25.1524C27.0452 25.4906 26.4625 25.7537 25.8547 25.9541C25.2656 26.1482 24.5889 26.2923 23.8369 26.3862C23.0912 26.4802 22.2954 26.5303 21.4557 26.5303H18.7988L17.9905 30.6889C17.909 31.3027 17.3826 31.7787 16.7498 31.7787H12.4511C12.3759 31.7787 12.2944 31.7724 12.213 31.7537C11.5362 31.6221 11.0913 30.9708 11.2166 30.2881L15.0391 10.6284C15.1205 10.0146 15.6469 9.53862 16.2798 9.53862H24.5513C25.9299 9.53862 27.1455 9.72651 28.1982 10.1086C29.3136 10.5094 30.2222 11.1169 30.9366 11.9311C31.1497 12.1754 31.3439 12.4384 31.5194 12.714L32.9606 5.31733C33.0734 4.71608 33.5998 4.29645 34.1888 4.29645ZM25.2656 15.6514C24.9711 15.3257 24.1941 15.1628 22.9283 15.1628H21.0108L19.8892 20.9186H20.9858C21.7565 20.9186 22.4082 20.8497 22.9534 20.7119C23.4296 20.5929 23.8118 20.4238 24.1001 20.2046C24.3821 19.9916 24.6202 19.691 24.8207 19.3027C25.0463 18.8706 25.228 18.3319 25.3534 17.6868C25.4724 17.0856 25.5037 16.5908 25.4536 16.1962C25.4223 15.9395 25.3596 15.7578 25.2656 15.6514Z" fill="#6884BA"/>
<path fill-rule="evenodd" clip-rule="evenodd" d="M56.4906 13.9102C58.1261 13.9102 59.2164 14.2109 59.7553 14.8121C60.3005 15.4134 60.4258 16.4468 60.1438 17.9186C59.8493 19.4468 59.2728 20.5365 58.4268 21.1879C57.5809 21.8393 56.2838 22.1649 54.5543 22.1649H51.9412L53.5454 13.904H56.4906V13.9102ZM34.1889 5.54907H38.4562L37.4348 10.7975H41.2384C43.6322 10.7975 45.2802 11.2171 46.1888 12.0501C47.0974 12.8831 47.3669 14.2359 47.0034 16.1023L45.2175 25.2839H40.8813L42.5794 16.5532C42.7737 15.5574 42.6985 14.881 42.3664 14.524C42.028 14.1608 41.3199 13.9791 40.2233 13.9791H36.8145L34.615 25.2839H30.3477L34.1889 5.54907ZM22.9284 13.9102C24.5639 13.9102 25.6542 14.2109 26.1931 14.8121C26.7383 15.4134 26.8699 16.4468 26.5816 17.9186C26.2871 19.4468 25.7106 20.5365 24.8647 21.1879C24.0187 21.8393 22.7216 22.1649 20.9921 22.1649H18.3791L19.9832 13.904H22.9284V13.9102ZM12.4512 30.5261H16.7498L17.7712 25.2777H21.4558C23.0788 25.2777 24.4198 25.1086 25.4662 24.7641C26.519 24.4259 27.4714 23.8497 28.3299 23.048C29.0505 22.3841 29.6333 21.6576 30.0782 20.856C30.5231 20.0606 30.8427 19.1775 31.0307 18.213C31.4881 15.8768 31.1435 14.0543 30.003 12.7453C28.8625 11.4426 27.0453 10.785 24.5576 10.785H16.2861L12.4512 30.5261ZM46.0133 30.5261H50.312L51.3334 25.2777H55.018C56.641 25.2777 57.9819 25.1086 59.0284 24.7641C60.0811 24.4259 61.0336 23.8497 61.8921 23.048C62.6127 22.3841 63.1955 21.6576 63.6404 20.856C64.0853 20.0606 64.4049 19.1775 64.5929 18.213C65.0503 15.8768 64.7056 14.0543 63.5652 12.7453C62.4247 11.4426 60.6075 10.785 58.1198 10.785H49.8483L46.0133 30.5261Z" fill="black"/>
</svg>
