<svg width="75" height="78" viewBox="0 0 75 78" fill="none" xmlns="http://www.w3.org/2000/svg">
<path fill-rule="evenodd" clip-rule="evenodd" d="M0 0H75V78H0V0Z" fill="#F7DF1E"/>
<path fill-rule="evenodd" clip-rule="evenodd" d="M19.7207 65.1841L25.458 61.5723C26.5627 63.6162 27.5698 65.3428 29.9868 65.3428C32.3 65.3428 33.7649 64.4033 33.7649 60.7344V35.8071H40.8145V60.8359C40.8145 68.4277 36.5359 71.8809 30.292 71.8809C24.6523 71.8809 21.3809 68.8467 19.7207 65.1841ZM44.6414 64.397L50.3787 60.9439C51.8923 63.5083 53.8516 65.3936 57.3245 65.3936C60.2419 65.3936 62.1096 63.8765 62.1096 61.7817C62.1096 59.2681 60.1992 58.3794 56.9766 56.9131L55.2126 56.126C50.1284 53.8726 46.7532 51.0479 46.7532 45.0811C46.7532 39.584 50.7815 35.3945 57.0742 35.3945C61.5542 35.3945 64.7769 37.0195 67.0901 41.2598L61.603 44.9224C60.3945 42.6689 59.0884 41.7803 57.0742 41.7803C55.0112 41.7803 53.699 43.1387 53.699 44.9224C53.699 47.1187 55.0051 48.0137 58.0264 49.3721L59.7903 50.1592C65.7839 52.8315 69.1531 55.5547 69.1531 61.6802C69.1531 68.2754 64.1665 71.8872 57.4709 71.8872C50.9341 71.8872 46.7043 68.6372 44.6414 64.397Z" fill="black"/>
</svg>
