<svg width="124" height="64" viewBox="0 0 124 64" fill="none" xmlns="http://www.w3.org/2000/svg">
<g clip-path="url(#clip0_483_294)">
<path fill-rule="evenodd" clip-rule="evenodd" d="M61.7901 63.4408C95.7201 63.4408 123.23 49.4204 123.23 32.1211C123.23 14.8319 95.7201 0.811523 61.7901 0.811523C27.8601 0.811523 0.350098 14.8319 0.350098 32.1312C0.350098 49.4204 27.8601 63.4408 61.7901 63.4408ZM94.2301 25.9457C93.7601 25.4227 92.5201 25.1612 90.5001 25.1612H87.4501L85.6601 34.4042H87.4101C88.6401 34.4042 89.6801 34.2936 90.5501 34.0723C91.3101 33.8812 91.9201 33.6097 92.3801 33.2576C92.8301 32.9157 93.2101 32.4329 93.5301 31.8093C93.8901 31.1154 94.1801 30.2504 94.3801 29.2144C94.5701 28.2489 94.6201 27.4544 94.5401 26.8207C94.4901 26.4084 94.3901 26.1167 94.2301 25.9457ZM54.9101 7.7111H61.7201C62.8201 7.7111 63.7201 8.61629 63.7201 9.72264C63.7201 9.89362 63.7001 10.0646 63.6601 10.2255L62.5201 16.1294H66.1601C68.2301 16.1294 70.0001 16.3205 71.4801 16.6926C73.1201 17.115 74.4301 17.7688 75.4101 18.674C76.2601 19.4585 76.8601 20.424 77.2201 21.5706L77.9301 17.8794C78.0601 16.8938 78.9001 16.1294 79.9101 16.1294H93.1101C95.3101 16.1294 97.2501 16.4311 98.9301 17.0446C100.7 17.6883 102.16 18.6639 103.3 19.9714C104.45 21.299 105.2 22.868 105.54 24.6885C105.86 26.4084 105.82 28.3193 105.41 30.4415C105.24 31.2964 105.01 32.1412 104.72 32.966C104.43 33.7806 104.08 34.5551 103.67 35.2893C103.25 36.0336 102.78 36.7477 102.26 37.4014C101.73 38.0652 101.14 38.7089 100.49 39.3023C99.7001 40.0466 98.8701 40.6802 98.0001 41.2032C97.1001 41.7463 96.1701 42.1688 95.2001 42.4906C94.2601 42.8024 93.1801 43.0337 91.9801 43.1846C90.7901 43.3354 89.5201 43.4159 88.1801 43.4159H83.9501L82.6301 50.0942C82.5001 51.0799 81.6601 51.8443 80.6501 51.8443H73.7901C73.6701 51.8443 73.5401 51.8342 73.4101 51.804C72.3301 51.5928 71.6201 50.5468 71.8201 49.4505L73.0001 43.3455C72.8401 43.3857 72.6701 43.4058 72.5001 43.4058H65.5801C64.4801 43.4058 63.5801 42.5007 63.5801 41.3943C63.5801 41.2233 63.6001 41.0523 63.6401 40.8914L66.3201 27.0018C66.4401 26.3882 66.4801 25.9155 66.4401 25.5736C66.4301 25.473 66.5101 25.5233 66.4801 25.483L66.2001 25.4126C65.8001 25.3121 65.2401 25.2618 64.5201 25.2618H60.7201L57.5501 41.7866C57.3701 42.7521 56.5301 43.4159 55.5901 43.4159H48.7801C47.6801 43.4159 46.7801 42.5107 46.7801 41.4044C46.7801 41.2334 46.8001 41.0624 46.8401 40.9015L47.2001 39.0207L46.9001 39.3023C46.1101 40.0466 45.2801 40.6802 44.4101 41.2032C43.5101 41.7463 42.5801 42.1688 41.6101 42.4906C40.6701 42.8024 39.5901 43.0337 38.3901 43.1846C37.2001 43.3354 35.9301 43.4159 34.5901 43.4159H30.3501L29.0601 50.0942C28.9301 51.0799 28.0901 51.8443 27.0801 51.8443H20.2201C20.1001 51.8443 19.9701 51.8342 19.8401 51.804C18.7601 51.5928 18.0501 50.5468 18.2501 49.4505L24.3501 17.8794C24.4801 16.8938 25.3201 16.1294 26.3301 16.1294H39.5301C41.7301 16.1294 43.6701 16.4311 45.3501 17.0446C47.1301 17.6883 48.5801 18.6639 49.7201 19.9714C50.0601 20.3637 50.3701 20.7861 50.6501 21.2286L52.9501 9.3505C53.1301 8.38497 53.9701 7.7111 54.9101 7.7111ZM40.6701 25.9457C40.2001 25.4227 38.9601 25.1612 36.9401 25.1612H33.8801L32.0901 34.4042H33.8401C35.0701 34.4042 36.1101 34.2936 36.9801 34.0723C37.7401 33.8812 38.3501 33.6097 38.8101 33.2576C39.2601 32.9157 39.6401 32.4329 39.9601 31.8093C40.3201 31.1154 40.6101 30.2504 40.8101 29.2144C41.0001 28.2489 41.0501 27.4544 40.9701 26.8207C40.9201 26.4084 40.8201 26.1167 40.6701 25.9457Z" fill="#6884BA"/>
<path fill-rule="evenodd" clip-rule="evenodd" d="M90.5002 23.1497C93.1102 23.1497 94.8502 23.6324 95.7102 24.598C96.5802 25.5635 96.7802 27.223 96.3302 29.5866C95.8602 32.0407 94.9402 33.7907 93.5902 34.8367C92.2402 35.8827 90.1702 36.4057 87.4102 36.4057H83.2402L85.8002 23.1396H90.5002V23.1497ZM54.9102 9.72266H61.7202L60.0902 18.151H66.1602C69.9802 18.151 72.6102 18.8249 74.0602 20.1625C75.5102 21.5002 75.9402 23.6727 75.3602 26.6699L72.5102 41.4144H65.5902L68.3002 27.394C68.6102 25.7948 68.4902 24.7086 67.9602 24.1353C67.4202 23.552 66.2902 23.2603 64.5402 23.2603H59.1002L55.5902 41.4144H48.7802L54.9102 9.72266ZM36.9402 23.1497C39.5502 23.1497 41.2902 23.6324 42.1502 24.598C43.0202 25.5635 43.2302 27.223 42.7702 29.5866C42.3002 32.0407 41.3802 33.7907 40.0302 34.8367C38.6802 35.8827 36.6102 36.4057 33.8502 36.4057H29.6802L32.2402 23.1396H36.9402V23.1497ZM20.2202 49.8327H27.0802L28.7102 41.4044H34.5902C37.1802 41.4044 39.3202 41.1328 40.9902 40.5797C42.6702 40.0365 44.1902 39.1112 45.5602 37.8238C46.7102 36.7577 47.6402 35.591 48.3502 34.3037C49.0602 33.0263 49.5702 31.6082 49.8702 30.0593C50.6002 26.3078 50.0502 23.381 48.2302 21.2789C46.4102 19.1869 43.5102 18.1309 39.5402 18.1309H26.3402L20.2202 49.8327ZM73.7802 49.8327H80.6402L82.2702 41.4044H88.1502C90.7402 41.4044 92.8802 41.1328 94.5502 40.5797C96.2302 40.0365 97.7502 39.1112 99.1202 37.8238C100.27 36.7577 101.2 35.591 101.91 34.3037C102.62 33.0263 103.13 31.6082 103.43 30.0593C104.16 26.3078 103.61 23.381 101.79 21.2789C99.9702 19.1869 97.0702 18.1309 93.1002 18.1309H79.9002L73.7802 49.8327Z" fill="black"/>
</g>
<defs>
<clipPath id="clip0_483_294">
<rect width="122.88" height="62.6292" fill="white" transform="translate(0.350098 0.811523)"/>
</clipPath>
</defs>
</svg>
