<svg width="109" height="125" viewBox="0 0 109 125" fill="none" xmlns="http://www.w3.org/2000/svg">
<g clip-path="url(#clip0_483_311)">
<path fill-rule="evenodd" clip-rule="evenodd" d="M108.35 0.638428L98.48 111.856L54.11 124.227L9.86 111.877L0 0.638428H108.35Z" fill="#E44D26"/>
<path fill-rule="evenodd" clip-rule="evenodd" d="M54.1699 114.773L90.0299 104.776L98.4599 9.73047H54.1699V114.773Z" fill="#F16529"/>
<path fill-rule="evenodd" clip-rule="evenodd" d="M34.9899 37.0171H54.1799V23.3789H20.1599L20.4799 27.0399L23.8099 64.6356H54.1599V50.9873H36.2299L34.9899 37.0171ZM38.0399 71.4547H24.4299L26.3299 92.8776L54.1199 100.632L54.1799 100.612V86.4205L54.1199 86.4406L39.0099 82.3371L38.0399 71.4547Z" fill="#EBEBEB"/>
<path fill-rule="evenodd" clip-rule="evenodd" d="M54.1299 64.6356H70.8299L69.2599 82.3271L54.1299 86.4306V100.622L81.9399 92.8675L82.1399 90.5643L85.3299 54.6483L85.6599 50.9873H54.1299V64.6356ZM54.1299 36.987V37.0172H86.8899L87.1599 33.9496L87.7799 27.0299L88.0999 23.3689H54.1299V36.987Z" fill="white"/>
</g>
<defs>
<clipPath id="clip0_483_311">
<rect width="108.35" height="123.589" fill="white" transform="translate(0 0.638428)"/>
</clipPath>
</defs>
</svg>
